%TF.GenerationSoftware,KiCad,Pcbnew,7.0.11*%
%TF.CreationDate,2024-11-21T01:14:29-06:00*%
%TF.ProjectId,Sardinia_v0.2,53617264-696e-4696-915f-76302e322e6b,rev?*%
%TF.SameCoordinates,Original*%
%TF.FileFunction,Drillmap*%
%TF.FilePolarity,Positive*%
%FSLAX45Y45*%
G04 Gerber Fmt 4.5, Leading zero omitted, Abs format (unit mm)*
G04 Created by KiCad (PCBNEW 7.0.11) date 2024-11-21 01:14:29*
%MOMM*%
%LPD*%
G01*
G04 APERTURE LIST*
%ADD10C,0.038100*%
%ADD11C,0.200000*%
%ADD12C,0.100000*%
%ADD13C,0.110000*%
%ADD14C,0.120000*%
%ADD15C,0.140000*%
%ADD16C,0.150000*%
%ADD17C,0.300000*%
G04 APERTURE END LIST*
D10*
X27940000Y-15875000D02*
X3810000Y-15875000D01*
X27940000Y-1905000D02*
X27940000Y-15875000D01*
X3810000Y-15875000D02*
X3810000Y-1905000D01*
X3810000Y-1905000D02*
X27940000Y-1905000D01*
D11*
D12*
X3985000Y-5935000D02*
X4015000Y-5965000D01*
X4015000Y-5935000D02*
X3985000Y-5965000D01*
X4022735Y-5822735D02*
X4052735Y-5852735D01*
X4052735Y-5822735D02*
X4022735Y-5852735D01*
X4235000Y-5985000D02*
X4265000Y-6015000D01*
X4265000Y-5985000D02*
X4235000Y-6015000D01*
X4785000Y-5735000D02*
X4815000Y-5765000D01*
X4815000Y-5735000D02*
X4785000Y-5765000D01*
X4885000Y-5735000D02*
X4915000Y-5765000D01*
X4915000Y-5735000D02*
X4885000Y-5765000D01*
X4885000Y-15635000D02*
X4915000Y-15665000D01*
X4915000Y-15635000D02*
X4885000Y-15665000D01*
X5135000Y-5782300D02*
X5165000Y-5812300D01*
X5165000Y-5782300D02*
X5135000Y-5812300D01*
X5285000Y-5582300D02*
X5315000Y-5612300D01*
X5315000Y-5582300D02*
X5285000Y-5612300D01*
X5385000Y-5835000D02*
X5415000Y-5865000D01*
X5415000Y-5835000D02*
X5385000Y-5865000D01*
X5535000Y-5716900D02*
X5565000Y-5746900D01*
X5565000Y-5716900D02*
X5535000Y-5746900D01*
X5585000Y-2635000D02*
X5615000Y-2665000D01*
X5615000Y-2635000D02*
X5585000Y-2665000D01*
X5635000Y-5716900D02*
X5665000Y-5746900D01*
X5665000Y-5716900D02*
X5635000Y-5746900D01*
X6585000Y-6185000D02*
X6615000Y-6215000D01*
X6615000Y-6185000D02*
X6585000Y-6215000D01*
X6785000Y-6235000D02*
X6815000Y-6265000D01*
X6815000Y-6235000D02*
X6785000Y-6265000D01*
X6785000Y-15585000D02*
X6815000Y-15615000D01*
X6815000Y-15585000D02*
X6785000Y-15615000D01*
X6985000Y-7335000D02*
X7015000Y-7365000D01*
X7015000Y-7335000D02*
X6985000Y-7365000D01*
X7735000Y-15336301D02*
X7765000Y-15366301D01*
X7765000Y-15336301D02*
X7735000Y-15366301D01*
X7783593Y-13136407D02*
X7813593Y-13166407D01*
X7813593Y-13136407D02*
X7783593Y-13166407D01*
X7832300Y-10035000D02*
X7862300Y-10065000D01*
X7862300Y-10035000D02*
X7832300Y-10065000D01*
X7834925Y-15287705D02*
X7864925Y-15317705D01*
X7864925Y-15287705D02*
X7834925Y-15317705D01*
X7835000Y-13085000D02*
X7865000Y-13115000D01*
X7865000Y-13085000D02*
X7835000Y-13115000D01*
X7885000Y-10235000D02*
X7915000Y-10265000D01*
X7915000Y-10235000D02*
X7885000Y-10265000D01*
X7885000Y-15235000D02*
X7915000Y-15265000D01*
X7915000Y-15235000D02*
X7885000Y-15265000D01*
X7932300Y-12985000D02*
X7962300Y-13015000D01*
X7962300Y-12985000D02*
X7932300Y-13015000D01*
X7985000Y-7335000D02*
X8015000Y-7365000D01*
X8015000Y-7335000D02*
X7985000Y-7365000D01*
X7985000Y-13170400D02*
X8015000Y-13200400D01*
X8015000Y-13170400D02*
X7985000Y-13200400D01*
X8035000Y-7885000D02*
X8065000Y-7915000D01*
X8065000Y-7885000D02*
X8035000Y-7915000D01*
X8085000Y-2685000D02*
X8115000Y-2715000D01*
X8115000Y-2685000D02*
X8085000Y-2715000D01*
X8094684Y-7275316D02*
X8124684Y-7305316D01*
X8124684Y-7275316D02*
X8094684Y-7305316D01*
X8235000Y-7185000D02*
X8265000Y-7215000D01*
X8265000Y-7185000D02*
X8235000Y-7215000D01*
X8235000Y-15435000D02*
X8265000Y-15465000D01*
X8265000Y-15435000D02*
X8235000Y-15465000D01*
X8285000Y-10185000D02*
X8315000Y-10215000D01*
X8315000Y-10185000D02*
X8285000Y-10215000D01*
X8285000Y-12485000D02*
X8315000Y-12515000D01*
X8315000Y-12485000D02*
X8285000Y-12515000D01*
X8285000Y-15135000D02*
X8315000Y-15165000D01*
X8315000Y-15135000D02*
X8285000Y-15165000D01*
X8335000Y-10435000D02*
X8365000Y-10465000D01*
X8365000Y-10435000D02*
X8335000Y-10465000D01*
X8335000Y-12735000D02*
X8365000Y-12765000D01*
X8365000Y-12735000D02*
X8335000Y-12765000D01*
X8335000Y-14435000D02*
X8365000Y-14465000D01*
X8365000Y-14435000D02*
X8335000Y-14465000D01*
X8385000Y-8885000D02*
X8415000Y-8915000D01*
X8415000Y-8885000D02*
X8385000Y-8915000D01*
X8385000Y-9982300D02*
X8415000Y-10012300D01*
X8415000Y-9982300D02*
X8385000Y-10012300D01*
X8387700Y-15435000D02*
X8417700Y-15465000D01*
X8417700Y-15435000D02*
X8387700Y-15465000D01*
X8407700Y-14435000D02*
X8437700Y-14465000D01*
X8437700Y-14435000D02*
X8407700Y-14465000D01*
X8485000Y-7252450D02*
X8515000Y-7282450D01*
X8515000Y-7252450D02*
X8485000Y-7282450D01*
X8485000Y-13635000D02*
X8515000Y-13665000D01*
X8515000Y-13635000D02*
X8485000Y-13665000D01*
X8485000Y-15540400D02*
X8515000Y-15570400D01*
X8515000Y-15540400D02*
X8485000Y-15570400D01*
X8635000Y-2235000D02*
X8665000Y-2265000D01*
X8665000Y-2235000D02*
X8635000Y-2265000D01*
X8735000Y-7285000D02*
X8765000Y-7315000D01*
X8765000Y-7285000D02*
X8735000Y-7315000D01*
X9035000Y-15435000D02*
X9065000Y-15465000D01*
X9065000Y-15435000D02*
X9035000Y-15465000D01*
X9085000Y-11735000D02*
X9115000Y-11765000D01*
X9115000Y-11735000D02*
X9085000Y-11765000D01*
X9085000Y-13203100D02*
X9115000Y-13233100D01*
X9115000Y-13203100D02*
X9085000Y-13233100D01*
X9135000Y-9385000D02*
X9165000Y-9415000D01*
X9165000Y-9385000D02*
X9135000Y-9415000D01*
X9135000Y-9935000D02*
X9165000Y-9965000D01*
X9165000Y-9935000D02*
X9135000Y-9965000D01*
X9135000Y-14135000D02*
X9165000Y-14165000D01*
X9165000Y-14135000D02*
X9135000Y-14165000D01*
X9135000Y-15535000D02*
X9165000Y-15565000D01*
X9165000Y-15535000D02*
X9135000Y-15565000D01*
X9185000Y-11235000D02*
X9215000Y-11265000D01*
X9215000Y-11235000D02*
X9185000Y-11265000D01*
X9185000Y-13203100D02*
X9215000Y-13233100D01*
X9215000Y-13203100D02*
X9185000Y-13233100D01*
X9229600Y-9982187D02*
X9259600Y-10012187D01*
X9259600Y-9982187D02*
X9229600Y-10012187D01*
X9235000Y-8885000D02*
X9265000Y-8915000D01*
X9265000Y-8885000D02*
X9235000Y-8915000D01*
X9282300Y-9635000D02*
X9312300Y-9665000D01*
X9312300Y-9635000D02*
X9282300Y-9665000D01*
X9282300Y-10035000D02*
X9312300Y-10065000D01*
X9312300Y-10035000D02*
X9282300Y-10065000D01*
X9285000Y-11985000D02*
X9315000Y-12015000D01*
X9315000Y-11985000D02*
X9285000Y-12015000D01*
X9285000Y-13203100D02*
X9315000Y-13233100D01*
X9315000Y-13203100D02*
X9285000Y-13233100D01*
X9335000Y-8635000D02*
X9365000Y-8665000D01*
X9365000Y-8635000D02*
X9335000Y-8665000D01*
X9335000Y-10102900D02*
X9365000Y-10132900D01*
X9365000Y-10102900D02*
X9335000Y-10132900D01*
X9385000Y-10985000D02*
X9415000Y-11015000D01*
X9415000Y-10985000D02*
X9385000Y-11015000D01*
X9385000Y-13203100D02*
X9415000Y-13233100D01*
X9415000Y-13203100D02*
X9385000Y-13233100D01*
X10035000Y-13685000D02*
X10065000Y-13715000D01*
X10065000Y-13685000D02*
X10035000Y-13715000D01*
X10035000Y-14485000D02*
X10065000Y-14515000D01*
X10065000Y-14485000D02*
X10035000Y-14515000D01*
X10085000Y-5885000D02*
X10115000Y-5915000D01*
X10115000Y-5885000D02*
X10085000Y-5915000D01*
X10585000Y-8585000D02*
X10615000Y-8615000D01*
X10615000Y-8585000D02*
X10585000Y-8615000D01*
X10585000Y-12285000D02*
X10615000Y-12315000D01*
X10615000Y-12285000D02*
X10585000Y-12315000D01*
X11085000Y-10435000D02*
X11115000Y-10465000D01*
X11115000Y-10435000D02*
X11085000Y-10465000D01*
X11085000Y-14185000D02*
X11115000Y-14215000D01*
X11115000Y-14185000D02*
X11085000Y-14215000D01*
X11635000Y-5285000D02*
X11665000Y-5315000D01*
X11665000Y-5285000D02*
X11635000Y-5315000D01*
X11635000Y-6135000D02*
X11665000Y-6165000D01*
X11665000Y-6135000D02*
X11635000Y-6165000D01*
X11735000Y-5385000D02*
X11765000Y-5415000D01*
X11765000Y-5385000D02*
X11735000Y-5415000D01*
X11735000Y-6235000D02*
X11765000Y-6265000D01*
X11765000Y-6235000D02*
X11735000Y-6265000D01*
X12385000Y-3935000D02*
X12415000Y-3965000D01*
X12415000Y-3935000D02*
X12385000Y-3965000D01*
X12385000Y-5885000D02*
X12415000Y-5915000D01*
X12415000Y-5885000D02*
X12385000Y-5915000D01*
X12735000Y-8585000D02*
X12765000Y-8615000D01*
X12765000Y-8585000D02*
X12735000Y-8615000D01*
X12735000Y-12285000D02*
X12765000Y-12315000D01*
X12765000Y-12285000D02*
X12735000Y-12315000D01*
X13185000Y-10435000D02*
X13215000Y-10465000D01*
X13215000Y-10435000D02*
X13185000Y-10465000D01*
X13235000Y-14185000D02*
X13265000Y-14215000D01*
X13265000Y-14185000D02*
X13235000Y-14215000D01*
X14385000Y-5885000D02*
X14415000Y-5915000D01*
X14415000Y-5885000D02*
X14385000Y-5915000D01*
X14635000Y-2385000D02*
X14665000Y-2415000D01*
X14665000Y-2385000D02*
X14635000Y-2415000D01*
X14885000Y-8585000D02*
X14915000Y-8615000D01*
X14915000Y-8585000D02*
X14885000Y-8615000D01*
X14885000Y-12285000D02*
X14915000Y-12315000D01*
X14915000Y-12285000D02*
X14885000Y-12315000D01*
X15385000Y-10435000D02*
X15415000Y-10465000D01*
X15415000Y-10435000D02*
X15385000Y-10465000D01*
X15385000Y-14185000D02*
X15415000Y-14215000D01*
X15415000Y-14185000D02*
X15385000Y-14215000D01*
X16085000Y-7684350D02*
X16115000Y-7714350D01*
X16115000Y-7684350D02*
X16085000Y-7714350D01*
X16235000Y-7735000D02*
X16265000Y-7765000D01*
X16265000Y-7735000D02*
X16235000Y-7765000D01*
X16985000Y-5585000D02*
X17015000Y-5615000D01*
X17015000Y-5585000D02*
X16985000Y-5615000D01*
X17035000Y-8585000D02*
X17065000Y-8615000D01*
X17065000Y-8585000D02*
X17035000Y-8615000D01*
X17035000Y-12285000D02*
X17065000Y-12315000D01*
X17065000Y-12285000D02*
X17035000Y-12315000D01*
X17535000Y-10435000D02*
X17565000Y-10465000D01*
X17565000Y-10435000D02*
X17535000Y-10465000D01*
X17535000Y-14185000D02*
X17565000Y-14215000D01*
X17565000Y-14185000D02*
X17535000Y-14215000D01*
X18485000Y-5985000D02*
X18515000Y-6015000D01*
X18515000Y-5985000D02*
X18485000Y-6015000D01*
X18785000Y-7735000D02*
X18815000Y-7765000D01*
X18815000Y-7735000D02*
X18785000Y-7765000D01*
X18885000Y-7785000D02*
X18915000Y-7815000D01*
X18915000Y-7785000D02*
X18885000Y-7815000D01*
X19185000Y-8585000D02*
X19215000Y-8615000D01*
X19215000Y-8585000D02*
X19185000Y-8615000D01*
X19185000Y-12285000D02*
X19215000Y-12315000D01*
X19215000Y-12285000D02*
X19185000Y-12315000D01*
X19685000Y-10435000D02*
X19715000Y-10465000D01*
X19715000Y-10435000D02*
X19685000Y-10465000D01*
X19685000Y-14185000D02*
X19715000Y-14215000D01*
X19715000Y-14185000D02*
X19685000Y-14215000D01*
X20185000Y-9435000D02*
X20215000Y-9465000D01*
X20215000Y-9435000D02*
X20185000Y-9465000D01*
X20335000Y-5029600D02*
X20365000Y-5059600D01*
X20365000Y-5029600D02*
X20335000Y-5059600D01*
X20685000Y-5082300D02*
X20715000Y-5112300D01*
X20715000Y-5082300D02*
X20685000Y-5112300D01*
X20785000Y-5135000D02*
X20815000Y-5165000D01*
X20815000Y-5135000D02*
X20785000Y-5165000D01*
X20835000Y-9435000D02*
X20865000Y-9465000D01*
X20865000Y-9435000D02*
X20835000Y-9465000D01*
X21335000Y-8585000D02*
X21365000Y-8615000D01*
X21365000Y-8585000D02*
X21335000Y-8615000D01*
X21335000Y-12285000D02*
X21365000Y-12315000D01*
X21365000Y-12285000D02*
X21335000Y-12315000D01*
X21435000Y-7785000D02*
X21465000Y-7815000D01*
X21465000Y-7785000D02*
X21435000Y-7815000D01*
X21585000Y-7885000D02*
X21615000Y-7915000D01*
X21615000Y-7885000D02*
X21585000Y-7915000D01*
X21835000Y-10435000D02*
X21865000Y-10465000D01*
X21865000Y-10435000D02*
X21835000Y-10465000D01*
X21835000Y-14185000D02*
X21865000Y-14215000D01*
X21865000Y-14185000D02*
X21835000Y-14215000D01*
X22535000Y-3135000D02*
X22565000Y-3165000D01*
X22565000Y-3135000D02*
X22535000Y-3165000D01*
X23185000Y-7185000D02*
X23215000Y-7215000D01*
X23215000Y-7185000D02*
X23185000Y-7215000D01*
X23435000Y-7235000D02*
X23465000Y-7265000D01*
X23465000Y-7235000D02*
X23435000Y-7265000D01*
X23485000Y-8585000D02*
X23515000Y-8615000D01*
X23515000Y-8585000D02*
X23485000Y-8615000D01*
X23485000Y-12285000D02*
X23515000Y-12315000D01*
X23515000Y-12285000D02*
X23485000Y-12315000D01*
X23735000Y-4237700D02*
X23765000Y-4267700D01*
X23765000Y-4237700D02*
X23735000Y-4267700D01*
X23735000Y-4935000D02*
X23765000Y-4965000D01*
X23765000Y-4935000D02*
X23735000Y-4965000D01*
X23735000Y-7285000D02*
X23765000Y-7315000D01*
X23765000Y-7285000D02*
X23735000Y-7315000D01*
X23835000Y-4185000D02*
X23865000Y-4215000D01*
X23865000Y-4185000D02*
X23835000Y-4215000D01*
X23835000Y-4885000D02*
X23865000Y-4915000D01*
X23865000Y-4885000D02*
X23835000Y-4915000D01*
X23935000Y-3643100D02*
X23965000Y-3673100D01*
X23965000Y-3643100D02*
X23935000Y-3673100D01*
X23935000Y-4835000D02*
X23965000Y-4865000D01*
X23965000Y-4835000D02*
X23935000Y-4865000D01*
X23985000Y-4940400D02*
X24015000Y-4970400D01*
X24015000Y-4940400D02*
X23985000Y-4970400D01*
X23985000Y-10435000D02*
X24015000Y-10465000D01*
X24015000Y-10435000D02*
X23985000Y-10465000D01*
X23985000Y-14185000D02*
X24015000Y-14215000D01*
X24015000Y-14185000D02*
X23985000Y-14215000D01*
X24032187Y-3590400D02*
X24062187Y-3620400D01*
X24062187Y-3590400D02*
X24032187Y-3620400D01*
X24035000Y-4785000D02*
X24065000Y-4815000D01*
X24065000Y-4785000D02*
X24035000Y-4815000D01*
X24085000Y-3537700D02*
X24115000Y-3567700D01*
X24115000Y-3537700D02*
X24085000Y-3567700D01*
X24085000Y-4635000D02*
X24115000Y-4665000D01*
X24115000Y-4635000D02*
X24085000Y-4665000D01*
X24135000Y-4890400D02*
X24165000Y-4920400D01*
X24165000Y-4890400D02*
X24135000Y-4920400D01*
X24185000Y-3785000D02*
X24215000Y-3815000D01*
X24215000Y-3785000D02*
X24185000Y-3815000D01*
X24235000Y-3485000D02*
X24265000Y-3515000D01*
X24265000Y-3485000D02*
X24235000Y-3515000D01*
X24235000Y-4735000D02*
X24265000Y-4765000D01*
X24265000Y-4735000D02*
X24235000Y-4765000D01*
X24485000Y-4840400D02*
X24515000Y-4870400D01*
X24515000Y-4840400D02*
X24485000Y-4870400D01*
X24735000Y-4787700D02*
X24765000Y-4817700D01*
X24765000Y-4787700D02*
X24735000Y-4817700D01*
X24985000Y-4635000D02*
X25015000Y-4665000D01*
X25015000Y-4635000D02*
X24985000Y-4665000D01*
X25235000Y-4735000D02*
X25265000Y-4765000D01*
X25265000Y-4735000D02*
X25235000Y-4765000D01*
X25235000Y-7485000D02*
X25265000Y-7515000D01*
X25265000Y-7485000D02*
X25235000Y-7515000D01*
X25385000Y-5635000D02*
X25415000Y-5665000D01*
X25415000Y-5635000D02*
X25385000Y-5665000D01*
X25635000Y-8585000D02*
X25665000Y-8615000D01*
X25665000Y-8585000D02*
X25635000Y-8615000D01*
X25635000Y-12285000D02*
X25665000Y-12315000D01*
X25665000Y-12285000D02*
X25635000Y-12315000D01*
X25885000Y-4435000D02*
X25915000Y-4465000D01*
X25915000Y-4435000D02*
X25885000Y-4465000D01*
X26085000Y-4635000D02*
X26115000Y-4665000D01*
X26115000Y-4635000D02*
X26085000Y-4665000D01*
X26085000Y-10435000D02*
X26115000Y-10465000D01*
X26115000Y-10435000D02*
X26085000Y-10465000D01*
X26135000Y-14185000D02*
X26165000Y-14215000D01*
X26165000Y-14185000D02*
X26135000Y-14215000D01*
X26335000Y-4535000D02*
X26365000Y-4565000D01*
X26365000Y-4535000D02*
X26335000Y-4565000D01*
X26635000Y-4185000D02*
X26665000Y-4215000D01*
X26665000Y-4185000D02*
X26635000Y-4215000D01*
X26635000Y-11485000D02*
X26665000Y-11515000D01*
X26665000Y-11485000D02*
X26635000Y-11515000D01*
X26785000Y-7035000D02*
X26815000Y-7065000D01*
X26815000Y-7035000D02*
X26785000Y-7065000D01*
X26785000Y-13885000D02*
X26815000Y-13915000D01*
X26815000Y-13885000D02*
X26785000Y-13915000D01*
X26885000Y-4185000D02*
X26915000Y-4215000D01*
X26915000Y-4185000D02*
X26885000Y-4215000D01*
X26885000Y-9535000D02*
X26915000Y-9565000D01*
X26915000Y-9535000D02*
X26885000Y-9565000D01*
X26985000Y-5635000D02*
X27015000Y-5665000D01*
X27015000Y-5635000D02*
X26985000Y-5665000D01*
X27085000Y-7485000D02*
X27115000Y-7515000D01*
X27115000Y-7485000D02*
X27085000Y-7515000D01*
X27085000Y-11935000D02*
X27115000Y-11965000D01*
X27115000Y-11935000D02*
X27085000Y-11965000D01*
X27135000Y-6335000D02*
X27165000Y-6365000D01*
X27165000Y-6335000D02*
X27135000Y-6365000D01*
X27185000Y-12085000D02*
X27215000Y-12115000D01*
X27215000Y-12085000D02*
X27185000Y-12115000D01*
X27285000Y-5537700D02*
X27315000Y-5567700D01*
X27315000Y-5537700D02*
X27285000Y-5567700D01*
X27385000Y-15645800D02*
X27415000Y-15675800D01*
X27415000Y-15645800D02*
X27385000Y-15675800D01*
X27485000Y-15585000D02*
X27515000Y-15615000D01*
X27515000Y-15585000D02*
X27485000Y-15615000D01*
X27535000Y-5485000D02*
X27565000Y-5515000D01*
X27565000Y-5485000D02*
X27535000Y-5515000D01*
X27585000Y-12585000D02*
X27615000Y-12615000D01*
X27615000Y-12585000D02*
X27585000Y-12615000D01*
X27585000Y-14485000D02*
X27615000Y-14515000D01*
X27615000Y-14485000D02*
X27585000Y-14515000D01*
X27635000Y-8885000D02*
X27665000Y-8915000D01*
X27665000Y-8885000D02*
X27635000Y-8915000D01*
X27635000Y-10735000D02*
X27665000Y-10765000D01*
X27665000Y-10735000D02*
X27635000Y-10765000D01*
X7887500Y-2250000D02*
G75*
G03*
X7812500Y-2250000I-37500J0D01*
G01*
X7812500Y-2250000D02*
G75*
G03*
X7887500Y-2250000I37500J0D01*
G01*
X8087500Y-2250000D02*
G75*
G03*
X8012500Y-2250000I-37500J0D01*
G01*
X8012500Y-2250000D02*
G75*
G03*
X8087500Y-2250000I37500J0D01*
G01*
X8287500Y-2250000D02*
G75*
G03*
X8212500Y-2250000I-37500J0D01*
G01*
X8212500Y-2250000D02*
G75*
G03*
X8287500Y-2250000I37500J0D01*
G01*
X4512500Y-6760000D02*
X4512500Y-6840000D01*
X4472500Y-6800000D02*
X4552500Y-6800000D01*
X4512500Y-7522000D02*
X4512500Y-7602000D01*
X4472500Y-7562000D02*
X4552500Y-7562000D01*
X4766500Y-6760000D02*
X4766500Y-6840000D01*
X4726500Y-6800000D02*
X4806500Y-6800000D01*
X4766500Y-7522000D02*
X4766500Y-7602000D01*
X4726500Y-7562000D02*
X4806500Y-7562000D01*
X5020500Y-6760000D02*
X5020500Y-6840000D01*
X4980500Y-6800000D02*
X5060500Y-6800000D01*
X5020500Y-7522000D02*
X5020500Y-7602000D01*
X4980500Y-7562000D02*
X5060500Y-7562000D01*
X5274500Y-6760000D02*
X5274500Y-6840000D01*
X5234500Y-6800000D02*
X5314500Y-6800000D01*
X5274500Y-7522000D02*
X5274500Y-7602000D01*
X5234500Y-7562000D02*
X5314500Y-7562000D01*
X5528500Y-6760000D02*
X5528500Y-6840000D01*
X5488500Y-6800000D02*
X5568500Y-6800000D01*
X5528500Y-7522000D02*
X5528500Y-7602000D01*
X5488500Y-7562000D02*
X5568500Y-7562000D01*
X5782500Y-6760000D02*
X5782500Y-6840000D01*
X5742500Y-6800000D02*
X5822500Y-6800000D01*
X5782500Y-7522000D02*
X5782500Y-7602000D01*
X5742500Y-7562000D02*
X5822500Y-7562000D01*
X6036500Y-6760000D02*
X6036500Y-6840000D01*
X5996500Y-6800000D02*
X6076500Y-6800000D01*
X6036500Y-7522000D02*
X6036500Y-7602000D01*
X5996500Y-7562000D02*
X6076500Y-7562000D01*
X6290500Y-6760000D02*
X6290500Y-6840000D01*
X6250500Y-6800000D02*
X6330500Y-6800000D01*
X6290500Y-7522000D02*
X6290500Y-7602000D01*
X6250500Y-7562000D02*
X6330500Y-7562000D01*
X6991000Y-6760000D02*
X6991000Y-6840000D01*
X6951000Y-6800000D02*
X7031000Y-6800000D01*
X6991000Y-7522000D02*
X6991000Y-7602000D01*
X6951000Y-7562000D02*
X7031000Y-7562000D01*
X7245000Y-6760000D02*
X7245000Y-6840000D01*
X7205000Y-6800000D02*
X7285000Y-6800000D01*
X7245000Y-7522000D02*
X7245000Y-7602000D01*
X7205000Y-7562000D02*
X7285000Y-7562000D01*
X7499000Y-6760000D02*
X7499000Y-6840000D01*
X7459000Y-6800000D02*
X7539000Y-6800000D01*
X7499000Y-7522000D02*
X7499000Y-7602000D01*
X7459000Y-7562000D02*
X7539000Y-7562000D01*
X7753000Y-6760000D02*
X7753000Y-6840000D01*
X7713000Y-6800000D02*
X7793000Y-6800000D01*
X7753000Y-7522000D02*
X7753000Y-7602000D01*
X7713000Y-7562000D02*
X7793000Y-7562000D01*
X8007000Y-6760000D02*
X8007000Y-6840000D01*
X7967000Y-6800000D02*
X8047000Y-6800000D01*
X8007000Y-7522000D02*
X8007000Y-7602000D01*
X7967000Y-7562000D02*
X8047000Y-7562000D01*
X8088000Y-8602000D02*
X8088000Y-8682000D01*
X8048000Y-8642000D02*
X8128000Y-8642000D01*
X8088000Y-8856000D02*
X8088000Y-8936000D01*
X8048000Y-8896000D02*
X8128000Y-8896000D01*
X8088000Y-9110000D02*
X8088000Y-9190000D01*
X8048000Y-9150000D02*
X8128000Y-9150000D01*
X8088000Y-9364000D02*
X8088000Y-9444000D01*
X8048000Y-9404000D02*
X8128000Y-9404000D01*
X8088000Y-9618000D02*
X8088000Y-9698000D01*
X8048000Y-9658000D02*
X8128000Y-9658000D01*
X8088000Y-9872000D02*
X8088000Y-9952000D01*
X8048000Y-9912000D02*
X8128000Y-9912000D01*
X8088000Y-10126000D02*
X8088000Y-10206000D01*
X8048000Y-10166000D02*
X8128000Y-10166000D01*
X8088000Y-10380000D02*
X8088000Y-10460000D01*
X8048000Y-10420000D02*
X8128000Y-10420000D01*
X8088000Y-10936000D02*
X8088000Y-11016000D01*
X8048000Y-10976000D02*
X8128000Y-10976000D01*
X8088000Y-11190000D02*
X8088000Y-11270000D01*
X8048000Y-11230000D02*
X8128000Y-11230000D01*
X8088000Y-11444000D02*
X8088000Y-11524000D01*
X8048000Y-11484000D02*
X8128000Y-11484000D01*
X8088000Y-11698000D02*
X8088000Y-11778000D01*
X8048000Y-11738000D02*
X8128000Y-11738000D01*
X8088000Y-11952000D02*
X8088000Y-12032000D01*
X8048000Y-11992000D02*
X8128000Y-11992000D01*
X8088000Y-12206000D02*
X8088000Y-12286000D01*
X8048000Y-12246000D02*
X8128000Y-12246000D01*
X8088000Y-12460000D02*
X8088000Y-12540000D01*
X8048000Y-12500000D02*
X8128000Y-12500000D01*
X8088000Y-12714000D02*
X8088000Y-12794000D01*
X8048000Y-12754000D02*
X8128000Y-12754000D01*
X8088000Y-13356000D02*
X8088000Y-13436000D01*
X8048000Y-13396000D02*
X8128000Y-13396000D01*
X8088000Y-13610000D02*
X8088000Y-13690000D01*
X8048000Y-13650000D02*
X8128000Y-13650000D01*
X8088000Y-13864000D02*
X8088000Y-13944000D01*
X8048000Y-13904000D02*
X8128000Y-13904000D01*
X8088000Y-14118000D02*
X8088000Y-14198000D01*
X8048000Y-14158000D02*
X8128000Y-14158000D01*
X8088000Y-14372000D02*
X8088000Y-14452000D01*
X8048000Y-14412000D02*
X8128000Y-14412000D01*
X8088000Y-14626000D02*
X8088000Y-14706000D01*
X8048000Y-14666000D02*
X8128000Y-14666000D01*
X8088000Y-14880000D02*
X8088000Y-14960000D01*
X8048000Y-14920000D02*
X8128000Y-14920000D01*
X8088000Y-15134000D02*
X8088000Y-15214000D01*
X8048000Y-15174000D02*
X8128000Y-15174000D01*
X8261000Y-6760000D02*
X8261000Y-6840000D01*
X8221000Y-6800000D02*
X8301000Y-6800000D01*
X8261000Y-7522000D02*
X8261000Y-7602000D01*
X8221000Y-7562000D02*
X8301000Y-7562000D01*
X8515000Y-6760000D02*
X8515000Y-6840000D01*
X8475000Y-6800000D02*
X8555000Y-6800000D01*
X8515000Y-7522000D02*
X8515000Y-7602000D01*
X8475000Y-7562000D02*
X8555000Y-7562000D01*
X8769000Y-6760000D02*
X8769000Y-6840000D01*
X8729000Y-6800000D02*
X8809000Y-6800000D01*
X8769000Y-7522000D02*
X8769000Y-7602000D01*
X8729000Y-7562000D02*
X8809000Y-7562000D01*
X8850000Y-8602000D02*
X8850000Y-8682000D01*
X8810000Y-8642000D02*
X8890000Y-8642000D01*
X8850000Y-8856000D02*
X8850000Y-8936000D01*
X8810000Y-8896000D02*
X8890000Y-8896000D01*
X8850000Y-9110000D02*
X8850000Y-9190000D01*
X8810000Y-9150000D02*
X8890000Y-9150000D01*
X8850000Y-9364000D02*
X8850000Y-9444000D01*
X8810000Y-9404000D02*
X8890000Y-9404000D01*
X8850000Y-9618000D02*
X8850000Y-9698000D01*
X8810000Y-9658000D02*
X8890000Y-9658000D01*
X8850000Y-9872000D02*
X8850000Y-9952000D01*
X8810000Y-9912000D02*
X8890000Y-9912000D01*
X8850000Y-10126000D02*
X8850000Y-10206000D01*
X8810000Y-10166000D02*
X8890000Y-10166000D01*
X8850000Y-10380000D02*
X8850000Y-10460000D01*
X8810000Y-10420000D02*
X8890000Y-10420000D01*
X8850000Y-10936000D02*
X8850000Y-11016000D01*
X8810000Y-10976000D02*
X8890000Y-10976000D01*
X8850000Y-11190000D02*
X8850000Y-11270000D01*
X8810000Y-11230000D02*
X8890000Y-11230000D01*
X8850000Y-11444000D02*
X8850000Y-11524000D01*
X8810000Y-11484000D02*
X8890000Y-11484000D01*
X8850000Y-11698000D02*
X8850000Y-11778000D01*
X8810000Y-11738000D02*
X8890000Y-11738000D01*
X8850000Y-11952000D02*
X8850000Y-12032000D01*
X8810000Y-11992000D02*
X8890000Y-11992000D01*
X8850000Y-12206000D02*
X8850000Y-12286000D01*
X8810000Y-12246000D02*
X8890000Y-12246000D01*
X8850000Y-12460000D02*
X8850000Y-12540000D01*
X8810000Y-12500000D02*
X8890000Y-12500000D01*
X8850000Y-12714000D02*
X8850000Y-12794000D01*
X8810000Y-12754000D02*
X8890000Y-12754000D01*
X8850000Y-13356000D02*
X8850000Y-13436000D01*
X8810000Y-13396000D02*
X8890000Y-13396000D01*
X8850000Y-13610000D02*
X8850000Y-13690000D01*
X8810000Y-13650000D02*
X8890000Y-13650000D01*
X8850000Y-13864000D02*
X8850000Y-13944000D01*
X8810000Y-13904000D02*
X8890000Y-13904000D01*
X8850000Y-14118000D02*
X8850000Y-14198000D01*
X8810000Y-14158000D02*
X8890000Y-14158000D01*
X8850000Y-14372000D02*
X8850000Y-14452000D01*
X8810000Y-14412000D02*
X8890000Y-14412000D01*
X8850000Y-14626000D02*
X8850000Y-14706000D01*
X8810000Y-14666000D02*
X8890000Y-14666000D01*
X8850000Y-14880000D02*
X8850000Y-14960000D01*
X8810000Y-14920000D02*
X8890000Y-14920000D01*
X8850000Y-15134000D02*
X8850000Y-15214000D01*
X8810000Y-15174000D02*
X8890000Y-15174000D01*
X12550000Y-2360000D02*
X12550000Y-2440000D01*
X12510000Y-2400000D02*
X12590000Y-2400000D01*
X12800000Y-2360000D02*
X12800000Y-2440000D01*
X12760000Y-2400000D02*
X12840000Y-2400000D01*
X11685356Y-2161356D02*
X11685356Y-2090644D01*
X11614644Y-2090644D01*
X11614644Y-2161356D01*
X11685356Y-2161356D01*
X11935356Y-2661356D02*
X11935356Y-2590644D01*
X11864644Y-2590644D01*
X11864644Y-2661356D01*
X11935356Y-2661356D01*
X12185356Y-2161356D02*
X12185356Y-2090644D01*
X12114644Y-2090644D01*
X12114644Y-2161356D01*
X12185356Y-2161356D01*
X13535356Y-3885356D02*
X13535356Y-3814644D01*
X13464644Y-3814644D01*
X13464644Y-3885356D01*
X13535356Y-3885356D01*
X13535356Y-5335356D02*
X13535356Y-5264644D01*
X13464644Y-5264644D01*
X13464644Y-5335356D01*
X13535356Y-5335356D01*
X13785356Y-2735356D02*
X13785356Y-2664644D01*
X13714644Y-2664644D01*
X13714644Y-2735356D01*
X13785356Y-2735356D01*
X13850000Y-2650000D02*
X13650000Y-2650000D01*
X13650000Y-2650000D02*
G75*
G03*
X13650000Y-2750000I0J-50000D01*
G01*
X13650000Y-2750000D02*
X13850000Y-2750000D01*
X13850000Y-2750000D02*
G75*
G03*
X13850000Y-2650000I0J50000D01*
G01*
X13785356Y-3335356D02*
X13785356Y-3264644D01*
X13714644Y-3264644D01*
X13714644Y-3335356D01*
X13785356Y-3335356D01*
X13850000Y-3250000D02*
X13650000Y-3250000D01*
X13650000Y-3250000D02*
G75*
G03*
X13650000Y-3350000I0J-50000D01*
G01*
X13650000Y-3350000D02*
X13850000Y-3350000D01*
X13850000Y-3350000D02*
G75*
G03*
X13850000Y-3250000I0J50000D01*
G01*
X13785356Y-5335356D02*
X13785356Y-5264644D01*
X13714644Y-5264644D01*
X13714644Y-5335356D01*
X13785356Y-5335356D01*
X14035356Y-3885356D02*
X14035356Y-3814644D01*
X13964644Y-3814644D01*
X13964644Y-3885356D01*
X14035356Y-3885356D01*
X14035356Y-5335356D02*
X14035356Y-5264644D01*
X13964644Y-5264644D01*
X13964644Y-5335356D01*
X14035356Y-5335356D01*
X14255356Y-3035356D02*
X14255356Y-2964644D01*
X14184644Y-2964644D01*
X14184644Y-3035356D01*
X14255356Y-3035356D01*
X14170000Y-2900000D02*
X14170000Y-3100000D01*
X14170000Y-3100000D02*
G75*
G03*
X14270000Y-3100000I50000J0D01*
G01*
X14270000Y-3100000D02*
X14270000Y-2900000D01*
X14270000Y-2900000D02*
G75*
G03*
X14170000Y-2900000I-50000J0D01*
G01*
X16035356Y-4057856D02*
X16035356Y-3987144D01*
X15964644Y-3987144D01*
X15964644Y-4057856D01*
X16035356Y-4057856D01*
X16035356Y-6557856D02*
X16035356Y-6487144D01*
X15964644Y-6487144D01*
X15964644Y-6557856D01*
X16035356Y-6557856D01*
X16285356Y-4057856D02*
X16285356Y-3987144D01*
X16214644Y-3987144D01*
X16214644Y-4057856D01*
X16285356Y-4057856D01*
X16285356Y-6557856D02*
X16285356Y-6487144D01*
X16214644Y-6487144D01*
X16214644Y-6557856D01*
X16285356Y-6557856D01*
X16535356Y-4057856D02*
X16535356Y-3987144D01*
X16464644Y-3987144D01*
X16464644Y-4057856D01*
X16535356Y-4057856D01*
X16535356Y-6557856D02*
X16535356Y-6487144D01*
X16464644Y-6487144D01*
X16464644Y-6557856D01*
X16535356Y-6557856D01*
X18710356Y-4085356D02*
X18710356Y-4014644D01*
X18639644Y-4014644D01*
X18639644Y-4085356D01*
X18710356Y-4085356D01*
X18710356Y-6557856D02*
X18710356Y-6487144D01*
X18639644Y-6487144D01*
X18639644Y-6557856D01*
X18710356Y-6557856D01*
X18960356Y-4085356D02*
X18960356Y-4014644D01*
X18889644Y-4014644D01*
X18889644Y-4085356D01*
X18960356Y-4085356D01*
X18960356Y-6557856D02*
X18960356Y-6487144D01*
X18889644Y-6487144D01*
X18889644Y-6557856D01*
X18960356Y-6557856D01*
X19210356Y-4085356D02*
X19210356Y-4014644D01*
X19139644Y-4014644D01*
X19139644Y-4085356D01*
X19210356Y-4085356D01*
X19210356Y-6557856D02*
X19210356Y-6487144D01*
X19139644Y-6487144D01*
X19139644Y-6557856D01*
X19210356Y-6557856D01*
X21385356Y-4085356D02*
X21385356Y-4014644D01*
X21314644Y-4014644D01*
X21314644Y-4085356D01*
X21385356Y-4085356D01*
X21385356Y-6557856D02*
X21385356Y-6487144D01*
X21314644Y-6487144D01*
X21314644Y-6557856D01*
X21385356Y-6557856D01*
X21635356Y-4085356D02*
X21635356Y-4014644D01*
X21564644Y-4014644D01*
X21564644Y-4085356D01*
X21635356Y-4085356D01*
X21635356Y-6557856D02*
X21635356Y-6487144D01*
X21564644Y-6487144D01*
X21564644Y-6557856D01*
X21635356Y-6557856D01*
X21885356Y-4085356D02*
X21885356Y-4014644D01*
X21814644Y-4014644D01*
X21814644Y-4085356D01*
X21885356Y-4085356D01*
X21885356Y-6557856D02*
X21885356Y-6487144D01*
X21814644Y-6487144D01*
X21814644Y-6557856D01*
X21885356Y-6557856D01*
D13*
X14900000Y-2424000D02*
X14955000Y-2369000D01*
X14900000Y-2314000D01*
X14845000Y-2369000D01*
X14900000Y-2424000D01*
X14900000Y-3186000D02*
X14955000Y-3131000D01*
X14900000Y-3076000D01*
X14845000Y-3131000D01*
X14900000Y-3186000D01*
X15770000Y-3327500D02*
X15825000Y-3272500D01*
X15770000Y-3217500D01*
X15715000Y-3272500D01*
X15770000Y-3327500D01*
D12*
X15825000Y-3307500D02*
X15825000Y-3237500D01*
X15825000Y-3237500D02*
G75*
G03*
X15715000Y-3237500I-55000J0D01*
G01*
X15715000Y-3237500D02*
X15715000Y-3307500D01*
X15715000Y-3307500D02*
G75*
G03*
X15825000Y-3307500I55000J0D01*
G01*
D13*
X15770000Y-5827500D02*
X15825000Y-5772500D01*
X15770000Y-5717500D01*
X15715000Y-5772500D01*
X15770000Y-5827500D01*
D12*
X15825000Y-5807500D02*
X15825000Y-5737500D01*
X15825000Y-5737500D02*
G75*
G03*
X15715000Y-5737500I-55000J0D01*
G01*
X15715000Y-5737500D02*
X15715000Y-5807500D01*
X15715000Y-5807500D02*
G75*
G03*
X15825000Y-5807500I55000J0D01*
G01*
D13*
X16730000Y-3327500D02*
X16785000Y-3272500D01*
X16730000Y-3217500D01*
X16675000Y-3272500D01*
X16730000Y-3327500D01*
D12*
X16785000Y-3307500D02*
X16785000Y-3237500D01*
X16785000Y-3237500D02*
G75*
G03*
X16675000Y-3237500I-55000J0D01*
G01*
X16675000Y-3237500D02*
X16675000Y-3307500D01*
X16675000Y-3307500D02*
G75*
G03*
X16785000Y-3307500I55000J0D01*
G01*
D13*
X16730000Y-5827500D02*
X16785000Y-5772500D01*
X16730000Y-5717500D01*
X16675000Y-5772500D01*
X16730000Y-5827500D01*
D12*
X16785000Y-5807500D02*
X16785000Y-5737500D01*
X16785000Y-5737500D02*
G75*
G03*
X16675000Y-5737500I-55000J0D01*
G01*
X16675000Y-5737500D02*
X16675000Y-5807500D01*
X16675000Y-5807500D02*
G75*
G03*
X16785000Y-5807500I55000J0D01*
G01*
D13*
X18445000Y-3355000D02*
X18500000Y-3300000D01*
X18445000Y-3245000D01*
X18390000Y-3300000D01*
X18445000Y-3355000D01*
D12*
X18500000Y-3335000D02*
X18500000Y-3265000D01*
X18500000Y-3265000D02*
G75*
G03*
X18390000Y-3265000I-55000J0D01*
G01*
X18390000Y-3265000D02*
X18390000Y-3335000D01*
X18390000Y-3335000D02*
G75*
G03*
X18500000Y-3335000I55000J0D01*
G01*
D13*
X18445000Y-5827500D02*
X18500000Y-5772500D01*
X18445000Y-5717500D01*
X18390000Y-5772500D01*
X18445000Y-5827500D01*
D12*
X18500000Y-5807500D02*
X18500000Y-5737500D01*
X18500000Y-5737500D02*
G75*
G03*
X18390000Y-5737500I-55000J0D01*
G01*
X18390000Y-5737500D02*
X18390000Y-5807500D01*
X18390000Y-5807500D02*
G75*
G03*
X18500000Y-5807500I55000J0D01*
G01*
D13*
X19405000Y-3355000D02*
X19460000Y-3300000D01*
X19405000Y-3245000D01*
X19350000Y-3300000D01*
X19405000Y-3355000D01*
D12*
X19460000Y-3335000D02*
X19460000Y-3265000D01*
X19460000Y-3265000D02*
G75*
G03*
X19350000Y-3265000I-55000J0D01*
G01*
X19350000Y-3265000D02*
X19350000Y-3335000D01*
X19350000Y-3335000D02*
G75*
G03*
X19460000Y-3335000I55000J0D01*
G01*
D13*
X19405000Y-5827500D02*
X19460000Y-5772500D01*
X19405000Y-5717500D01*
X19350000Y-5772500D01*
X19405000Y-5827500D01*
D12*
X19460000Y-5807500D02*
X19460000Y-5737500D01*
X19460000Y-5737500D02*
G75*
G03*
X19350000Y-5737500I-55000J0D01*
G01*
X19350000Y-5737500D02*
X19350000Y-5807500D01*
X19350000Y-5807500D02*
G75*
G03*
X19460000Y-5807500I55000J0D01*
G01*
D13*
X21120000Y-3355000D02*
X21175000Y-3300000D01*
X21120000Y-3245000D01*
X21065000Y-3300000D01*
X21120000Y-3355000D01*
D12*
X21175000Y-3335000D02*
X21175000Y-3265000D01*
X21175000Y-3265000D02*
G75*
G03*
X21065000Y-3265000I-55000J0D01*
G01*
X21065000Y-3265000D02*
X21065000Y-3335000D01*
X21065000Y-3335000D02*
G75*
G03*
X21175000Y-3335000I55000J0D01*
G01*
D13*
X21120000Y-5827500D02*
X21175000Y-5772500D01*
X21120000Y-5717500D01*
X21065000Y-5772500D01*
X21120000Y-5827500D01*
D12*
X21175000Y-5807500D02*
X21175000Y-5737500D01*
X21175000Y-5737500D02*
G75*
G03*
X21065000Y-5737500I-55000J0D01*
G01*
X21065000Y-5737500D02*
X21065000Y-5807500D01*
X21065000Y-5807500D02*
G75*
G03*
X21175000Y-5807500I55000J0D01*
G01*
D13*
X22080000Y-3355000D02*
X22135000Y-3300000D01*
X22080000Y-3245000D01*
X22025000Y-3300000D01*
X22080000Y-3355000D01*
D12*
X22135000Y-3335000D02*
X22135000Y-3265000D01*
X22135000Y-3265000D02*
G75*
G03*
X22025000Y-3265000I-55000J0D01*
G01*
X22025000Y-3265000D02*
X22025000Y-3335000D01*
X22025000Y-3335000D02*
G75*
G03*
X22135000Y-3335000I55000J0D01*
G01*
D13*
X22080000Y-5827500D02*
X22135000Y-5772500D01*
X22080000Y-5717500D01*
X22025000Y-5772500D01*
X22080000Y-5827500D01*
D12*
X22135000Y-5807500D02*
X22135000Y-5737500D01*
X22135000Y-5737500D02*
G75*
G03*
X22025000Y-5737500I-55000J0D01*
G01*
X22025000Y-5737500D02*
X22025000Y-5807500D01*
X22025000Y-5807500D02*
G75*
G03*
X22135000Y-5807500I55000J0D01*
G01*
D13*
X22842000Y-5355000D02*
X22897000Y-5300000D01*
X22842000Y-5245000D01*
X22787000Y-5300000D01*
X22842000Y-5355000D01*
X22842000Y-6879000D02*
X22897000Y-6824000D01*
X22842000Y-6769000D01*
X22787000Y-6824000D01*
X22842000Y-6879000D01*
X23096000Y-5355000D02*
X23151000Y-5300000D01*
X23096000Y-5245000D01*
X23041000Y-5300000D01*
X23096000Y-5355000D01*
X23096000Y-6879000D02*
X23151000Y-6824000D01*
X23096000Y-6769000D01*
X23041000Y-6824000D01*
X23096000Y-6879000D01*
X23350000Y-5355000D02*
X23405000Y-5300000D01*
X23350000Y-5245000D01*
X23295000Y-5300000D01*
X23350000Y-5355000D01*
X23350000Y-6879000D02*
X23405000Y-6824000D01*
X23350000Y-6769000D01*
X23295000Y-6824000D01*
X23350000Y-6879000D01*
X23604000Y-5355000D02*
X23659000Y-5300000D01*
X23604000Y-5245000D01*
X23549000Y-5300000D01*
X23604000Y-5355000D01*
X23604000Y-6879000D02*
X23659000Y-6824000D01*
X23604000Y-6769000D01*
X23549000Y-6824000D01*
X23604000Y-6879000D01*
X23858000Y-5355000D02*
X23913000Y-5300000D01*
X23858000Y-5245000D01*
X23803000Y-5300000D01*
X23858000Y-5355000D01*
X23858000Y-6879000D02*
X23913000Y-6824000D01*
X23858000Y-6769000D01*
X23803000Y-6824000D01*
X23858000Y-6879000D01*
X24112000Y-5355000D02*
X24167000Y-5300000D01*
X24112000Y-5245000D01*
X24057000Y-5300000D01*
X24112000Y-5355000D01*
X24112000Y-6879000D02*
X24167000Y-6824000D01*
X24112000Y-6769000D01*
X24057000Y-6824000D01*
X24112000Y-6879000D01*
X24366000Y-5355000D02*
X24421000Y-5300000D01*
X24366000Y-5245000D01*
X24311000Y-5300000D01*
X24366000Y-5355000D01*
X24366000Y-6879000D02*
X24421000Y-6824000D01*
X24366000Y-6769000D01*
X24311000Y-6824000D01*
X24366000Y-6879000D01*
X24620000Y-5355000D02*
X24675000Y-5300000D01*
X24620000Y-5245000D01*
X24565000Y-5300000D01*
X24620000Y-5355000D01*
X24620000Y-6879000D02*
X24675000Y-6824000D01*
X24620000Y-6769000D01*
X24565000Y-6824000D01*
X24620000Y-6879000D01*
X24874000Y-5355000D02*
X24929000Y-5300000D01*
X24874000Y-5245000D01*
X24819000Y-5300000D01*
X24874000Y-5355000D01*
X24874000Y-6879000D02*
X24929000Y-6824000D01*
X24874000Y-6769000D01*
X24819000Y-6824000D01*
X24874000Y-6879000D01*
X25128000Y-5355000D02*
X25183000Y-5300000D01*
X25128000Y-5245000D01*
X25073000Y-5300000D01*
X25128000Y-5355000D01*
X25128000Y-6879000D02*
X25183000Y-6824000D01*
X25128000Y-6769000D01*
X25073000Y-6824000D01*
X25128000Y-6879000D01*
X25382000Y-5355000D02*
X25437000Y-5300000D01*
X25382000Y-5245000D01*
X25327000Y-5300000D01*
X25382000Y-5355000D01*
X25382000Y-6879000D02*
X25437000Y-6824000D01*
X25382000Y-6769000D01*
X25327000Y-6824000D01*
X25382000Y-6879000D01*
X25636000Y-5355000D02*
X25691000Y-5300000D01*
X25636000Y-5245000D01*
X25581000Y-5300000D01*
X25636000Y-5355000D01*
X25636000Y-6879000D02*
X25691000Y-6824000D01*
X25636000Y-6769000D01*
X25581000Y-6824000D01*
X25636000Y-6879000D01*
X25890000Y-5355000D02*
X25945000Y-5300000D01*
X25890000Y-5245000D01*
X25835000Y-5300000D01*
X25890000Y-5355000D01*
X25890000Y-6879000D02*
X25945000Y-6824000D01*
X25890000Y-6769000D01*
X25835000Y-6824000D01*
X25890000Y-6879000D01*
X26144000Y-5355000D02*
X26199000Y-5300000D01*
X26144000Y-5245000D01*
X26089000Y-5300000D01*
X26144000Y-5355000D01*
X26144000Y-6879000D02*
X26199000Y-6824000D01*
X26144000Y-6769000D01*
X26089000Y-6824000D01*
X26144000Y-6879000D01*
X26398000Y-5355000D02*
X26453000Y-5300000D01*
X26398000Y-5245000D01*
X26343000Y-5300000D01*
X26398000Y-5355000D01*
X26398000Y-6879000D02*
X26453000Y-6824000D01*
X26398000Y-6769000D01*
X26343000Y-6824000D01*
X26398000Y-6879000D01*
X26652000Y-5355000D02*
X26707000Y-5300000D01*
X26652000Y-5245000D01*
X26597000Y-5300000D01*
X26652000Y-5355000D01*
X26652000Y-6879000D02*
X26707000Y-6824000D01*
X26652000Y-6769000D01*
X26597000Y-6824000D01*
X26652000Y-6879000D01*
X26906000Y-5355000D02*
X26961000Y-5300000D01*
X26906000Y-5245000D01*
X26851000Y-5300000D01*
X26906000Y-5355000D01*
X26906000Y-6879000D02*
X26961000Y-6824000D01*
X26906000Y-6769000D01*
X26851000Y-6824000D01*
X26906000Y-6879000D01*
X27160000Y-5355000D02*
X27215000Y-5300000D01*
X27160000Y-5245000D01*
X27105000Y-5300000D01*
X27160000Y-5355000D01*
X27160000Y-6879000D02*
X27215000Y-6824000D01*
X27160000Y-6769000D01*
X27105000Y-6824000D01*
X27160000Y-6879000D01*
X27414000Y-5355000D02*
X27469000Y-5300000D01*
X27414000Y-5245000D01*
X27359000Y-5300000D01*
X27414000Y-5355000D01*
X27414000Y-6879000D02*
X27469000Y-6824000D01*
X27414000Y-6769000D01*
X27359000Y-6824000D01*
X27414000Y-6879000D01*
X27668000Y-5355000D02*
X27723000Y-5300000D01*
X27668000Y-5245000D01*
X27613000Y-5300000D01*
X27668000Y-5355000D01*
X27668000Y-6879000D02*
X27723000Y-6824000D01*
X27668000Y-6769000D01*
X27613000Y-6824000D01*
X27668000Y-6879000D01*
D14*
X5015000Y-3040000D02*
X5135000Y-3160000D01*
X5135000Y-3040000D02*
X5015000Y-3160000D01*
X5135000Y-3100000D02*
G75*
G03*
X5015000Y-3100000I-60000J0D01*
G01*
X5015000Y-3100000D02*
G75*
G03*
X5135000Y-3100000I60000J0D01*
G01*
X5269000Y-3040000D02*
X5389000Y-3160000D01*
X5389000Y-3040000D02*
X5269000Y-3160000D01*
X5389000Y-3100000D02*
G75*
G03*
X5269000Y-3100000I-60000J0D01*
G01*
X5269000Y-3100000D02*
G75*
G03*
X5389000Y-3100000I60000J0D01*
G01*
X5523000Y-3040000D02*
X5643000Y-3160000D01*
X5643000Y-3040000D02*
X5523000Y-3160000D01*
X5643000Y-3100000D02*
G75*
G03*
X5523000Y-3100000I-60000J0D01*
G01*
X5523000Y-3100000D02*
G75*
G03*
X5643000Y-3100000I60000J0D01*
G01*
X5777000Y-3040000D02*
X5897000Y-3160000D01*
X5897000Y-3040000D02*
X5777000Y-3160000D01*
X5897000Y-3100000D02*
G75*
G03*
X5777000Y-3100000I-60000J0D01*
G01*
X5777000Y-3100000D02*
G75*
G03*
X5897000Y-3100000I60000J0D01*
G01*
X6031000Y-3040000D02*
X6151000Y-3160000D01*
X6151000Y-3040000D02*
X6031000Y-3160000D01*
X6151000Y-3100000D02*
G75*
G03*
X6031000Y-3100000I-60000J0D01*
G01*
X6031000Y-3100000D02*
G75*
G03*
X6151000Y-3100000I60000J0D01*
G01*
X6285000Y-3040000D02*
X6405000Y-3160000D01*
X6405000Y-3040000D02*
X6285000Y-3160000D01*
X6405000Y-3100000D02*
G75*
G03*
X6285000Y-3100000I-60000J0D01*
G01*
X6285000Y-3100000D02*
G75*
G03*
X6405000Y-3100000I60000J0D01*
G01*
X6539000Y-3040000D02*
X6659000Y-3160000D01*
X6659000Y-3040000D02*
X6539000Y-3160000D01*
X6659000Y-3100000D02*
G75*
G03*
X6539000Y-3100000I-60000J0D01*
G01*
X6539000Y-3100000D02*
G75*
G03*
X6659000Y-3100000I60000J0D01*
G01*
X6793000Y-3040000D02*
X6913000Y-3160000D01*
X6913000Y-3040000D02*
X6793000Y-3160000D01*
X6913000Y-3100000D02*
G75*
G03*
X6793000Y-3100000I-60000J0D01*
G01*
X6793000Y-3100000D02*
G75*
G03*
X6913000Y-3100000I60000J0D01*
G01*
X7047000Y-3040000D02*
X7167000Y-3160000D01*
X7167000Y-3040000D02*
X7047000Y-3160000D01*
X7167000Y-3100000D02*
G75*
G03*
X7047000Y-3100000I-60000J0D01*
G01*
X7047000Y-3100000D02*
G75*
G03*
X7167000Y-3100000I60000J0D01*
G01*
X7301000Y-3040000D02*
X7421000Y-3160000D01*
X7421000Y-3040000D02*
X7301000Y-3160000D01*
X7421000Y-3100000D02*
G75*
G03*
X7301000Y-3100000I-60000J0D01*
G01*
X7301000Y-3100000D02*
G75*
G03*
X7421000Y-3100000I60000J0D01*
G01*
X7555000Y-3040000D02*
X7675000Y-3160000D01*
X7675000Y-3040000D02*
X7555000Y-3160000D01*
X7675000Y-3100000D02*
G75*
G03*
X7555000Y-3100000I-60000J0D01*
G01*
X7555000Y-3100000D02*
G75*
G03*
X7675000Y-3100000I60000J0D01*
G01*
X7809000Y-3040000D02*
X7929000Y-3160000D01*
X7929000Y-3040000D02*
X7809000Y-3160000D01*
X7929000Y-3100000D02*
G75*
G03*
X7809000Y-3100000I-60000J0D01*
G01*
X7809000Y-3100000D02*
G75*
G03*
X7929000Y-3100000I60000J0D01*
G01*
X8063000Y-3040000D02*
X8183000Y-3160000D01*
X8183000Y-3040000D02*
X8063000Y-3160000D01*
X8183000Y-3100000D02*
G75*
G03*
X8063000Y-3100000I-60000J0D01*
G01*
X8063000Y-3100000D02*
G75*
G03*
X8183000Y-3100000I60000J0D01*
G01*
X8317000Y-3040000D02*
X8437000Y-3160000D01*
X8437000Y-3040000D02*
X8317000Y-3160000D01*
X8437000Y-3100000D02*
G75*
G03*
X8317000Y-3100000I-60000J0D01*
G01*
X8317000Y-3100000D02*
G75*
G03*
X8437000Y-3100000I60000J0D01*
G01*
X8571000Y-3040000D02*
X8691000Y-3160000D01*
X8691000Y-3040000D02*
X8571000Y-3160000D01*
X8691000Y-3100000D02*
G75*
G03*
X8571000Y-3100000I-60000J0D01*
G01*
X8571000Y-3100000D02*
G75*
G03*
X8691000Y-3100000I60000J0D01*
G01*
X8825000Y-3040000D02*
X8945000Y-3160000D01*
X8945000Y-3040000D02*
X8825000Y-3160000D01*
X8945000Y-3100000D02*
G75*
G03*
X8825000Y-3100000I-60000J0D01*
G01*
X8825000Y-3100000D02*
G75*
G03*
X8945000Y-3100000I60000J0D01*
G01*
X9740000Y-9070000D02*
X9860000Y-9190000D01*
X9860000Y-9070000D02*
X9740000Y-9190000D01*
X9860000Y-9130000D02*
G75*
G03*
X9740000Y-9130000I-60000J0D01*
G01*
X9740000Y-9130000D02*
G75*
G03*
X9860000Y-9130000I60000J0D01*
G01*
X9740000Y-12793910D02*
X9860000Y-12913910D01*
X9860000Y-12793910D02*
X9740000Y-12913910D01*
X9860000Y-12853910D02*
G75*
G03*
X9740000Y-12853910I-60000J0D01*
G01*
X9740000Y-12853910D02*
G75*
G03*
X9860000Y-12853910I60000J0D01*
G01*
X10240000Y-9280000D02*
X10360000Y-9400000D01*
X10360000Y-9280000D02*
X10240000Y-9400000D01*
X10360000Y-9340000D02*
G75*
G03*
X10240000Y-9340000I-60000J0D01*
G01*
X10240000Y-9340000D02*
G75*
G03*
X10360000Y-9340000I60000J0D01*
G01*
X10240000Y-13003910D02*
X10360000Y-13123910D01*
X10360000Y-13003910D02*
X10240000Y-13123910D01*
X10360000Y-13063910D02*
G75*
G03*
X10240000Y-13063910I-60000J0D01*
G01*
X10240000Y-13063910D02*
G75*
G03*
X10360000Y-13063910I60000J0D01*
G01*
X10815000Y-10931955D02*
X10935000Y-11051955D01*
X10935000Y-10931955D02*
X10815000Y-11051955D01*
X10935000Y-10991955D02*
G75*
G03*
X10815000Y-10991955I-60000J0D01*
G01*
X10815000Y-10991955D02*
G75*
G03*
X10935000Y-10991955I60000J0D01*
G01*
X10815000Y-14655864D02*
X10935000Y-14775864D01*
X10935000Y-14655864D02*
X10815000Y-14775864D01*
X10935000Y-14715864D02*
G75*
G03*
X10815000Y-14715864I-60000J0D01*
G01*
X10815000Y-14715864D02*
G75*
G03*
X10935000Y-14715864I60000J0D01*
G01*
X11315000Y-11141955D02*
X11435000Y-11261955D01*
X11435000Y-11141955D02*
X11315000Y-11261955D01*
X11435000Y-11201955D02*
G75*
G03*
X11315000Y-11201955I-60000J0D01*
G01*
X11315000Y-11201955D02*
G75*
G03*
X11435000Y-11201955I60000J0D01*
G01*
X11315000Y-14865864D02*
X11435000Y-14985864D01*
X11435000Y-14865864D02*
X11315000Y-14985864D01*
X11435000Y-14925864D02*
G75*
G03*
X11315000Y-14925864I-60000J0D01*
G01*
X11315000Y-14925864D02*
G75*
G03*
X11435000Y-14925864I60000J0D01*
G01*
X11890000Y-9070000D02*
X12010000Y-9190000D01*
X12010000Y-9070000D02*
X11890000Y-9190000D01*
X12010000Y-9130000D02*
G75*
G03*
X11890000Y-9130000I-60000J0D01*
G01*
X11890000Y-9130000D02*
G75*
G03*
X12010000Y-9130000I60000J0D01*
G01*
X11890000Y-12793910D02*
X12010000Y-12913910D01*
X12010000Y-12793910D02*
X11890000Y-12913910D01*
X12010000Y-12853910D02*
G75*
G03*
X11890000Y-12853910I-60000J0D01*
G01*
X11890000Y-12853910D02*
G75*
G03*
X12010000Y-12853910I60000J0D01*
G01*
X12390000Y-9280000D02*
X12510000Y-9400000D01*
X12510000Y-9280000D02*
X12390000Y-9400000D01*
X12510000Y-9340000D02*
G75*
G03*
X12390000Y-9340000I-60000J0D01*
G01*
X12390000Y-9340000D02*
G75*
G03*
X12510000Y-9340000I60000J0D01*
G01*
X12390000Y-13003910D02*
X12510000Y-13123910D01*
X12510000Y-13003910D02*
X12390000Y-13123910D01*
X12510000Y-13063910D02*
G75*
G03*
X12390000Y-13063910I-60000J0D01*
G01*
X12390000Y-13063910D02*
G75*
G03*
X12510000Y-13063910I60000J0D01*
G01*
X12965000Y-10931955D02*
X13085000Y-11051955D01*
X13085000Y-10931955D02*
X12965000Y-11051955D01*
X13085000Y-10991955D02*
G75*
G03*
X12965000Y-10991955I-60000J0D01*
G01*
X12965000Y-10991955D02*
G75*
G03*
X13085000Y-10991955I60000J0D01*
G01*
X12965000Y-14655864D02*
X13085000Y-14775864D01*
X13085000Y-14655864D02*
X12965000Y-14775864D01*
X13085000Y-14715864D02*
G75*
G03*
X12965000Y-14715864I-60000J0D01*
G01*
X12965000Y-14715864D02*
G75*
G03*
X13085000Y-14715864I60000J0D01*
G01*
X13465000Y-11141955D02*
X13585000Y-11261955D01*
X13585000Y-11141955D02*
X13465000Y-11261955D01*
X13585000Y-11201955D02*
G75*
G03*
X13465000Y-11201955I-60000J0D01*
G01*
X13465000Y-11201955D02*
G75*
G03*
X13585000Y-11201955I60000J0D01*
G01*
X13465000Y-14865864D02*
X13585000Y-14985864D01*
X13585000Y-14865864D02*
X13465000Y-14985864D01*
X13585000Y-14925864D02*
G75*
G03*
X13465000Y-14925864I-60000J0D01*
G01*
X13465000Y-14925864D02*
G75*
G03*
X13585000Y-14925864I60000J0D01*
G01*
X14040000Y-9070000D02*
X14160000Y-9190000D01*
X14160000Y-9070000D02*
X14040000Y-9190000D01*
X14160000Y-9130000D02*
G75*
G03*
X14040000Y-9130000I-60000J0D01*
G01*
X14040000Y-9130000D02*
G75*
G03*
X14160000Y-9130000I60000J0D01*
G01*
X14040000Y-12793910D02*
X14160000Y-12913910D01*
X14160000Y-12793910D02*
X14040000Y-12913910D01*
X14160000Y-12853910D02*
G75*
G03*
X14040000Y-12853910I-60000J0D01*
G01*
X14040000Y-12853910D02*
G75*
G03*
X14160000Y-12853910I60000J0D01*
G01*
X14540000Y-9280000D02*
X14660000Y-9400000D01*
X14660000Y-9280000D02*
X14540000Y-9400000D01*
X14660000Y-9340000D02*
G75*
G03*
X14540000Y-9340000I-60000J0D01*
G01*
X14540000Y-9340000D02*
G75*
G03*
X14660000Y-9340000I60000J0D01*
G01*
X14540000Y-13003910D02*
X14660000Y-13123910D01*
X14660000Y-13003910D02*
X14540000Y-13123910D01*
X14660000Y-13063910D02*
G75*
G03*
X14540000Y-13063910I-60000J0D01*
G01*
X14540000Y-13063910D02*
G75*
G03*
X14660000Y-13063910I60000J0D01*
G01*
X15115000Y-10931955D02*
X15235000Y-11051955D01*
X15235000Y-10931955D02*
X15115000Y-11051955D01*
X15235000Y-10991955D02*
G75*
G03*
X15115000Y-10991955I-60000J0D01*
G01*
X15115000Y-10991955D02*
G75*
G03*
X15235000Y-10991955I60000J0D01*
G01*
X15115000Y-14655864D02*
X15235000Y-14775864D01*
X15235000Y-14655864D02*
X15115000Y-14775864D01*
X15235000Y-14715864D02*
G75*
G03*
X15115000Y-14715864I-60000J0D01*
G01*
X15115000Y-14715864D02*
G75*
G03*
X15235000Y-14715864I60000J0D01*
G01*
X15615000Y-11141955D02*
X15735000Y-11261955D01*
X15735000Y-11141955D02*
X15615000Y-11261955D01*
X15735000Y-11201955D02*
G75*
G03*
X15615000Y-11201955I-60000J0D01*
G01*
X15615000Y-11201955D02*
G75*
G03*
X15735000Y-11201955I60000J0D01*
G01*
X15615000Y-14865864D02*
X15735000Y-14985864D01*
X15735000Y-14865864D02*
X15615000Y-14985864D01*
X15735000Y-14925864D02*
G75*
G03*
X15615000Y-14925864I-60000J0D01*
G01*
X15615000Y-14925864D02*
G75*
G03*
X15735000Y-14925864I60000J0D01*
G01*
X16190000Y-9070000D02*
X16310000Y-9190000D01*
X16310000Y-9070000D02*
X16190000Y-9190000D01*
X16310000Y-9130000D02*
G75*
G03*
X16190000Y-9130000I-60000J0D01*
G01*
X16190000Y-9130000D02*
G75*
G03*
X16310000Y-9130000I60000J0D01*
G01*
X16190000Y-12793910D02*
X16310000Y-12913910D01*
X16310000Y-12793910D02*
X16190000Y-12913910D01*
X16310000Y-12853910D02*
G75*
G03*
X16190000Y-12853910I-60000J0D01*
G01*
X16190000Y-12853910D02*
G75*
G03*
X16310000Y-12853910I60000J0D01*
G01*
X16690000Y-9280000D02*
X16810000Y-9400000D01*
X16810000Y-9280000D02*
X16690000Y-9400000D01*
X16810000Y-9340000D02*
G75*
G03*
X16690000Y-9340000I-60000J0D01*
G01*
X16690000Y-9340000D02*
G75*
G03*
X16810000Y-9340000I60000J0D01*
G01*
X16690000Y-13003910D02*
X16810000Y-13123910D01*
X16810000Y-13003910D02*
X16690000Y-13123910D01*
X16810000Y-13063910D02*
G75*
G03*
X16690000Y-13063910I-60000J0D01*
G01*
X16690000Y-13063910D02*
G75*
G03*
X16810000Y-13063910I60000J0D01*
G01*
X17265000Y-10931955D02*
X17385000Y-11051955D01*
X17385000Y-10931955D02*
X17265000Y-11051955D01*
X17385000Y-10991955D02*
G75*
G03*
X17265000Y-10991955I-60000J0D01*
G01*
X17265000Y-10991955D02*
G75*
G03*
X17385000Y-10991955I60000J0D01*
G01*
X17265000Y-14655864D02*
X17385000Y-14775864D01*
X17385000Y-14655864D02*
X17265000Y-14775864D01*
X17385000Y-14715864D02*
G75*
G03*
X17265000Y-14715864I-60000J0D01*
G01*
X17265000Y-14715864D02*
G75*
G03*
X17385000Y-14715864I60000J0D01*
G01*
X17765000Y-11141955D02*
X17885000Y-11261955D01*
X17885000Y-11141955D02*
X17765000Y-11261955D01*
X17885000Y-11201955D02*
G75*
G03*
X17765000Y-11201955I-60000J0D01*
G01*
X17765000Y-11201955D02*
G75*
G03*
X17885000Y-11201955I60000J0D01*
G01*
X17765000Y-14865864D02*
X17885000Y-14985864D01*
X17885000Y-14865864D02*
X17765000Y-14985864D01*
X17885000Y-14925864D02*
G75*
G03*
X17765000Y-14925864I-60000J0D01*
G01*
X17765000Y-14925864D02*
G75*
G03*
X17885000Y-14925864I60000J0D01*
G01*
X18340000Y-9070000D02*
X18460000Y-9190000D01*
X18460000Y-9070000D02*
X18340000Y-9190000D01*
X18460000Y-9130000D02*
G75*
G03*
X18340000Y-9130000I-60000J0D01*
G01*
X18340000Y-9130000D02*
G75*
G03*
X18460000Y-9130000I60000J0D01*
G01*
X18340000Y-12793910D02*
X18460000Y-12913910D01*
X18460000Y-12793910D02*
X18340000Y-12913910D01*
X18460000Y-12853910D02*
G75*
G03*
X18340000Y-12853910I-60000J0D01*
G01*
X18340000Y-12853910D02*
G75*
G03*
X18460000Y-12853910I60000J0D01*
G01*
X18840000Y-9280000D02*
X18960000Y-9400000D01*
X18960000Y-9280000D02*
X18840000Y-9400000D01*
X18960000Y-9340000D02*
G75*
G03*
X18840000Y-9340000I-60000J0D01*
G01*
X18840000Y-9340000D02*
G75*
G03*
X18960000Y-9340000I60000J0D01*
G01*
X18840000Y-13003910D02*
X18960000Y-13123910D01*
X18960000Y-13003910D02*
X18840000Y-13123910D01*
X18960000Y-13063910D02*
G75*
G03*
X18840000Y-13063910I-60000J0D01*
G01*
X18840000Y-13063910D02*
G75*
G03*
X18960000Y-13063910I60000J0D01*
G01*
X19415000Y-10931955D02*
X19535000Y-11051955D01*
X19535000Y-10931955D02*
X19415000Y-11051955D01*
X19535000Y-10991955D02*
G75*
G03*
X19415000Y-10991955I-60000J0D01*
G01*
X19415000Y-10991955D02*
G75*
G03*
X19535000Y-10991955I60000J0D01*
G01*
X19415000Y-14655864D02*
X19535000Y-14775864D01*
X19535000Y-14655864D02*
X19415000Y-14775864D01*
X19535000Y-14715864D02*
G75*
G03*
X19415000Y-14715864I-60000J0D01*
G01*
X19415000Y-14715864D02*
G75*
G03*
X19535000Y-14715864I60000J0D01*
G01*
X19915000Y-11141955D02*
X20035000Y-11261955D01*
X20035000Y-11141955D02*
X19915000Y-11261955D01*
X20035000Y-11201955D02*
G75*
G03*
X19915000Y-11201955I-60000J0D01*
G01*
X19915000Y-11201955D02*
G75*
G03*
X20035000Y-11201955I60000J0D01*
G01*
X19915000Y-14865864D02*
X20035000Y-14985864D01*
X20035000Y-14865864D02*
X19915000Y-14985864D01*
X20035000Y-14925864D02*
G75*
G03*
X19915000Y-14925864I-60000J0D01*
G01*
X19915000Y-14925864D02*
G75*
G03*
X20035000Y-14925864I60000J0D01*
G01*
X20490000Y-9070000D02*
X20610000Y-9190000D01*
X20610000Y-9070000D02*
X20490000Y-9190000D01*
X20610000Y-9130000D02*
G75*
G03*
X20490000Y-9130000I-60000J0D01*
G01*
X20490000Y-9130000D02*
G75*
G03*
X20610000Y-9130000I60000J0D01*
G01*
X20490000Y-12793910D02*
X20610000Y-12913910D01*
X20610000Y-12793910D02*
X20490000Y-12913910D01*
X20610000Y-12853910D02*
G75*
G03*
X20490000Y-12853910I-60000J0D01*
G01*
X20490000Y-12853910D02*
G75*
G03*
X20610000Y-12853910I60000J0D01*
G01*
X20990000Y-9280000D02*
X21110000Y-9400000D01*
X21110000Y-9280000D02*
X20990000Y-9400000D01*
X21110000Y-9340000D02*
G75*
G03*
X20990000Y-9340000I-60000J0D01*
G01*
X20990000Y-9340000D02*
G75*
G03*
X21110000Y-9340000I60000J0D01*
G01*
X20990000Y-13003910D02*
X21110000Y-13123910D01*
X21110000Y-13003910D02*
X20990000Y-13123910D01*
X21110000Y-13063910D02*
G75*
G03*
X20990000Y-13063910I-60000J0D01*
G01*
X20990000Y-13063910D02*
G75*
G03*
X21110000Y-13063910I60000J0D01*
G01*
X21565000Y-10931955D02*
X21685000Y-11051955D01*
X21685000Y-10931955D02*
X21565000Y-11051955D01*
X21685000Y-10991955D02*
G75*
G03*
X21565000Y-10991955I-60000J0D01*
G01*
X21565000Y-10991955D02*
G75*
G03*
X21685000Y-10991955I60000J0D01*
G01*
X21565000Y-14655864D02*
X21685000Y-14775864D01*
X21685000Y-14655864D02*
X21565000Y-14775864D01*
X21685000Y-14715864D02*
G75*
G03*
X21565000Y-14715864I-60000J0D01*
G01*
X21565000Y-14715864D02*
G75*
G03*
X21685000Y-14715864I60000J0D01*
G01*
X22065000Y-11141955D02*
X22185000Y-11261955D01*
X22185000Y-11141955D02*
X22065000Y-11261955D01*
X22185000Y-11201955D02*
G75*
G03*
X22065000Y-11201955I-60000J0D01*
G01*
X22065000Y-11201955D02*
G75*
G03*
X22185000Y-11201955I60000J0D01*
G01*
X22065000Y-14865864D02*
X22185000Y-14985864D01*
X22185000Y-14865864D02*
X22065000Y-14985864D01*
X22185000Y-14925864D02*
G75*
G03*
X22065000Y-14925864I-60000J0D01*
G01*
X22065000Y-14925864D02*
G75*
G03*
X22185000Y-14925864I60000J0D01*
G01*
X22640000Y-9070000D02*
X22760000Y-9190000D01*
X22760000Y-9070000D02*
X22640000Y-9190000D01*
X22760000Y-9130000D02*
G75*
G03*
X22640000Y-9130000I-60000J0D01*
G01*
X22640000Y-9130000D02*
G75*
G03*
X22760000Y-9130000I60000J0D01*
G01*
X22640000Y-12793910D02*
X22760000Y-12913910D01*
X22760000Y-12793910D02*
X22640000Y-12913910D01*
X22760000Y-12853910D02*
G75*
G03*
X22640000Y-12853910I-60000J0D01*
G01*
X22640000Y-12853910D02*
G75*
G03*
X22760000Y-12853910I60000J0D01*
G01*
X23140000Y-9280000D02*
X23260000Y-9400000D01*
X23260000Y-9280000D02*
X23140000Y-9400000D01*
X23260000Y-9340000D02*
G75*
G03*
X23140000Y-9340000I-60000J0D01*
G01*
X23140000Y-9340000D02*
G75*
G03*
X23260000Y-9340000I60000J0D01*
G01*
X23140000Y-13003910D02*
X23260000Y-13123910D01*
X23260000Y-13003910D02*
X23140000Y-13123910D01*
X23260000Y-13063910D02*
G75*
G03*
X23140000Y-13063910I-60000J0D01*
G01*
X23140000Y-13063910D02*
G75*
G03*
X23260000Y-13063910I60000J0D01*
G01*
X23715000Y-10931955D02*
X23835000Y-11051955D01*
X23835000Y-10931955D02*
X23715000Y-11051955D01*
X23835000Y-10991955D02*
G75*
G03*
X23715000Y-10991955I-60000J0D01*
G01*
X23715000Y-10991955D02*
G75*
G03*
X23835000Y-10991955I60000J0D01*
G01*
X23715000Y-14655864D02*
X23835000Y-14775864D01*
X23835000Y-14655864D02*
X23715000Y-14775864D01*
X23835000Y-14715864D02*
G75*
G03*
X23715000Y-14715864I-60000J0D01*
G01*
X23715000Y-14715864D02*
G75*
G03*
X23835000Y-14715864I60000J0D01*
G01*
X24215000Y-11141955D02*
X24335000Y-11261955D01*
X24335000Y-11141955D02*
X24215000Y-11261955D01*
X24335000Y-11201955D02*
G75*
G03*
X24215000Y-11201955I-60000J0D01*
G01*
X24215000Y-11201955D02*
G75*
G03*
X24335000Y-11201955I60000J0D01*
G01*
X24215000Y-14865864D02*
X24335000Y-14985864D01*
X24335000Y-14865864D02*
X24215000Y-14985864D01*
X24335000Y-14925864D02*
G75*
G03*
X24215000Y-14925864I-60000J0D01*
G01*
X24215000Y-14925864D02*
G75*
G03*
X24335000Y-14925864I60000J0D01*
G01*
X24790000Y-9070000D02*
X24910000Y-9190000D01*
X24910000Y-9070000D02*
X24790000Y-9190000D01*
X24910000Y-9130000D02*
G75*
G03*
X24790000Y-9130000I-60000J0D01*
G01*
X24790000Y-9130000D02*
G75*
G03*
X24910000Y-9130000I60000J0D01*
G01*
X24790000Y-12793910D02*
X24910000Y-12913910D01*
X24910000Y-12793910D02*
X24790000Y-12913910D01*
X24910000Y-12853910D02*
G75*
G03*
X24790000Y-12853910I-60000J0D01*
G01*
X24790000Y-12853910D02*
G75*
G03*
X24910000Y-12853910I60000J0D01*
G01*
X25290000Y-9280000D02*
X25410000Y-9400000D01*
X25410000Y-9280000D02*
X25290000Y-9400000D01*
X25410000Y-9340000D02*
G75*
G03*
X25290000Y-9340000I-60000J0D01*
G01*
X25290000Y-9340000D02*
G75*
G03*
X25410000Y-9340000I60000J0D01*
G01*
X25290000Y-13003910D02*
X25410000Y-13123910D01*
X25410000Y-13003910D02*
X25290000Y-13123910D01*
X25410000Y-13063910D02*
G75*
G03*
X25290000Y-13063910I-60000J0D01*
G01*
X25290000Y-13063910D02*
G75*
G03*
X25410000Y-13063910I60000J0D01*
G01*
X25865000Y-10931955D02*
X25985000Y-11051955D01*
X25985000Y-10931955D02*
X25865000Y-11051955D01*
X25985000Y-10991955D02*
G75*
G03*
X25865000Y-10991955I-60000J0D01*
G01*
X25865000Y-10991955D02*
G75*
G03*
X25985000Y-10991955I60000J0D01*
G01*
X25865000Y-14655864D02*
X25985000Y-14775864D01*
X25985000Y-14655864D02*
X25865000Y-14775864D01*
X25985000Y-14715864D02*
G75*
G03*
X25865000Y-14715864I-60000J0D01*
G01*
X25865000Y-14715864D02*
G75*
G03*
X25985000Y-14715864I60000J0D01*
G01*
X26365000Y-11141955D02*
X26485000Y-11261955D01*
X26485000Y-11141955D02*
X26365000Y-11261955D01*
X26485000Y-11201955D02*
G75*
G03*
X26365000Y-11201955I-60000J0D01*
G01*
X26365000Y-11201955D02*
G75*
G03*
X26485000Y-11201955I60000J0D01*
G01*
X26365000Y-14865864D02*
X26485000Y-14985864D01*
X26485000Y-14865864D02*
X26365000Y-14985864D01*
X26485000Y-14925864D02*
G75*
G03*
X26365000Y-14925864I-60000J0D01*
G01*
X26365000Y-14925864D02*
G75*
G03*
X26485000Y-14925864I60000J0D01*
G01*
D15*
X22802172Y-2560000D02*
X22942172Y-2700000D01*
X22942172Y-2560000D02*
X22802172Y-2700000D01*
X22872172Y-2560000D02*
X22872172Y-2700000D01*
X22802172Y-2630000D02*
X22942172Y-2630000D01*
X22802172Y-3195000D02*
X22942172Y-3335000D01*
X22942172Y-3195000D02*
X22802172Y-3335000D01*
X22872172Y-3195000D02*
X22872172Y-3335000D01*
X22802172Y-3265000D02*
X22942172Y-3265000D01*
X22802172Y-3830000D02*
X22942172Y-3970000D01*
X22942172Y-3830000D02*
X22802172Y-3970000D01*
X22872172Y-3830000D02*
X22872172Y-3970000D01*
X22802172Y-3900000D02*
X22942172Y-3900000D01*
X24425172Y-2560000D02*
X24565172Y-2700000D01*
X24565172Y-2560000D02*
X24425172Y-2700000D01*
X24495172Y-2560000D02*
X24495172Y-2700000D01*
X24425172Y-2630000D02*
X24565172Y-2630000D01*
X24425172Y-3195000D02*
X24565172Y-3335000D01*
X24565172Y-3195000D02*
X24425172Y-3335000D01*
X24495172Y-3195000D02*
X24495172Y-3335000D01*
X24425172Y-3265000D02*
X24565172Y-3265000D01*
X24425172Y-3830000D02*
X24565172Y-3970000D01*
X24565172Y-3830000D02*
X24425172Y-3970000D01*
X24495172Y-3830000D02*
X24495172Y-3970000D01*
X24425172Y-3900000D02*
X24565172Y-3900000D01*
X25495615Y-2560000D02*
X25635615Y-2700000D01*
X25635615Y-2560000D02*
X25495615Y-2700000D01*
X25565615Y-2560000D02*
X25565615Y-2700000D01*
X25495615Y-2630000D02*
X25635615Y-2630000D01*
X25495615Y-3195000D02*
X25635615Y-3335000D01*
X25635615Y-3195000D02*
X25495615Y-3335000D01*
X25565615Y-3195000D02*
X25565615Y-3335000D01*
X25495615Y-3265000D02*
X25635615Y-3265000D01*
X25495615Y-3830000D02*
X25635615Y-3970000D01*
X25635615Y-3830000D02*
X25495615Y-3970000D01*
X25565615Y-3830000D02*
X25565615Y-3970000D01*
X25495615Y-3900000D02*
X25635615Y-3900000D01*
X27118615Y-2560000D02*
X27258615Y-2700000D01*
X27258615Y-2560000D02*
X27118615Y-2700000D01*
X27188615Y-2560000D02*
X27188615Y-2700000D01*
X27118615Y-2630000D02*
X27258615Y-2630000D01*
X27118615Y-3195000D02*
X27258615Y-3335000D01*
X27258615Y-3195000D02*
X27118615Y-3335000D01*
X27188615Y-3195000D02*
X27188615Y-3335000D01*
X27118615Y-3265000D02*
X27258615Y-3265000D01*
X27118615Y-3830000D02*
X27258615Y-3970000D01*
X27258615Y-3830000D02*
X27118615Y-3970000D01*
X27188615Y-3830000D02*
X27188615Y-3970000D01*
X27118615Y-3900000D02*
X27258615Y-3900000D01*
D16*
X4815000Y-8260122D02*
X4965000Y-8410122D01*
X4965000Y-8260122D02*
X4815000Y-8410122D01*
X4943034Y-8388156D02*
X4943034Y-8282089D01*
X4836967Y-8282089D01*
X4836967Y-8388156D01*
X4943034Y-8388156D01*
X4815000Y-10122077D02*
X4965000Y-10272077D01*
X4965000Y-10122077D02*
X4815000Y-10272077D01*
X4943034Y-10250111D02*
X4943034Y-10144044D01*
X4836967Y-10144044D01*
X4836967Y-10250111D01*
X4943034Y-10250111D01*
X4815000Y-11984032D02*
X4965000Y-12134032D01*
X4965000Y-11984032D02*
X4815000Y-12134032D01*
X4943034Y-12112065D02*
X4943034Y-12005998D01*
X4836967Y-12005998D01*
X4836967Y-12112065D01*
X4943034Y-12112065D01*
X4815000Y-13845987D02*
X4965000Y-13995987D01*
X4965000Y-13845987D02*
X4815000Y-13995987D01*
X4943034Y-13974020D02*
X4943034Y-13867953D01*
X4836967Y-13867953D01*
X4836967Y-13974020D01*
X4943034Y-13974020D01*
X5450000Y-8006122D02*
X5600000Y-8156122D01*
X5600000Y-8006122D02*
X5450000Y-8156122D01*
X5578034Y-8134156D02*
X5578034Y-8028089D01*
X5471967Y-8028089D01*
X5471967Y-8134156D01*
X5578034Y-8134156D01*
X5450000Y-9868077D02*
X5600000Y-10018077D01*
X5600000Y-9868077D02*
X5450000Y-10018077D01*
X5578034Y-9996111D02*
X5578034Y-9890044D01*
X5471967Y-9890044D01*
X5471967Y-9996111D01*
X5578034Y-9996111D01*
X5450000Y-11730032D02*
X5600000Y-11880032D01*
X5600000Y-11730032D02*
X5450000Y-11880032D01*
X5578034Y-11858065D02*
X5578034Y-11751998D01*
X5471967Y-11751998D01*
X5471967Y-11858065D01*
X5578034Y-11858065D01*
X5450000Y-13591987D02*
X5600000Y-13741987D01*
X5600000Y-13591987D02*
X5450000Y-13741987D01*
X5578034Y-13720020D02*
X5578034Y-13613953D01*
X5471967Y-13613953D01*
X5471967Y-13720020D01*
X5578034Y-13720020D01*
X6711000Y-8260122D02*
X6861000Y-8410122D01*
X6861000Y-8260122D02*
X6711000Y-8410122D01*
X6839033Y-8388156D02*
X6839033Y-8282089D01*
X6732966Y-8282089D01*
X6732966Y-8388156D01*
X6839033Y-8388156D01*
X6711000Y-10122077D02*
X6861000Y-10272077D01*
X6861000Y-10122077D02*
X6711000Y-10272077D01*
X6839033Y-10250111D02*
X6839033Y-10144044D01*
X6732966Y-10144044D01*
X6732966Y-10250111D01*
X6839033Y-10250111D01*
X6711000Y-11984032D02*
X6861000Y-12134032D01*
X6861000Y-11984032D02*
X6711000Y-12134032D01*
X6839033Y-12112065D02*
X6839033Y-12005998D01*
X6732966Y-12005998D01*
X6732966Y-12112065D01*
X6839033Y-12112065D01*
X6711000Y-13845987D02*
X6861000Y-13995987D01*
X6861000Y-13845987D02*
X6711000Y-13995987D01*
X6839033Y-13974020D02*
X6839033Y-13867953D01*
X6732966Y-13867953D01*
X6732966Y-13974020D01*
X6839033Y-13974020D01*
X7346000Y-8006122D02*
X7496000Y-8156122D01*
X7496000Y-8006122D02*
X7346000Y-8156122D01*
X7474033Y-8134156D02*
X7474033Y-8028089D01*
X7367966Y-8028089D01*
X7367966Y-8134156D01*
X7474033Y-8134156D01*
X7346000Y-9868077D02*
X7496000Y-10018077D01*
X7496000Y-9868077D02*
X7346000Y-10018077D01*
X7474033Y-9996111D02*
X7474033Y-9890044D01*
X7367966Y-9890044D01*
X7367966Y-9996111D01*
X7474033Y-9996111D01*
X7346000Y-11730032D02*
X7496000Y-11880032D01*
X7496000Y-11730032D02*
X7346000Y-11880032D01*
X7474033Y-11858065D02*
X7474033Y-11751998D01*
X7367966Y-11751998D01*
X7367966Y-11858065D01*
X7474033Y-11858065D01*
X7346000Y-13591987D02*
X7496000Y-13741987D01*
X7496000Y-13591987D02*
X7346000Y-13741987D01*
X7474033Y-13720020D02*
X7474033Y-13613953D01*
X7367966Y-13613953D01*
X7367966Y-13720020D01*
X7474033Y-13720020D01*
X13115000Y-4475000D02*
X13265000Y-4625000D01*
X13265000Y-4475000D02*
X13115000Y-4625000D01*
X13243033Y-4603034D02*
X13243033Y-4496967D01*
X13136966Y-4496967D01*
X13136966Y-4603034D01*
X13243033Y-4603034D01*
D12*
X13265000Y-4615000D02*
X13265000Y-4485000D01*
X13265000Y-4485000D02*
G75*
G03*
X13115000Y-4485000I-75000J0D01*
G01*
X13115000Y-4485000D02*
X13115000Y-4615000D01*
X13115000Y-4615000D02*
G75*
G03*
X13265000Y-4615000I75000J0D01*
G01*
D16*
X14235000Y-4475000D02*
X14385000Y-4625000D01*
X14385000Y-4475000D02*
X14235000Y-4625000D01*
X14363033Y-4603034D02*
X14363033Y-4496967D01*
X14256966Y-4496967D01*
X14256966Y-4603034D01*
X14363033Y-4603034D01*
D12*
X14385000Y-4615000D02*
X14385000Y-4485000D01*
X14385000Y-4485000D02*
G75*
G03*
X14235000Y-4485000I-75000J0D01*
G01*
X14235000Y-4485000D02*
X14235000Y-4615000D01*
X14235000Y-4615000D02*
G75*
G03*
X14385000Y-4615000I75000J0D01*
G01*
D17*
X4375090Y-2950000D02*
X4675090Y-3250000D01*
X4675090Y-2950000D02*
X4375090Y-3250000D01*
X4525090Y-3250000D02*
X4675090Y-3100000D01*
X4525090Y-2950000D01*
X4375090Y-3100000D01*
X4525090Y-3250000D01*
X4375090Y-6050070D02*
X4675090Y-6350070D01*
X4675090Y-6050070D02*
X4375090Y-6350070D01*
X4525090Y-6350070D02*
X4675090Y-6200070D01*
X4525090Y-6050070D01*
X4375090Y-6200070D01*
X4525090Y-6350070D01*
X11874948Y-6050070D02*
X12174948Y-6350070D01*
X12174948Y-6050070D02*
X11874948Y-6350070D01*
X12024948Y-6350070D02*
X12174948Y-6200070D01*
X12024948Y-6050070D01*
X11874948Y-6200070D01*
X12024948Y-6350070D01*
X11875000Y-2950000D02*
X12175000Y-3250000D01*
X12175000Y-2950000D02*
X11875000Y-3250000D01*
X12025000Y-3250000D02*
X12175000Y-3100000D01*
X12025000Y-2950000D01*
X11875000Y-3100000D01*
X12025000Y-3250000D01*
D11*
X4068872Y-16188389D02*
X4068872Y-15988389D01*
X4068872Y-15988389D02*
X4116491Y-15988389D01*
X4116491Y-15988389D02*
X4145062Y-15997913D01*
X4145062Y-15997913D02*
X4164110Y-16016960D01*
X4164110Y-16016960D02*
X4173634Y-16036008D01*
X4173634Y-16036008D02*
X4183157Y-16074103D01*
X4183157Y-16074103D02*
X4183157Y-16102674D01*
X4183157Y-16102674D02*
X4173634Y-16140770D01*
X4173634Y-16140770D02*
X4164110Y-16159817D01*
X4164110Y-16159817D02*
X4145062Y-16178865D01*
X4145062Y-16178865D02*
X4116491Y-16188389D01*
X4116491Y-16188389D02*
X4068872Y-16188389D01*
X4268872Y-16188389D02*
X4268872Y-16055055D01*
X4268872Y-16093151D02*
X4278396Y-16074103D01*
X4278396Y-16074103D02*
X4287919Y-16064579D01*
X4287919Y-16064579D02*
X4306967Y-16055055D01*
X4306967Y-16055055D02*
X4326015Y-16055055D01*
X4392681Y-16188389D02*
X4392681Y-16055055D01*
X4392681Y-15988389D02*
X4383158Y-15997913D01*
X4383158Y-15997913D02*
X4392681Y-16007436D01*
X4392681Y-16007436D02*
X4402205Y-15997913D01*
X4402205Y-15997913D02*
X4392681Y-15988389D01*
X4392681Y-15988389D02*
X4392681Y-16007436D01*
X4516491Y-16188389D02*
X4497443Y-16178865D01*
X4497443Y-16178865D02*
X4487919Y-16159817D01*
X4487919Y-16159817D02*
X4487919Y-15988389D01*
X4621253Y-16188389D02*
X4602205Y-16178865D01*
X4602205Y-16178865D02*
X4592681Y-16159817D01*
X4592681Y-16159817D02*
X4592681Y-15988389D01*
X4849824Y-16188389D02*
X4849824Y-15988389D01*
X4849824Y-15988389D02*
X4916491Y-16131246D01*
X4916491Y-16131246D02*
X4983158Y-15988389D01*
X4983158Y-15988389D02*
X4983158Y-16188389D01*
X5164110Y-16188389D02*
X5164110Y-16083627D01*
X5164110Y-16083627D02*
X5154586Y-16064579D01*
X5154586Y-16064579D02*
X5135539Y-16055055D01*
X5135539Y-16055055D02*
X5097443Y-16055055D01*
X5097443Y-16055055D02*
X5078396Y-16064579D01*
X5164110Y-16178865D02*
X5145062Y-16188389D01*
X5145062Y-16188389D02*
X5097443Y-16188389D01*
X5097443Y-16188389D02*
X5078396Y-16178865D01*
X5078396Y-16178865D02*
X5068872Y-16159817D01*
X5068872Y-16159817D02*
X5068872Y-16140770D01*
X5068872Y-16140770D02*
X5078396Y-16121722D01*
X5078396Y-16121722D02*
X5097443Y-16112198D01*
X5097443Y-16112198D02*
X5145062Y-16112198D01*
X5145062Y-16112198D02*
X5164110Y-16102674D01*
X5259348Y-16055055D02*
X5259348Y-16255055D01*
X5259348Y-16064579D02*
X5278396Y-16055055D01*
X5278396Y-16055055D02*
X5316491Y-16055055D01*
X5316491Y-16055055D02*
X5335539Y-16064579D01*
X5335539Y-16064579D02*
X5345062Y-16074103D01*
X5345062Y-16074103D02*
X5354586Y-16093151D01*
X5354586Y-16093151D02*
X5354586Y-16150293D01*
X5354586Y-16150293D02*
X5345062Y-16169341D01*
X5345062Y-16169341D02*
X5335539Y-16178865D01*
X5335539Y-16178865D02*
X5316491Y-16188389D01*
X5316491Y-16188389D02*
X5278396Y-16188389D01*
X5278396Y-16188389D02*
X5259348Y-16178865D01*
X5440300Y-16169341D02*
X5449824Y-16178865D01*
X5449824Y-16178865D02*
X5440300Y-16188389D01*
X5440300Y-16188389D02*
X5430777Y-16178865D01*
X5430777Y-16178865D02*
X5440300Y-16169341D01*
X5440300Y-16169341D02*
X5440300Y-16188389D01*
X5440300Y-16064579D02*
X5449824Y-16074103D01*
X5449824Y-16074103D02*
X5440300Y-16083627D01*
X5440300Y-16083627D02*
X5430777Y-16074103D01*
X5430777Y-16074103D02*
X5440300Y-16064579D01*
X5440300Y-16064579D02*
X5440300Y-16083627D01*
D12*
X3778095Y-16501905D02*
X3808095Y-16531905D01*
X3808095Y-16501905D02*
X3778095Y-16531905D01*
D11*
X4106967Y-16408389D02*
X4126015Y-16408389D01*
X4126015Y-16408389D02*
X4145062Y-16417913D01*
X4145062Y-16417913D02*
X4154586Y-16427436D01*
X4154586Y-16427436D02*
X4164110Y-16446484D01*
X4164110Y-16446484D02*
X4173634Y-16484579D01*
X4173634Y-16484579D02*
X4173634Y-16532198D01*
X4173634Y-16532198D02*
X4164110Y-16570293D01*
X4164110Y-16570293D02*
X4154586Y-16589341D01*
X4154586Y-16589341D02*
X4145062Y-16598865D01*
X4145062Y-16598865D02*
X4126015Y-16608389D01*
X4126015Y-16608389D02*
X4106967Y-16608389D01*
X4106967Y-16608389D02*
X4087919Y-16598865D01*
X4087919Y-16598865D02*
X4078396Y-16589341D01*
X4078396Y-16589341D02*
X4068872Y-16570293D01*
X4068872Y-16570293D02*
X4059348Y-16532198D01*
X4059348Y-16532198D02*
X4059348Y-16484579D01*
X4059348Y-16484579D02*
X4068872Y-16446484D01*
X4068872Y-16446484D02*
X4078396Y-16427436D01*
X4078396Y-16427436D02*
X4087919Y-16417913D01*
X4087919Y-16417913D02*
X4106967Y-16408389D01*
X4259348Y-16589341D02*
X4268872Y-16598865D01*
X4268872Y-16598865D02*
X4259348Y-16608389D01*
X4259348Y-16608389D02*
X4249824Y-16598865D01*
X4249824Y-16598865D02*
X4259348Y-16589341D01*
X4259348Y-16589341D02*
X4259348Y-16608389D01*
X4335539Y-16408389D02*
X4459348Y-16408389D01*
X4459348Y-16408389D02*
X4392681Y-16484579D01*
X4392681Y-16484579D02*
X4421253Y-16484579D01*
X4421253Y-16484579D02*
X4440300Y-16494103D01*
X4440300Y-16494103D02*
X4449824Y-16503627D01*
X4449824Y-16503627D02*
X4459348Y-16522674D01*
X4459348Y-16522674D02*
X4459348Y-16570293D01*
X4459348Y-16570293D02*
X4449824Y-16589341D01*
X4449824Y-16589341D02*
X4440300Y-16598865D01*
X4440300Y-16598865D02*
X4421253Y-16608389D01*
X4421253Y-16608389D02*
X4364110Y-16608389D01*
X4364110Y-16608389D02*
X4345062Y-16598865D01*
X4345062Y-16598865D02*
X4335539Y-16589341D01*
X4583158Y-16408389D02*
X4602205Y-16408389D01*
X4602205Y-16408389D02*
X4621253Y-16417913D01*
X4621253Y-16417913D02*
X4630777Y-16427436D01*
X4630777Y-16427436D02*
X4640300Y-16446484D01*
X4640300Y-16446484D02*
X4649824Y-16484579D01*
X4649824Y-16484579D02*
X4649824Y-16532198D01*
X4649824Y-16532198D02*
X4640300Y-16570293D01*
X4640300Y-16570293D02*
X4630777Y-16589341D01*
X4630777Y-16589341D02*
X4621253Y-16598865D01*
X4621253Y-16598865D02*
X4602205Y-16608389D01*
X4602205Y-16608389D02*
X4583158Y-16608389D01*
X4583158Y-16608389D02*
X4564110Y-16598865D01*
X4564110Y-16598865D02*
X4554586Y-16589341D01*
X4554586Y-16589341D02*
X4545062Y-16570293D01*
X4545062Y-16570293D02*
X4535539Y-16532198D01*
X4535539Y-16532198D02*
X4535539Y-16484579D01*
X4535539Y-16484579D02*
X4545062Y-16446484D01*
X4545062Y-16446484D02*
X4554586Y-16427436D01*
X4554586Y-16427436D02*
X4564110Y-16417913D01*
X4564110Y-16417913D02*
X4583158Y-16408389D01*
X4773634Y-16408389D02*
X4792681Y-16408389D01*
X4792681Y-16408389D02*
X4811729Y-16417913D01*
X4811729Y-16417913D02*
X4821253Y-16427436D01*
X4821253Y-16427436D02*
X4830777Y-16446484D01*
X4830777Y-16446484D02*
X4840300Y-16484579D01*
X4840300Y-16484579D02*
X4840300Y-16532198D01*
X4840300Y-16532198D02*
X4830777Y-16570293D01*
X4830777Y-16570293D02*
X4821253Y-16589341D01*
X4821253Y-16589341D02*
X4811729Y-16598865D01*
X4811729Y-16598865D02*
X4792681Y-16608389D01*
X4792681Y-16608389D02*
X4773634Y-16608389D01*
X4773634Y-16608389D02*
X4754586Y-16598865D01*
X4754586Y-16598865D02*
X4745062Y-16589341D01*
X4745062Y-16589341D02*
X4735539Y-16570293D01*
X4735539Y-16570293D02*
X4726015Y-16532198D01*
X4726015Y-16532198D02*
X4726015Y-16484579D01*
X4726015Y-16484579D02*
X4735539Y-16446484D01*
X4735539Y-16446484D02*
X4745062Y-16427436D01*
X4745062Y-16427436D02*
X4754586Y-16417913D01*
X4754586Y-16417913D02*
X4773634Y-16408389D01*
X4926015Y-16608389D02*
X4926015Y-16475055D01*
X4926015Y-16494103D02*
X4935539Y-16484579D01*
X4935539Y-16484579D02*
X4954586Y-16475055D01*
X4954586Y-16475055D02*
X4983158Y-16475055D01*
X4983158Y-16475055D02*
X5002205Y-16484579D01*
X5002205Y-16484579D02*
X5011729Y-16503627D01*
X5011729Y-16503627D02*
X5011729Y-16608389D01*
X5011729Y-16503627D02*
X5021253Y-16484579D01*
X5021253Y-16484579D02*
X5040300Y-16475055D01*
X5040300Y-16475055D02*
X5068872Y-16475055D01*
X5068872Y-16475055D02*
X5087920Y-16484579D01*
X5087920Y-16484579D02*
X5097443Y-16503627D01*
X5097443Y-16503627D02*
X5097443Y-16608389D01*
X5192681Y-16608389D02*
X5192681Y-16475055D01*
X5192681Y-16494103D02*
X5202205Y-16484579D01*
X5202205Y-16484579D02*
X5221253Y-16475055D01*
X5221253Y-16475055D02*
X5249824Y-16475055D01*
X5249824Y-16475055D02*
X5268872Y-16484579D01*
X5268872Y-16484579D02*
X5278396Y-16503627D01*
X5278396Y-16503627D02*
X5278396Y-16608389D01*
X5278396Y-16503627D02*
X5287920Y-16484579D01*
X5287920Y-16484579D02*
X5306967Y-16475055D01*
X5306967Y-16475055D02*
X5335539Y-16475055D01*
X5335539Y-16475055D02*
X5354586Y-16484579D01*
X5354586Y-16484579D02*
X5364110Y-16503627D01*
X5364110Y-16503627D02*
X5364110Y-16608389D01*
X5754586Y-16398865D02*
X5583158Y-16656008D01*
X6011729Y-16408389D02*
X6030777Y-16408389D01*
X6030777Y-16408389D02*
X6049824Y-16417913D01*
X6049824Y-16417913D02*
X6059348Y-16427436D01*
X6059348Y-16427436D02*
X6068872Y-16446484D01*
X6068872Y-16446484D02*
X6078396Y-16484579D01*
X6078396Y-16484579D02*
X6078396Y-16532198D01*
X6078396Y-16532198D02*
X6068872Y-16570293D01*
X6068872Y-16570293D02*
X6059348Y-16589341D01*
X6059348Y-16589341D02*
X6049824Y-16598865D01*
X6049824Y-16598865D02*
X6030777Y-16608389D01*
X6030777Y-16608389D02*
X6011729Y-16608389D01*
X6011729Y-16608389D02*
X5992681Y-16598865D01*
X5992681Y-16598865D02*
X5983158Y-16589341D01*
X5983158Y-16589341D02*
X5973634Y-16570293D01*
X5973634Y-16570293D02*
X5964110Y-16532198D01*
X5964110Y-16532198D02*
X5964110Y-16484579D01*
X5964110Y-16484579D02*
X5973634Y-16446484D01*
X5973634Y-16446484D02*
X5983158Y-16427436D01*
X5983158Y-16427436D02*
X5992681Y-16417913D01*
X5992681Y-16417913D02*
X6011729Y-16408389D01*
X6164110Y-16589341D02*
X6173634Y-16598865D01*
X6173634Y-16598865D02*
X6164110Y-16608389D01*
X6164110Y-16608389D02*
X6154586Y-16598865D01*
X6154586Y-16598865D02*
X6164110Y-16589341D01*
X6164110Y-16589341D02*
X6164110Y-16608389D01*
X6297443Y-16408389D02*
X6316491Y-16408389D01*
X6316491Y-16408389D02*
X6335539Y-16417913D01*
X6335539Y-16417913D02*
X6345062Y-16427436D01*
X6345062Y-16427436D02*
X6354586Y-16446484D01*
X6354586Y-16446484D02*
X6364110Y-16484579D01*
X6364110Y-16484579D02*
X6364110Y-16532198D01*
X6364110Y-16532198D02*
X6354586Y-16570293D01*
X6354586Y-16570293D02*
X6345062Y-16589341D01*
X6345062Y-16589341D02*
X6335539Y-16598865D01*
X6335539Y-16598865D02*
X6316491Y-16608389D01*
X6316491Y-16608389D02*
X6297443Y-16608389D01*
X6297443Y-16608389D02*
X6278396Y-16598865D01*
X6278396Y-16598865D02*
X6268872Y-16589341D01*
X6268872Y-16589341D02*
X6259348Y-16570293D01*
X6259348Y-16570293D02*
X6249824Y-16532198D01*
X6249824Y-16532198D02*
X6249824Y-16484579D01*
X6249824Y-16484579D02*
X6259348Y-16446484D01*
X6259348Y-16446484D02*
X6268872Y-16427436D01*
X6268872Y-16427436D02*
X6278396Y-16417913D01*
X6278396Y-16417913D02*
X6297443Y-16408389D01*
X6554586Y-16608389D02*
X6440301Y-16608389D01*
X6497443Y-16608389D02*
X6497443Y-16408389D01*
X6497443Y-16408389D02*
X6478396Y-16436960D01*
X6478396Y-16436960D02*
X6459348Y-16456008D01*
X6459348Y-16456008D02*
X6440301Y-16465532D01*
X6745062Y-16608389D02*
X6630777Y-16608389D01*
X6687920Y-16608389D02*
X6687920Y-16408389D01*
X6687920Y-16408389D02*
X6668872Y-16436960D01*
X6668872Y-16436960D02*
X6649824Y-16456008D01*
X6649824Y-16456008D02*
X6630777Y-16465532D01*
X6859348Y-16494103D02*
X6840301Y-16484579D01*
X6840301Y-16484579D02*
X6830777Y-16475055D01*
X6830777Y-16475055D02*
X6821253Y-16456008D01*
X6821253Y-16456008D02*
X6821253Y-16446484D01*
X6821253Y-16446484D02*
X6830777Y-16427436D01*
X6830777Y-16427436D02*
X6840301Y-16417913D01*
X6840301Y-16417913D02*
X6859348Y-16408389D01*
X6859348Y-16408389D02*
X6897443Y-16408389D01*
X6897443Y-16408389D02*
X6916491Y-16417913D01*
X6916491Y-16417913D02*
X6926015Y-16427436D01*
X6926015Y-16427436D02*
X6935539Y-16446484D01*
X6935539Y-16446484D02*
X6935539Y-16456008D01*
X6935539Y-16456008D02*
X6926015Y-16475055D01*
X6926015Y-16475055D02*
X6916491Y-16484579D01*
X6916491Y-16484579D02*
X6897443Y-16494103D01*
X6897443Y-16494103D02*
X6859348Y-16494103D01*
X6859348Y-16494103D02*
X6840301Y-16503627D01*
X6840301Y-16503627D02*
X6830777Y-16513151D01*
X6830777Y-16513151D02*
X6821253Y-16532198D01*
X6821253Y-16532198D02*
X6821253Y-16570293D01*
X6821253Y-16570293D02*
X6830777Y-16589341D01*
X6830777Y-16589341D02*
X6840301Y-16598865D01*
X6840301Y-16598865D02*
X6859348Y-16608389D01*
X6859348Y-16608389D02*
X6897443Y-16608389D01*
X6897443Y-16608389D02*
X6916491Y-16598865D01*
X6916491Y-16598865D02*
X6926015Y-16589341D01*
X6926015Y-16589341D02*
X6935539Y-16570293D01*
X6935539Y-16570293D02*
X6935539Y-16532198D01*
X6935539Y-16532198D02*
X6926015Y-16513151D01*
X6926015Y-16513151D02*
X6916491Y-16503627D01*
X6916491Y-16503627D02*
X6897443Y-16494103D01*
X7011729Y-16408389D02*
X7011729Y-16446484D01*
X7087920Y-16408389D02*
X7087920Y-16446484D01*
X7383158Y-16684579D02*
X7373634Y-16675055D01*
X7373634Y-16675055D02*
X7354586Y-16646484D01*
X7354586Y-16646484D02*
X7345063Y-16627436D01*
X7345063Y-16627436D02*
X7335539Y-16598865D01*
X7335539Y-16598865D02*
X7326015Y-16551246D01*
X7326015Y-16551246D02*
X7326015Y-16513151D01*
X7326015Y-16513151D02*
X7335539Y-16465532D01*
X7335539Y-16465532D02*
X7345063Y-16436960D01*
X7345063Y-16436960D02*
X7354586Y-16417913D01*
X7354586Y-16417913D02*
X7373634Y-16389341D01*
X7373634Y-16389341D02*
X7383158Y-16379817D01*
X7564110Y-16608389D02*
X7449824Y-16608389D01*
X7506967Y-16608389D02*
X7506967Y-16408389D01*
X7506967Y-16408389D02*
X7487920Y-16436960D01*
X7487920Y-16436960D02*
X7468872Y-16456008D01*
X7468872Y-16456008D02*
X7449824Y-16465532D01*
X7735539Y-16408389D02*
X7697443Y-16408389D01*
X7697443Y-16408389D02*
X7678396Y-16417913D01*
X7678396Y-16417913D02*
X7668872Y-16427436D01*
X7668872Y-16427436D02*
X7649824Y-16456008D01*
X7649824Y-16456008D02*
X7640301Y-16494103D01*
X7640301Y-16494103D02*
X7640301Y-16570293D01*
X7640301Y-16570293D02*
X7649824Y-16589341D01*
X7649824Y-16589341D02*
X7659348Y-16598865D01*
X7659348Y-16598865D02*
X7678396Y-16608389D01*
X7678396Y-16608389D02*
X7716491Y-16608389D01*
X7716491Y-16608389D02*
X7735539Y-16598865D01*
X7735539Y-16598865D02*
X7745063Y-16589341D01*
X7745063Y-16589341D02*
X7754586Y-16570293D01*
X7754586Y-16570293D02*
X7754586Y-16522674D01*
X7754586Y-16522674D02*
X7745063Y-16503627D01*
X7745063Y-16503627D02*
X7735539Y-16494103D01*
X7735539Y-16494103D02*
X7716491Y-16484579D01*
X7716491Y-16484579D02*
X7678396Y-16484579D01*
X7678396Y-16484579D02*
X7659348Y-16494103D01*
X7659348Y-16494103D02*
X7649824Y-16503627D01*
X7649824Y-16503627D02*
X7640301Y-16522674D01*
X7868872Y-16494103D02*
X7849824Y-16484579D01*
X7849824Y-16484579D02*
X7840301Y-16475055D01*
X7840301Y-16475055D02*
X7830777Y-16456008D01*
X7830777Y-16456008D02*
X7830777Y-16446484D01*
X7830777Y-16446484D02*
X7840301Y-16427436D01*
X7840301Y-16427436D02*
X7849824Y-16417913D01*
X7849824Y-16417913D02*
X7868872Y-16408389D01*
X7868872Y-16408389D02*
X7906967Y-16408389D01*
X7906967Y-16408389D02*
X7926015Y-16417913D01*
X7926015Y-16417913D02*
X7935539Y-16427436D01*
X7935539Y-16427436D02*
X7945063Y-16446484D01*
X7945063Y-16446484D02*
X7945063Y-16456008D01*
X7945063Y-16456008D02*
X7935539Y-16475055D01*
X7935539Y-16475055D02*
X7926015Y-16484579D01*
X7926015Y-16484579D02*
X7906967Y-16494103D01*
X7906967Y-16494103D02*
X7868872Y-16494103D01*
X7868872Y-16494103D02*
X7849824Y-16503627D01*
X7849824Y-16503627D02*
X7840301Y-16513151D01*
X7840301Y-16513151D02*
X7830777Y-16532198D01*
X7830777Y-16532198D02*
X7830777Y-16570293D01*
X7830777Y-16570293D02*
X7840301Y-16589341D01*
X7840301Y-16589341D02*
X7849824Y-16598865D01*
X7849824Y-16598865D02*
X7868872Y-16608389D01*
X7868872Y-16608389D02*
X7906967Y-16608389D01*
X7906967Y-16608389D02*
X7926015Y-16598865D01*
X7926015Y-16598865D02*
X7935539Y-16589341D01*
X7935539Y-16589341D02*
X7945063Y-16570293D01*
X7945063Y-16570293D02*
X7945063Y-16532198D01*
X7945063Y-16532198D02*
X7935539Y-16513151D01*
X7935539Y-16513151D02*
X7926015Y-16503627D01*
X7926015Y-16503627D02*
X7906967Y-16494103D01*
X8183158Y-16608389D02*
X8183158Y-16408389D01*
X8268872Y-16608389D02*
X8268872Y-16503627D01*
X8268872Y-16503627D02*
X8259348Y-16484579D01*
X8259348Y-16484579D02*
X8240301Y-16475055D01*
X8240301Y-16475055D02*
X8211729Y-16475055D01*
X8211729Y-16475055D02*
X8192682Y-16484579D01*
X8192682Y-16484579D02*
X8183158Y-16494103D01*
X8392682Y-16608389D02*
X8373634Y-16598865D01*
X8373634Y-16598865D02*
X8364110Y-16589341D01*
X8364110Y-16589341D02*
X8354586Y-16570293D01*
X8354586Y-16570293D02*
X8354586Y-16513151D01*
X8354586Y-16513151D02*
X8364110Y-16494103D01*
X8364110Y-16494103D02*
X8373634Y-16484579D01*
X8373634Y-16484579D02*
X8392682Y-16475055D01*
X8392682Y-16475055D02*
X8421253Y-16475055D01*
X8421253Y-16475055D02*
X8440301Y-16484579D01*
X8440301Y-16484579D02*
X8449825Y-16494103D01*
X8449825Y-16494103D02*
X8459348Y-16513151D01*
X8459348Y-16513151D02*
X8459348Y-16570293D01*
X8459348Y-16570293D02*
X8449825Y-16589341D01*
X8449825Y-16589341D02*
X8440301Y-16598865D01*
X8440301Y-16598865D02*
X8421253Y-16608389D01*
X8421253Y-16608389D02*
X8392682Y-16608389D01*
X8573634Y-16608389D02*
X8554587Y-16598865D01*
X8554587Y-16598865D02*
X8545063Y-16579817D01*
X8545063Y-16579817D02*
X8545063Y-16408389D01*
X8726015Y-16598865D02*
X8706968Y-16608389D01*
X8706968Y-16608389D02*
X8668872Y-16608389D01*
X8668872Y-16608389D02*
X8649825Y-16598865D01*
X8649825Y-16598865D02*
X8640301Y-16579817D01*
X8640301Y-16579817D02*
X8640301Y-16503627D01*
X8640301Y-16503627D02*
X8649825Y-16484579D01*
X8649825Y-16484579D02*
X8668872Y-16475055D01*
X8668872Y-16475055D02*
X8706968Y-16475055D01*
X8706968Y-16475055D02*
X8726015Y-16484579D01*
X8726015Y-16484579D02*
X8735539Y-16503627D01*
X8735539Y-16503627D02*
X8735539Y-16522674D01*
X8735539Y-16522674D02*
X8640301Y-16541722D01*
X8811729Y-16598865D02*
X8830777Y-16608389D01*
X8830777Y-16608389D02*
X8868872Y-16608389D01*
X8868872Y-16608389D02*
X8887920Y-16598865D01*
X8887920Y-16598865D02*
X8897444Y-16579817D01*
X8897444Y-16579817D02*
X8897444Y-16570293D01*
X8897444Y-16570293D02*
X8887920Y-16551246D01*
X8887920Y-16551246D02*
X8868872Y-16541722D01*
X8868872Y-16541722D02*
X8840301Y-16541722D01*
X8840301Y-16541722D02*
X8821253Y-16532198D01*
X8821253Y-16532198D02*
X8811729Y-16513151D01*
X8811729Y-16513151D02*
X8811729Y-16503627D01*
X8811729Y-16503627D02*
X8821253Y-16484579D01*
X8821253Y-16484579D02*
X8840301Y-16475055D01*
X8840301Y-16475055D02*
X8868872Y-16475055D01*
X8868872Y-16475055D02*
X8887920Y-16484579D01*
X8964110Y-16684579D02*
X8973634Y-16675055D01*
X8973634Y-16675055D02*
X8992682Y-16646484D01*
X8992682Y-16646484D02*
X9002206Y-16627436D01*
X9002206Y-16627436D02*
X9011729Y-16598865D01*
X9011729Y-16598865D02*
X9021253Y-16551246D01*
X9021253Y-16551246D02*
X9021253Y-16513151D01*
X9021253Y-16513151D02*
X9011729Y-16465532D01*
X9011729Y-16465532D02*
X9002206Y-16436960D01*
X9002206Y-16436960D02*
X8992682Y-16417913D01*
X8992682Y-16417913D02*
X8973634Y-16389341D01*
X8973634Y-16389341D02*
X8964110Y-16379817D01*
D12*
X3808095Y-16780905D02*
G75*
G03*
X3733095Y-16780905I-37500J0D01*
G01*
X3733095Y-16780905D02*
G75*
G03*
X3808095Y-16780905I37500J0D01*
G01*
D11*
X4106967Y-16672389D02*
X4126015Y-16672389D01*
X4126015Y-16672389D02*
X4145062Y-16681913D01*
X4145062Y-16681913D02*
X4154586Y-16691436D01*
X4154586Y-16691436D02*
X4164110Y-16710484D01*
X4164110Y-16710484D02*
X4173634Y-16748579D01*
X4173634Y-16748579D02*
X4173634Y-16796198D01*
X4173634Y-16796198D02*
X4164110Y-16834294D01*
X4164110Y-16834294D02*
X4154586Y-16853341D01*
X4154586Y-16853341D02*
X4145062Y-16862865D01*
X4145062Y-16862865D02*
X4126015Y-16872389D01*
X4126015Y-16872389D02*
X4106967Y-16872389D01*
X4106967Y-16872389D02*
X4087919Y-16862865D01*
X4087919Y-16862865D02*
X4078396Y-16853341D01*
X4078396Y-16853341D02*
X4068872Y-16834294D01*
X4068872Y-16834294D02*
X4059348Y-16796198D01*
X4059348Y-16796198D02*
X4059348Y-16748579D01*
X4059348Y-16748579D02*
X4068872Y-16710484D01*
X4068872Y-16710484D02*
X4078396Y-16691436D01*
X4078396Y-16691436D02*
X4087919Y-16681913D01*
X4087919Y-16681913D02*
X4106967Y-16672389D01*
X4259348Y-16853341D02*
X4268872Y-16862865D01*
X4268872Y-16862865D02*
X4259348Y-16872389D01*
X4259348Y-16872389D02*
X4249824Y-16862865D01*
X4249824Y-16862865D02*
X4259348Y-16853341D01*
X4259348Y-16853341D02*
X4259348Y-16872389D01*
X4335539Y-16672389D02*
X4468872Y-16672389D01*
X4468872Y-16672389D02*
X4383158Y-16872389D01*
X4640300Y-16672389D02*
X4545062Y-16672389D01*
X4545062Y-16672389D02*
X4535539Y-16767627D01*
X4535539Y-16767627D02*
X4545062Y-16758103D01*
X4545062Y-16758103D02*
X4564110Y-16748579D01*
X4564110Y-16748579D02*
X4611729Y-16748579D01*
X4611729Y-16748579D02*
X4630777Y-16758103D01*
X4630777Y-16758103D02*
X4640300Y-16767627D01*
X4640300Y-16767627D02*
X4649824Y-16786675D01*
X4649824Y-16786675D02*
X4649824Y-16834294D01*
X4649824Y-16834294D02*
X4640300Y-16853341D01*
X4640300Y-16853341D02*
X4630777Y-16862865D01*
X4630777Y-16862865D02*
X4611729Y-16872389D01*
X4611729Y-16872389D02*
X4564110Y-16872389D01*
X4564110Y-16872389D02*
X4545062Y-16862865D01*
X4545062Y-16862865D02*
X4535539Y-16853341D01*
X4773634Y-16672389D02*
X4792681Y-16672389D01*
X4792681Y-16672389D02*
X4811729Y-16681913D01*
X4811729Y-16681913D02*
X4821253Y-16691436D01*
X4821253Y-16691436D02*
X4830777Y-16710484D01*
X4830777Y-16710484D02*
X4840300Y-16748579D01*
X4840300Y-16748579D02*
X4840300Y-16796198D01*
X4840300Y-16796198D02*
X4830777Y-16834294D01*
X4830777Y-16834294D02*
X4821253Y-16853341D01*
X4821253Y-16853341D02*
X4811729Y-16862865D01*
X4811729Y-16862865D02*
X4792681Y-16872389D01*
X4792681Y-16872389D02*
X4773634Y-16872389D01*
X4773634Y-16872389D02*
X4754586Y-16862865D01*
X4754586Y-16862865D02*
X4745062Y-16853341D01*
X4745062Y-16853341D02*
X4735539Y-16834294D01*
X4735539Y-16834294D02*
X4726015Y-16796198D01*
X4726015Y-16796198D02*
X4726015Y-16748579D01*
X4726015Y-16748579D02*
X4735539Y-16710484D01*
X4735539Y-16710484D02*
X4745062Y-16691436D01*
X4745062Y-16691436D02*
X4754586Y-16681913D01*
X4754586Y-16681913D02*
X4773634Y-16672389D01*
X4926015Y-16872389D02*
X4926015Y-16739055D01*
X4926015Y-16758103D02*
X4935539Y-16748579D01*
X4935539Y-16748579D02*
X4954586Y-16739055D01*
X4954586Y-16739055D02*
X4983158Y-16739055D01*
X4983158Y-16739055D02*
X5002205Y-16748579D01*
X5002205Y-16748579D02*
X5011729Y-16767627D01*
X5011729Y-16767627D02*
X5011729Y-16872389D01*
X5011729Y-16767627D02*
X5021253Y-16748579D01*
X5021253Y-16748579D02*
X5040300Y-16739055D01*
X5040300Y-16739055D02*
X5068872Y-16739055D01*
X5068872Y-16739055D02*
X5087920Y-16748579D01*
X5087920Y-16748579D02*
X5097443Y-16767627D01*
X5097443Y-16767627D02*
X5097443Y-16872389D01*
X5192681Y-16872389D02*
X5192681Y-16739055D01*
X5192681Y-16758103D02*
X5202205Y-16748579D01*
X5202205Y-16748579D02*
X5221253Y-16739055D01*
X5221253Y-16739055D02*
X5249824Y-16739055D01*
X5249824Y-16739055D02*
X5268872Y-16748579D01*
X5268872Y-16748579D02*
X5278396Y-16767627D01*
X5278396Y-16767627D02*
X5278396Y-16872389D01*
X5278396Y-16767627D02*
X5287920Y-16748579D01*
X5287920Y-16748579D02*
X5306967Y-16739055D01*
X5306967Y-16739055D02*
X5335539Y-16739055D01*
X5335539Y-16739055D02*
X5354586Y-16748579D01*
X5354586Y-16748579D02*
X5364110Y-16767627D01*
X5364110Y-16767627D02*
X5364110Y-16872389D01*
X5754586Y-16662865D02*
X5583158Y-16920008D01*
X6011729Y-16672389D02*
X6030777Y-16672389D01*
X6030777Y-16672389D02*
X6049824Y-16681913D01*
X6049824Y-16681913D02*
X6059348Y-16691436D01*
X6059348Y-16691436D02*
X6068872Y-16710484D01*
X6068872Y-16710484D02*
X6078396Y-16748579D01*
X6078396Y-16748579D02*
X6078396Y-16796198D01*
X6078396Y-16796198D02*
X6068872Y-16834294D01*
X6068872Y-16834294D02*
X6059348Y-16853341D01*
X6059348Y-16853341D02*
X6049824Y-16862865D01*
X6049824Y-16862865D02*
X6030777Y-16872389D01*
X6030777Y-16872389D02*
X6011729Y-16872389D01*
X6011729Y-16872389D02*
X5992681Y-16862865D01*
X5992681Y-16862865D02*
X5983158Y-16853341D01*
X5983158Y-16853341D02*
X5973634Y-16834294D01*
X5973634Y-16834294D02*
X5964110Y-16796198D01*
X5964110Y-16796198D02*
X5964110Y-16748579D01*
X5964110Y-16748579D02*
X5973634Y-16710484D01*
X5973634Y-16710484D02*
X5983158Y-16691436D01*
X5983158Y-16691436D02*
X5992681Y-16681913D01*
X5992681Y-16681913D02*
X6011729Y-16672389D01*
X6164110Y-16853341D02*
X6173634Y-16862865D01*
X6173634Y-16862865D02*
X6164110Y-16872389D01*
X6164110Y-16872389D02*
X6154586Y-16862865D01*
X6154586Y-16862865D02*
X6164110Y-16853341D01*
X6164110Y-16853341D02*
X6164110Y-16872389D01*
X6297443Y-16672389D02*
X6316491Y-16672389D01*
X6316491Y-16672389D02*
X6335539Y-16681913D01*
X6335539Y-16681913D02*
X6345062Y-16691436D01*
X6345062Y-16691436D02*
X6354586Y-16710484D01*
X6354586Y-16710484D02*
X6364110Y-16748579D01*
X6364110Y-16748579D02*
X6364110Y-16796198D01*
X6364110Y-16796198D02*
X6354586Y-16834294D01*
X6354586Y-16834294D02*
X6345062Y-16853341D01*
X6345062Y-16853341D02*
X6335539Y-16862865D01*
X6335539Y-16862865D02*
X6316491Y-16872389D01*
X6316491Y-16872389D02*
X6297443Y-16872389D01*
X6297443Y-16872389D02*
X6278396Y-16862865D01*
X6278396Y-16862865D02*
X6268872Y-16853341D01*
X6268872Y-16853341D02*
X6259348Y-16834294D01*
X6259348Y-16834294D02*
X6249824Y-16796198D01*
X6249824Y-16796198D02*
X6249824Y-16748579D01*
X6249824Y-16748579D02*
X6259348Y-16710484D01*
X6259348Y-16710484D02*
X6268872Y-16691436D01*
X6268872Y-16691436D02*
X6278396Y-16681913D01*
X6278396Y-16681913D02*
X6297443Y-16672389D01*
X6440301Y-16691436D02*
X6449824Y-16681913D01*
X6449824Y-16681913D02*
X6468872Y-16672389D01*
X6468872Y-16672389D02*
X6516491Y-16672389D01*
X6516491Y-16672389D02*
X6535539Y-16681913D01*
X6535539Y-16681913D02*
X6545062Y-16691436D01*
X6545062Y-16691436D02*
X6554586Y-16710484D01*
X6554586Y-16710484D02*
X6554586Y-16729532D01*
X6554586Y-16729532D02*
X6545062Y-16758103D01*
X6545062Y-16758103D02*
X6430777Y-16872389D01*
X6430777Y-16872389D02*
X6554586Y-16872389D01*
X6649824Y-16872389D02*
X6687920Y-16872389D01*
X6687920Y-16872389D02*
X6706967Y-16862865D01*
X6706967Y-16862865D02*
X6716491Y-16853341D01*
X6716491Y-16853341D02*
X6735539Y-16824770D01*
X6735539Y-16824770D02*
X6745062Y-16786675D01*
X6745062Y-16786675D02*
X6745062Y-16710484D01*
X6745062Y-16710484D02*
X6735539Y-16691436D01*
X6735539Y-16691436D02*
X6726015Y-16681913D01*
X6726015Y-16681913D02*
X6706967Y-16672389D01*
X6706967Y-16672389D02*
X6668872Y-16672389D01*
X6668872Y-16672389D02*
X6649824Y-16681913D01*
X6649824Y-16681913D02*
X6640301Y-16691436D01*
X6640301Y-16691436D02*
X6630777Y-16710484D01*
X6630777Y-16710484D02*
X6630777Y-16758103D01*
X6630777Y-16758103D02*
X6640301Y-16777151D01*
X6640301Y-16777151D02*
X6649824Y-16786675D01*
X6649824Y-16786675D02*
X6668872Y-16796198D01*
X6668872Y-16796198D02*
X6706967Y-16796198D01*
X6706967Y-16796198D02*
X6726015Y-16786675D01*
X6726015Y-16786675D02*
X6735539Y-16777151D01*
X6735539Y-16777151D02*
X6745062Y-16758103D01*
X6926015Y-16672389D02*
X6830777Y-16672389D01*
X6830777Y-16672389D02*
X6821253Y-16767627D01*
X6821253Y-16767627D02*
X6830777Y-16758103D01*
X6830777Y-16758103D02*
X6849824Y-16748579D01*
X6849824Y-16748579D02*
X6897443Y-16748579D01*
X6897443Y-16748579D02*
X6916491Y-16758103D01*
X6916491Y-16758103D02*
X6926015Y-16767627D01*
X6926015Y-16767627D02*
X6935539Y-16786675D01*
X6935539Y-16786675D02*
X6935539Y-16834294D01*
X6935539Y-16834294D02*
X6926015Y-16853341D01*
X6926015Y-16853341D02*
X6916491Y-16862865D01*
X6916491Y-16862865D02*
X6897443Y-16872389D01*
X6897443Y-16872389D02*
X6849824Y-16872389D01*
X6849824Y-16872389D02*
X6830777Y-16862865D01*
X6830777Y-16862865D02*
X6821253Y-16853341D01*
X7011729Y-16672389D02*
X7011729Y-16710484D01*
X7087920Y-16672389D02*
X7087920Y-16710484D01*
X7383158Y-16948579D02*
X7373634Y-16939055D01*
X7373634Y-16939055D02*
X7354586Y-16910484D01*
X7354586Y-16910484D02*
X7345063Y-16891436D01*
X7345063Y-16891436D02*
X7335539Y-16862865D01*
X7335539Y-16862865D02*
X7326015Y-16815246D01*
X7326015Y-16815246D02*
X7326015Y-16777151D01*
X7326015Y-16777151D02*
X7335539Y-16729532D01*
X7335539Y-16729532D02*
X7345063Y-16700960D01*
X7345063Y-16700960D02*
X7354586Y-16681913D01*
X7354586Y-16681913D02*
X7373634Y-16653341D01*
X7373634Y-16653341D02*
X7383158Y-16643817D01*
X7440301Y-16672389D02*
X7564110Y-16672389D01*
X7564110Y-16672389D02*
X7497443Y-16748579D01*
X7497443Y-16748579D02*
X7526015Y-16748579D01*
X7526015Y-16748579D02*
X7545063Y-16758103D01*
X7545063Y-16758103D02*
X7554586Y-16767627D01*
X7554586Y-16767627D02*
X7564110Y-16786675D01*
X7564110Y-16786675D02*
X7564110Y-16834294D01*
X7564110Y-16834294D02*
X7554586Y-16853341D01*
X7554586Y-16853341D02*
X7545063Y-16862865D01*
X7545063Y-16862865D02*
X7526015Y-16872389D01*
X7526015Y-16872389D02*
X7468872Y-16872389D01*
X7468872Y-16872389D02*
X7449824Y-16862865D01*
X7449824Y-16862865D02*
X7440301Y-16853341D01*
X7802205Y-16872389D02*
X7802205Y-16672389D01*
X7887920Y-16872389D02*
X7887920Y-16767627D01*
X7887920Y-16767627D02*
X7878396Y-16748579D01*
X7878396Y-16748579D02*
X7859348Y-16739055D01*
X7859348Y-16739055D02*
X7830777Y-16739055D01*
X7830777Y-16739055D02*
X7811729Y-16748579D01*
X7811729Y-16748579D02*
X7802205Y-16758103D01*
X8011729Y-16872389D02*
X7992682Y-16862865D01*
X7992682Y-16862865D02*
X7983158Y-16853341D01*
X7983158Y-16853341D02*
X7973634Y-16834294D01*
X7973634Y-16834294D02*
X7973634Y-16777151D01*
X7973634Y-16777151D02*
X7983158Y-16758103D01*
X7983158Y-16758103D02*
X7992682Y-16748579D01*
X7992682Y-16748579D02*
X8011729Y-16739055D01*
X8011729Y-16739055D02*
X8040301Y-16739055D01*
X8040301Y-16739055D02*
X8059348Y-16748579D01*
X8059348Y-16748579D02*
X8068872Y-16758103D01*
X8068872Y-16758103D02*
X8078396Y-16777151D01*
X8078396Y-16777151D02*
X8078396Y-16834294D01*
X8078396Y-16834294D02*
X8068872Y-16853341D01*
X8068872Y-16853341D02*
X8059348Y-16862865D01*
X8059348Y-16862865D02*
X8040301Y-16872389D01*
X8040301Y-16872389D02*
X8011729Y-16872389D01*
X8192682Y-16872389D02*
X8173634Y-16862865D01*
X8173634Y-16862865D02*
X8164110Y-16843817D01*
X8164110Y-16843817D02*
X8164110Y-16672389D01*
X8345063Y-16862865D02*
X8326015Y-16872389D01*
X8326015Y-16872389D02*
X8287920Y-16872389D01*
X8287920Y-16872389D02*
X8268872Y-16862865D01*
X8268872Y-16862865D02*
X8259348Y-16843817D01*
X8259348Y-16843817D02*
X8259348Y-16767627D01*
X8259348Y-16767627D02*
X8268872Y-16748579D01*
X8268872Y-16748579D02*
X8287920Y-16739055D01*
X8287920Y-16739055D02*
X8326015Y-16739055D01*
X8326015Y-16739055D02*
X8345063Y-16748579D01*
X8345063Y-16748579D02*
X8354586Y-16767627D01*
X8354586Y-16767627D02*
X8354586Y-16786675D01*
X8354586Y-16786675D02*
X8259348Y-16805722D01*
X8430777Y-16862865D02*
X8449825Y-16872389D01*
X8449825Y-16872389D02*
X8487920Y-16872389D01*
X8487920Y-16872389D02*
X8506968Y-16862865D01*
X8506968Y-16862865D02*
X8516491Y-16843817D01*
X8516491Y-16843817D02*
X8516491Y-16834294D01*
X8516491Y-16834294D02*
X8506968Y-16815246D01*
X8506968Y-16815246D02*
X8487920Y-16805722D01*
X8487920Y-16805722D02*
X8459348Y-16805722D01*
X8459348Y-16805722D02*
X8440301Y-16796198D01*
X8440301Y-16796198D02*
X8430777Y-16777151D01*
X8430777Y-16777151D02*
X8430777Y-16767627D01*
X8430777Y-16767627D02*
X8440301Y-16748579D01*
X8440301Y-16748579D02*
X8459348Y-16739055D01*
X8459348Y-16739055D02*
X8487920Y-16739055D01*
X8487920Y-16739055D02*
X8506968Y-16748579D01*
X8583158Y-16948579D02*
X8592682Y-16939055D01*
X8592682Y-16939055D02*
X8611729Y-16910484D01*
X8611729Y-16910484D02*
X8621253Y-16891436D01*
X8621253Y-16891436D02*
X8630777Y-16862865D01*
X8630777Y-16862865D02*
X8640301Y-16815246D01*
X8640301Y-16815246D02*
X8640301Y-16777151D01*
X8640301Y-16777151D02*
X8630777Y-16729532D01*
X8630777Y-16729532D02*
X8621253Y-16700960D01*
X8621253Y-16700960D02*
X8611729Y-16681913D01*
X8611729Y-16681913D02*
X8592682Y-16653341D01*
X8592682Y-16653341D02*
X8583158Y-16643817D01*
D12*
X3768095Y-17004905D02*
X3768095Y-17084905D01*
X3728095Y-17044905D02*
X3808095Y-17044905D01*
D11*
X4106967Y-16936389D02*
X4126015Y-16936389D01*
X4126015Y-16936389D02*
X4145062Y-16945913D01*
X4145062Y-16945913D02*
X4154586Y-16955436D01*
X4154586Y-16955436D02*
X4164110Y-16974484D01*
X4164110Y-16974484D02*
X4173634Y-17012579D01*
X4173634Y-17012579D02*
X4173634Y-17060198D01*
X4173634Y-17060198D02*
X4164110Y-17098294D01*
X4164110Y-17098294D02*
X4154586Y-17117341D01*
X4154586Y-17117341D02*
X4145062Y-17126865D01*
X4145062Y-17126865D02*
X4126015Y-17136389D01*
X4126015Y-17136389D02*
X4106967Y-17136389D01*
X4106967Y-17136389D02*
X4087919Y-17126865D01*
X4087919Y-17126865D02*
X4078396Y-17117341D01*
X4078396Y-17117341D02*
X4068872Y-17098294D01*
X4068872Y-17098294D02*
X4059348Y-17060198D01*
X4059348Y-17060198D02*
X4059348Y-17012579D01*
X4059348Y-17012579D02*
X4068872Y-16974484D01*
X4068872Y-16974484D02*
X4078396Y-16955436D01*
X4078396Y-16955436D02*
X4087919Y-16945913D01*
X4087919Y-16945913D02*
X4106967Y-16936389D01*
X4259348Y-17117341D02*
X4268872Y-17126865D01*
X4268872Y-17126865D02*
X4259348Y-17136389D01*
X4259348Y-17136389D02*
X4249824Y-17126865D01*
X4249824Y-17126865D02*
X4259348Y-17117341D01*
X4259348Y-17117341D02*
X4259348Y-17136389D01*
X4383158Y-17022103D02*
X4364110Y-17012579D01*
X4364110Y-17012579D02*
X4354586Y-17003055D01*
X4354586Y-17003055D02*
X4345062Y-16984008D01*
X4345062Y-16984008D02*
X4345062Y-16974484D01*
X4345062Y-16974484D02*
X4354586Y-16955436D01*
X4354586Y-16955436D02*
X4364110Y-16945913D01*
X4364110Y-16945913D02*
X4383158Y-16936389D01*
X4383158Y-16936389D02*
X4421253Y-16936389D01*
X4421253Y-16936389D02*
X4440300Y-16945913D01*
X4440300Y-16945913D02*
X4449824Y-16955436D01*
X4449824Y-16955436D02*
X4459348Y-16974484D01*
X4459348Y-16974484D02*
X4459348Y-16984008D01*
X4459348Y-16984008D02*
X4449824Y-17003055D01*
X4449824Y-17003055D02*
X4440300Y-17012579D01*
X4440300Y-17012579D02*
X4421253Y-17022103D01*
X4421253Y-17022103D02*
X4383158Y-17022103D01*
X4383158Y-17022103D02*
X4364110Y-17031627D01*
X4364110Y-17031627D02*
X4354586Y-17041151D01*
X4354586Y-17041151D02*
X4345062Y-17060198D01*
X4345062Y-17060198D02*
X4345062Y-17098294D01*
X4345062Y-17098294D02*
X4354586Y-17117341D01*
X4354586Y-17117341D02*
X4364110Y-17126865D01*
X4364110Y-17126865D02*
X4383158Y-17136389D01*
X4383158Y-17136389D02*
X4421253Y-17136389D01*
X4421253Y-17136389D02*
X4440300Y-17126865D01*
X4440300Y-17126865D02*
X4449824Y-17117341D01*
X4449824Y-17117341D02*
X4459348Y-17098294D01*
X4459348Y-17098294D02*
X4459348Y-17060198D01*
X4459348Y-17060198D02*
X4449824Y-17041151D01*
X4449824Y-17041151D02*
X4440300Y-17031627D01*
X4440300Y-17031627D02*
X4421253Y-17022103D01*
X4583158Y-16936389D02*
X4602205Y-16936389D01*
X4602205Y-16936389D02*
X4621253Y-16945913D01*
X4621253Y-16945913D02*
X4630777Y-16955436D01*
X4630777Y-16955436D02*
X4640300Y-16974484D01*
X4640300Y-16974484D02*
X4649824Y-17012579D01*
X4649824Y-17012579D02*
X4649824Y-17060198D01*
X4649824Y-17060198D02*
X4640300Y-17098294D01*
X4640300Y-17098294D02*
X4630777Y-17117341D01*
X4630777Y-17117341D02*
X4621253Y-17126865D01*
X4621253Y-17126865D02*
X4602205Y-17136389D01*
X4602205Y-17136389D02*
X4583158Y-17136389D01*
X4583158Y-17136389D02*
X4564110Y-17126865D01*
X4564110Y-17126865D02*
X4554586Y-17117341D01*
X4554586Y-17117341D02*
X4545062Y-17098294D01*
X4545062Y-17098294D02*
X4535539Y-17060198D01*
X4535539Y-17060198D02*
X4535539Y-17012579D01*
X4535539Y-17012579D02*
X4545062Y-16974484D01*
X4545062Y-16974484D02*
X4554586Y-16955436D01*
X4554586Y-16955436D02*
X4564110Y-16945913D01*
X4564110Y-16945913D02*
X4583158Y-16936389D01*
X4773634Y-16936389D02*
X4792681Y-16936389D01*
X4792681Y-16936389D02*
X4811729Y-16945913D01*
X4811729Y-16945913D02*
X4821253Y-16955436D01*
X4821253Y-16955436D02*
X4830777Y-16974484D01*
X4830777Y-16974484D02*
X4840300Y-17012579D01*
X4840300Y-17012579D02*
X4840300Y-17060198D01*
X4840300Y-17060198D02*
X4830777Y-17098294D01*
X4830777Y-17098294D02*
X4821253Y-17117341D01*
X4821253Y-17117341D02*
X4811729Y-17126865D01*
X4811729Y-17126865D02*
X4792681Y-17136389D01*
X4792681Y-17136389D02*
X4773634Y-17136389D01*
X4773634Y-17136389D02*
X4754586Y-17126865D01*
X4754586Y-17126865D02*
X4745062Y-17117341D01*
X4745062Y-17117341D02*
X4735539Y-17098294D01*
X4735539Y-17098294D02*
X4726015Y-17060198D01*
X4726015Y-17060198D02*
X4726015Y-17012579D01*
X4726015Y-17012579D02*
X4735539Y-16974484D01*
X4735539Y-16974484D02*
X4745062Y-16955436D01*
X4745062Y-16955436D02*
X4754586Y-16945913D01*
X4754586Y-16945913D02*
X4773634Y-16936389D01*
X4926015Y-17136389D02*
X4926015Y-17003055D01*
X4926015Y-17022103D02*
X4935539Y-17012579D01*
X4935539Y-17012579D02*
X4954586Y-17003055D01*
X4954586Y-17003055D02*
X4983158Y-17003055D01*
X4983158Y-17003055D02*
X5002205Y-17012579D01*
X5002205Y-17012579D02*
X5011729Y-17031627D01*
X5011729Y-17031627D02*
X5011729Y-17136389D01*
X5011729Y-17031627D02*
X5021253Y-17012579D01*
X5021253Y-17012579D02*
X5040300Y-17003055D01*
X5040300Y-17003055D02*
X5068872Y-17003055D01*
X5068872Y-17003055D02*
X5087920Y-17012579D01*
X5087920Y-17012579D02*
X5097443Y-17031627D01*
X5097443Y-17031627D02*
X5097443Y-17136389D01*
X5192681Y-17136389D02*
X5192681Y-17003055D01*
X5192681Y-17022103D02*
X5202205Y-17012579D01*
X5202205Y-17012579D02*
X5221253Y-17003055D01*
X5221253Y-17003055D02*
X5249824Y-17003055D01*
X5249824Y-17003055D02*
X5268872Y-17012579D01*
X5268872Y-17012579D02*
X5278396Y-17031627D01*
X5278396Y-17031627D02*
X5278396Y-17136389D01*
X5278396Y-17031627D02*
X5287920Y-17012579D01*
X5287920Y-17012579D02*
X5306967Y-17003055D01*
X5306967Y-17003055D02*
X5335539Y-17003055D01*
X5335539Y-17003055D02*
X5354586Y-17012579D01*
X5354586Y-17012579D02*
X5364110Y-17031627D01*
X5364110Y-17031627D02*
X5364110Y-17136389D01*
X5754586Y-16926865D02*
X5583158Y-17184008D01*
X6011729Y-16936389D02*
X6030777Y-16936389D01*
X6030777Y-16936389D02*
X6049824Y-16945913D01*
X6049824Y-16945913D02*
X6059348Y-16955436D01*
X6059348Y-16955436D02*
X6068872Y-16974484D01*
X6068872Y-16974484D02*
X6078396Y-17012579D01*
X6078396Y-17012579D02*
X6078396Y-17060198D01*
X6078396Y-17060198D02*
X6068872Y-17098294D01*
X6068872Y-17098294D02*
X6059348Y-17117341D01*
X6059348Y-17117341D02*
X6049824Y-17126865D01*
X6049824Y-17126865D02*
X6030777Y-17136389D01*
X6030777Y-17136389D02*
X6011729Y-17136389D01*
X6011729Y-17136389D02*
X5992681Y-17126865D01*
X5992681Y-17126865D02*
X5983158Y-17117341D01*
X5983158Y-17117341D02*
X5973634Y-17098294D01*
X5973634Y-17098294D02*
X5964110Y-17060198D01*
X5964110Y-17060198D02*
X5964110Y-17012579D01*
X5964110Y-17012579D02*
X5973634Y-16974484D01*
X5973634Y-16974484D02*
X5983158Y-16955436D01*
X5983158Y-16955436D02*
X5992681Y-16945913D01*
X5992681Y-16945913D02*
X6011729Y-16936389D01*
X6164110Y-17117341D02*
X6173634Y-17126865D01*
X6173634Y-17126865D02*
X6164110Y-17136389D01*
X6164110Y-17136389D02*
X6154586Y-17126865D01*
X6154586Y-17126865D02*
X6164110Y-17117341D01*
X6164110Y-17117341D02*
X6164110Y-17136389D01*
X6297443Y-16936389D02*
X6316491Y-16936389D01*
X6316491Y-16936389D02*
X6335539Y-16945913D01*
X6335539Y-16945913D02*
X6345062Y-16955436D01*
X6345062Y-16955436D02*
X6354586Y-16974484D01*
X6354586Y-16974484D02*
X6364110Y-17012579D01*
X6364110Y-17012579D02*
X6364110Y-17060198D01*
X6364110Y-17060198D02*
X6354586Y-17098294D01*
X6354586Y-17098294D02*
X6345062Y-17117341D01*
X6345062Y-17117341D02*
X6335539Y-17126865D01*
X6335539Y-17126865D02*
X6316491Y-17136389D01*
X6316491Y-17136389D02*
X6297443Y-17136389D01*
X6297443Y-17136389D02*
X6278396Y-17126865D01*
X6278396Y-17126865D02*
X6268872Y-17117341D01*
X6268872Y-17117341D02*
X6259348Y-17098294D01*
X6259348Y-17098294D02*
X6249824Y-17060198D01*
X6249824Y-17060198D02*
X6249824Y-17012579D01*
X6249824Y-17012579D02*
X6259348Y-16974484D01*
X6259348Y-16974484D02*
X6268872Y-16955436D01*
X6268872Y-16955436D02*
X6278396Y-16945913D01*
X6278396Y-16945913D02*
X6297443Y-16936389D01*
X6430777Y-16936389D02*
X6554586Y-16936389D01*
X6554586Y-16936389D02*
X6487920Y-17012579D01*
X6487920Y-17012579D02*
X6516491Y-17012579D01*
X6516491Y-17012579D02*
X6535539Y-17022103D01*
X6535539Y-17022103D02*
X6545062Y-17031627D01*
X6545062Y-17031627D02*
X6554586Y-17050675D01*
X6554586Y-17050675D02*
X6554586Y-17098294D01*
X6554586Y-17098294D02*
X6545062Y-17117341D01*
X6545062Y-17117341D02*
X6535539Y-17126865D01*
X6535539Y-17126865D02*
X6516491Y-17136389D01*
X6516491Y-17136389D02*
X6459348Y-17136389D01*
X6459348Y-17136389D02*
X6440301Y-17126865D01*
X6440301Y-17126865D02*
X6430777Y-17117341D01*
X6745062Y-17136389D02*
X6630777Y-17136389D01*
X6687920Y-17136389D02*
X6687920Y-16936389D01*
X6687920Y-16936389D02*
X6668872Y-16964960D01*
X6668872Y-16964960D02*
X6649824Y-16984008D01*
X6649824Y-16984008D02*
X6630777Y-16993532D01*
X6926015Y-16936389D02*
X6830777Y-16936389D01*
X6830777Y-16936389D02*
X6821253Y-17031627D01*
X6821253Y-17031627D02*
X6830777Y-17022103D01*
X6830777Y-17022103D02*
X6849824Y-17012579D01*
X6849824Y-17012579D02*
X6897443Y-17012579D01*
X6897443Y-17012579D02*
X6916491Y-17022103D01*
X6916491Y-17022103D02*
X6926015Y-17031627D01*
X6926015Y-17031627D02*
X6935539Y-17050675D01*
X6935539Y-17050675D02*
X6935539Y-17098294D01*
X6935539Y-17098294D02*
X6926015Y-17117341D01*
X6926015Y-17117341D02*
X6916491Y-17126865D01*
X6916491Y-17126865D02*
X6897443Y-17136389D01*
X6897443Y-17136389D02*
X6849824Y-17136389D01*
X6849824Y-17136389D02*
X6830777Y-17126865D01*
X6830777Y-17126865D02*
X6821253Y-17117341D01*
X7011729Y-16936389D02*
X7011729Y-16974484D01*
X7087920Y-16936389D02*
X7087920Y-16974484D01*
X7383158Y-17212579D02*
X7373634Y-17203055D01*
X7373634Y-17203055D02*
X7354586Y-17174484D01*
X7354586Y-17174484D02*
X7345063Y-17155436D01*
X7345063Y-17155436D02*
X7335539Y-17126865D01*
X7335539Y-17126865D02*
X7326015Y-17079246D01*
X7326015Y-17079246D02*
X7326015Y-17041151D01*
X7326015Y-17041151D02*
X7335539Y-16993532D01*
X7335539Y-16993532D02*
X7345063Y-16964960D01*
X7345063Y-16964960D02*
X7354586Y-16945913D01*
X7354586Y-16945913D02*
X7373634Y-16917341D01*
X7373634Y-16917341D02*
X7383158Y-16907817D01*
X7487920Y-17022103D02*
X7468872Y-17012579D01*
X7468872Y-17012579D02*
X7459348Y-17003055D01*
X7459348Y-17003055D02*
X7449824Y-16984008D01*
X7449824Y-16984008D02*
X7449824Y-16974484D01*
X7449824Y-16974484D02*
X7459348Y-16955436D01*
X7459348Y-16955436D02*
X7468872Y-16945913D01*
X7468872Y-16945913D02*
X7487920Y-16936389D01*
X7487920Y-16936389D02*
X7526015Y-16936389D01*
X7526015Y-16936389D02*
X7545063Y-16945913D01*
X7545063Y-16945913D02*
X7554586Y-16955436D01*
X7554586Y-16955436D02*
X7564110Y-16974484D01*
X7564110Y-16974484D02*
X7564110Y-16984008D01*
X7564110Y-16984008D02*
X7554586Y-17003055D01*
X7554586Y-17003055D02*
X7545063Y-17012579D01*
X7545063Y-17012579D02*
X7526015Y-17022103D01*
X7526015Y-17022103D02*
X7487920Y-17022103D01*
X7487920Y-17022103D02*
X7468872Y-17031627D01*
X7468872Y-17031627D02*
X7459348Y-17041151D01*
X7459348Y-17041151D02*
X7449824Y-17060198D01*
X7449824Y-17060198D02*
X7449824Y-17098294D01*
X7449824Y-17098294D02*
X7459348Y-17117341D01*
X7459348Y-17117341D02*
X7468872Y-17126865D01*
X7468872Y-17126865D02*
X7487920Y-17136389D01*
X7487920Y-17136389D02*
X7526015Y-17136389D01*
X7526015Y-17136389D02*
X7545063Y-17126865D01*
X7545063Y-17126865D02*
X7554586Y-17117341D01*
X7554586Y-17117341D02*
X7564110Y-17098294D01*
X7564110Y-17098294D02*
X7564110Y-17060198D01*
X7564110Y-17060198D02*
X7554586Y-17041151D01*
X7554586Y-17041151D02*
X7545063Y-17031627D01*
X7545063Y-17031627D02*
X7526015Y-17022103D01*
X7640301Y-16955436D02*
X7649824Y-16945913D01*
X7649824Y-16945913D02*
X7668872Y-16936389D01*
X7668872Y-16936389D02*
X7716491Y-16936389D01*
X7716491Y-16936389D02*
X7735539Y-16945913D01*
X7735539Y-16945913D02*
X7745063Y-16955436D01*
X7745063Y-16955436D02*
X7754586Y-16974484D01*
X7754586Y-16974484D02*
X7754586Y-16993532D01*
X7754586Y-16993532D02*
X7745063Y-17022103D01*
X7745063Y-17022103D02*
X7630777Y-17136389D01*
X7630777Y-17136389D02*
X7754586Y-17136389D01*
X7992682Y-17136389D02*
X7992682Y-16936389D01*
X8078396Y-17136389D02*
X8078396Y-17031627D01*
X8078396Y-17031627D02*
X8068872Y-17012579D01*
X8068872Y-17012579D02*
X8049825Y-17003055D01*
X8049825Y-17003055D02*
X8021253Y-17003055D01*
X8021253Y-17003055D02*
X8002205Y-17012579D01*
X8002205Y-17012579D02*
X7992682Y-17022103D01*
X8202205Y-17136389D02*
X8183158Y-17126865D01*
X8183158Y-17126865D02*
X8173634Y-17117341D01*
X8173634Y-17117341D02*
X8164110Y-17098294D01*
X8164110Y-17098294D02*
X8164110Y-17041151D01*
X8164110Y-17041151D02*
X8173634Y-17022103D01*
X8173634Y-17022103D02*
X8183158Y-17012579D01*
X8183158Y-17012579D02*
X8202205Y-17003055D01*
X8202205Y-17003055D02*
X8230777Y-17003055D01*
X8230777Y-17003055D02*
X8249825Y-17012579D01*
X8249825Y-17012579D02*
X8259348Y-17022103D01*
X8259348Y-17022103D02*
X8268872Y-17041151D01*
X8268872Y-17041151D02*
X8268872Y-17098294D01*
X8268872Y-17098294D02*
X8259348Y-17117341D01*
X8259348Y-17117341D02*
X8249825Y-17126865D01*
X8249825Y-17126865D02*
X8230777Y-17136389D01*
X8230777Y-17136389D02*
X8202205Y-17136389D01*
X8383158Y-17136389D02*
X8364110Y-17126865D01*
X8364110Y-17126865D02*
X8354586Y-17107817D01*
X8354586Y-17107817D02*
X8354586Y-16936389D01*
X8535539Y-17126865D02*
X8516491Y-17136389D01*
X8516491Y-17136389D02*
X8478396Y-17136389D01*
X8478396Y-17136389D02*
X8459348Y-17126865D01*
X8459348Y-17126865D02*
X8449825Y-17107817D01*
X8449825Y-17107817D02*
X8449825Y-17031627D01*
X8449825Y-17031627D02*
X8459348Y-17012579D01*
X8459348Y-17012579D02*
X8478396Y-17003055D01*
X8478396Y-17003055D02*
X8516491Y-17003055D01*
X8516491Y-17003055D02*
X8535539Y-17012579D01*
X8535539Y-17012579D02*
X8545063Y-17031627D01*
X8545063Y-17031627D02*
X8545063Y-17050675D01*
X8545063Y-17050675D02*
X8449825Y-17069722D01*
X8621253Y-17126865D02*
X8640301Y-17136389D01*
X8640301Y-17136389D02*
X8678396Y-17136389D01*
X8678396Y-17136389D02*
X8697444Y-17126865D01*
X8697444Y-17126865D02*
X8706968Y-17107817D01*
X8706968Y-17107817D02*
X8706968Y-17098294D01*
X8706968Y-17098294D02*
X8697444Y-17079246D01*
X8697444Y-17079246D02*
X8678396Y-17069722D01*
X8678396Y-17069722D02*
X8649825Y-17069722D01*
X8649825Y-17069722D02*
X8630777Y-17060198D01*
X8630777Y-17060198D02*
X8621253Y-17041151D01*
X8621253Y-17041151D02*
X8621253Y-17031627D01*
X8621253Y-17031627D02*
X8630777Y-17012579D01*
X8630777Y-17012579D02*
X8649825Y-17003055D01*
X8649825Y-17003055D02*
X8678396Y-17003055D01*
X8678396Y-17003055D02*
X8697444Y-17012579D01*
X8773634Y-17212579D02*
X8783158Y-17203055D01*
X8783158Y-17203055D02*
X8802206Y-17174484D01*
X8802206Y-17174484D02*
X8811729Y-17155436D01*
X8811729Y-17155436D02*
X8821253Y-17126865D01*
X8821253Y-17126865D02*
X8830777Y-17079246D01*
X8830777Y-17079246D02*
X8830777Y-17041151D01*
X8830777Y-17041151D02*
X8821253Y-16993532D01*
X8821253Y-16993532D02*
X8811729Y-16964960D01*
X8811729Y-16964960D02*
X8802206Y-16945913D01*
X8802206Y-16945913D02*
X8783158Y-16917341D01*
X8783158Y-16917341D02*
X8773634Y-16907817D01*
D12*
X3793451Y-17344261D02*
X3793451Y-17273549D01*
X3722739Y-17273549D01*
X3722739Y-17344261D01*
X3793451Y-17344261D01*
D11*
X4173634Y-17400389D02*
X4059348Y-17400389D01*
X4116491Y-17400389D02*
X4116491Y-17200389D01*
X4116491Y-17200389D02*
X4097443Y-17228960D01*
X4097443Y-17228960D02*
X4078396Y-17248008D01*
X4078396Y-17248008D02*
X4059348Y-17257532D01*
X4259348Y-17381341D02*
X4268872Y-17390865D01*
X4268872Y-17390865D02*
X4259348Y-17400389D01*
X4259348Y-17400389D02*
X4249824Y-17390865D01*
X4249824Y-17390865D02*
X4259348Y-17381341D01*
X4259348Y-17381341D02*
X4259348Y-17400389D01*
X4392681Y-17200389D02*
X4411729Y-17200389D01*
X4411729Y-17200389D02*
X4430777Y-17209913D01*
X4430777Y-17209913D02*
X4440300Y-17219436D01*
X4440300Y-17219436D02*
X4449824Y-17238484D01*
X4449824Y-17238484D02*
X4459348Y-17276579D01*
X4459348Y-17276579D02*
X4459348Y-17324198D01*
X4459348Y-17324198D02*
X4449824Y-17362294D01*
X4449824Y-17362294D02*
X4440300Y-17381341D01*
X4440300Y-17381341D02*
X4430777Y-17390865D01*
X4430777Y-17390865D02*
X4411729Y-17400389D01*
X4411729Y-17400389D02*
X4392681Y-17400389D01*
X4392681Y-17400389D02*
X4373634Y-17390865D01*
X4373634Y-17390865D02*
X4364110Y-17381341D01*
X4364110Y-17381341D02*
X4354586Y-17362294D01*
X4354586Y-17362294D02*
X4345062Y-17324198D01*
X4345062Y-17324198D02*
X4345062Y-17276579D01*
X4345062Y-17276579D02*
X4354586Y-17238484D01*
X4354586Y-17238484D02*
X4364110Y-17219436D01*
X4364110Y-17219436D02*
X4373634Y-17209913D01*
X4373634Y-17209913D02*
X4392681Y-17200389D01*
X4583158Y-17200389D02*
X4602205Y-17200389D01*
X4602205Y-17200389D02*
X4621253Y-17209913D01*
X4621253Y-17209913D02*
X4630777Y-17219436D01*
X4630777Y-17219436D02*
X4640300Y-17238484D01*
X4640300Y-17238484D02*
X4649824Y-17276579D01*
X4649824Y-17276579D02*
X4649824Y-17324198D01*
X4649824Y-17324198D02*
X4640300Y-17362294D01*
X4640300Y-17362294D02*
X4630777Y-17381341D01*
X4630777Y-17381341D02*
X4621253Y-17390865D01*
X4621253Y-17390865D02*
X4602205Y-17400389D01*
X4602205Y-17400389D02*
X4583158Y-17400389D01*
X4583158Y-17400389D02*
X4564110Y-17390865D01*
X4564110Y-17390865D02*
X4554586Y-17381341D01*
X4554586Y-17381341D02*
X4545062Y-17362294D01*
X4545062Y-17362294D02*
X4535539Y-17324198D01*
X4535539Y-17324198D02*
X4535539Y-17276579D01*
X4535539Y-17276579D02*
X4545062Y-17238484D01*
X4545062Y-17238484D02*
X4554586Y-17219436D01*
X4554586Y-17219436D02*
X4564110Y-17209913D01*
X4564110Y-17209913D02*
X4583158Y-17200389D01*
X4773634Y-17200389D02*
X4792681Y-17200389D01*
X4792681Y-17200389D02*
X4811729Y-17209913D01*
X4811729Y-17209913D02*
X4821253Y-17219436D01*
X4821253Y-17219436D02*
X4830777Y-17238484D01*
X4830777Y-17238484D02*
X4840300Y-17276579D01*
X4840300Y-17276579D02*
X4840300Y-17324198D01*
X4840300Y-17324198D02*
X4830777Y-17362294D01*
X4830777Y-17362294D02*
X4821253Y-17381341D01*
X4821253Y-17381341D02*
X4811729Y-17390865D01*
X4811729Y-17390865D02*
X4792681Y-17400389D01*
X4792681Y-17400389D02*
X4773634Y-17400389D01*
X4773634Y-17400389D02*
X4754586Y-17390865D01*
X4754586Y-17390865D02*
X4745062Y-17381341D01*
X4745062Y-17381341D02*
X4735539Y-17362294D01*
X4735539Y-17362294D02*
X4726015Y-17324198D01*
X4726015Y-17324198D02*
X4726015Y-17276579D01*
X4726015Y-17276579D02*
X4735539Y-17238484D01*
X4735539Y-17238484D02*
X4745062Y-17219436D01*
X4745062Y-17219436D02*
X4754586Y-17209913D01*
X4754586Y-17209913D02*
X4773634Y-17200389D01*
X4926015Y-17400389D02*
X4926015Y-17267055D01*
X4926015Y-17286103D02*
X4935539Y-17276579D01*
X4935539Y-17276579D02*
X4954586Y-17267055D01*
X4954586Y-17267055D02*
X4983158Y-17267055D01*
X4983158Y-17267055D02*
X5002205Y-17276579D01*
X5002205Y-17276579D02*
X5011729Y-17295627D01*
X5011729Y-17295627D02*
X5011729Y-17400389D01*
X5011729Y-17295627D02*
X5021253Y-17276579D01*
X5021253Y-17276579D02*
X5040300Y-17267055D01*
X5040300Y-17267055D02*
X5068872Y-17267055D01*
X5068872Y-17267055D02*
X5087920Y-17276579D01*
X5087920Y-17276579D02*
X5097443Y-17295627D01*
X5097443Y-17295627D02*
X5097443Y-17400389D01*
X5192681Y-17400389D02*
X5192681Y-17267055D01*
X5192681Y-17286103D02*
X5202205Y-17276579D01*
X5202205Y-17276579D02*
X5221253Y-17267055D01*
X5221253Y-17267055D02*
X5249824Y-17267055D01*
X5249824Y-17267055D02*
X5268872Y-17276579D01*
X5268872Y-17276579D02*
X5278396Y-17295627D01*
X5278396Y-17295627D02*
X5278396Y-17400389D01*
X5278396Y-17295627D02*
X5287920Y-17276579D01*
X5287920Y-17276579D02*
X5306967Y-17267055D01*
X5306967Y-17267055D02*
X5335539Y-17267055D01*
X5335539Y-17267055D02*
X5354586Y-17276579D01*
X5354586Y-17276579D02*
X5364110Y-17295627D01*
X5364110Y-17295627D02*
X5364110Y-17400389D01*
X5754586Y-17190865D02*
X5583158Y-17448008D01*
X6011729Y-17200389D02*
X6030777Y-17200389D01*
X6030777Y-17200389D02*
X6049824Y-17209913D01*
X6049824Y-17209913D02*
X6059348Y-17219436D01*
X6059348Y-17219436D02*
X6068872Y-17238484D01*
X6068872Y-17238484D02*
X6078396Y-17276579D01*
X6078396Y-17276579D02*
X6078396Y-17324198D01*
X6078396Y-17324198D02*
X6068872Y-17362294D01*
X6068872Y-17362294D02*
X6059348Y-17381341D01*
X6059348Y-17381341D02*
X6049824Y-17390865D01*
X6049824Y-17390865D02*
X6030777Y-17400389D01*
X6030777Y-17400389D02*
X6011729Y-17400389D01*
X6011729Y-17400389D02*
X5992681Y-17390865D01*
X5992681Y-17390865D02*
X5983158Y-17381341D01*
X5983158Y-17381341D02*
X5973634Y-17362294D01*
X5973634Y-17362294D02*
X5964110Y-17324198D01*
X5964110Y-17324198D02*
X5964110Y-17276579D01*
X5964110Y-17276579D02*
X5973634Y-17238484D01*
X5973634Y-17238484D02*
X5983158Y-17219436D01*
X5983158Y-17219436D02*
X5992681Y-17209913D01*
X5992681Y-17209913D02*
X6011729Y-17200389D01*
X6164110Y-17381341D02*
X6173634Y-17390865D01*
X6173634Y-17390865D02*
X6164110Y-17400389D01*
X6164110Y-17400389D02*
X6154586Y-17390865D01*
X6154586Y-17390865D02*
X6164110Y-17381341D01*
X6164110Y-17381341D02*
X6164110Y-17400389D01*
X6297443Y-17200389D02*
X6316491Y-17200389D01*
X6316491Y-17200389D02*
X6335539Y-17209913D01*
X6335539Y-17209913D02*
X6345062Y-17219436D01*
X6345062Y-17219436D02*
X6354586Y-17238484D01*
X6354586Y-17238484D02*
X6364110Y-17276579D01*
X6364110Y-17276579D02*
X6364110Y-17324198D01*
X6364110Y-17324198D02*
X6354586Y-17362294D01*
X6354586Y-17362294D02*
X6345062Y-17381341D01*
X6345062Y-17381341D02*
X6335539Y-17390865D01*
X6335539Y-17390865D02*
X6316491Y-17400389D01*
X6316491Y-17400389D02*
X6297443Y-17400389D01*
X6297443Y-17400389D02*
X6278396Y-17390865D01*
X6278396Y-17390865D02*
X6268872Y-17381341D01*
X6268872Y-17381341D02*
X6259348Y-17362294D01*
X6259348Y-17362294D02*
X6249824Y-17324198D01*
X6249824Y-17324198D02*
X6249824Y-17276579D01*
X6249824Y-17276579D02*
X6259348Y-17238484D01*
X6259348Y-17238484D02*
X6268872Y-17219436D01*
X6268872Y-17219436D02*
X6278396Y-17209913D01*
X6278396Y-17209913D02*
X6297443Y-17200389D01*
X6430777Y-17200389D02*
X6554586Y-17200389D01*
X6554586Y-17200389D02*
X6487920Y-17276579D01*
X6487920Y-17276579D02*
X6516491Y-17276579D01*
X6516491Y-17276579D02*
X6535539Y-17286103D01*
X6535539Y-17286103D02*
X6545062Y-17295627D01*
X6545062Y-17295627D02*
X6554586Y-17314675D01*
X6554586Y-17314675D02*
X6554586Y-17362294D01*
X6554586Y-17362294D02*
X6545062Y-17381341D01*
X6545062Y-17381341D02*
X6535539Y-17390865D01*
X6535539Y-17390865D02*
X6516491Y-17400389D01*
X6516491Y-17400389D02*
X6459348Y-17400389D01*
X6459348Y-17400389D02*
X6440301Y-17390865D01*
X6440301Y-17390865D02*
X6430777Y-17381341D01*
X6649824Y-17400389D02*
X6687920Y-17400389D01*
X6687920Y-17400389D02*
X6706967Y-17390865D01*
X6706967Y-17390865D02*
X6716491Y-17381341D01*
X6716491Y-17381341D02*
X6735539Y-17352770D01*
X6735539Y-17352770D02*
X6745062Y-17314675D01*
X6745062Y-17314675D02*
X6745062Y-17238484D01*
X6745062Y-17238484D02*
X6735539Y-17219436D01*
X6735539Y-17219436D02*
X6726015Y-17209913D01*
X6726015Y-17209913D02*
X6706967Y-17200389D01*
X6706967Y-17200389D02*
X6668872Y-17200389D01*
X6668872Y-17200389D02*
X6649824Y-17209913D01*
X6649824Y-17209913D02*
X6640301Y-17219436D01*
X6640301Y-17219436D02*
X6630777Y-17238484D01*
X6630777Y-17238484D02*
X6630777Y-17286103D01*
X6630777Y-17286103D02*
X6640301Y-17305151D01*
X6640301Y-17305151D02*
X6649824Y-17314675D01*
X6649824Y-17314675D02*
X6668872Y-17324198D01*
X6668872Y-17324198D02*
X6706967Y-17324198D01*
X6706967Y-17324198D02*
X6726015Y-17314675D01*
X6726015Y-17314675D02*
X6735539Y-17305151D01*
X6735539Y-17305151D02*
X6745062Y-17286103D01*
X6916491Y-17267055D02*
X6916491Y-17400389D01*
X6868872Y-17190865D02*
X6821253Y-17333722D01*
X6821253Y-17333722D02*
X6945062Y-17333722D01*
X7011729Y-17200389D02*
X7011729Y-17238484D01*
X7087920Y-17200389D02*
X7087920Y-17238484D01*
X7383158Y-17476579D02*
X7373634Y-17467055D01*
X7373634Y-17467055D02*
X7354586Y-17438484D01*
X7354586Y-17438484D02*
X7345063Y-17419436D01*
X7345063Y-17419436D02*
X7335539Y-17390865D01*
X7335539Y-17390865D02*
X7326015Y-17343246D01*
X7326015Y-17343246D02*
X7326015Y-17305151D01*
X7326015Y-17305151D02*
X7335539Y-17257532D01*
X7335539Y-17257532D02*
X7345063Y-17228960D01*
X7345063Y-17228960D02*
X7354586Y-17209913D01*
X7354586Y-17209913D02*
X7373634Y-17181341D01*
X7373634Y-17181341D02*
X7383158Y-17171817D01*
X7449824Y-17219436D02*
X7459348Y-17209913D01*
X7459348Y-17209913D02*
X7478396Y-17200389D01*
X7478396Y-17200389D02*
X7526015Y-17200389D01*
X7526015Y-17200389D02*
X7545063Y-17209913D01*
X7545063Y-17209913D02*
X7554586Y-17219436D01*
X7554586Y-17219436D02*
X7564110Y-17238484D01*
X7564110Y-17238484D02*
X7564110Y-17257532D01*
X7564110Y-17257532D02*
X7554586Y-17286103D01*
X7554586Y-17286103D02*
X7440301Y-17400389D01*
X7440301Y-17400389D02*
X7564110Y-17400389D01*
X7735539Y-17200389D02*
X7697443Y-17200389D01*
X7697443Y-17200389D02*
X7678396Y-17209913D01*
X7678396Y-17209913D02*
X7668872Y-17219436D01*
X7668872Y-17219436D02*
X7649824Y-17248008D01*
X7649824Y-17248008D02*
X7640301Y-17286103D01*
X7640301Y-17286103D02*
X7640301Y-17362294D01*
X7640301Y-17362294D02*
X7649824Y-17381341D01*
X7649824Y-17381341D02*
X7659348Y-17390865D01*
X7659348Y-17390865D02*
X7678396Y-17400389D01*
X7678396Y-17400389D02*
X7716491Y-17400389D01*
X7716491Y-17400389D02*
X7735539Y-17390865D01*
X7735539Y-17390865D02*
X7745063Y-17381341D01*
X7745063Y-17381341D02*
X7754586Y-17362294D01*
X7754586Y-17362294D02*
X7754586Y-17314675D01*
X7754586Y-17314675D02*
X7745063Y-17295627D01*
X7745063Y-17295627D02*
X7735539Y-17286103D01*
X7735539Y-17286103D02*
X7716491Y-17276579D01*
X7716491Y-17276579D02*
X7678396Y-17276579D01*
X7678396Y-17276579D02*
X7659348Y-17286103D01*
X7659348Y-17286103D02*
X7649824Y-17295627D01*
X7649824Y-17295627D02*
X7640301Y-17314675D01*
X7992682Y-17400389D02*
X7992682Y-17200389D01*
X8078396Y-17400389D02*
X8078396Y-17295627D01*
X8078396Y-17295627D02*
X8068872Y-17276579D01*
X8068872Y-17276579D02*
X8049825Y-17267055D01*
X8049825Y-17267055D02*
X8021253Y-17267055D01*
X8021253Y-17267055D02*
X8002205Y-17276579D01*
X8002205Y-17276579D02*
X7992682Y-17286103D01*
X8202205Y-17400389D02*
X8183158Y-17390865D01*
X8183158Y-17390865D02*
X8173634Y-17381341D01*
X8173634Y-17381341D02*
X8164110Y-17362294D01*
X8164110Y-17362294D02*
X8164110Y-17305151D01*
X8164110Y-17305151D02*
X8173634Y-17286103D01*
X8173634Y-17286103D02*
X8183158Y-17276579D01*
X8183158Y-17276579D02*
X8202205Y-17267055D01*
X8202205Y-17267055D02*
X8230777Y-17267055D01*
X8230777Y-17267055D02*
X8249825Y-17276579D01*
X8249825Y-17276579D02*
X8259348Y-17286103D01*
X8259348Y-17286103D02*
X8268872Y-17305151D01*
X8268872Y-17305151D02*
X8268872Y-17362294D01*
X8268872Y-17362294D02*
X8259348Y-17381341D01*
X8259348Y-17381341D02*
X8249825Y-17390865D01*
X8249825Y-17390865D02*
X8230777Y-17400389D01*
X8230777Y-17400389D02*
X8202205Y-17400389D01*
X8383158Y-17400389D02*
X8364110Y-17390865D01*
X8364110Y-17390865D02*
X8354586Y-17371817D01*
X8354586Y-17371817D02*
X8354586Y-17200389D01*
X8535539Y-17390865D02*
X8516491Y-17400389D01*
X8516491Y-17400389D02*
X8478396Y-17400389D01*
X8478396Y-17400389D02*
X8459348Y-17390865D01*
X8459348Y-17390865D02*
X8449825Y-17371817D01*
X8449825Y-17371817D02*
X8449825Y-17295627D01*
X8449825Y-17295627D02*
X8459348Y-17276579D01*
X8459348Y-17276579D02*
X8478396Y-17267055D01*
X8478396Y-17267055D02*
X8516491Y-17267055D01*
X8516491Y-17267055D02*
X8535539Y-17276579D01*
X8535539Y-17276579D02*
X8545063Y-17295627D01*
X8545063Y-17295627D02*
X8545063Y-17314675D01*
X8545063Y-17314675D02*
X8449825Y-17333722D01*
X8621253Y-17390865D02*
X8640301Y-17400389D01*
X8640301Y-17400389D02*
X8678396Y-17400389D01*
X8678396Y-17400389D02*
X8697444Y-17390865D01*
X8697444Y-17390865D02*
X8706968Y-17371817D01*
X8706968Y-17371817D02*
X8706968Y-17362294D01*
X8706968Y-17362294D02*
X8697444Y-17343246D01*
X8697444Y-17343246D02*
X8678396Y-17333722D01*
X8678396Y-17333722D02*
X8649825Y-17333722D01*
X8649825Y-17333722D02*
X8630777Y-17324198D01*
X8630777Y-17324198D02*
X8621253Y-17305151D01*
X8621253Y-17305151D02*
X8621253Y-17295627D01*
X8621253Y-17295627D02*
X8630777Y-17276579D01*
X8630777Y-17276579D02*
X8649825Y-17267055D01*
X8649825Y-17267055D02*
X8678396Y-17267055D01*
X8678396Y-17267055D02*
X8697444Y-17276579D01*
X8945063Y-17324198D02*
X9097444Y-17324198D01*
X9021253Y-17400389D02*
X9021253Y-17248008D01*
X9326015Y-17200389D02*
X9449825Y-17200389D01*
X9449825Y-17200389D02*
X9383158Y-17276579D01*
X9383158Y-17276579D02*
X9411730Y-17276579D01*
X9411730Y-17276579D02*
X9430777Y-17286103D01*
X9430777Y-17286103D02*
X9440301Y-17295627D01*
X9440301Y-17295627D02*
X9449825Y-17314675D01*
X9449825Y-17314675D02*
X9449825Y-17362294D01*
X9449825Y-17362294D02*
X9440301Y-17381341D01*
X9440301Y-17381341D02*
X9430777Y-17390865D01*
X9430777Y-17390865D02*
X9411730Y-17400389D01*
X9411730Y-17400389D02*
X9354587Y-17400389D01*
X9354587Y-17400389D02*
X9335539Y-17390865D01*
X9335539Y-17390865D02*
X9326015Y-17381341D01*
X9678396Y-17390865D02*
X9697444Y-17400389D01*
X9697444Y-17400389D02*
X9735539Y-17400389D01*
X9735539Y-17400389D02*
X9754587Y-17390865D01*
X9754587Y-17390865D02*
X9764111Y-17371817D01*
X9764111Y-17371817D02*
X9764111Y-17362294D01*
X9764111Y-17362294D02*
X9754587Y-17343246D01*
X9754587Y-17343246D02*
X9735539Y-17333722D01*
X9735539Y-17333722D02*
X9706968Y-17333722D01*
X9706968Y-17333722D02*
X9687920Y-17324198D01*
X9687920Y-17324198D02*
X9678396Y-17305151D01*
X9678396Y-17305151D02*
X9678396Y-17295627D01*
X9678396Y-17295627D02*
X9687920Y-17276579D01*
X9687920Y-17276579D02*
X9706968Y-17267055D01*
X9706968Y-17267055D02*
X9735539Y-17267055D01*
X9735539Y-17267055D02*
X9754587Y-17276579D01*
X9878396Y-17400389D02*
X9859349Y-17390865D01*
X9859349Y-17390865D02*
X9849825Y-17371817D01*
X9849825Y-17371817D02*
X9849825Y-17200389D01*
X9983158Y-17400389D02*
X9964111Y-17390865D01*
X9964111Y-17390865D02*
X9954587Y-17381341D01*
X9954587Y-17381341D02*
X9945063Y-17362294D01*
X9945063Y-17362294D02*
X9945063Y-17305151D01*
X9945063Y-17305151D02*
X9954587Y-17286103D01*
X9954587Y-17286103D02*
X9964111Y-17276579D01*
X9964111Y-17276579D02*
X9983158Y-17267055D01*
X9983158Y-17267055D02*
X10011730Y-17267055D01*
X10011730Y-17267055D02*
X10030777Y-17276579D01*
X10030777Y-17276579D02*
X10040301Y-17286103D01*
X10040301Y-17286103D02*
X10049825Y-17305151D01*
X10049825Y-17305151D02*
X10049825Y-17362294D01*
X10049825Y-17362294D02*
X10040301Y-17381341D01*
X10040301Y-17381341D02*
X10030777Y-17390865D01*
X10030777Y-17390865D02*
X10011730Y-17400389D01*
X10011730Y-17400389D02*
X9983158Y-17400389D01*
X10106968Y-17267055D02*
X10183158Y-17267055D01*
X10135539Y-17200389D02*
X10135539Y-17371817D01*
X10135539Y-17371817D02*
X10145063Y-17390865D01*
X10145063Y-17390865D02*
X10164111Y-17400389D01*
X10164111Y-17400389D02*
X10183158Y-17400389D01*
X10240301Y-17390865D02*
X10259349Y-17400389D01*
X10259349Y-17400389D02*
X10297444Y-17400389D01*
X10297444Y-17400389D02*
X10316492Y-17390865D01*
X10316492Y-17390865D02*
X10326015Y-17371817D01*
X10326015Y-17371817D02*
X10326015Y-17362294D01*
X10326015Y-17362294D02*
X10316492Y-17343246D01*
X10316492Y-17343246D02*
X10297444Y-17333722D01*
X10297444Y-17333722D02*
X10268872Y-17333722D01*
X10268872Y-17333722D02*
X10249825Y-17324198D01*
X10249825Y-17324198D02*
X10240301Y-17305151D01*
X10240301Y-17305151D02*
X10240301Y-17295627D01*
X10240301Y-17295627D02*
X10249825Y-17276579D01*
X10249825Y-17276579D02*
X10268872Y-17267055D01*
X10268872Y-17267055D02*
X10297444Y-17267055D01*
X10297444Y-17267055D02*
X10316492Y-17276579D01*
X10392682Y-17476579D02*
X10402206Y-17467055D01*
X10402206Y-17467055D02*
X10421253Y-17438484D01*
X10421253Y-17438484D02*
X10430777Y-17419436D01*
X10430777Y-17419436D02*
X10440301Y-17390865D01*
X10440301Y-17390865D02*
X10449825Y-17343246D01*
X10449825Y-17343246D02*
X10449825Y-17305151D01*
X10449825Y-17305151D02*
X10440301Y-17257532D01*
X10440301Y-17257532D02*
X10430777Y-17228960D01*
X10430777Y-17228960D02*
X10421253Y-17209913D01*
X10421253Y-17209913D02*
X10402206Y-17181341D01*
X10402206Y-17181341D02*
X10392682Y-17171817D01*
D13*
X3753095Y-17627905D02*
X3808095Y-17572905D01*
X3753095Y-17517905D01*
X3698095Y-17572905D01*
X3753095Y-17627905D01*
D11*
X4173634Y-17664389D02*
X4059348Y-17664389D01*
X4116491Y-17664389D02*
X4116491Y-17464389D01*
X4116491Y-17464389D02*
X4097443Y-17492960D01*
X4097443Y-17492960D02*
X4078396Y-17512008D01*
X4078396Y-17512008D02*
X4059348Y-17521532D01*
X4259348Y-17645341D02*
X4268872Y-17654865D01*
X4268872Y-17654865D02*
X4259348Y-17664389D01*
X4259348Y-17664389D02*
X4249824Y-17654865D01*
X4249824Y-17654865D02*
X4259348Y-17645341D01*
X4259348Y-17645341D02*
X4259348Y-17664389D01*
X4459348Y-17664389D02*
X4345062Y-17664389D01*
X4402205Y-17664389D02*
X4402205Y-17464389D01*
X4402205Y-17464389D02*
X4383158Y-17492960D01*
X4383158Y-17492960D02*
X4364110Y-17512008D01*
X4364110Y-17512008D02*
X4345062Y-17521532D01*
X4583158Y-17464389D02*
X4602205Y-17464389D01*
X4602205Y-17464389D02*
X4621253Y-17473913D01*
X4621253Y-17473913D02*
X4630777Y-17483436D01*
X4630777Y-17483436D02*
X4640300Y-17502484D01*
X4640300Y-17502484D02*
X4649824Y-17540579D01*
X4649824Y-17540579D02*
X4649824Y-17588198D01*
X4649824Y-17588198D02*
X4640300Y-17626294D01*
X4640300Y-17626294D02*
X4630777Y-17645341D01*
X4630777Y-17645341D02*
X4621253Y-17654865D01*
X4621253Y-17654865D02*
X4602205Y-17664389D01*
X4602205Y-17664389D02*
X4583158Y-17664389D01*
X4583158Y-17664389D02*
X4564110Y-17654865D01*
X4564110Y-17654865D02*
X4554586Y-17645341D01*
X4554586Y-17645341D02*
X4545062Y-17626294D01*
X4545062Y-17626294D02*
X4535539Y-17588198D01*
X4535539Y-17588198D02*
X4535539Y-17540579D01*
X4535539Y-17540579D02*
X4545062Y-17502484D01*
X4545062Y-17502484D02*
X4554586Y-17483436D01*
X4554586Y-17483436D02*
X4564110Y-17473913D01*
X4564110Y-17473913D02*
X4583158Y-17464389D01*
X4773634Y-17464389D02*
X4792681Y-17464389D01*
X4792681Y-17464389D02*
X4811729Y-17473913D01*
X4811729Y-17473913D02*
X4821253Y-17483436D01*
X4821253Y-17483436D02*
X4830777Y-17502484D01*
X4830777Y-17502484D02*
X4840300Y-17540579D01*
X4840300Y-17540579D02*
X4840300Y-17588198D01*
X4840300Y-17588198D02*
X4830777Y-17626294D01*
X4830777Y-17626294D02*
X4821253Y-17645341D01*
X4821253Y-17645341D02*
X4811729Y-17654865D01*
X4811729Y-17654865D02*
X4792681Y-17664389D01*
X4792681Y-17664389D02*
X4773634Y-17664389D01*
X4773634Y-17664389D02*
X4754586Y-17654865D01*
X4754586Y-17654865D02*
X4745062Y-17645341D01*
X4745062Y-17645341D02*
X4735539Y-17626294D01*
X4735539Y-17626294D02*
X4726015Y-17588198D01*
X4726015Y-17588198D02*
X4726015Y-17540579D01*
X4726015Y-17540579D02*
X4735539Y-17502484D01*
X4735539Y-17502484D02*
X4745062Y-17483436D01*
X4745062Y-17483436D02*
X4754586Y-17473913D01*
X4754586Y-17473913D02*
X4773634Y-17464389D01*
X4926015Y-17664389D02*
X4926015Y-17531055D01*
X4926015Y-17550103D02*
X4935539Y-17540579D01*
X4935539Y-17540579D02*
X4954586Y-17531055D01*
X4954586Y-17531055D02*
X4983158Y-17531055D01*
X4983158Y-17531055D02*
X5002205Y-17540579D01*
X5002205Y-17540579D02*
X5011729Y-17559627D01*
X5011729Y-17559627D02*
X5011729Y-17664389D01*
X5011729Y-17559627D02*
X5021253Y-17540579D01*
X5021253Y-17540579D02*
X5040300Y-17531055D01*
X5040300Y-17531055D02*
X5068872Y-17531055D01*
X5068872Y-17531055D02*
X5087920Y-17540579D01*
X5087920Y-17540579D02*
X5097443Y-17559627D01*
X5097443Y-17559627D02*
X5097443Y-17664389D01*
X5192681Y-17664389D02*
X5192681Y-17531055D01*
X5192681Y-17550103D02*
X5202205Y-17540579D01*
X5202205Y-17540579D02*
X5221253Y-17531055D01*
X5221253Y-17531055D02*
X5249824Y-17531055D01*
X5249824Y-17531055D02*
X5268872Y-17540579D01*
X5268872Y-17540579D02*
X5278396Y-17559627D01*
X5278396Y-17559627D02*
X5278396Y-17664389D01*
X5278396Y-17559627D02*
X5287920Y-17540579D01*
X5287920Y-17540579D02*
X5306967Y-17531055D01*
X5306967Y-17531055D02*
X5335539Y-17531055D01*
X5335539Y-17531055D02*
X5354586Y-17540579D01*
X5354586Y-17540579D02*
X5364110Y-17559627D01*
X5364110Y-17559627D02*
X5364110Y-17664389D01*
X5754586Y-17454865D02*
X5583158Y-17712008D01*
X6011729Y-17464389D02*
X6030777Y-17464389D01*
X6030777Y-17464389D02*
X6049824Y-17473913D01*
X6049824Y-17473913D02*
X6059348Y-17483436D01*
X6059348Y-17483436D02*
X6068872Y-17502484D01*
X6068872Y-17502484D02*
X6078396Y-17540579D01*
X6078396Y-17540579D02*
X6078396Y-17588198D01*
X6078396Y-17588198D02*
X6068872Y-17626294D01*
X6068872Y-17626294D02*
X6059348Y-17645341D01*
X6059348Y-17645341D02*
X6049824Y-17654865D01*
X6049824Y-17654865D02*
X6030777Y-17664389D01*
X6030777Y-17664389D02*
X6011729Y-17664389D01*
X6011729Y-17664389D02*
X5992681Y-17654865D01*
X5992681Y-17654865D02*
X5983158Y-17645341D01*
X5983158Y-17645341D02*
X5973634Y-17626294D01*
X5973634Y-17626294D02*
X5964110Y-17588198D01*
X5964110Y-17588198D02*
X5964110Y-17540579D01*
X5964110Y-17540579D02*
X5973634Y-17502484D01*
X5973634Y-17502484D02*
X5983158Y-17483436D01*
X5983158Y-17483436D02*
X5992681Y-17473913D01*
X5992681Y-17473913D02*
X6011729Y-17464389D01*
X6164110Y-17645341D02*
X6173634Y-17654865D01*
X6173634Y-17654865D02*
X6164110Y-17664389D01*
X6164110Y-17664389D02*
X6154586Y-17654865D01*
X6154586Y-17654865D02*
X6164110Y-17645341D01*
X6164110Y-17645341D02*
X6164110Y-17664389D01*
X6297443Y-17464389D02*
X6316491Y-17464389D01*
X6316491Y-17464389D02*
X6335539Y-17473913D01*
X6335539Y-17473913D02*
X6345062Y-17483436D01*
X6345062Y-17483436D02*
X6354586Y-17502484D01*
X6354586Y-17502484D02*
X6364110Y-17540579D01*
X6364110Y-17540579D02*
X6364110Y-17588198D01*
X6364110Y-17588198D02*
X6354586Y-17626294D01*
X6354586Y-17626294D02*
X6345062Y-17645341D01*
X6345062Y-17645341D02*
X6335539Y-17654865D01*
X6335539Y-17654865D02*
X6316491Y-17664389D01*
X6316491Y-17664389D02*
X6297443Y-17664389D01*
X6297443Y-17664389D02*
X6278396Y-17654865D01*
X6278396Y-17654865D02*
X6268872Y-17645341D01*
X6268872Y-17645341D02*
X6259348Y-17626294D01*
X6259348Y-17626294D02*
X6249824Y-17588198D01*
X6249824Y-17588198D02*
X6249824Y-17540579D01*
X6249824Y-17540579D02*
X6259348Y-17502484D01*
X6259348Y-17502484D02*
X6268872Y-17483436D01*
X6268872Y-17483436D02*
X6278396Y-17473913D01*
X6278396Y-17473913D02*
X6297443Y-17464389D01*
X6535539Y-17531055D02*
X6535539Y-17664389D01*
X6487920Y-17454865D02*
X6440301Y-17597722D01*
X6440301Y-17597722D02*
X6564110Y-17597722D01*
X6621253Y-17464389D02*
X6745062Y-17464389D01*
X6745062Y-17464389D02*
X6678396Y-17540579D01*
X6678396Y-17540579D02*
X6706967Y-17540579D01*
X6706967Y-17540579D02*
X6726015Y-17550103D01*
X6726015Y-17550103D02*
X6735539Y-17559627D01*
X6735539Y-17559627D02*
X6745062Y-17578675D01*
X6745062Y-17578675D02*
X6745062Y-17626294D01*
X6745062Y-17626294D02*
X6735539Y-17645341D01*
X6735539Y-17645341D02*
X6726015Y-17654865D01*
X6726015Y-17654865D02*
X6706967Y-17664389D01*
X6706967Y-17664389D02*
X6649824Y-17664389D01*
X6649824Y-17664389D02*
X6630777Y-17654865D01*
X6630777Y-17654865D02*
X6621253Y-17645341D01*
X6811729Y-17464389D02*
X6935539Y-17464389D01*
X6935539Y-17464389D02*
X6868872Y-17540579D01*
X6868872Y-17540579D02*
X6897443Y-17540579D01*
X6897443Y-17540579D02*
X6916491Y-17550103D01*
X6916491Y-17550103D02*
X6926015Y-17559627D01*
X6926015Y-17559627D02*
X6935539Y-17578675D01*
X6935539Y-17578675D02*
X6935539Y-17626294D01*
X6935539Y-17626294D02*
X6926015Y-17645341D01*
X6926015Y-17645341D02*
X6916491Y-17654865D01*
X6916491Y-17654865D02*
X6897443Y-17664389D01*
X6897443Y-17664389D02*
X6840301Y-17664389D01*
X6840301Y-17664389D02*
X6821253Y-17654865D01*
X6821253Y-17654865D02*
X6811729Y-17645341D01*
X7011729Y-17464389D02*
X7011729Y-17502484D01*
X7087920Y-17464389D02*
X7087920Y-17502484D01*
X7383158Y-17740579D02*
X7373634Y-17731055D01*
X7373634Y-17731055D02*
X7354586Y-17702484D01*
X7354586Y-17702484D02*
X7345063Y-17683436D01*
X7345063Y-17683436D02*
X7335539Y-17654865D01*
X7335539Y-17654865D02*
X7326015Y-17607246D01*
X7326015Y-17607246D02*
X7326015Y-17569151D01*
X7326015Y-17569151D02*
X7335539Y-17521532D01*
X7335539Y-17521532D02*
X7345063Y-17492960D01*
X7345063Y-17492960D02*
X7354586Y-17473913D01*
X7354586Y-17473913D02*
X7373634Y-17445341D01*
X7373634Y-17445341D02*
X7383158Y-17435817D01*
X7545063Y-17531055D02*
X7545063Y-17664389D01*
X7497443Y-17454865D02*
X7449824Y-17597722D01*
X7449824Y-17597722D02*
X7573634Y-17597722D01*
X7640301Y-17483436D02*
X7649824Y-17473913D01*
X7649824Y-17473913D02*
X7668872Y-17464389D01*
X7668872Y-17464389D02*
X7716491Y-17464389D01*
X7716491Y-17464389D02*
X7735539Y-17473913D01*
X7735539Y-17473913D02*
X7745063Y-17483436D01*
X7745063Y-17483436D02*
X7754586Y-17502484D01*
X7754586Y-17502484D02*
X7754586Y-17521532D01*
X7754586Y-17521532D02*
X7745063Y-17550103D01*
X7745063Y-17550103D02*
X7630777Y-17664389D01*
X7630777Y-17664389D02*
X7754586Y-17664389D01*
X7992682Y-17664389D02*
X7992682Y-17464389D01*
X8078396Y-17664389D02*
X8078396Y-17559627D01*
X8078396Y-17559627D02*
X8068872Y-17540579D01*
X8068872Y-17540579D02*
X8049825Y-17531055D01*
X8049825Y-17531055D02*
X8021253Y-17531055D01*
X8021253Y-17531055D02*
X8002205Y-17540579D01*
X8002205Y-17540579D02*
X7992682Y-17550103D01*
X8202205Y-17664389D02*
X8183158Y-17654865D01*
X8183158Y-17654865D02*
X8173634Y-17645341D01*
X8173634Y-17645341D02*
X8164110Y-17626294D01*
X8164110Y-17626294D02*
X8164110Y-17569151D01*
X8164110Y-17569151D02*
X8173634Y-17550103D01*
X8173634Y-17550103D02*
X8183158Y-17540579D01*
X8183158Y-17540579D02*
X8202205Y-17531055D01*
X8202205Y-17531055D02*
X8230777Y-17531055D01*
X8230777Y-17531055D02*
X8249825Y-17540579D01*
X8249825Y-17540579D02*
X8259348Y-17550103D01*
X8259348Y-17550103D02*
X8268872Y-17569151D01*
X8268872Y-17569151D02*
X8268872Y-17626294D01*
X8268872Y-17626294D02*
X8259348Y-17645341D01*
X8259348Y-17645341D02*
X8249825Y-17654865D01*
X8249825Y-17654865D02*
X8230777Y-17664389D01*
X8230777Y-17664389D02*
X8202205Y-17664389D01*
X8383158Y-17664389D02*
X8364110Y-17654865D01*
X8364110Y-17654865D02*
X8354586Y-17635817D01*
X8354586Y-17635817D02*
X8354586Y-17464389D01*
X8535539Y-17654865D02*
X8516491Y-17664389D01*
X8516491Y-17664389D02*
X8478396Y-17664389D01*
X8478396Y-17664389D02*
X8459348Y-17654865D01*
X8459348Y-17654865D02*
X8449825Y-17635817D01*
X8449825Y-17635817D02*
X8449825Y-17559627D01*
X8449825Y-17559627D02*
X8459348Y-17540579D01*
X8459348Y-17540579D02*
X8478396Y-17531055D01*
X8478396Y-17531055D02*
X8516491Y-17531055D01*
X8516491Y-17531055D02*
X8535539Y-17540579D01*
X8535539Y-17540579D02*
X8545063Y-17559627D01*
X8545063Y-17559627D02*
X8545063Y-17578675D01*
X8545063Y-17578675D02*
X8449825Y-17597722D01*
X8621253Y-17654865D02*
X8640301Y-17664389D01*
X8640301Y-17664389D02*
X8678396Y-17664389D01*
X8678396Y-17664389D02*
X8697444Y-17654865D01*
X8697444Y-17654865D02*
X8706968Y-17635817D01*
X8706968Y-17635817D02*
X8706968Y-17626294D01*
X8706968Y-17626294D02*
X8697444Y-17607246D01*
X8697444Y-17607246D02*
X8678396Y-17597722D01*
X8678396Y-17597722D02*
X8649825Y-17597722D01*
X8649825Y-17597722D02*
X8630777Y-17588198D01*
X8630777Y-17588198D02*
X8621253Y-17569151D01*
X8621253Y-17569151D02*
X8621253Y-17559627D01*
X8621253Y-17559627D02*
X8630777Y-17540579D01*
X8630777Y-17540579D02*
X8649825Y-17531055D01*
X8649825Y-17531055D02*
X8678396Y-17531055D01*
X8678396Y-17531055D02*
X8697444Y-17540579D01*
X8945063Y-17588198D02*
X9097444Y-17588198D01*
X9021253Y-17664389D02*
X9021253Y-17512008D01*
X9449825Y-17664389D02*
X9335539Y-17664389D01*
X9392682Y-17664389D02*
X9392682Y-17464389D01*
X9392682Y-17464389D02*
X9373634Y-17492960D01*
X9373634Y-17492960D02*
X9354587Y-17512008D01*
X9354587Y-17512008D02*
X9335539Y-17521532D01*
X9526015Y-17483436D02*
X9535539Y-17473913D01*
X9535539Y-17473913D02*
X9554587Y-17464389D01*
X9554587Y-17464389D02*
X9602206Y-17464389D01*
X9602206Y-17464389D02*
X9621253Y-17473913D01*
X9621253Y-17473913D02*
X9630777Y-17483436D01*
X9630777Y-17483436D02*
X9640301Y-17502484D01*
X9640301Y-17502484D02*
X9640301Y-17521532D01*
X9640301Y-17521532D02*
X9630777Y-17550103D01*
X9630777Y-17550103D02*
X9516491Y-17664389D01*
X9516491Y-17664389D02*
X9640301Y-17664389D01*
X9868872Y-17654865D02*
X9887920Y-17664389D01*
X9887920Y-17664389D02*
X9926015Y-17664389D01*
X9926015Y-17664389D02*
X9945063Y-17654865D01*
X9945063Y-17654865D02*
X9954587Y-17635817D01*
X9954587Y-17635817D02*
X9954587Y-17626294D01*
X9954587Y-17626294D02*
X9945063Y-17607246D01*
X9945063Y-17607246D02*
X9926015Y-17597722D01*
X9926015Y-17597722D02*
X9897444Y-17597722D01*
X9897444Y-17597722D02*
X9878396Y-17588198D01*
X9878396Y-17588198D02*
X9868872Y-17569151D01*
X9868872Y-17569151D02*
X9868872Y-17559627D01*
X9868872Y-17559627D02*
X9878396Y-17540579D01*
X9878396Y-17540579D02*
X9897444Y-17531055D01*
X9897444Y-17531055D02*
X9926015Y-17531055D01*
X9926015Y-17531055D02*
X9945063Y-17540579D01*
X10068872Y-17664389D02*
X10049825Y-17654865D01*
X10049825Y-17654865D02*
X10040301Y-17635817D01*
X10040301Y-17635817D02*
X10040301Y-17464389D01*
X10173634Y-17664389D02*
X10154587Y-17654865D01*
X10154587Y-17654865D02*
X10145063Y-17645341D01*
X10145063Y-17645341D02*
X10135539Y-17626294D01*
X10135539Y-17626294D02*
X10135539Y-17569151D01*
X10135539Y-17569151D02*
X10145063Y-17550103D01*
X10145063Y-17550103D02*
X10154587Y-17540579D01*
X10154587Y-17540579D02*
X10173634Y-17531055D01*
X10173634Y-17531055D02*
X10202206Y-17531055D01*
X10202206Y-17531055D02*
X10221253Y-17540579D01*
X10221253Y-17540579D02*
X10230777Y-17550103D01*
X10230777Y-17550103D02*
X10240301Y-17569151D01*
X10240301Y-17569151D02*
X10240301Y-17626294D01*
X10240301Y-17626294D02*
X10230777Y-17645341D01*
X10230777Y-17645341D02*
X10221253Y-17654865D01*
X10221253Y-17654865D02*
X10202206Y-17664389D01*
X10202206Y-17664389D02*
X10173634Y-17664389D01*
X10297444Y-17531055D02*
X10373634Y-17531055D01*
X10326015Y-17464389D02*
X10326015Y-17635817D01*
X10326015Y-17635817D02*
X10335539Y-17654865D01*
X10335539Y-17654865D02*
X10354587Y-17664389D01*
X10354587Y-17664389D02*
X10373634Y-17664389D01*
X10430777Y-17654865D02*
X10449825Y-17664389D01*
X10449825Y-17664389D02*
X10487920Y-17664389D01*
X10487920Y-17664389D02*
X10506968Y-17654865D01*
X10506968Y-17654865D02*
X10516492Y-17635817D01*
X10516492Y-17635817D02*
X10516492Y-17626294D01*
X10516492Y-17626294D02*
X10506968Y-17607246D01*
X10506968Y-17607246D02*
X10487920Y-17597722D01*
X10487920Y-17597722D02*
X10459349Y-17597722D01*
X10459349Y-17597722D02*
X10440301Y-17588198D01*
X10440301Y-17588198D02*
X10430777Y-17569151D01*
X10430777Y-17569151D02*
X10430777Y-17559627D01*
X10430777Y-17559627D02*
X10440301Y-17540579D01*
X10440301Y-17540579D02*
X10459349Y-17531055D01*
X10459349Y-17531055D02*
X10487920Y-17531055D01*
X10487920Y-17531055D02*
X10506968Y-17540579D01*
X10583158Y-17740579D02*
X10592682Y-17731055D01*
X10592682Y-17731055D02*
X10611730Y-17702484D01*
X10611730Y-17702484D02*
X10621253Y-17683436D01*
X10621253Y-17683436D02*
X10630777Y-17654865D01*
X10630777Y-17654865D02*
X10640301Y-17607246D01*
X10640301Y-17607246D02*
X10640301Y-17569151D01*
X10640301Y-17569151D02*
X10630777Y-17521532D01*
X10630777Y-17521532D02*
X10621253Y-17492960D01*
X10621253Y-17492960D02*
X10611730Y-17473913D01*
X10611730Y-17473913D02*
X10592682Y-17445341D01*
X10592682Y-17445341D02*
X10583158Y-17435817D01*
D14*
X3688095Y-17776905D02*
X3808095Y-17896905D01*
X3808095Y-17776905D02*
X3688095Y-17896905D01*
X3808095Y-17836905D02*
G75*
G03*
X3688095Y-17836905I-60000J0D01*
G01*
X3688095Y-17836905D02*
G75*
G03*
X3808095Y-17836905I60000J0D01*
G01*
D11*
X4173634Y-17928389D02*
X4059348Y-17928389D01*
X4116491Y-17928389D02*
X4116491Y-17728389D01*
X4116491Y-17728389D02*
X4097443Y-17756960D01*
X4097443Y-17756960D02*
X4078396Y-17776008D01*
X4078396Y-17776008D02*
X4059348Y-17785532D01*
X4259348Y-17909341D02*
X4268872Y-17918865D01*
X4268872Y-17918865D02*
X4259348Y-17928389D01*
X4259348Y-17928389D02*
X4249824Y-17918865D01*
X4249824Y-17918865D02*
X4259348Y-17909341D01*
X4259348Y-17909341D02*
X4259348Y-17928389D01*
X4345062Y-17747436D02*
X4354586Y-17737913D01*
X4354586Y-17737913D02*
X4373634Y-17728389D01*
X4373634Y-17728389D02*
X4421253Y-17728389D01*
X4421253Y-17728389D02*
X4440300Y-17737913D01*
X4440300Y-17737913D02*
X4449824Y-17747436D01*
X4449824Y-17747436D02*
X4459348Y-17766484D01*
X4459348Y-17766484D02*
X4459348Y-17785532D01*
X4459348Y-17785532D02*
X4449824Y-17814103D01*
X4449824Y-17814103D02*
X4335539Y-17928389D01*
X4335539Y-17928389D02*
X4459348Y-17928389D01*
X4583158Y-17728389D02*
X4602205Y-17728389D01*
X4602205Y-17728389D02*
X4621253Y-17737913D01*
X4621253Y-17737913D02*
X4630777Y-17747436D01*
X4630777Y-17747436D02*
X4640300Y-17766484D01*
X4640300Y-17766484D02*
X4649824Y-17804579D01*
X4649824Y-17804579D02*
X4649824Y-17852198D01*
X4649824Y-17852198D02*
X4640300Y-17890294D01*
X4640300Y-17890294D02*
X4630777Y-17909341D01*
X4630777Y-17909341D02*
X4621253Y-17918865D01*
X4621253Y-17918865D02*
X4602205Y-17928389D01*
X4602205Y-17928389D02*
X4583158Y-17928389D01*
X4583158Y-17928389D02*
X4564110Y-17918865D01*
X4564110Y-17918865D02*
X4554586Y-17909341D01*
X4554586Y-17909341D02*
X4545062Y-17890294D01*
X4545062Y-17890294D02*
X4535539Y-17852198D01*
X4535539Y-17852198D02*
X4535539Y-17804579D01*
X4535539Y-17804579D02*
X4545062Y-17766484D01*
X4545062Y-17766484D02*
X4554586Y-17747436D01*
X4554586Y-17747436D02*
X4564110Y-17737913D01*
X4564110Y-17737913D02*
X4583158Y-17728389D01*
X4773634Y-17728389D02*
X4792681Y-17728389D01*
X4792681Y-17728389D02*
X4811729Y-17737913D01*
X4811729Y-17737913D02*
X4821253Y-17747436D01*
X4821253Y-17747436D02*
X4830777Y-17766484D01*
X4830777Y-17766484D02*
X4840300Y-17804579D01*
X4840300Y-17804579D02*
X4840300Y-17852198D01*
X4840300Y-17852198D02*
X4830777Y-17890294D01*
X4830777Y-17890294D02*
X4821253Y-17909341D01*
X4821253Y-17909341D02*
X4811729Y-17918865D01*
X4811729Y-17918865D02*
X4792681Y-17928389D01*
X4792681Y-17928389D02*
X4773634Y-17928389D01*
X4773634Y-17928389D02*
X4754586Y-17918865D01*
X4754586Y-17918865D02*
X4745062Y-17909341D01*
X4745062Y-17909341D02*
X4735539Y-17890294D01*
X4735539Y-17890294D02*
X4726015Y-17852198D01*
X4726015Y-17852198D02*
X4726015Y-17804579D01*
X4726015Y-17804579D02*
X4735539Y-17766484D01*
X4735539Y-17766484D02*
X4745062Y-17747436D01*
X4745062Y-17747436D02*
X4754586Y-17737913D01*
X4754586Y-17737913D02*
X4773634Y-17728389D01*
X4926015Y-17928389D02*
X4926015Y-17795055D01*
X4926015Y-17814103D02*
X4935539Y-17804579D01*
X4935539Y-17804579D02*
X4954586Y-17795055D01*
X4954586Y-17795055D02*
X4983158Y-17795055D01*
X4983158Y-17795055D02*
X5002205Y-17804579D01*
X5002205Y-17804579D02*
X5011729Y-17823627D01*
X5011729Y-17823627D02*
X5011729Y-17928389D01*
X5011729Y-17823627D02*
X5021253Y-17804579D01*
X5021253Y-17804579D02*
X5040300Y-17795055D01*
X5040300Y-17795055D02*
X5068872Y-17795055D01*
X5068872Y-17795055D02*
X5087920Y-17804579D01*
X5087920Y-17804579D02*
X5097443Y-17823627D01*
X5097443Y-17823627D02*
X5097443Y-17928389D01*
X5192681Y-17928389D02*
X5192681Y-17795055D01*
X5192681Y-17814103D02*
X5202205Y-17804579D01*
X5202205Y-17804579D02*
X5221253Y-17795055D01*
X5221253Y-17795055D02*
X5249824Y-17795055D01*
X5249824Y-17795055D02*
X5268872Y-17804579D01*
X5268872Y-17804579D02*
X5278396Y-17823627D01*
X5278396Y-17823627D02*
X5278396Y-17928389D01*
X5278396Y-17823627D02*
X5287920Y-17804579D01*
X5287920Y-17804579D02*
X5306967Y-17795055D01*
X5306967Y-17795055D02*
X5335539Y-17795055D01*
X5335539Y-17795055D02*
X5354586Y-17804579D01*
X5354586Y-17804579D02*
X5364110Y-17823627D01*
X5364110Y-17823627D02*
X5364110Y-17928389D01*
X5754586Y-17718865D02*
X5583158Y-17976008D01*
X6011729Y-17728389D02*
X6030777Y-17728389D01*
X6030777Y-17728389D02*
X6049824Y-17737913D01*
X6049824Y-17737913D02*
X6059348Y-17747436D01*
X6059348Y-17747436D02*
X6068872Y-17766484D01*
X6068872Y-17766484D02*
X6078396Y-17804579D01*
X6078396Y-17804579D02*
X6078396Y-17852198D01*
X6078396Y-17852198D02*
X6068872Y-17890294D01*
X6068872Y-17890294D02*
X6059348Y-17909341D01*
X6059348Y-17909341D02*
X6049824Y-17918865D01*
X6049824Y-17918865D02*
X6030777Y-17928389D01*
X6030777Y-17928389D02*
X6011729Y-17928389D01*
X6011729Y-17928389D02*
X5992681Y-17918865D01*
X5992681Y-17918865D02*
X5983158Y-17909341D01*
X5983158Y-17909341D02*
X5973634Y-17890294D01*
X5973634Y-17890294D02*
X5964110Y-17852198D01*
X5964110Y-17852198D02*
X5964110Y-17804579D01*
X5964110Y-17804579D02*
X5973634Y-17766484D01*
X5973634Y-17766484D02*
X5983158Y-17747436D01*
X5983158Y-17747436D02*
X5992681Y-17737913D01*
X5992681Y-17737913D02*
X6011729Y-17728389D01*
X6164110Y-17909341D02*
X6173634Y-17918865D01*
X6173634Y-17918865D02*
X6164110Y-17928389D01*
X6164110Y-17928389D02*
X6154586Y-17918865D01*
X6154586Y-17918865D02*
X6164110Y-17909341D01*
X6164110Y-17909341D02*
X6164110Y-17928389D01*
X6297443Y-17728389D02*
X6316491Y-17728389D01*
X6316491Y-17728389D02*
X6335539Y-17737913D01*
X6335539Y-17737913D02*
X6345062Y-17747436D01*
X6345062Y-17747436D02*
X6354586Y-17766484D01*
X6354586Y-17766484D02*
X6364110Y-17804579D01*
X6364110Y-17804579D02*
X6364110Y-17852198D01*
X6364110Y-17852198D02*
X6354586Y-17890294D01*
X6354586Y-17890294D02*
X6345062Y-17909341D01*
X6345062Y-17909341D02*
X6335539Y-17918865D01*
X6335539Y-17918865D02*
X6316491Y-17928389D01*
X6316491Y-17928389D02*
X6297443Y-17928389D01*
X6297443Y-17928389D02*
X6278396Y-17918865D01*
X6278396Y-17918865D02*
X6268872Y-17909341D01*
X6268872Y-17909341D02*
X6259348Y-17890294D01*
X6259348Y-17890294D02*
X6249824Y-17852198D01*
X6249824Y-17852198D02*
X6249824Y-17804579D01*
X6249824Y-17804579D02*
X6259348Y-17766484D01*
X6259348Y-17766484D02*
X6268872Y-17747436D01*
X6268872Y-17747436D02*
X6278396Y-17737913D01*
X6278396Y-17737913D02*
X6297443Y-17728389D01*
X6535539Y-17795055D02*
X6535539Y-17928389D01*
X6487920Y-17718865D02*
X6440301Y-17861722D01*
X6440301Y-17861722D02*
X6564110Y-17861722D01*
X6621253Y-17728389D02*
X6754586Y-17728389D01*
X6754586Y-17728389D02*
X6668872Y-17928389D01*
X6821253Y-17747436D02*
X6830777Y-17737913D01*
X6830777Y-17737913D02*
X6849824Y-17728389D01*
X6849824Y-17728389D02*
X6897443Y-17728389D01*
X6897443Y-17728389D02*
X6916491Y-17737913D01*
X6916491Y-17737913D02*
X6926015Y-17747436D01*
X6926015Y-17747436D02*
X6935539Y-17766484D01*
X6935539Y-17766484D02*
X6935539Y-17785532D01*
X6935539Y-17785532D02*
X6926015Y-17814103D01*
X6926015Y-17814103D02*
X6811729Y-17928389D01*
X6811729Y-17928389D02*
X6935539Y-17928389D01*
X7011729Y-17728389D02*
X7011729Y-17766484D01*
X7087920Y-17728389D02*
X7087920Y-17766484D01*
X7383158Y-18004579D02*
X7373634Y-17995055D01*
X7373634Y-17995055D02*
X7354586Y-17966484D01*
X7354586Y-17966484D02*
X7345063Y-17947436D01*
X7345063Y-17947436D02*
X7335539Y-17918865D01*
X7335539Y-17918865D02*
X7326015Y-17871246D01*
X7326015Y-17871246D02*
X7326015Y-17833151D01*
X7326015Y-17833151D02*
X7335539Y-17785532D01*
X7335539Y-17785532D02*
X7345063Y-17756960D01*
X7345063Y-17756960D02*
X7354586Y-17737913D01*
X7354586Y-17737913D02*
X7373634Y-17709341D01*
X7373634Y-17709341D02*
X7383158Y-17699817D01*
X7487920Y-17814103D02*
X7468872Y-17804579D01*
X7468872Y-17804579D02*
X7459348Y-17795055D01*
X7459348Y-17795055D02*
X7449824Y-17776008D01*
X7449824Y-17776008D02*
X7449824Y-17766484D01*
X7449824Y-17766484D02*
X7459348Y-17747436D01*
X7459348Y-17747436D02*
X7468872Y-17737913D01*
X7468872Y-17737913D02*
X7487920Y-17728389D01*
X7487920Y-17728389D02*
X7526015Y-17728389D01*
X7526015Y-17728389D02*
X7545063Y-17737913D01*
X7545063Y-17737913D02*
X7554586Y-17747436D01*
X7554586Y-17747436D02*
X7564110Y-17766484D01*
X7564110Y-17766484D02*
X7564110Y-17776008D01*
X7564110Y-17776008D02*
X7554586Y-17795055D01*
X7554586Y-17795055D02*
X7545063Y-17804579D01*
X7545063Y-17804579D02*
X7526015Y-17814103D01*
X7526015Y-17814103D02*
X7487920Y-17814103D01*
X7487920Y-17814103D02*
X7468872Y-17823627D01*
X7468872Y-17823627D02*
X7459348Y-17833151D01*
X7459348Y-17833151D02*
X7449824Y-17852198D01*
X7449824Y-17852198D02*
X7449824Y-17890294D01*
X7449824Y-17890294D02*
X7459348Y-17909341D01*
X7459348Y-17909341D02*
X7468872Y-17918865D01*
X7468872Y-17918865D02*
X7487920Y-17928389D01*
X7487920Y-17928389D02*
X7526015Y-17928389D01*
X7526015Y-17928389D02*
X7545063Y-17918865D01*
X7545063Y-17918865D02*
X7554586Y-17909341D01*
X7554586Y-17909341D02*
X7564110Y-17890294D01*
X7564110Y-17890294D02*
X7564110Y-17852198D01*
X7564110Y-17852198D02*
X7554586Y-17833151D01*
X7554586Y-17833151D02*
X7545063Y-17823627D01*
X7545063Y-17823627D02*
X7526015Y-17814103D01*
X7687920Y-17728389D02*
X7706967Y-17728389D01*
X7706967Y-17728389D02*
X7726015Y-17737913D01*
X7726015Y-17737913D02*
X7735539Y-17747436D01*
X7735539Y-17747436D02*
X7745063Y-17766484D01*
X7745063Y-17766484D02*
X7754586Y-17804579D01*
X7754586Y-17804579D02*
X7754586Y-17852198D01*
X7754586Y-17852198D02*
X7745063Y-17890294D01*
X7745063Y-17890294D02*
X7735539Y-17909341D01*
X7735539Y-17909341D02*
X7726015Y-17918865D01*
X7726015Y-17918865D02*
X7706967Y-17928389D01*
X7706967Y-17928389D02*
X7687920Y-17928389D01*
X7687920Y-17928389D02*
X7668872Y-17918865D01*
X7668872Y-17918865D02*
X7659348Y-17909341D01*
X7659348Y-17909341D02*
X7649824Y-17890294D01*
X7649824Y-17890294D02*
X7640301Y-17852198D01*
X7640301Y-17852198D02*
X7640301Y-17804579D01*
X7640301Y-17804579D02*
X7649824Y-17766484D01*
X7649824Y-17766484D02*
X7659348Y-17747436D01*
X7659348Y-17747436D02*
X7668872Y-17737913D01*
X7668872Y-17737913D02*
X7687920Y-17728389D01*
X7992682Y-17928389D02*
X7992682Y-17728389D01*
X8078396Y-17928389D02*
X8078396Y-17823627D01*
X8078396Y-17823627D02*
X8068872Y-17804579D01*
X8068872Y-17804579D02*
X8049825Y-17795055D01*
X8049825Y-17795055D02*
X8021253Y-17795055D01*
X8021253Y-17795055D02*
X8002205Y-17804579D01*
X8002205Y-17804579D02*
X7992682Y-17814103D01*
X8202205Y-17928389D02*
X8183158Y-17918865D01*
X8183158Y-17918865D02*
X8173634Y-17909341D01*
X8173634Y-17909341D02*
X8164110Y-17890294D01*
X8164110Y-17890294D02*
X8164110Y-17833151D01*
X8164110Y-17833151D02*
X8173634Y-17814103D01*
X8173634Y-17814103D02*
X8183158Y-17804579D01*
X8183158Y-17804579D02*
X8202205Y-17795055D01*
X8202205Y-17795055D02*
X8230777Y-17795055D01*
X8230777Y-17795055D02*
X8249825Y-17804579D01*
X8249825Y-17804579D02*
X8259348Y-17814103D01*
X8259348Y-17814103D02*
X8268872Y-17833151D01*
X8268872Y-17833151D02*
X8268872Y-17890294D01*
X8268872Y-17890294D02*
X8259348Y-17909341D01*
X8259348Y-17909341D02*
X8249825Y-17918865D01*
X8249825Y-17918865D02*
X8230777Y-17928389D01*
X8230777Y-17928389D02*
X8202205Y-17928389D01*
X8383158Y-17928389D02*
X8364110Y-17918865D01*
X8364110Y-17918865D02*
X8354586Y-17899817D01*
X8354586Y-17899817D02*
X8354586Y-17728389D01*
X8535539Y-17918865D02*
X8516491Y-17928389D01*
X8516491Y-17928389D02*
X8478396Y-17928389D01*
X8478396Y-17928389D02*
X8459348Y-17918865D01*
X8459348Y-17918865D02*
X8449825Y-17899817D01*
X8449825Y-17899817D02*
X8449825Y-17823627D01*
X8449825Y-17823627D02*
X8459348Y-17804579D01*
X8459348Y-17804579D02*
X8478396Y-17795055D01*
X8478396Y-17795055D02*
X8516491Y-17795055D01*
X8516491Y-17795055D02*
X8535539Y-17804579D01*
X8535539Y-17804579D02*
X8545063Y-17823627D01*
X8545063Y-17823627D02*
X8545063Y-17842675D01*
X8545063Y-17842675D02*
X8449825Y-17861722D01*
X8621253Y-17918865D02*
X8640301Y-17928389D01*
X8640301Y-17928389D02*
X8678396Y-17928389D01*
X8678396Y-17928389D02*
X8697444Y-17918865D01*
X8697444Y-17918865D02*
X8706968Y-17899817D01*
X8706968Y-17899817D02*
X8706968Y-17890294D01*
X8706968Y-17890294D02*
X8697444Y-17871246D01*
X8697444Y-17871246D02*
X8678396Y-17861722D01*
X8678396Y-17861722D02*
X8649825Y-17861722D01*
X8649825Y-17861722D02*
X8630777Y-17852198D01*
X8630777Y-17852198D02*
X8621253Y-17833151D01*
X8621253Y-17833151D02*
X8621253Y-17823627D01*
X8621253Y-17823627D02*
X8630777Y-17804579D01*
X8630777Y-17804579D02*
X8649825Y-17795055D01*
X8649825Y-17795055D02*
X8678396Y-17795055D01*
X8678396Y-17795055D02*
X8697444Y-17804579D01*
X8773634Y-18004579D02*
X8783158Y-17995055D01*
X8783158Y-17995055D02*
X8802206Y-17966484D01*
X8802206Y-17966484D02*
X8811729Y-17947436D01*
X8811729Y-17947436D02*
X8821253Y-17918865D01*
X8821253Y-17918865D02*
X8830777Y-17871246D01*
X8830777Y-17871246D02*
X8830777Y-17833151D01*
X8830777Y-17833151D02*
X8821253Y-17785532D01*
X8821253Y-17785532D02*
X8811729Y-17756960D01*
X8811729Y-17756960D02*
X8802206Y-17737913D01*
X8802206Y-17737913D02*
X8783158Y-17709341D01*
X8783158Y-17709341D02*
X8773634Y-17699817D01*
D15*
X3668095Y-18030905D02*
X3808095Y-18170905D01*
X3808095Y-18030905D02*
X3668095Y-18170905D01*
X3738095Y-18030905D02*
X3738095Y-18170905D01*
X3668095Y-18100905D02*
X3808095Y-18100905D01*
D11*
X4173634Y-18192389D02*
X4059348Y-18192389D01*
X4116491Y-18192389D02*
X4116491Y-17992389D01*
X4116491Y-17992389D02*
X4097443Y-18020960D01*
X4097443Y-18020960D02*
X4078396Y-18040008D01*
X4078396Y-18040008D02*
X4059348Y-18049532D01*
X4259348Y-18173341D02*
X4268872Y-18182865D01*
X4268872Y-18182865D02*
X4259348Y-18192389D01*
X4259348Y-18192389D02*
X4249824Y-18182865D01*
X4249824Y-18182865D02*
X4259348Y-18173341D01*
X4259348Y-18173341D02*
X4259348Y-18192389D01*
X4440300Y-18059055D02*
X4440300Y-18192389D01*
X4392681Y-17982865D02*
X4345062Y-18125722D01*
X4345062Y-18125722D02*
X4468872Y-18125722D01*
X4583158Y-17992389D02*
X4602205Y-17992389D01*
X4602205Y-17992389D02*
X4621253Y-18001913D01*
X4621253Y-18001913D02*
X4630777Y-18011436D01*
X4630777Y-18011436D02*
X4640300Y-18030484D01*
X4640300Y-18030484D02*
X4649824Y-18068579D01*
X4649824Y-18068579D02*
X4649824Y-18116198D01*
X4649824Y-18116198D02*
X4640300Y-18154294D01*
X4640300Y-18154294D02*
X4630777Y-18173341D01*
X4630777Y-18173341D02*
X4621253Y-18182865D01*
X4621253Y-18182865D02*
X4602205Y-18192389D01*
X4602205Y-18192389D02*
X4583158Y-18192389D01*
X4583158Y-18192389D02*
X4564110Y-18182865D01*
X4564110Y-18182865D02*
X4554586Y-18173341D01*
X4554586Y-18173341D02*
X4545062Y-18154294D01*
X4545062Y-18154294D02*
X4535539Y-18116198D01*
X4535539Y-18116198D02*
X4535539Y-18068579D01*
X4535539Y-18068579D02*
X4545062Y-18030484D01*
X4545062Y-18030484D02*
X4554586Y-18011436D01*
X4554586Y-18011436D02*
X4564110Y-18001913D01*
X4564110Y-18001913D02*
X4583158Y-17992389D01*
X4773634Y-17992389D02*
X4792681Y-17992389D01*
X4792681Y-17992389D02*
X4811729Y-18001913D01*
X4811729Y-18001913D02*
X4821253Y-18011436D01*
X4821253Y-18011436D02*
X4830777Y-18030484D01*
X4830777Y-18030484D02*
X4840300Y-18068579D01*
X4840300Y-18068579D02*
X4840300Y-18116198D01*
X4840300Y-18116198D02*
X4830777Y-18154294D01*
X4830777Y-18154294D02*
X4821253Y-18173341D01*
X4821253Y-18173341D02*
X4811729Y-18182865D01*
X4811729Y-18182865D02*
X4792681Y-18192389D01*
X4792681Y-18192389D02*
X4773634Y-18192389D01*
X4773634Y-18192389D02*
X4754586Y-18182865D01*
X4754586Y-18182865D02*
X4745062Y-18173341D01*
X4745062Y-18173341D02*
X4735539Y-18154294D01*
X4735539Y-18154294D02*
X4726015Y-18116198D01*
X4726015Y-18116198D02*
X4726015Y-18068579D01*
X4726015Y-18068579D02*
X4735539Y-18030484D01*
X4735539Y-18030484D02*
X4745062Y-18011436D01*
X4745062Y-18011436D02*
X4754586Y-18001913D01*
X4754586Y-18001913D02*
X4773634Y-17992389D01*
X4926015Y-18192389D02*
X4926015Y-18059055D01*
X4926015Y-18078103D02*
X4935539Y-18068579D01*
X4935539Y-18068579D02*
X4954586Y-18059055D01*
X4954586Y-18059055D02*
X4983158Y-18059055D01*
X4983158Y-18059055D02*
X5002205Y-18068579D01*
X5002205Y-18068579D02*
X5011729Y-18087627D01*
X5011729Y-18087627D02*
X5011729Y-18192389D01*
X5011729Y-18087627D02*
X5021253Y-18068579D01*
X5021253Y-18068579D02*
X5040300Y-18059055D01*
X5040300Y-18059055D02*
X5068872Y-18059055D01*
X5068872Y-18059055D02*
X5087920Y-18068579D01*
X5087920Y-18068579D02*
X5097443Y-18087627D01*
X5097443Y-18087627D02*
X5097443Y-18192389D01*
X5192681Y-18192389D02*
X5192681Y-18059055D01*
X5192681Y-18078103D02*
X5202205Y-18068579D01*
X5202205Y-18068579D02*
X5221253Y-18059055D01*
X5221253Y-18059055D02*
X5249824Y-18059055D01*
X5249824Y-18059055D02*
X5268872Y-18068579D01*
X5268872Y-18068579D02*
X5278396Y-18087627D01*
X5278396Y-18087627D02*
X5278396Y-18192389D01*
X5278396Y-18087627D02*
X5287920Y-18068579D01*
X5287920Y-18068579D02*
X5306967Y-18059055D01*
X5306967Y-18059055D02*
X5335539Y-18059055D01*
X5335539Y-18059055D02*
X5354586Y-18068579D01*
X5354586Y-18068579D02*
X5364110Y-18087627D01*
X5364110Y-18087627D02*
X5364110Y-18192389D01*
X5754586Y-17982865D02*
X5583158Y-18240008D01*
X6011729Y-17992389D02*
X6030777Y-17992389D01*
X6030777Y-17992389D02*
X6049824Y-18001913D01*
X6049824Y-18001913D02*
X6059348Y-18011436D01*
X6059348Y-18011436D02*
X6068872Y-18030484D01*
X6068872Y-18030484D02*
X6078396Y-18068579D01*
X6078396Y-18068579D02*
X6078396Y-18116198D01*
X6078396Y-18116198D02*
X6068872Y-18154294D01*
X6068872Y-18154294D02*
X6059348Y-18173341D01*
X6059348Y-18173341D02*
X6049824Y-18182865D01*
X6049824Y-18182865D02*
X6030777Y-18192389D01*
X6030777Y-18192389D02*
X6011729Y-18192389D01*
X6011729Y-18192389D02*
X5992681Y-18182865D01*
X5992681Y-18182865D02*
X5983158Y-18173341D01*
X5983158Y-18173341D02*
X5973634Y-18154294D01*
X5973634Y-18154294D02*
X5964110Y-18116198D01*
X5964110Y-18116198D02*
X5964110Y-18068579D01*
X5964110Y-18068579D02*
X5973634Y-18030484D01*
X5973634Y-18030484D02*
X5983158Y-18011436D01*
X5983158Y-18011436D02*
X5992681Y-18001913D01*
X5992681Y-18001913D02*
X6011729Y-17992389D01*
X6164110Y-18173341D02*
X6173634Y-18182865D01*
X6173634Y-18182865D02*
X6164110Y-18192389D01*
X6164110Y-18192389D02*
X6154586Y-18182865D01*
X6154586Y-18182865D02*
X6164110Y-18173341D01*
X6164110Y-18173341D02*
X6164110Y-18192389D01*
X6297443Y-17992389D02*
X6316491Y-17992389D01*
X6316491Y-17992389D02*
X6335539Y-18001913D01*
X6335539Y-18001913D02*
X6345062Y-18011436D01*
X6345062Y-18011436D02*
X6354586Y-18030484D01*
X6354586Y-18030484D02*
X6364110Y-18068579D01*
X6364110Y-18068579D02*
X6364110Y-18116198D01*
X6364110Y-18116198D02*
X6354586Y-18154294D01*
X6354586Y-18154294D02*
X6345062Y-18173341D01*
X6345062Y-18173341D02*
X6335539Y-18182865D01*
X6335539Y-18182865D02*
X6316491Y-18192389D01*
X6316491Y-18192389D02*
X6297443Y-18192389D01*
X6297443Y-18192389D02*
X6278396Y-18182865D01*
X6278396Y-18182865D02*
X6268872Y-18173341D01*
X6268872Y-18173341D02*
X6259348Y-18154294D01*
X6259348Y-18154294D02*
X6249824Y-18116198D01*
X6249824Y-18116198D02*
X6249824Y-18068579D01*
X6249824Y-18068579D02*
X6259348Y-18030484D01*
X6259348Y-18030484D02*
X6268872Y-18011436D01*
X6268872Y-18011436D02*
X6278396Y-18001913D01*
X6278396Y-18001913D02*
X6297443Y-17992389D01*
X6545062Y-17992389D02*
X6449824Y-17992389D01*
X6449824Y-17992389D02*
X6440301Y-18087627D01*
X6440301Y-18087627D02*
X6449824Y-18078103D01*
X6449824Y-18078103D02*
X6468872Y-18068579D01*
X6468872Y-18068579D02*
X6516491Y-18068579D01*
X6516491Y-18068579D02*
X6535539Y-18078103D01*
X6535539Y-18078103D02*
X6545062Y-18087627D01*
X6545062Y-18087627D02*
X6554586Y-18106675D01*
X6554586Y-18106675D02*
X6554586Y-18154294D01*
X6554586Y-18154294D02*
X6545062Y-18173341D01*
X6545062Y-18173341D02*
X6535539Y-18182865D01*
X6535539Y-18182865D02*
X6516491Y-18192389D01*
X6516491Y-18192389D02*
X6468872Y-18192389D01*
X6468872Y-18192389D02*
X6449824Y-18182865D01*
X6449824Y-18182865D02*
X6440301Y-18173341D01*
X6735539Y-17992389D02*
X6640301Y-17992389D01*
X6640301Y-17992389D02*
X6630777Y-18087627D01*
X6630777Y-18087627D02*
X6640301Y-18078103D01*
X6640301Y-18078103D02*
X6659348Y-18068579D01*
X6659348Y-18068579D02*
X6706967Y-18068579D01*
X6706967Y-18068579D02*
X6726015Y-18078103D01*
X6726015Y-18078103D02*
X6735539Y-18087627D01*
X6735539Y-18087627D02*
X6745062Y-18106675D01*
X6745062Y-18106675D02*
X6745062Y-18154294D01*
X6745062Y-18154294D02*
X6735539Y-18173341D01*
X6735539Y-18173341D02*
X6726015Y-18182865D01*
X6726015Y-18182865D02*
X6706967Y-18192389D01*
X6706967Y-18192389D02*
X6659348Y-18192389D01*
X6659348Y-18192389D02*
X6640301Y-18182865D01*
X6640301Y-18182865D02*
X6630777Y-18173341D01*
X6935539Y-18192389D02*
X6821253Y-18192389D01*
X6878396Y-18192389D02*
X6878396Y-17992389D01*
X6878396Y-17992389D02*
X6859348Y-18020960D01*
X6859348Y-18020960D02*
X6840301Y-18040008D01*
X6840301Y-18040008D02*
X6821253Y-18049532D01*
X7011729Y-17992389D02*
X7011729Y-18030484D01*
X7087920Y-17992389D02*
X7087920Y-18030484D01*
X7383158Y-18268579D02*
X7373634Y-18259055D01*
X7373634Y-18259055D02*
X7354586Y-18230484D01*
X7354586Y-18230484D02*
X7345063Y-18211436D01*
X7345063Y-18211436D02*
X7335539Y-18182865D01*
X7335539Y-18182865D02*
X7326015Y-18135246D01*
X7326015Y-18135246D02*
X7326015Y-18097151D01*
X7326015Y-18097151D02*
X7335539Y-18049532D01*
X7335539Y-18049532D02*
X7345063Y-18020960D01*
X7345063Y-18020960D02*
X7354586Y-18001913D01*
X7354586Y-18001913D02*
X7373634Y-17973341D01*
X7373634Y-17973341D02*
X7383158Y-17963817D01*
X7564110Y-18192389D02*
X7449824Y-18192389D01*
X7506967Y-18192389D02*
X7506967Y-17992389D01*
X7506967Y-17992389D02*
X7487920Y-18020960D01*
X7487920Y-18020960D02*
X7468872Y-18040008D01*
X7468872Y-18040008D02*
X7449824Y-18049532D01*
X7640301Y-18011436D02*
X7649824Y-18001913D01*
X7649824Y-18001913D02*
X7668872Y-17992389D01*
X7668872Y-17992389D02*
X7716491Y-17992389D01*
X7716491Y-17992389D02*
X7735539Y-18001913D01*
X7735539Y-18001913D02*
X7745063Y-18011436D01*
X7745063Y-18011436D02*
X7754586Y-18030484D01*
X7754586Y-18030484D02*
X7754586Y-18049532D01*
X7754586Y-18049532D02*
X7745063Y-18078103D01*
X7745063Y-18078103D02*
X7630777Y-18192389D01*
X7630777Y-18192389D02*
X7754586Y-18192389D01*
X7992682Y-18192389D02*
X7992682Y-17992389D01*
X8078396Y-18192389D02*
X8078396Y-18087627D01*
X8078396Y-18087627D02*
X8068872Y-18068579D01*
X8068872Y-18068579D02*
X8049825Y-18059055D01*
X8049825Y-18059055D02*
X8021253Y-18059055D01*
X8021253Y-18059055D02*
X8002205Y-18068579D01*
X8002205Y-18068579D02*
X7992682Y-18078103D01*
X8202205Y-18192389D02*
X8183158Y-18182865D01*
X8183158Y-18182865D02*
X8173634Y-18173341D01*
X8173634Y-18173341D02*
X8164110Y-18154294D01*
X8164110Y-18154294D02*
X8164110Y-18097151D01*
X8164110Y-18097151D02*
X8173634Y-18078103D01*
X8173634Y-18078103D02*
X8183158Y-18068579D01*
X8183158Y-18068579D02*
X8202205Y-18059055D01*
X8202205Y-18059055D02*
X8230777Y-18059055D01*
X8230777Y-18059055D02*
X8249825Y-18068579D01*
X8249825Y-18068579D02*
X8259348Y-18078103D01*
X8259348Y-18078103D02*
X8268872Y-18097151D01*
X8268872Y-18097151D02*
X8268872Y-18154294D01*
X8268872Y-18154294D02*
X8259348Y-18173341D01*
X8259348Y-18173341D02*
X8249825Y-18182865D01*
X8249825Y-18182865D02*
X8230777Y-18192389D01*
X8230777Y-18192389D02*
X8202205Y-18192389D01*
X8383158Y-18192389D02*
X8364110Y-18182865D01*
X8364110Y-18182865D02*
X8354586Y-18163817D01*
X8354586Y-18163817D02*
X8354586Y-17992389D01*
X8535539Y-18182865D02*
X8516491Y-18192389D01*
X8516491Y-18192389D02*
X8478396Y-18192389D01*
X8478396Y-18192389D02*
X8459348Y-18182865D01*
X8459348Y-18182865D02*
X8449825Y-18163817D01*
X8449825Y-18163817D02*
X8449825Y-18087627D01*
X8449825Y-18087627D02*
X8459348Y-18068579D01*
X8459348Y-18068579D02*
X8478396Y-18059055D01*
X8478396Y-18059055D02*
X8516491Y-18059055D01*
X8516491Y-18059055D02*
X8535539Y-18068579D01*
X8535539Y-18068579D02*
X8545063Y-18087627D01*
X8545063Y-18087627D02*
X8545063Y-18106675D01*
X8545063Y-18106675D02*
X8449825Y-18125722D01*
X8621253Y-18182865D02*
X8640301Y-18192389D01*
X8640301Y-18192389D02*
X8678396Y-18192389D01*
X8678396Y-18192389D02*
X8697444Y-18182865D01*
X8697444Y-18182865D02*
X8706968Y-18163817D01*
X8706968Y-18163817D02*
X8706968Y-18154294D01*
X8706968Y-18154294D02*
X8697444Y-18135246D01*
X8697444Y-18135246D02*
X8678396Y-18125722D01*
X8678396Y-18125722D02*
X8649825Y-18125722D01*
X8649825Y-18125722D02*
X8630777Y-18116198D01*
X8630777Y-18116198D02*
X8621253Y-18097151D01*
X8621253Y-18097151D02*
X8621253Y-18087627D01*
X8621253Y-18087627D02*
X8630777Y-18068579D01*
X8630777Y-18068579D02*
X8649825Y-18059055D01*
X8649825Y-18059055D02*
X8678396Y-18059055D01*
X8678396Y-18059055D02*
X8697444Y-18068579D01*
X8773634Y-18268579D02*
X8783158Y-18259055D01*
X8783158Y-18259055D02*
X8802206Y-18230484D01*
X8802206Y-18230484D02*
X8811729Y-18211436D01*
X8811729Y-18211436D02*
X8821253Y-18182865D01*
X8821253Y-18182865D02*
X8830777Y-18135246D01*
X8830777Y-18135246D02*
X8830777Y-18097151D01*
X8830777Y-18097151D02*
X8821253Y-18049532D01*
X8821253Y-18049532D02*
X8811729Y-18020960D01*
X8811729Y-18020960D02*
X8802206Y-18001913D01*
X8802206Y-18001913D02*
X8783158Y-17973341D01*
X8783158Y-17973341D02*
X8773634Y-17963817D01*
D16*
X3658095Y-18289905D02*
X3808095Y-18439905D01*
X3808095Y-18289905D02*
X3658095Y-18439905D01*
X3786128Y-18417939D02*
X3786128Y-18311872D01*
X3680061Y-18311872D01*
X3680061Y-18417939D01*
X3786128Y-18417939D01*
D11*
X4173634Y-18456389D02*
X4059348Y-18456389D01*
X4116491Y-18456389D02*
X4116491Y-18256389D01*
X4116491Y-18256389D02*
X4097443Y-18284960D01*
X4097443Y-18284960D02*
X4078396Y-18304008D01*
X4078396Y-18304008D02*
X4059348Y-18313532D01*
X4259348Y-18437341D02*
X4268872Y-18446865D01*
X4268872Y-18446865D02*
X4259348Y-18456389D01*
X4259348Y-18456389D02*
X4249824Y-18446865D01*
X4249824Y-18446865D02*
X4259348Y-18437341D01*
X4259348Y-18437341D02*
X4259348Y-18456389D01*
X4449824Y-18256389D02*
X4354586Y-18256389D01*
X4354586Y-18256389D02*
X4345062Y-18351627D01*
X4345062Y-18351627D02*
X4354586Y-18342103D01*
X4354586Y-18342103D02*
X4373634Y-18332579D01*
X4373634Y-18332579D02*
X4421253Y-18332579D01*
X4421253Y-18332579D02*
X4440300Y-18342103D01*
X4440300Y-18342103D02*
X4449824Y-18351627D01*
X4449824Y-18351627D02*
X4459348Y-18370675D01*
X4459348Y-18370675D02*
X4459348Y-18418294D01*
X4459348Y-18418294D02*
X4449824Y-18437341D01*
X4449824Y-18437341D02*
X4440300Y-18446865D01*
X4440300Y-18446865D02*
X4421253Y-18456389D01*
X4421253Y-18456389D02*
X4373634Y-18456389D01*
X4373634Y-18456389D02*
X4354586Y-18446865D01*
X4354586Y-18446865D02*
X4345062Y-18437341D01*
X4583158Y-18256389D02*
X4602205Y-18256389D01*
X4602205Y-18256389D02*
X4621253Y-18265913D01*
X4621253Y-18265913D02*
X4630777Y-18275436D01*
X4630777Y-18275436D02*
X4640300Y-18294484D01*
X4640300Y-18294484D02*
X4649824Y-18332579D01*
X4649824Y-18332579D02*
X4649824Y-18380198D01*
X4649824Y-18380198D02*
X4640300Y-18418294D01*
X4640300Y-18418294D02*
X4630777Y-18437341D01*
X4630777Y-18437341D02*
X4621253Y-18446865D01*
X4621253Y-18446865D02*
X4602205Y-18456389D01*
X4602205Y-18456389D02*
X4583158Y-18456389D01*
X4583158Y-18456389D02*
X4564110Y-18446865D01*
X4564110Y-18446865D02*
X4554586Y-18437341D01*
X4554586Y-18437341D02*
X4545062Y-18418294D01*
X4545062Y-18418294D02*
X4535539Y-18380198D01*
X4535539Y-18380198D02*
X4535539Y-18332579D01*
X4535539Y-18332579D02*
X4545062Y-18294484D01*
X4545062Y-18294484D02*
X4554586Y-18275436D01*
X4554586Y-18275436D02*
X4564110Y-18265913D01*
X4564110Y-18265913D02*
X4583158Y-18256389D01*
X4773634Y-18256389D02*
X4792681Y-18256389D01*
X4792681Y-18256389D02*
X4811729Y-18265913D01*
X4811729Y-18265913D02*
X4821253Y-18275436D01*
X4821253Y-18275436D02*
X4830777Y-18294484D01*
X4830777Y-18294484D02*
X4840300Y-18332579D01*
X4840300Y-18332579D02*
X4840300Y-18380198D01*
X4840300Y-18380198D02*
X4830777Y-18418294D01*
X4830777Y-18418294D02*
X4821253Y-18437341D01*
X4821253Y-18437341D02*
X4811729Y-18446865D01*
X4811729Y-18446865D02*
X4792681Y-18456389D01*
X4792681Y-18456389D02*
X4773634Y-18456389D01*
X4773634Y-18456389D02*
X4754586Y-18446865D01*
X4754586Y-18446865D02*
X4745062Y-18437341D01*
X4745062Y-18437341D02*
X4735539Y-18418294D01*
X4735539Y-18418294D02*
X4726015Y-18380198D01*
X4726015Y-18380198D02*
X4726015Y-18332579D01*
X4726015Y-18332579D02*
X4735539Y-18294484D01*
X4735539Y-18294484D02*
X4745062Y-18275436D01*
X4745062Y-18275436D02*
X4754586Y-18265913D01*
X4754586Y-18265913D02*
X4773634Y-18256389D01*
X4926015Y-18456389D02*
X4926015Y-18323055D01*
X4926015Y-18342103D02*
X4935539Y-18332579D01*
X4935539Y-18332579D02*
X4954586Y-18323055D01*
X4954586Y-18323055D02*
X4983158Y-18323055D01*
X4983158Y-18323055D02*
X5002205Y-18332579D01*
X5002205Y-18332579D02*
X5011729Y-18351627D01*
X5011729Y-18351627D02*
X5011729Y-18456389D01*
X5011729Y-18351627D02*
X5021253Y-18332579D01*
X5021253Y-18332579D02*
X5040300Y-18323055D01*
X5040300Y-18323055D02*
X5068872Y-18323055D01*
X5068872Y-18323055D02*
X5087920Y-18332579D01*
X5087920Y-18332579D02*
X5097443Y-18351627D01*
X5097443Y-18351627D02*
X5097443Y-18456389D01*
X5192681Y-18456389D02*
X5192681Y-18323055D01*
X5192681Y-18342103D02*
X5202205Y-18332579D01*
X5202205Y-18332579D02*
X5221253Y-18323055D01*
X5221253Y-18323055D02*
X5249824Y-18323055D01*
X5249824Y-18323055D02*
X5268872Y-18332579D01*
X5268872Y-18332579D02*
X5278396Y-18351627D01*
X5278396Y-18351627D02*
X5278396Y-18456389D01*
X5278396Y-18351627D02*
X5287920Y-18332579D01*
X5287920Y-18332579D02*
X5306967Y-18323055D01*
X5306967Y-18323055D02*
X5335539Y-18323055D01*
X5335539Y-18323055D02*
X5354586Y-18332579D01*
X5354586Y-18332579D02*
X5364110Y-18351627D01*
X5364110Y-18351627D02*
X5364110Y-18456389D01*
X5754586Y-18246865D02*
X5583158Y-18504008D01*
X6011729Y-18256389D02*
X6030777Y-18256389D01*
X6030777Y-18256389D02*
X6049824Y-18265913D01*
X6049824Y-18265913D02*
X6059348Y-18275436D01*
X6059348Y-18275436D02*
X6068872Y-18294484D01*
X6068872Y-18294484D02*
X6078396Y-18332579D01*
X6078396Y-18332579D02*
X6078396Y-18380198D01*
X6078396Y-18380198D02*
X6068872Y-18418294D01*
X6068872Y-18418294D02*
X6059348Y-18437341D01*
X6059348Y-18437341D02*
X6049824Y-18446865D01*
X6049824Y-18446865D02*
X6030777Y-18456389D01*
X6030777Y-18456389D02*
X6011729Y-18456389D01*
X6011729Y-18456389D02*
X5992681Y-18446865D01*
X5992681Y-18446865D02*
X5983158Y-18437341D01*
X5983158Y-18437341D02*
X5973634Y-18418294D01*
X5973634Y-18418294D02*
X5964110Y-18380198D01*
X5964110Y-18380198D02*
X5964110Y-18332579D01*
X5964110Y-18332579D02*
X5973634Y-18294484D01*
X5973634Y-18294484D02*
X5983158Y-18275436D01*
X5983158Y-18275436D02*
X5992681Y-18265913D01*
X5992681Y-18265913D02*
X6011729Y-18256389D01*
X6164110Y-18437341D02*
X6173634Y-18446865D01*
X6173634Y-18446865D02*
X6164110Y-18456389D01*
X6164110Y-18456389D02*
X6154586Y-18446865D01*
X6154586Y-18446865D02*
X6164110Y-18437341D01*
X6164110Y-18437341D02*
X6164110Y-18456389D01*
X6297443Y-18256389D02*
X6316491Y-18256389D01*
X6316491Y-18256389D02*
X6335539Y-18265913D01*
X6335539Y-18265913D02*
X6345062Y-18275436D01*
X6345062Y-18275436D02*
X6354586Y-18294484D01*
X6354586Y-18294484D02*
X6364110Y-18332579D01*
X6364110Y-18332579D02*
X6364110Y-18380198D01*
X6364110Y-18380198D02*
X6354586Y-18418294D01*
X6354586Y-18418294D02*
X6345062Y-18437341D01*
X6345062Y-18437341D02*
X6335539Y-18446865D01*
X6335539Y-18446865D02*
X6316491Y-18456389D01*
X6316491Y-18456389D02*
X6297443Y-18456389D01*
X6297443Y-18456389D02*
X6278396Y-18446865D01*
X6278396Y-18446865D02*
X6268872Y-18437341D01*
X6268872Y-18437341D02*
X6259348Y-18418294D01*
X6259348Y-18418294D02*
X6249824Y-18380198D01*
X6249824Y-18380198D02*
X6249824Y-18332579D01*
X6249824Y-18332579D02*
X6259348Y-18294484D01*
X6259348Y-18294484D02*
X6268872Y-18275436D01*
X6268872Y-18275436D02*
X6278396Y-18265913D01*
X6278396Y-18265913D02*
X6297443Y-18256389D01*
X6545062Y-18256389D02*
X6449824Y-18256389D01*
X6449824Y-18256389D02*
X6440301Y-18351627D01*
X6440301Y-18351627D02*
X6449824Y-18342103D01*
X6449824Y-18342103D02*
X6468872Y-18332579D01*
X6468872Y-18332579D02*
X6516491Y-18332579D01*
X6516491Y-18332579D02*
X6535539Y-18342103D01*
X6535539Y-18342103D02*
X6545062Y-18351627D01*
X6545062Y-18351627D02*
X6554586Y-18370675D01*
X6554586Y-18370675D02*
X6554586Y-18418294D01*
X6554586Y-18418294D02*
X6545062Y-18437341D01*
X6545062Y-18437341D02*
X6535539Y-18446865D01*
X6535539Y-18446865D02*
X6516491Y-18456389D01*
X6516491Y-18456389D02*
X6468872Y-18456389D01*
X6468872Y-18456389D02*
X6449824Y-18446865D01*
X6449824Y-18446865D02*
X6440301Y-18437341D01*
X6649824Y-18456389D02*
X6687920Y-18456389D01*
X6687920Y-18456389D02*
X6706967Y-18446865D01*
X6706967Y-18446865D02*
X6716491Y-18437341D01*
X6716491Y-18437341D02*
X6735539Y-18408770D01*
X6735539Y-18408770D02*
X6745062Y-18370675D01*
X6745062Y-18370675D02*
X6745062Y-18294484D01*
X6745062Y-18294484D02*
X6735539Y-18275436D01*
X6735539Y-18275436D02*
X6726015Y-18265913D01*
X6726015Y-18265913D02*
X6706967Y-18256389D01*
X6706967Y-18256389D02*
X6668872Y-18256389D01*
X6668872Y-18256389D02*
X6649824Y-18265913D01*
X6649824Y-18265913D02*
X6640301Y-18275436D01*
X6640301Y-18275436D02*
X6630777Y-18294484D01*
X6630777Y-18294484D02*
X6630777Y-18342103D01*
X6630777Y-18342103D02*
X6640301Y-18361151D01*
X6640301Y-18361151D02*
X6649824Y-18370675D01*
X6649824Y-18370675D02*
X6668872Y-18380198D01*
X6668872Y-18380198D02*
X6706967Y-18380198D01*
X6706967Y-18380198D02*
X6726015Y-18370675D01*
X6726015Y-18370675D02*
X6735539Y-18361151D01*
X6735539Y-18361151D02*
X6745062Y-18342103D01*
X6935539Y-18456389D02*
X6821253Y-18456389D01*
X6878396Y-18456389D02*
X6878396Y-18256389D01*
X6878396Y-18256389D02*
X6859348Y-18284960D01*
X6859348Y-18284960D02*
X6840301Y-18304008D01*
X6840301Y-18304008D02*
X6821253Y-18313532D01*
X7011729Y-18256389D02*
X7011729Y-18294484D01*
X7087920Y-18256389D02*
X7087920Y-18294484D01*
X7383158Y-18532579D02*
X7373634Y-18523055D01*
X7373634Y-18523055D02*
X7354586Y-18494484D01*
X7354586Y-18494484D02*
X7345063Y-18475436D01*
X7345063Y-18475436D02*
X7335539Y-18446865D01*
X7335539Y-18446865D02*
X7326015Y-18399246D01*
X7326015Y-18399246D02*
X7326015Y-18361151D01*
X7326015Y-18361151D02*
X7335539Y-18313532D01*
X7335539Y-18313532D02*
X7345063Y-18284960D01*
X7345063Y-18284960D02*
X7354586Y-18265913D01*
X7354586Y-18265913D02*
X7373634Y-18237341D01*
X7373634Y-18237341D02*
X7383158Y-18227817D01*
X7564110Y-18456389D02*
X7449824Y-18456389D01*
X7506967Y-18456389D02*
X7506967Y-18256389D01*
X7506967Y-18256389D02*
X7487920Y-18284960D01*
X7487920Y-18284960D02*
X7468872Y-18304008D01*
X7468872Y-18304008D02*
X7449824Y-18313532D01*
X7735539Y-18256389D02*
X7697443Y-18256389D01*
X7697443Y-18256389D02*
X7678396Y-18265913D01*
X7678396Y-18265913D02*
X7668872Y-18275436D01*
X7668872Y-18275436D02*
X7649824Y-18304008D01*
X7649824Y-18304008D02*
X7640301Y-18342103D01*
X7640301Y-18342103D02*
X7640301Y-18418294D01*
X7640301Y-18418294D02*
X7649824Y-18437341D01*
X7649824Y-18437341D02*
X7659348Y-18446865D01*
X7659348Y-18446865D02*
X7678396Y-18456389D01*
X7678396Y-18456389D02*
X7716491Y-18456389D01*
X7716491Y-18456389D02*
X7735539Y-18446865D01*
X7735539Y-18446865D02*
X7745063Y-18437341D01*
X7745063Y-18437341D02*
X7754586Y-18418294D01*
X7754586Y-18418294D02*
X7754586Y-18370675D01*
X7754586Y-18370675D02*
X7745063Y-18351627D01*
X7745063Y-18351627D02*
X7735539Y-18342103D01*
X7735539Y-18342103D02*
X7716491Y-18332579D01*
X7716491Y-18332579D02*
X7678396Y-18332579D01*
X7678396Y-18332579D02*
X7659348Y-18342103D01*
X7659348Y-18342103D02*
X7649824Y-18351627D01*
X7649824Y-18351627D02*
X7640301Y-18370675D01*
X7992682Y-18456389D02*
X7992682Y-18256389D01*
X8078396Y-18456389D02*
X8078396Y-18351627D01*
X8078396Y-18351627D02*
X8068872Y-18332579D01*
X8068872Y-18332579D02*
X8049825Y-18323055D01*
X8049825Y-18323055D02*
X8021253Y-18323055D01*
X8021253Y-18323055D02*
X8002205Y-18332579D01*
X8002205Y-18332579D02*
X7992682Y-18342103D01*
X8202205Y-18456389D02*
X8183158Y-18446865D01*
X8183158Y-18446865D02*
X8173634Y-18437341D01*
X8173634Y-18437341D02*
X8164110Y-18418294D01*
X8164110Y-18418294D02*
X8164110Y-18361151D01*
X8164110Y-18361151D02*
X8173634Y-18342103D01*
X8173634Y-18342103D02*
X8183158Y-18332579D01*
X8183158Y-18332579D02*
X8202205Y-18323055D01*
X8202205Y-18323055D02*
X8230777Y-18323055D01*
X8230777Y-18323055D02*
X8249825Y-18332579D01*
X8249825Y-18332579D02*
X8259348Y-18342103D01*
X8259348Y-18342103D02*
X8268872Y-18361151D01*
X8268872Y-18361151D02*
X8268872Y-18418294D01*
X8268872Y-18418294D02*
X8259348Y-18437341D01*
X8259348Y-18437341D02*
X8249825Y-18446865D01*
X8249825Y-18446865D02*
X8230777Y-18456389D01*
X8230777Y-18456389D02*
X8202205Y-18456389D01*
X8383158Y-18456389D02*
X8364110Y-18446865D01*
X8364110Y-18446865D02*
X8354586Y-18427817D01*
X8354586Y-18427817D02*
X8354586Y-18256389D01*
X8535539Y-18446865D02*
X8516491Y-18456389D01*
X8516491Y-18456389D02*
X8478396Y-18456389D01*
X8478396Y-18456389D02*
X8459348Y-18446865D01*
X8459348Y-18446865D02*
X8449825Y-18427817D01*
X8449825Y-18427817D02*
X8449825Y-18351627D01*
X8449825Y-18351627D02*
X8459348Y-18332579D01*
X8459348Y-18332579D02*
X8478396Y-18323055D01*
X8478396Y-18323055D02*
X8516491Y-18323055D01*
X8516491Y-18323055D02*
X8535539Y-18332579D01*
X8535539Y-18332579D02*
X8545063Y-18351627D01*
X8545063Y-18351627D02*
X8545063Y-18370675D01*
X8545063Y-18370675D02*
X8449825Y-18389722D01*
X8621253Y-18446865D02*
X8640301Y-18456389D01*
X8640301Y-18456389D02*
X8678396Y-18456389D01*
X8678396Y-18456389D02*
X8697444Y-18446865D01*
X8697444Y-18446865D02*
X8706968Y-18427817D01*
X8706968Y-18427817D02*
X8706968Y-18418294D01*
X8706968Y-18418294D02*
X8697444Y-18399246D01*
X8697444Y-18399246D02*
X8678396Y-18389722D01*
X8678396Y-18389722D02*
X8649825Y-18389722D01*
X8649825Y-18389722D02*
X8630777Y-18380198D01*
X8630777Y-18380198D02*
X8621253Y-18361151D01*
X8621253Y-18361151D02*
X8621253Y-18351627D01*
X8621253Y-18351627D02*
X8630777Y-18332579D01*
X8630777Y-18332579D02*
X8649825Y-18323055D01*
X8649825Y-18323055D02*
X8678396Y-18323055D01*
X8678396Y-18323055D02*
X8697444Y-18332579D01*
X8945063Y-18380198D02*
X9097444Y-18380198D01*
X9021253Y-18456389D02*
X9021253Y-18304008D01*
X9335539Y-18275436D02*
X9345063Y-18265913D01*
X9345063Y-18265913D02*
X9364110Y-18256389D01*
X9364110Y-18256389D02*
X9411730Y-18256389D01*
X9411730Y-18256389D02*
X9430777Y-18265913D01*
X9430777Y-18265913D02*
X9440301Y-18275436D01*
X9440301Y-18275436D02*
X9449825Y-18294484D01*
X9449825Y-18294484D02*
X9449825Y-18313532D01*
X9449825Y-18313532D02*
X9440301Y-18342103D01*
X9440301Y-18342103D02*
X9326015Y-18456389D01*
X9326015Y-18456389D02*
X9449825Y-18456389D01*
X9678396Y-18446865D02*
X9697444Y-18456389D01*
X9697444Y-18456389D02*
X9735539Y-18456389D01*
X9735539Y-18456389D02*
X9754587Y-18446865D01*
X9754587Y-18446865D02*
X9764111Y-18427817D01*
X9764111Y-18427817D02*
X9764111Y-18418294D01*
X9764111Y-18418294D02*
X9754587Y-18399246D01*
X9754587Y-18399246D02*
X9735539Y-18389722D01*
X9735539Y-18389722D02*
X9706968Y-18389722D01*
X9706968Y-18389722D02*
X9687920Y-18380198D01*
X9687920Y-18380198D02*
X9678396Y-18361151D01*
X9678396Y-18361151D02*
X9678396Y-18351627D01*
X9678396Y-18351627D02*
X9687920Y-18332579D01*
X9687920Y-18332579D02*
X9706968Y-18323055D01*
X9706968Y-18323055D02*
X9735539Y-18323055D01*
X9735539Y-18323055D02*
X9754587Y-18332579D01*
X9878396Y-18456389D02*
X9859349Y-18446865D01*
X9859349Y-18446865D02*
X9849825Y-18427817D01*
X9849825Y-18427817D02*
X9849825Y-18256389D01*
X9983158Y-18456389D02*
X9964111Y-18446865D01*
X9964111Y-18446865D02*
X9954587Y-18437341D01*
X9954587Y-18437341D02*
X9945063Y-18418294D01*
X9945063Y-18418294D02*
X9945063Y-18361151D01*
X9945063Y-18361151D02*
X9954587Y-18342103D01*
X9954587Y-18342103D02*
X9964111Y-18332579D01*
X9964111Y-18332579D02*
X9983158Y-18323055D01*
X9983158Y-18323055D02*
X10011730Y-18323055D01*
X10011730Y-18323055D02*
X10030777Y-18332579D01*
X10030777Y-18332579D02*
X10040301Y-18342103D01*
X10040301Y-18342103D02*
X10049825Y-18361151D01*
X10049825Y-18361151D02*
X10049825Y-18418294D01*
X10049825Y-18418294D02*
X10040301Y-18437341D01*
X10040301Y-18437341D02*
X10030777Y-18446865D01*
X10030777Y-18446865D02*
X10011730Y-18456389D01*
X10011730Y-18456389D02*
X9983158Y-18456389D01*
X10106968Y-18323055D02*
X10183158Y-18323055D01*
X10135539Y-18256389D02*
X10135539Y-18427817D01*
X10135539Y-18427817D02*
X10145063Y-18446865D01*
X10145063Y-18446865D02*
X10164111Y-18456389D01*
X10164111Y-18456389D02*
X10183158Y-18456389D01*
X10240301Y-18446865D02*
X10259349Y-18456389D01*
X10259349Y-18456389D02*
X10297444Y-18456389D01*
X10297444Y-18456389D02*
X10316492Y-18446865D01*
X10316492Y-18446865D02*
X10326015Y-18427817D01*
X10326015Y-18427817D02*
X10326015Y-18418294D01*
X10326015Y-18418294D02*
X10316492Y-18399246D01*
X10316492Y-18399246D02*
X10297444Y-18389722D01*
X10297444Y-18389722D02*
X10268872Y-18389722D01*
X10268872Y-18389722D02*
X10249825Y-18380198D01*
X10249825Y-18380198D02*
X10240301Y-18361151D01*
X10240301Y-18361151D02*
X10240301Y-18351627D01*
X10240301Y-18351627D02*
X10249825Y-18332579D01*
X10249825Y-18332579D02*
X10268872Y-18323055D01*
X10268872Y-18323055D02*
X10297444Y-18323055D01*
X10297444Y-18323055D02*
X10316492Y-18332579D01*
X10392682Y-18532579D02*
X10402206Y-18523055D01*
X10402206Y-18523055D02*
X10421253Y-18494484D01*
X10421253Y-18494484D02*
X10430777Y-18475436D01*
X10430777Y-18475436D02*
X10440301Y-18446865D01*
X10440301Y-18446865D02*
X10449825Y-18399246D01*
X10449825Y-18399246D02*
X10449825Y-18361151D01*
X10449825Y-18361151D02*
X10440301Y-18313532D01*
X10440301Y-18313532D02*
X10430777Y-18284960D01*
X10430777Y-18284960D02*
X10421253Y-18265913D01*
X10421253Y-18265913D02*
X10402206Y-18237341D01*
X10402206Y-18237341D02*
X10392682Y-18227817D01*
X3608095Y-18534905D02*
X3808095Y-18734905D01*
X3808095Y-18534905D02*
X3608095Y-18734905D01*
X3708095Y-18734905D02*
X3808095Y-18634905D01*
X3708095Y-18534905D01*
X3608095Y-18634905D01*
X3708095Y-18734905D01*
X4049824Y-18526389D02*
X4173634Y-18526389D01*
X4173634Y-18526389D02*
X4106967Y-18602579D01*
X4106967Y-18602579D02*
X4135538Y-18602579D01*
X4135538Y-18602579D02*
X4154586Y-18612103D01*
X4154586Y-18612103D02*
X4164110Y-18621627D01*
X4164110Y-18621627D02*
X4173634Y-18640675D01*
X4173634Y-18640675D02*
X4173634Y-18688294D01*
X4173634Y-18688294D02*
X4164110Y-18707341D01*
X4164110Y-18707341D02*
X4154586Y-18716865D01*
X4154586Y-18716865D02*
X4135538Y-18726389D01*
X4135538Y-18726389D02*
X4078396Y-18726389D01*
X4078396Y-18726389D02*
X4059348Y-18716865D01*
X4059348Y-18716865D02*
X4049824Y-18707341D01*
X4259348Y-18707341D02*
X4268872Y-18716865D01*
X4268872Y-18716865D02*
X4259348Y-18726389D01*
X4259348Y-18726389D02*
X4249824Y-18716865D01*
X4249824Y-18716865D02*
X4259348Y-18707341D01*
X4259348Y-18707341D02*
X4259348Y-18726389D01*
X4392681Y-18526389D02*
X4411729Y-18526389D01*
X4411729Y-18526389D02*
X4430777Y-18535913D01*
X4430777Y-18535913D02*
X4440300Y-18545436D01*
X4440300Y-18545436D02*
X4449824Y-18564484D01*
X4449824Y-18564484D02*
X4459348Y-18602579D01*
X4459348Y-18602579D02*
X4459348Y-18650198D01*
X4459348Y-18650198D02*
X4449824Y-18688294D01*
X4449824Y-18688294D02*
X4440300Y-18707341D01*
X4440300Y-18707341D02*
X4430777Y-18716865D01*
X4430777Y-18716865D02*
X4411729Y-18726389D01*
X4411729Y-18726389D02*
X4392681Y-18726389D01*
X4392681Y-18726389D02*
X4373634Y-18716865D01*
X4373634Y-18716865D02*
X4364110Y-18707341D01*
X4364110Y-18707341D02*
X4354586Y-18688294D01*
X4354586Y-18688294D02*
X4345062Y-18650198D01*
X4345062Y-18650198D02*
X4345062Y-18602579D01*
X4345062Y-18602579D02*
X4354586Y-18564484D01*
X4354586Y-18564484D02*
X4364110Y-18545436D01*
X4364110Y-18545436D02*
X4373634Y-18535913D01*
X4373634Y-18535913D02*
X4392681Y-18526389D01*
X4583158Y-18526389D02*
X4602205Y-18526389D01*
X4602205Y-18526389D02*
X4621253Y-18535913D01*
X4621253Y-18535913D02*
X4630777Y-18545436D01*
X4630777Y-18545436D02*
X4640300Y-18564484D01*
X4640300Y-18564484D02*
X4649824Y-18602579D01*
X4649824Y-18602579D02*
X4649824Y-18650198D01*
X4649824Y-18650198D02*
X4640300Y-18688294D01*
X4640300Y-18688294D02*
X4630777Y-18707341D01*
X4630777Y-18707341D02*
X4621253Y-18716865D01*
X4621253Y-18716865D02*
X4602205Y-18726389D01*
X4602205Y-18726389D02*
X4583158Y-18726389D01*
X4583158Y-18726389D02*
X4564110Y-18716865D01*
X4564110Y-18716865D02*
X4554586Y-18707341D01*
X4554586Y-18707341D02*
X4545062Y-18688294D01*
X4545062Y-18688294D02*
X4535539Y-18650198D01*
X4535539Y-18650198D02*
X4535539Y-18602579D01*
X4535539Y-18602579D02*
X4545062Y-18564484D01*
X4545062Y-18564484D02*
X4554586Y-18545436D01*
X4554586Y-18545436D02*
X4564110Y-18535913D01*
X4564110Y-18535913D02*
X4583158Y-18526389D01*
X4773634Y-18526389D02*
X4792681Y-18526389D01*
X4792681Y-18526389D02*
X4811729Y-18535913D01*
X4811729Y-18535913D02*
X4821253Y-18545436D01*
X4821253Y-18545436D02*
X4830777Y-18564484D01*
X4830777Y-18564484D02*
X4840300Y-18602579D01*
X4840300Y-18602579D02*
X4840300Y-18650198D01*
X4840300Y-18650198D02*
X4830777Y-18688294D01*
X4830777Y-18688294D02*
X4821253Y-18707341D01*
X4821253Y-18707341D02*
X4811729Y-18716865D01*
X4811729Y-18716865D02*
X4792681Y-18726389D01*
X4792681Y-18726389D02*
X4773634Y-18726389D01*
X4773634Y-18726389D02*
X4754586Y-18716865D01*
X4754586Y-18716865D02*
X4745062Y-18707341D01*
X4745062Y-18707341D02*
X4735539Y-18688294D01*
X4735539Y-18688294D02*
X4726015Y-18650198D01*
X4726015Y-18650198D02*
X4726015Y-18602579D01*
X4726015Y-18602579D02*
X4735539Y-18564484D01*
X4735539Y-18564484D02*
X4745062Y-18545436D01*
X4745062Y-18545436D02*
X4754586Y-18535913D01*
X4754586Y-18535913D02*
X4773634Y-18526389D01*
X4926015Y-18726389D02*
X4926015Y-18593055D01*
X4926015Y-18612103D02*
X4935539Y-18602579D01*
X4935539Y-18602579D02*
X4954586Y-18593055D01*
X4954586Y-18593055D02*
X4983158Y-18593055D01*
X4983158Y-18593055D02*
X5002205Y-18602579D01*
X5002205Y-18602579D02*
X5011729Y-18621627D01*
X5011729Y-18621627D02*
X5011729Y-18726389D01*
X5011729Y-18621627D02*
X5021253Y-18602579D01*
X5021253Y-18602579D02*
X5040300Y-18593055D01*
X5040300Y-18593055D02*
X5068872Y-18593055D01*
X5068872Y-18593055D02*
X5087920Y-18602579D01*
X5087920Y-18602579D02*
X5097443Y-18621627D01*
X5097443Y-18621627D02*
X5097443Y-18726389D01*
X5192681Y-18726389D02*
X5192681Y-18593055D01*
X5192681Y-18612103D02*
X5202205Y-18602579D01*
X5202205Y-18602579D02*
X5221253Y-18593055D01*
X5221253Y-18593055D02*
X5249824Y-18593055D01*
X5249824Y-18593055D02*
X5268872Y-18602579D01*
X5268872Y-18602579D02*
X5278396Y-18621627D01*
X5278396Y-18621627D02*
X5278396Y-18726389D01*
X5278396Y-18621627D02*
X5287920Y-18602579D01*
X5287920Y-18602579D02*
X5306967Y-18593055D01*
X5306967Y-18593055D02*
X5335539Y-18593055D01*
X5335539Y-18593055D02*
X5354586Y-18602579D01*
X5354586Y-18602579D02*
X5364110Y-18621627D01*
X5364110Y-18621627D02*
X5364110Y-18726389D01*
X5754586Y-18516865D02*
X5583158Y-18774008D01*
X6011729Y-18526389D02*
X6030777Y-18526389D01*
X6030777Y-18526389D02*
X6049824Y-18535913D01*
X6049824Y-18535913D02*
X6059348Y-18545436D01*
X6059348Y-18545436D02*
X6068872Y-18564484D01*
X6068872Y-18564484D02*
X6078396Y-18602579D01*
X6078396Y-18602579D02*
X6078396Y-18650198D01*
X6078396Y-18650198D02*
X6068872Y-18688294D01*
X6068872Y-18688294D02*
X6059348Y-18707341D01*
X6059348Y-18707341D02*
X6049824Y-18716865D01*
X6049824Y-18716865D02*
X6030777Y-18726389D01*
X6030777Y-18726389D02*
X6011729Y-18726389D01*
X6011729Y-18726389D02*
X5992681Y-18716865D01*
X5992681Y-18716865D02*
X5983158Y-18707341D01*
X5983158Y-18707341D02*
X5973634Y-18688294D01*
X5973634Y-18688294D02*
X5964110Y-18650198D01*
X5964110Y-18650198D02*
X5964110Y-18602579D01*
X5964110Y-18602579D02*
X5973634Y-18564484D01*
X5973634Y-18564484D02*
X5983158Y-18545436D01*
X5983158Y-18545436D02*
X5992681Y-18535913D01*
X5992681Y-18535913D02*
X6011729Y-18526389D01*
X6164110Y-18707341D02*
X6173634Y-18716865D01*
X6173634Y-18716865D02*
X6164110Y-18726389D01*
X6164110Y-18726389D02*
X6154586Y-18716865D01*
X6154586Y-18716865D02*
X6164110Y-18707341D01*
X6164110Y-18707341D02*
X6164110Y-18726389D01*
X6364110Y-18726389D02*
X6249824Y-18726389D01*
X6306967Y-18726389D02*
X6306967Y-18526389D01*
X6306967Y-18526389D02*
X6287920Y-18554960D01*
X6287920Y-18554960D02*
X6268872Y-18574008D01*
X6268872Y-18574008D02*
X6249824Y-18583532D01*
X6554586Y-18726389D02*
X6440301Y-18726389D01*
X6497443Y-18726389D02*
X6497443Y-18526389D01*
X6497443Y-18526389D02*
X6478396Y-18554960D01*
X6478396Y-18554960D02*
X6459348Y-18574008D01*
X6459348Y-18574008D02*
X6440301Y-18583532D01*
X6668872Y-18612103D02*
X6649824Y-18602579D01*
X6649824Y-18602579D02*
X6640301Y-18593055D01*
X6640301Y-18593055D02*
X6630777Y-18574008D01*
X6630777Y-18574008D02*
X6630777Y-18564484D01*
X6630777Y-18564484D02*
X6640301Y-18545436D01*
X6640301Y-18545436D02*
X6649824Y-18535913D01*
X6649824Y-18535913D02*
X6668872Y-18526389D01*
X6668872Y-18526389D02*
X6706967Y-18526389D01*
X6706967Y-18526389D02*
X6726015Y-18535913D01*
X6726015Y-18535913D02*
X6735539Y-18545436D01*
X6735539Y-18545436D02*
X6745062Y-18564484D01*
X6745062Y-18564484D02*
X6745062Y-18574008D01*
X6745062Y-18574008D02*
X6735539Y-18593055D01*
X6735539Y-18593055D02*
X6726015Y-18602579D01*
X6726015Y-18602579D02*
X6706967Y-18612103D01*
X6706967Y-18612103D02*
X6668872Y-18612103D01*
X6668872Y-18612103D02*
X6649824Y-18621627D01*
X6649824Y-18621627D02*
X6640301Y-18631151D01*
X6640301Y-18631151D02*
X6630777Y-18650198D01*
X6630777Y-18650198D02*
X6630777Y-18688294D01*
X6630777Y-18688294D02*
X6640301Y-18707341D01*
X6640301Y-18707341D02*
X6649824Y-18716865D01*
X6649824Y-18716865D02*
X6668872Y-18726389D01*
X6668872Y-18726389D02*
X6706967Y-18726389D01*
X6706967Y-18726389D02*
X6726015Y-18716865D01*
X6726015Y-18716865D02*
X6735539Y-18707341D01*
X6735539Y-18707341D02*
X6745062Y-18688294D01*
X6745062Y-18688294D02*
X6745062Y-18650198D01*
X6745062Y-18650198D02*
X6735539Y-18631151D01*
X6735539Y-18631151D02*
X6726015Y-18621627D01*
X6726015Y-18621627D02*
X6706967Y-18612103D01*
X6935539Y-18726389D02*
X6821253Y-18726389D01*
X6878396Y-18726389D02*
X6878396Y-18526389D01*
X6878396Y-18526389D02*
X6859348Y-18554960D01*
X6859348Y-18554960D02*
X6840301Y-18574008D01*
X6840301Y-18574008D02*
X6821253Y-18583532D01*
X7011729Y-18526389D02*
X7011729Y-18564484D01*
X7087920Y-18526389D02*
X7087920Y-18564484D01*
X7383158Y-18802579D02*
X7373634Y-18793055D01*
X7373634Y-18793055D02*
X7354586Y-18764484D01*
X7354586Y-18764484D02*
X7345063Y-18745436D01*
X7345063Y-18745436D02*
X7335539Y-18716865D01*
X7335539Y-18716865D02*
X7326015Y-18669246D01*
X7326015Y-18669246D02*
X7326015Y-18631151D01*
X7326015Y-18631151D02*
X7335539Y-18583532D01*
X7335539Y-18583532D02*
X7345063Y-18554960D01*
X7345063Y-18554960D02*
X7354586Y-18535913D01*
X7354586Y-18535913D02*
X7373634Y-18507341D01*
X7373634Y-18507341D02*
X7383158Y-18497817D01*
X7545063Y-18593055D02*
X7545063Y-18726389D01*
X7497443Y-18516865D02*
X7449824Y-18659722D01*
X7449824Y-18659722D02*
X7573634Y-18659722D01*
X7802205Y-18726389D02*
X7802205Y-18526389D01*
X7887920Y-18726389D02*
X7887920Y-18621627D01*
X7887920Y-18621627D02*
X7878396Y-18602579D01*
X7878396Y-18602579D02*
X7859348Y-18593055D01*
X7859348Y-18593055D02*
X7830777Y-18593055D01*
X7830777Y-18593055D02*
X7811729Y-18602579D01*
X7811729Y-18602579D02*
X7802205Y-18612103D01*
X8011729Y-18726389D02*
X7992682Y-18716865D01*
X7992682Y-18716865D02*
X7983158Y-18707341D01*
X7983158Y-18707341D02*
X7973634Y-18688294D01*
X7973634Y-18688294D02*
X7973634Y-18631151D01*
X7973634Y-18631151D02*
X7983158Y-18612103D01*
X7983158Y-18612103D02*
X7992682Y-18602579D01*
X7992682Y-18602579D02*
X8011729Y-18593055D01*
X8011729Y-18593055D02*
X8040301Y-18593055D01*
X8040301Y-18593055D02*
X8059348Y-18602579D01*
X8059348Y-18602579D02*
X8068872Y-18612103D01*
X8068872Y-18612103D02*
X8078396Y-18631151D01*
X8078396Y-18631151D02*
X8078396Y-18688294D01*
X8078396Y-18688294D02*
X8068872Y-18707341D01*
X8068872Y-18707341D02*
X8059348Y-18716865D01*
X8059348Y-18716865D02*
X8040301Y-18726389D01*
X8040301Y-18726389D02*
X8011729Y-18726389D01*
X8192682Y-18726389D02*
X8173634Y-18716865D01*
X8173634Y-18716865D02*
X8164110Y-18697817D01*
X8164110Y-18697817D02*
X8164110Y-18526389D01*
X8345063Y-18716865D02*
X8326015Y-18726389D01*
X8326015Y-18726389D02*
X8287920Y-18726389D01*
X8287920Y-18726389D02*
X8268872Y-18716865D01*
X8268872Y-18716865D02*
X8259348Y-18697817D01*
X8259348Y-18697817D02*
X8259348Y-18621627D01*
X8259348Y-18621627D02*
X8268872Y-18602579D01*
X8268872Y-18602579D02*
X8287920Y-18593055D01*
X8287920Y-18593055D02*
X8326015Y-18593055D01*
X8326015Y-18593055D02*
X8345063Y-18602579D01*
X8345063Y-18602579D02*
X8354586Y-18621627D01*
X8354586Y-18621627D02*
X8354586Y-18640675D01*
X8354586Y-18640675D02*
X8259348Y-18659722D01*
X8430777Y-18716865D02*
X8449825Y-18726389D01*
X8449825Y-18726389D02*
X8487920Y-18726389D01*
X8487920Y-18726389D02*
X8506968Y-18716865D01*
X8506968Y-18716865D02*
X8516491Y-18697817D01*
X8516491Y-18697817D02*
X8516491Y-18688294D01*
X8516491Y-18688294D02*
X8506968Y-18669246D01*
X8506968Y-18669246D02*
X8487920Y-18659722D01*
X8487920Y-18659722D02*
X8459348Y-18659722D01*
X8459348Y-18659722D02*
X8440301Y-18650198D01*
X8440301Y-18650198D02*
X8430777Y-18631151D01*
X8430777Y-18631151D02*
X8430777Y-18621627D01*
X8430777Y-18621627D02*
X8440301Y-18602579D01*
X8440301Y-18602579D02*
X8459348Y-18593055D01*
X8459348Y-18593055D02*
X8487920Y-18593055D01*
X8487920Y-18593055D02*
X8506968Y-18602579D01*
X8583158Y-18802579D02*
X8592682Y-18793055D01*
X8592682Y-18793055D02*
X8611729Y-18764484D01*
X8611729Y-18764484D02*
X8621253Y-18745436D01*
X8621253Y-18745436D02*
X8630777Y-18716865D01*
X8630777Y-18716865D02*
X8640301Y-18669246D01*
X8640301Y-18669246D02*
X8640301Y-18631151D01*
X8640301Y-18631151D02*
X8630777Y-18583532D01*
X8630777Y-18583532D02*
X8621253Y-18554960D01*
X8621253Y-18554960D02*
X8611729Y-18535913D01*
X8611729Y-18535913D02*
X8592682Y-18507341D01*
X8592682Y-18507341D02*
X8583158Y-18497817D01*
M02*
