G04 #@! TF.GenerationSoftware,KiCad,Pcbnew,7.0.11*
G04 #@! TF.CreationDate,2024-11-21T01:14:31-06:00*
G04 #@! TF.ProjectId,Sardinia_v0.2,53617264-696e-4696-915f-76302e322e6b,rev?*
G04 #@! TF.SameCoordinates,Original*
G04 #@! TF.FileFunction,Copper,L1,Top*
G04 #@! TF.FilePolarity,Positive*
%FSLAX46Y46*%
G04 Gerber Fmt 4.6, Leading zero omitted, Abs format (unit mm)*
G04 Created by KiCad (PCBNEW 7.0.11) date 2024-11-21 01:14:31*
%MOMM*%
%LPD*%
G01*
G04 APERTURE LIST*
G04 Aperture macros list*
%AMRoundRect*
0 Rectangle with rounded corners*
0 $1 Rounding radius*
0 $2 $3 $4 $5 $6 $7 $8 $9 X,Y pos of 4 corners*
0 Add a 4 corners polygon primitive as box body*
4,1,4,$2,$3,$4,$5,$6,$7,$8,$9,$2,$3,0*
0 Add four circle primitives for the rounded corners*
1,1,$1+$1,$2,$3*
1,1,$1+$1,$4,$5*
1,1,$1+$1,$6,$7*
1,1,$1+$1,$8,$9*
0 Add four rect primitives between the rounded corners*
20,1,$1+$1,$2,$3,$4,$5,0*
20,1,$1+$1,$4,$5,$6,$7,0*
20,1,$1+$1,$6,$7,$8,$9,0*
20,1,$1+$1,$8,$9,$2,$3,0*%
G04 Aperture macros list end*
G04 #@! TA.AperFunction,SMDPad,CuDef*
%ADD10RoundRect,0.250000X0.625000X-0.400000X0.625000X0.400000X-0.625000X0.400000X-0.625000X-0.400000X0*%
G04 #@! TD*
G04 #@! TA.AperFunction,ComponentPad*
%ADD11O,2.720000X3.240000*%
G04 #@! TD*
G04 #@! TA.AperFunction,ComponentPad*
%ADD12R,1.800000X1.800000*%
G04 #@! TD*
G04 #@! TA.AperFunction,ComponentPad*
%ADD13C,1.800000*%
G04 #@! TD*
G04 #@! TA.AperFunction,ComponentPad*
%ADD14C,2.200000*%
G04 #@! TD*
G04 #@! TA.AperFunction,ComponentPad*
%ADD15C,2.400000*%
G04 #@! TD*
G04 #@! TA.AperFunction,ComponentPad*
%ADD16R,1.560000X1.560000*%
G04 #@! TD*
G04 #@! TA.AperFunction,ComponentPad*
%ADD17C,1.560000*%
G04 #@! TD*
G04 #@! TA.AperFunction,ComponentPad*
%ADD18R,2.200000X2.200000*%
G04 #@! TD*
G04 #@! TA.AperFunction,ComponentPad*
%ADD19O,2.200000X2.200000*%
G04 #@! TD*
G04 #@! TA.AperFunction,ComponentPad*
%ADD20R,2.000000X2.000000*%
G04 #@! TD*
G04 #@! TA.AperFunction,ComponentPad*
%ADD21C,2.000000*%
G04 #@! TD*
G04 #@! TA.AperFunction,ComponentPad*
%ADD22R,2.000000X3.200000*%
G04 #@! TD*
G04 #@! TA.AperFunction,ComponentPad*
%ADD23C,4.000000*%
G04 #@! TD*
G04 #@! TA.AperFunction,ComponentPad*
%ADD24R,1.800000X2.600000*%
G04 #@! TD*
G04 #@! TA.AperFunction,ComponentPad*
%ADD25O,1.800000X2.600000*%
G04 #@! TD*
G04 #@! TA.AperFunction,ComponentPad*
%ADD26R,3.500000X3.500000*%
G04 #@! TD*
G04 #@! TA.AperFunction,ComponentPad*
%ADD27RoundRect,0.750000X-1.000000X0.750000X-1.000000X-0.750000X1.000000X-0.750000X1.000000X0.750000X0*%
G04 #@! TD*
G04 #@! TA.AperFunction,ComponentPad*
%ADD28RoundRect,0.875000X-0.875000X0.875000X-0.875000X-0.875000X0.875000X-0.875000X0.875000X0.875000X0*%
G04 #@! TD*
G04 #@! TA.AperFunction,ComponentPad*
%ADD29C,3.000000*%
G04 #@! TD*
G04 #@! TA.AperFunction,ComponentPad*
%ADD30R,1.600000X1.600000*%
G04 #@! TD*
G04 #@! TA.AperFunction,ComponentPad*
%ADD31C,1.600000*%
G04 #@! TD*
G04 #@! TA.AperFunction,ComponentPad*
%ADD32RoundRect,0.250000X0.350000X0.625000X-0.350000X0.625000X-0.350000X-0.625000X0.350000X-0.625000X0*%
G04 #@! TD*
G04 #@! TA.AperFunction,ComponentPad*
%ADD33O,1.200000X1.750000*%
G04 #@! TD*
G04 #@! TA.AperFunction,ComponentPad*
%ADD34R,1.600000X2.400000*%
G04 #@! TD*
G04 #@! TA.AperFunction,ComponentPad*
%ADD35O,1.600000X2.400000*%
G04 #@! TD*
G04 #@! TA.AperFunction,ComponentPad*
%ADD36R,1.700000X1.700000*%
G04 #@! TD*
G04 #@! TA.AperFunction,ComponentPad*
%ADD37C,1.700000*%
G04 #@! TD*
G04 #@! TA.AperFunction,ComponentPad*
%ADD38R,2.400000X1.600000*%
G04 #@! TD*
G04 #@! TA.AperFunction,ComponentPad*
%ADD39O,2.400000X1.600000*%
G04 #@! TD*
G04 #@! TA.AperFunction,ViaPad*
%ADD40C,0.600000*%
G04 #@! TD*
G04 #@! TA.AperFunction,Conductor*
%ADD41C,0.200000*%
G04 #@! TD*
G04 #@! TA.AperFunction,Conductor*
%ADD42C,0.127000*%
G04 #@! TD*
G04 APERTURE END LIST*
D10*
X124500000Y-107669548D03*
X124500000Y-104569548D03*
D11*
X211200000Y-57725000D03*
X220800000Y-57725000D03*
D12*
X213500000Y-65225000D03*
D13*
X216000000Y-65225000D03*
X218500000Y-65225000D03*
D10*
X264250000Y-126289096D03*
X264250000Y-123189096D03*
D14*
X74210000Y-136669868D03*
X67860000Y-139209868D03*
D10*
X221250000Y-126289096D03*
X221250000Y-123189096D03*
D15*
X216250000Y-109919548D03*
X221250000Y-112019548D03*
D10*
X232000000Y-144908644D03*
X232000000Y-141808644D03*
D15*
X130250000Y-109919548D03*
X135250000Y-112019548D03*
X141000000Y-91300000D03*
X146000000Y-93400000D03*
X216250000Y-147158644D03*
X221250000Y-149258644D03*
D10*
X113750000Y-89050000D03*
X113750000Y-85950000D03*
D15*
X248500000Y-128539096D03*
X253500000Y-130639096D03*
X259250000Y-109919548D03*
X264250000Y-112019548D03*
X184000000Y-91300000D03*
X189000000Y-93400000D03*
X98000000Y-91300000D03*
X103000000Y-93400000D03*
X108750000Y-109919548D03*
X113750000Y-112019548D03*
D10*
X113750000Y-126289096D03*
X113750000Y-123189096D03*
D16*
X116500000Y-21260000D03*
D17*
X119000000Y-26260000D03*
X121500000Y-21260000D03*
D14*
X55250000Y-118050320D03*
X48900000Y-120590320D03*
D18*
X149000000Y-31310000D03*
D19*
X149000000Y-23690000D03*
D15*
X227000000Y-128539096D03*
X232000000Y-130639096D03*
D10*
X146000000Y-144908644D03*
X146000000Y-141808644D03*
X199750000Y-126289096D03*
X199750000Y-123189096D03*
D14*
X55250000Y-80811224D03*
X48900000Y-83351224D03*
D15*
X237750000Y-147158644D03*
X242750000Y-149258644D03*
D20*
X135000000Y-53000000D03*
D21*
X140000000Y-53000000D03*
X137500000Y-53000000D03*
D22*
X131900000Y-45500000D03*
X143100000Y-45500000D03*
D21*
X140000000Y-38500000D03*
X135000000Y-38500000D03*
D15*
X259250000Y-147158644D03*
X264250000Y-149258644D03*
D10*
X167500000Y-107669548D03*
X167500000Y-104569548D03*
X156750000Y-126289096D03*
X156750000Y-123189096D03*
D14*
X74210000Y-80811224D03*
X67860000Y-83351224D03*
D15*
X130250000Y-147158644D03*
X135250000Y-149258644D03*
D10*
X210500000Y-107669548D03*
X210500000Y-104569548D03*
X156750000Y-89050000D03*
X156750000Y-85950000D03*
X103000000Y-144908644D03*
X103000000Y-141808644D03*
X103000000Y-107669548D03*
X103000000Y-104569548D03*
D15*
X237750000Y-109919548D03*
X242750000Y-112019548D03*
D10*
X146000000Y-107669548D03*
X146000000Y-104569548D03*
X242750000Y-89050000D03*
X242750000Y-85950000D03*
X221250000Y-89050000D03*
X221250000Y-85950000D03*
D15*
X98000000Y-128539096D03*
X103000000Y-130639096D03*
X194750000Y-109919548D03*
X199750000Y-112019548D03*
D11*
X157700000Y-57725000D03*
X167300000Y-57725000D03*
D12*
X160000000Y-65225000D03*
D13*
X162500000Y-65225000D03*
X165000000Y-65225000D03*
D15*
X227000000Y-91300000D03*
X232000000Y-93400000D03*
X141000000Y-128539096D03*
X146000000Y-130639096D03*
X205500000Y-128539096D03*
X210500000Y-130639096D03*
D10*
X135250000Y-126289096D03*
X135250000Y-123189096D03*
D15*
X162500000Y-128539096D03*
X167500000Y-130639096D03*
X173250000Y-147158644D03*
X178250000Y-149258644D03*
D11*
X211200000Y-33000000D03*
X220800000Y-33000000D03*
D12*
X213500000Y-40500000D03*
D13*
X216000000Y-40500000D03*
X218500000Y-40500000D03*
D11*
X184450000Y-33000000D03*
X194050000Y-33000000D03*
D12*
X186750000Y-40500000D03*
D13*
X189250000Y-40500000D03*
X191750000Y-40500000D03*
D15*
X108750000Y-147158644D03*
X113750000Y-149258644D03*
X119500000Y-128539096D03*
X124500000Y-130639096D03*
D11*
X157700000Y-32725000D03*
X167300000Y-32725000D03*
D12*
X160000000Y-40225000D03*
D13*
X162500000Y-40225000D03*
X165000000Y-40225000D03*
D10*
X264250000Y-89050000D03*
X264250000Y-85950000D03*
X124500000Y-144908644D03*
X124500000Y-141808644D03*
X189000000Y-107669548D03*
X189000000Y-104569548D03*
X210500000Y-144908644D03*
X210500000Y-141808644D03*
X189000000Y-144908644D03*
X189000000Y-141808644D03*
D23*
X45250900Y-31000000D03*
X45250900Y-62000700D03*
X120249480Y-62000700D03*
X120250000Y-31000000D03*
D24*
X50750000Y-31000000D03*
D25*
X53290000Y-31000000D03*
X55830000Y-31000000D03*
X58370000Y-31000000D03*
X60910000Y-31000000D03*
X63450000Y-31000000D03*
X65990000Y-31000000D03*
X68530000Y-31000000D03*
X71070000Y-31000000D03*
X73610000Y-31000000D03*
X76150000Y-31000000D03*
X78690000Y-31000000D03*
X81230000Y-31000000D03*
X83770000Y-31000000D03*
X86310000Y-31000000D03*
X88850000Y-31000000D03*
D15*
X162500000Y-91300000D03*
X167500000Y-93400000D03*
X194750000Y-147158644D03*
X199750000Y-149258644D03*
X151750000Y-147158644D03*
X156750000Y-149258644D03*
D10*
X232000000Y-107669548D03*
X232000000Y-104569548D03*
D15*
X248500000Y-91300000D03*
X253500000Y-93400000D03*
X173250000Y-109919548D03*
X178250000Y-112019548D03*
D14*
X55250000Y-136669868D03*
X48900000Y-139209868D03*
D15*
X119500000Y-91300000D03*
X124500000Y-93400000D03*
D10*
X253500000Y-144908644D03*
X253500000Y-141808644D03*
X242750000Y-126289096D03*
X242750000Y-123189096D03*
D14*
X55250000Y-99430772D03*
X48900000Y-101970772D03*
D10*
X178250000Y-89050000D03*
X178250000Y-85950000D03*
D14*
X74210000Y-99430772D03*
X67860000Y-101970772D03*
D10*
X253500000Y-107669548D03*
X253500000Y-104569548D03*
D15*
X184000000Y-128539096D03*
X189000000Y-130639096D03*
D11*
X184450000Y-57725000D03*
X194050000Y-57725000D03*
D12*
X186750000Y-65225000D03*
D13*
X189250000Y-65225000D03*
X191750000Y-65225000D03*
D10*
X135250000Y-89050000D03*
X135250000Y-85950000D03*
D15*
X205500000Y-91300000D03*
X210500000Y-93400000D03*
D14*
X74210000Y-118050320D03*
X67860000Y-120590320D03*
D10*
X199750000Y-89050000D03*
X199750000Y-85950000D03*
D15*
X151750000Y-109919548D03*
X156750000Y-112019548D03*
D10*
X167500000Y-144908644D03*
X167500000Y-141808644D03*
X178250000Y-126289096D03*
X178250000Y-123189096D03*
D26*
X137500000Y-33000000D03*
D27*
X137500000Y-27000000D03*
D28*
X142200000Y-30000000D03*
D29*
X271886152Y-32650000D03*
X255656152Y-32650000D03*
X271886152Y-26300000D03*
X255656152Y-26300000D03*
X271886152Y-39000000D03*
X255656152Y-39000000D03*
X244951720Y-32650000D03*
X228721720Y-32650000D03*
X244951720Y-26300000D03*
X228721720Y-26300000D03*
X244951720Y-39000000D03*
X228721720Y-39000000D03*
D30*
X128000000Y-24000000D03*
D31*
X125500000Y-24000000D03*
D32*
X82500000Y-22500000D03*
D33*
X80500000Y-22500000D03*
X78500000Y-22500000D03*
D34*
X69910000Y-68000000D03*
D35*
X72450000Y-68000000D03*
X74990000Y-68000000D03*
X77530000Y-68000000D03*
X80070000Y-68000000D03*
X82610000Y-68000000D03*
X85150000Y-68000000D03*
X87690000Y-68000000D03*
X87690000Y-75620000D03*
X85150000Y-75620000D03*
X82610000Y-75620000D03*
X80070000Y-75620000D03*
X77530000Y-75620000D03*
X74990000Y-75620000D03*
X72450000Y-75620000D03*
X69910000Y-75620000D03*
D36*
X228420000Y-53000000D03*
D37*
X230960000Y-53000000D03*
X233500000Y-53000000D03*
X236040000Y-53000000D03*
X238580000Y-53000000D03*
X241120000Y-53000000D03*
X243660000Y-53000000D03*
X246200000Y-53000000D03*
X248740000Y-53000000D03*
X251280000Y-53000000D03*
X253820000Y-53000000D03*
X256360000Y-53000000D03*
X258900000Y-53000000D03*
X261440000Y-53000000D03*
X263980000Y-53000000D03*
X266520000Y-53000000D03*
X269060000Y-53000000D03*
X271600000Y-53000000D03*
X274140000Y-53000000D03*
X276680000Y-53000000D03*
X276680000Y-68240000D03*
X274140000Y-68240000D03*
X271600000Y-68240000D03*
X269060000Y-68240000D03*
X266520000Y-68240000D03*
X263980000Y-68240000D03*
X261440000Y-68240000D03*
X258900000Y-68240000D03*
X256360000Y-68240000D03*
X253820000Y-68240000D03*
X251280000Y-68240000D03*
X248740000Y-68240000D03*
X246200000Y-68240000D03*
X243660000Y-68240000D03*
X241120000Y-68240000D03*
X238580000Y-68240000D03*
X236040000Y-68240000D03*
X233500000Y-68240000D03*
X230960000Y-68240000D03*
X228420000Y-68240000D03*
D38*
X88500000Y-133960000D03*
D39*
X88500000Y-136500000D03*
X88500000Y-139040000D03*
X88500000Y-141580000D03*
X88500000Y-144120000D03*
X88500000Y-146660000D03*
X88500000Y-149200000D03*
X88500000Y-151740000D03*
X80880000Y-151740000D03*
X80880000Y-149200000D03*
X80880000Y-146660000D03*
X80880000Y-144120000D03*
X80880000Y-141580000D03*
X80880000Y-139040000D03*
X80880000Y-136500000D03*
X80880000Y-133960000D03*
D38*
X88500000Y-109760000D03*
D39*
X88500000Y-112300000D03*
X88500000Y-114840000D03*
X88500000Y-117380000D03*
X88500000Y-119920000D03*
X88500000Y-122460000D03*
X88500000Y-125000000D03*
X88500000Y-127540000D03*
X80880000Y-127540000D03*
X80880000Y-125000000D03*
X80880000Y-122460000D03*
X80880000Y-119920000D03*
X80880000Y-117380000D03*
X80880000Y-114840000D03*
X80880000Y-112300000D03*
X80880000Y-109760000D03*
D38*
X88500000Y-86420000D03*
D39*
X88500000Y-88960000D03*
X88500000Y-91500000D03*
X88500000Y-94040000D03*
X88500000Y-96580000D03*
X88500000Y-99120000D03*
X88500000Y-101660000D03*
X88500000Y-104200000D03*
X80880000Y-104200000D03*
X80880000Y-101660000D03*
X80880000Y-99120000D03*
X80880000Y-96580000D03*
X80880000Y-94040000D03*
X80880000Y-91500000D03*
X80880000Y-88960000D03*
X80880000Y-86420000D03*
D34*
X45125000Y-68000000D03*
D35*
X47665000Y-68000000D03*
X50205000Y-68000000D03*
X52745000Y-68000000D03*
X55285000Y-68000000D03*
X57825000Y-68000000D03*
X60365000Y-68000000D03*
X62905000Y-68000000D03*
X62905000Y-75620000D03*
X60365000Y-75620000D03*
X57825000Y-75620000D03*
X55285000Y-75620000D03*
X52745000Y-75620000D03*
X50205000Y-75620000D03*
X47665000Y-75620000D03*
X45125000Y-75620000D03*
D40*
X82500000Y-72000000D03*
X232000000Y-72000000D03*
X83000000Y-125000000D03*
X85000000Y-72674500D03*
X83000000Y-102000000D03*
X234500000Y-72500000D03*
X83000000Y-151500000D03*
X83500000Y-104500000D03*
X237500000Y-73000000D03*
X87500000Y-73000000D03*
X83500000Y-127500000D03*
X242000000Y-38000000D03*
X49000000Y-156500000D03*
X273000000Y-55527000D03*
X274000000Y-156608000D03*
X275000000Y-156000000D03*
X275500000Y-55000000D03*
X68000000Y-156000000D03*
X271000000Y-119500000D03*
X252500000Y-75000000D03*
X271000000Y-75000000D03*
X272000000Y-121000000D03*
X270000000Y-56500000D03*
X254000000Y-56500000D03*
X40000000Y-59500000D03*
X66000000Y-62000000D03*
X259000000Y-44500000D03*
X116500000Y-61500000D03*
X116500000Y-53000000D03*
X40377354Y-58377354D03*
X261000000Y-46500000D03*
X263500000Y-45500000D03*
X68000000Y-62500000D03*
X117500000Y-54000000D03*
X117500000Y-62500000D03*
X266500000Y-42000000D03*
X269000000Y-42000000D03*
X276000000Y-126000000D03*
X80500000Y-79000000D03*
X86500000Y-22500000D03*
X100500000Y-145000000D03*
X276500000Y-107500000D03*
X100500000Y-137000000D03*
X276500000Y-89000000D03*
X276000000Y-145000000D03*
X124000000Y-39500000D03*
X271500000Y-63500000D03*
X269000000Y-95500000D03*
X266500000Y-115000000D03*
X268000000Y-70500000D03*
X268000000Y-139000000D03*
X242500000Y-35000000D03*
X252500000Y-47500000D03*
X242500000Y-47500000D03*
X250000000Y-46500000D03*
X241000000Y-35527000D03*
X241000000Y-46500000D03*
X247500000Y-48027000D03*
X240500000Y-48000000D03*
X240471870Y-36054000D03*
X239500000Y-48500000D03*
X245000000Y-48554000D03*
X239500000Y-36581000D03*
X241500000Y-49054000D03*
X238500000Y-42000000D03*
X238500000Y-49000000D03*
X240000000Y-49554000D03*
X237500000Y-49500000D03*
X237500000Y-42527000D03*
X225500000Y-31500000D03*
X146500000Y-24000000D03*
X56000000Y-26500000D03*
X106000000Y-86000000D03*
X101000000Y-59000000D03*
X54000000Y-58500000D03*
X127500000Y-86000000D03*
X124000000Y-59000000D03*
X51500000Y-57973000D03*
X149000000Y-86000000D03*
X144000000Y-59000000D03*
X49000000Y-57500000D03*
X170500000Y-86000000D03*
X170000000Y-56000000D03*
X56500000Y-57319000D03*
X192000000Y-86000000D03*
X42500000Y-60000000D03*
X185000000Y-60000000D03*
X208000000Y-51500000D03*
X55500000Y-57319000D03*
X213500000Y-86000000D03*
X48000000Y-57500000D03*
X207000000Y-50973000D03*
X235000000Y-86000000D03*
X208500000Y-94500000D03*
X203500000Y-50446000D03*
X202000000Y-94500000D03*
X256500000Y-86000000D03*
X53000000Y-55973000D03*
X111000000Y-104500000D03*
X79000000Y-102500000D03*
X78473000Y-100500000D03*
X132000000Y-104500000D03*
X154000000Y-104500000D03*
X84000000Y-89000000D03*
X84000000Y-99973000D03*
X175500000Y-104500000D03*
X93500000Y-86500000D03*
X197000000Y-104500000D03*
X93500000Y-101179000D03*
X92973000Y-96500000D03*
X218500000Y-104500000D03*
X92973000Y-100500000D03*
X92500000Y-89000000D03*
X92446000Y-99971870D03*
X240000000Y-104500000D03*
X261000000Y-104500000D03*
X91500000Y-99500000D03*
X91500000Y-94000000D03*
X106000000Y-123000000D03*
X79473000Y-130000000D03*
X78500000Y-131000000D03*
X127500000Y-123000000D03*
X77985931Y-131514069D03*
X149000000Y-123000000D03*
X170500000Y-123000000D03*
X80000000Y-131854000D03*
X94000000Y-132181000D03*
X192000000Y-123000000D03*
X94000000Y-110000000D03*
X93000000Y-132181000D03*
X93000000Y-120000000D03*
X213500000Y-123000000D03*
X92000000Y-112500000D03*
X92000000Y-132181000D03*
X235000000Y-123000000D03*
X91000000Y-132181000D03*
X91000000Y-117500000D03*
X256500000Y-123000000D03*
X79000000Y-152500000D03*
X111000000Y-142000000D03*
X78499250Y-153027050D03*
X132500000Y-142000000D03*
X77500000Y-153513006D03*
X154000000Y-142000000D03*
X175500000Y-142000000D03*
X83500000Y-144500000D03*
X82500000Y-154500000D03*
X197000000Y-142000000D03*
X90500000Y-154500000D03*
X84027000Y-154500000D03*
X218500000Y-142000000D03*
X84227003Y-144500000D03*
X85000000Y-155554000D03*
X240000000Y-142000000D03*
X85000000Y-136500000D03*
X91500000Y-141500000D03*
X91500000Y-155500000D03*
X261500000Y-142000000D03*
X162500000Y-77500000D03*
X189000000Y-78000000D03*
X216000000Y-79000000D03*
X81096836Y-72903164D03*
X161000000Y-76993500D03*
X188000000Y-77500000D03*
X70000000Y-73500000D03*
X80000000Y-73500000D03*
X214500000Y-78000000D03*
X81000000Y-27000000D03*
D41*
X82500000Y-72000000D02*
X232000000Y-72000000D01*
X70725687Y-72555500D02*
X70489187Y-72319000D01*
X82500000Y-72000000D02*
X82222164Y-71722164D01*
X78915102Y-72555500D02*
X70725687Y-72555500D01*
X79748439Y-71722164D02*
X78915102Y-72555500D01*
X82222164Y-71722164D02*
X79748439Y-71722164D01*
X61126000Y-72319000D02*
X57825000Y-75620000D01*
X70489187Y-72319000D02*
X61126000Y-72319000D01*
X79050550Y-72882500D02*
X79883887Y-72049164D01*
D42*
X83000000Y-125000000D02*
X82865000Y-124865000D01*
D41*
X81450575Y-72049164D02*
X82275911Y-72874500D01*
D42*
X82865000Y-124865000D02*
X80955000Y-124865000D01*
X83000000Y-102000000D02*
X82865000Y-101865000D01*
D41*
X85000000Y-72674500D02*
X85347500Y-72327000D01*
X85347500Y-72327000D02*
X88327000Y-72327000D01*
X88527000Y-72527000D02*
X234473000Y-72527000D01*
X70353739Y-72646000D02*
X70590239Y-72882500D01*
X79883887Y-72049164D02*
X81450575Y-72049164D01*
X70590239Y-72882500D02*
X79050550Y-72882500D01*
X60365000Y-75620000D02*
X63339000Y-72646000D01*
X84800000Y-72874500D02*
X85000000Y-72674500D01*
X82275911Y-72874500D02*
X84800000Y-72874500D01*
X234473000Y-72527000D02*
X234500000Y-72500000D01*
X88327000Y-72327000D02*
X88527000Y-72527000D01*
X63339000Y-72646000D02*
X70353739Y-72646000D01*
D42*
X82865000Y-101865000D02*
X80880000Y-101865000D01*
D41*
X70218291Y-72973000D02*
X70454791Y-73209500D01*
X79185998Y-73209500D02*
X80019335Y-72376164D01*
X82140463Y-73201500D02*
X87298500Y-73201500D01*
D42*
X82905000Y-151405000D02*
X80955000Y-151405000D01*
D41*
X237473000Y-73027000D02*
X237500000Y-73000000D01*
X81315127Y-72376164D02*
X82140463Y-73201500D01*
X87527000Y-73027000D02*
X237473000Y-73027000D01*
D42*
X83000000Y-151500000D02*
X82905000Y-151405000D01*
X83500000Y-127500000D02*
X83405000Y-127405000D01*
X83405000Y-127405000D02*
X80955000Y-127405000D01*
D41*
X80019335Y-72376164D02*
X81315127Y-72376164D01*
X62905000Y-75620000D02*
X65552000Y-72973000D01*
X87500000Y-73000000D02*
X87527000Y-73027000D01*
X87298500Y-73201500D02*
X87500000Y-73000000D01*
D42*
X83405000Y-104405000D02*
X80880000Y-104405000D01*
X83500000Y-104500000D02*
X83405000Y-104405000D01*
D41*
X70454791Y-73209500D02*
X79185998Y-73209500D01*
X65552000Y-72973000D02*
X70218291Y-72973000D01*
D42*
X140000000Y-53000000D02*
X142000000Y-55000000D01*
X142000000Y-55000000D02*
X236580000Y-55000000D01*
X236580000Y-55000000D02*
X238580000Y-53000000D01*
X137254000Y-55254000D02*
X238866000Y-55254000D01*
X238866000Y-55254000D02*
X241120000Y-53000000D01*
X135000000Y-53000000D02*
X137254000Y-55254000D01*
X242000000Y-38000000D02*
X241309500Y-37309500D01*
X241309500Y-37309500D02*
X141190500Y-37309500D01*
X141190500Y-37309500D02*
X140000000Y-38500000D01*
D41*
X68245291Y-156500000D02*
X273892000Y-156500000D01*
X248727000Y-55527000D02*
X246200000Y-53000000D01*
X273000000Y-55527000D02*
X248727000Y-55527000D01*
X49027000Y-156527000D02*
X68218291Y-156527000D01*
X68218291Y-156527000D02*
X68245291Y-156500000D01*
X49000000Y-156500000D02*
X49027000Y-156527000D01*
X273892000Y-156500000D02*
X274000000Y-156608000D01*
X274919000Y-156081000D02*
X275000000Y-156000000D01*
X68000000Y-156000000D02*
X68081000Y-156081000D01*
X250740000Y-55000000D02*
X248740000Y-53000000D01*
X275500000Y-55000000D02*
X250740000Y-55000000D01*
X68081000Y-156081000D02*
X274919000Y-156081000D01*
X67036829Y-119000000D02*
X70000000Y-119000000D01*
X94393000Y-118893000D02*
X95000000Y-119500000D01*
X70500000Y-119500000D02*
X79223802Y-119500000D01*
X48900000Y-120590320D02*
X65446509Y-120590320D01*
X79223802Y-119500000D02*
X79830802Y-118893000D01*
X271000000Y-75000000D02*
X252500000Y-75000000D01*
X79830802Y-118893000D02*
X94393000Y-118893000D01*
X65446509Y-120590320D02*
X67036829Y-119000000D01*
X95000000Y-119500000D02*
X271000000Y-119500000D01*
X70000000Y-119000000D02*
X70500000Y-119500000D01*
X67860000Y-120590320D02*
X79697923Y-120590320D01*
X79697923Y-120590320D02*
X80107603Y-121000000D01*
X270000000Y-56500000D02*
X254000000Y-56500000D01*
X80107603Y-121000000D02*
X272000000Y-121000000D01*
X237754709Y-50500000D02*
X253860000Y-50500000D01*
X40000000Y-59500000D02*
X44173000Y-55327000D01*
X237173709Y-49919000D02*
X237754709Y-50500000D01*
X253860000Y-50500000D02*
X256360000Y-53000000D01*
X44173000Y-55327000D02*
X128285656Y-55327000D01*
X133693656Y-49919000D02*
X237173709Y-49919000D01*
X128285656Y-55327000D02*
X133693656Y-49919000D01*
X237000000Y-44500000D02*
X259000000Y-44500000D01*
X232562000Y-48938000D02*
X237000000Y-44500000D01*
X66027000Y-61973000D02*
X116027000Y-61973000D01*
X116027000Y-61973000D02*
X116500000Y-61500000D01*
X120562000Y-48938000D02*
X232562000Y-48938000D01*
X116500000Y-53000000D02*
X120562000Y-48938000D01*
X66000000Y-62000000D02*
X66027000Y-61973000D01*
X128150208Y-55000000D02*
X133558208Y-49592000D01*
X43754708Y-55000000D02*
X128150208Y-55000000D01*
X233408000Y-49592000D02*
X237027000Y-45973000D01*
X40377354Y-58377354D02*
X43754708Y-55000000D01*
X260473000Y-45973000D02*
X261000000Y-46500000D01*
X133558208Y-49592000D02*
X233408000Y-49592000D01*
X237027000Y-45973000D02*
X260473000Y-45973000D01*
X128687760Y-54000000D02*
X133422760Y-49265000D01*
X117500000Y-54000000D02*
X128687760Y-54000000D01*
X237037552Y-45500000D02*
X263500000Y-45500000D01*
X133422760Y-49265000D02*
X233272552Y-49265000D01*
X68000000Y-62500000D02*
X117500000Y-62500000D01*
X233272552Y-49265000D02*
X237037552Y-45500000D01*
D42*
X266500000Y-42000000D02*
X266000000Y-41500000D01*
X247451720Y-41500000D02*
X244951720Y-39000000D01*
X266000000Y-41500000D02*
X247451720Y-41500000D01*
X268246000Y-41246000D02*
X248246000Y-41246000D01*
X269000000Y-42000000D02*
X268246000Y-41246000D01*
X248246000Y-41246000D02*
X247500000Y-40500000D01*
X247500000Y-35198280D02*
X244951720Y-32650000D01*
X247500000Y-40500000D02*
X247500000Y-35198280D01*
D41*
X243300000Y-89600000D02*
X242750000Y-89050000D01*
X210500000Y-144908644D02*
X209950000Y-145458644D01*
X188450000Y-108219548D02*
X168050000Y-108219548D01*
X221250000Y-89050000D02*
X220700000Y-89600000D01*
X189550000Y-145458644D02*
X189000000Y-144908644D01*
X146000000Y-144908644D02*
X145450000Y-145458644D01*
X276500000Y-89000000D02*
X276450000Y-89050000D01*
X166950000Y-145458644D02*
X146550000Y-145458644D01*
X134700000Y-126839096D02*
X114300000Y-126839096D01*
X146550000Y-108219548D02*
X146000000Y-107669548D01*
X68483000Y-77047000D02*
X69910000Y-75620000D01*
X157300000Y-89600000D02*
X156750000Y-89050000D01*
X232550000Y-108219548D02*
X232000000Y-107669548D01*
X189000000Y-144908644D02*
X188450000Y-145458644D01*
X135250000Y-89050000D02*
X134700000Y-89600000D01*
X275710904Y-126289096D02*
X264250000Y-126289096D01*
X232550000Y-145458644D02*
X232000000Y-144908644D01*
X156200000Y-89600000D02*
X135800000Y-89600000D01*
X157300000Y-126839096D02*
X156750000Y-126289096D01*
X275780452Y-108219548D02*
X254050000Y-108219548D01*
X242200000Y-126839096D02*
X221800000Y-126839096D01*
X243300000Y-126839096D02*
X242750000Y-126289096D01*
D42*
X90700195Y-136500000D02*
X89200195Y-135000000D01*
D41*
X263700000Y-126839096D02*
X243300000Y-126839096D01*
D42*
X84310000Y-29000000D02*
X55290000Y-29000000D01*
D41*
X178250000Y-126289096D02*
X177700000Y-126839096D01*
X167500000Y-107669548D02*
X166950000Y-108219548D01*
D42*
X192975000Y-64000000D02*
X191750000Y-65225000D01*
X55290000Y-29000000D02*
X53290000Y-31000000D01*
D41*
X189000000Y-107669548D02*
X188450000Y-108219548D01*
D42*
X192840500Y-39409500D02*
X191750000Y-40500000D01*
D41*
X156750000Y-89050000D02*
X156200000Y-89600000D01*
D42*
X124000000Y-39500000D02*
X124500000Y-40000000D01*
D41*
X178800000Y-89600000D02*
X178250000Y-89050000D01*
X45125000Y-75620000D02*
X46552000Y-77047000D01*
D42*
X191750000Y-40500000D02*
X190659500Y-39409500D01*
D41*
X221800000Y-89600000D02*
X221250000Y-89050000D01*
D42*
X276680000Y-68240000D02*
X273665000Y-65225000D01*
D41*
X220700000Y-89600000D02*
X200300000Y-89600000D01*
X189550000Y-108219548D02*
X189000000Y-107669548D01*
X82970452Y-107669548D02*
X103000000Y-107669548D01*
D42*
X69910000Y-75620000D02*
X73290000Y-79000000D01*
D41*
X188450000Y-145458644D02*
X168050000Y-145458644D01*
X125050000Y-108219548D02*
X124500000Y-107669548D01*
X252950000Y-145458644D02*
X232550000Y-145458644D01*
D42*
X163768122Y-38993122D02*
X165000000Y-40225000D01*
D41*
X178250000Y-89050000D02*
X177700000Y-89600000D01*
D42*
X100500000Y-145000000D02*
X100591356Y-144908644D01*
X191750000Y-65225000D02*
X190525000Y-64000000D01*
X190659500Y-39409500D02*
X165815500Y-39409500D01*
D41*
X177700000Y-89600000D02*
X157300000Y-89600000D01*
X254050000Y-108219548D02*
X253500000Y-107669548D01*
X231450000Y-108219548D02*
X211050000Y-108219548D01*
X276000000Y-126000000D02*
X275710904Y-126289096D01*
D42*
X86769500Y-22230500D02*
X86500000Y-22500000D01*
X100500000Y-137000000D02*
X100000000Y-136500000D01*
D41*
X80880000Y-109760000D02*
X82970452Y-107669548D01*
D42*
X149006878Y-38993122D02*
X163768122Y-38993122D01*
D41*
X114300000Y-126839096D02*
X113750000Y-126289096D01*
X221800000Y-126839096D02*
X221250000Y-126289096D01*
X124500000Y-144908644D02*
X123950000Y-145458644D01*
X199750000Y-126289096D02*
X199200000Y-126839096D01*
X114300000Y-89600000D02*
X113750000Y-89050000D01*
X46552000Y-77047000D02*
X68483000Y-77047000D01*
D42*
X148000000Y-40000000D02*
X149006878Y-38993122D01*
X165815500Y-39409500D02*
X165000000Y-40225000D01*
D41*
X263700000Y-89600000D02*
X243300000Y-89600000D01*
X199200000Y-126839096D02*
X178800000Y-126839096D01*
D42*
X166225000Y-64000000D02*
X165000000Y-65225000D01*
D41*
X134700000Y-89600000D02*
X114300000Y-89600000D01*
X264250000Y-126289096D02*
X263700000Y-126839096D01*
X276500000Y-107500000D02*
X275780452Y-108219548D01*
X252950000Y-108219548D02*
X232550000Y-108219548D01*
X135800000Y-126839096D02*
X135250000Y-126289096D01*
X123950000Y-145458644D02*
X103550000Y-145458644D01*
X146550000Y-145458644D02*
X146000000Y-144908644D01*
X135250000Y-126289096D02*
X134700000Y-126839096D01*
X232000000Y-144908644D02*
X231450000Y-145458644D01*
X103550000Y-145458644D02*
X103000000Y-144908644D01*
X103550000Y-108219548D02*
X103000000Y-107669548D01*
D42*
X86310000Y-31000000D02*
X84310000Y-29000000D01*
D41*
X276000000Y-145000000D02*
X275541356Y-145458644D01*
X242200000Y-89600000D02*
X221800000Y-89600000D01*
X231450000Y-145458644D02*
X211050000Y-145458644D01*
X156750000Y-126289096D02*
X156200000Y-126839096D01*
D42*
X89200195Y-135000000D02*
X82330000Y-135000000D01*
D41*
X211050000Y-108219548D02*
X210500000Y-107669548D01*
X177700000Y-126839096D02*
X157300000Y-126839096D01*
X200300000Y-89600000D02*
X199750000Y-89050000D01*
X199750000Y-89050000D02*
X199200000Y-89600000D01*
X264250000Y-89050000D02*
X263700000Y-89600000D01*
X200300000Y-126839096D02*
X199750000Y-126289096D01*
D42*
X82330000Y-135000000D02*
X80955000Y-133625000D01*
D41*
X242750000Y-89050000D02*
X242200000Y-89600000D01*
X276450000Y-89050000D02*
X264250000Y-89050000D01*
X232000000Y-107669548D02*
X231450000Y-108219548D01*
X125050000Y-145458644D02*
X124500000Y-144908644D01*
D42*
X120529500Y-22230500D02*
X86769500Y-22230500D01*
D41*
X199200000Y-89600000D02*
X178800000Y-89600000D01*
X211050000Y-145458644D02*
X210500000Y-144908644D01*
X275541356Y-145458644D02*
X254050000Y-145458644D01*
X156200000Y-126839096D02*
X135800000Y-126839096D01*
D42*
X273665000Y-65225000D02*
X218500000Y-65225000D01*
X218500000Y-40500000D02*
X217409500Y-39409500D01*
D41*
X220700000Y-126839096D02*
X200300000Y-126839096D01*
D42*
X124500000Y-40000000D02*
X148000000Y-40000000D01*
D41*
X168050000Y-108219548D02*
X167500000Y-107669548D01*
X254050000Y-145458644D02*
X253500000Y-144908644D01*
X253500000Y-107669548D02*
X252950000Y-108219548D01*
X253500000Y-144908644D02*
X252950000Y-145458644D01*
D42*
X100000000Y-136500000D02*
X90700195Y-136500000D01*
D41*
X168050000Y-145458644D02*
X167500000Y-144908644D01*
D42*
X100591356Y-144908644D02*
X103000000Y-144908644D01*
D41*
X145450000Y-145458644D02*
X125050000Y-145458644D01*
X210500000Y-107669548D02*
X209950000Y-108219548D01*
X209950000Y-108219548D02*
X189550000Y-108219548D01*
X123950000Y-108219548D02*
X103550000Y-108219548D01*
D42*
X121500000Y-21260000D02*
X120529500Y-22230500D01*
D41*
X145450000Y-108219548D02*
X125050000Y-108219548D01*
X166950000Y-108219548D02*
X146550000Y-108219548D01*
D42*
X217409500Y-39409500D02*
X192840500Y-39409500D01*
D41*
X124500000Y-107669548D02*
X123950000Y-108219548D01*
X209950000Y-145458644D02*
X189550000Y-145458644D01*
D42*
X190525000Y-64000000D02*
X166225000Y-64000000D01*
D41*
X242750000Y-126289096D02*
X242200000Y-126839096D01*
X167500000Y-144908644D02*
X166950000Y-145458644D01*
X146000000Y-107669548D02*
X145450000Y-108219548D01*
D42*
X217275000Y-64000000D02*
X192975000Y-64000000D01*
D41*
X135800000Y-89600000D02*
X135250000Y-89050000D01*
X178800000Y-126839096D02*
X178250000Y-126289096D01*
D42*
X73290000Y-79000000D02*
X80500000Y-79000000D01*
D41*
X221250000Y-126289096D02*
X220700000Y-126839096D01*
D42*
X218500000Y-65225000D02*
X217275000Y-64000000D01*
X76490000Y-66500000D02*
X272400000Y-66500000D01*
X74990000Y-68000000D02*
X76490000Y-66500000D01*
X272400000Y-66500000D02*
X274140000Y-68240000D01*
D41*
X52696302Y-65000000D02*
X157971000Y-65000000D01*
X159471000Y-63500000D02*
X271500000Y-63500000D01*
X50205000Y-67491302D02*
X52696302Y-65000000D01*
X157971000Y-65000000D02*
X159471000Y-63500000D01*
X50205000Y-68000000D02*
X50205000Y-67491302D01*
X102500000Y-95500000D02*
X269000000Y-95500000D01*
X88500000Y-91500000D02*
X90473000Y-93473000D01*
X100473000Y-93473000D02*
X102500000Y-95500000D01*
X90473000Y-93473000D02*
X100473000Y-93473000D01*
X266340000Y-114840000D02*
X266500000Y-115000000D01*
X88500000Y-114840000D02*
X266340000Y-114840000D01*
X266240000Y-70500000D02*
X263980000Y-68240000D01*
X88500000Y-139040000D02*
X267960000Y-139040000D01*
X268000000Y-70500000D02*
X266240000Y-70500000D01*
X267960000Y-139040000D02*
X268000000Y-139000000D01*
X87770000Y-35000000D02*
X242500000Y-35000000D01*
X242500000Y-47500000D02*
X252500000Y-47500000D01*
X83770000Y-31000000D02*
X87770000Y-35000000D01*
X241000000Y-46500000D02*
X250000000Y-46500000D01*
X85757000Y-35527000D02*
X241000000Y-35527000D01*
X81230000Y-31000000D02*
X85757000Y-35527000D01*
X78690000Y-31000000D02*
X83744000Y-36054000D01*
X247500000Y-48027000D02*
X240527000Y-48027000D01*
X240527000Y-48027000D02*
X240500000Y-48000000D01*
X83744000Y-36054000D02*
X240471870Y-36054000D01*
X239500000Y-48500000D02*
X239527000Y-48527000D01*
X239419000Y-36500000D02*
X239500000Y-36581000D01*
X76150000Y-31650000D02*
X81000000Y-36500000D01*
X81000000Y-36500000D02*
X239419000Y-36500000D01*
X239527000Y-48527000D02*
X244973000Y-48527000D01*
X76150000Y-31000000D02*
X76150000Y-31650000D01*
X244973000Y-48527000D02*
X245000000Y-48554000D01*
X74450000Y-42000000D02*
X238500000Y-42000000D01*
X238500000Y-49000000D02*
X238527000Y-49027000D01*
X241473000Y-49027000D02*
X241500000Y-49054000D01*
X238527000Y-49027000D02*
X241473000Y-49027000D01*
X63450000Y-31000000D02*
X74450000Y-42000000D01*
X74500000Y-42500000D02*
X237473000Y-42500000D01*
X237500000Y-49500000D02*
X237527000Y-49527000D01*
X239973000Y-49527000D02*
X240000000Y-49500000D01*
X58370000Y-31000000D02*
X69870000Y-42500000D01*
X237527000Y-49527000D02*
X239973000Y-49527000D01*
X237473000Y-42500000D02*
X237500000Y-42527000D01*
X240000000Y-49500000D02*
X240000000Y-49554000D01*
X69870000Y-42500000D02*
X74500000Y-42500000D01*
D42*
X225500000Y-31500000D02*
X224914500Y-30914500D01*
X128000000Y-24000000D02*
X146500000Y-24000000D01*
X149395500Y-30914500D02*
X149000000Y-31310000D01*
X224914500Y-30914500D02*
X149395500Y-30914500D01*
X119000000Y-26260000D02*
X56240000Y-26260000D01*
X56240000Y-26260000D02*
X56000000Y-26500000D01*
D41*
X101000000Y-59000000D02*
X100500000Y-58500000D01*
X100500000Y-58500000D02*
X54000000Y-58500000D01*
X106050000Y-85950000D02*
X106000000Y-86000000D01*
X113750000Y-85950000D02*
X106050000Y-85950000D01*
X100918291Y-58173000D02*
X54418291Y-58173000D01*
X123800000Y-58800000D02*
X101545291Y-58800000D01*
X54418291Y-58173000D02*
X54218291Y-57973000D01*
X101545291Y-58800000D02*
X100918291Y-58173000D01*
X135250000Y-85950000D02*
X127550000Y-85950000D01*
X54218291Y-57973000D02*
X51500000Y-57973000D01*
X127550000Y-85950000D02*
X127500000Y-86000000D01*
X124000000Y-59000000D02*
X123800000Y-58800000D01*
X49054000Y-57446000D02*
X49000000Y-57500000D01*
X101680739Y-58473000D02*
X101053739Y-57846000D01*
X54553739Y-57846000D02*
X54153739Y-57446000D01*
X144000000Y-59000000D02*
X143473000Y-58473000D01*
X54153739Y-57446000D02*
X49054000Y-57446000D01*
X101053739Y-57846000D02*
X54553739Y-57846000D01*
X156750000Y-85950000D02*
X149050000Y-85950000D01*
X149050000Y-85950000D02*
X149000000Y-86000000D01*
X143473000Y-58473000D02*
X101680739Y-58473000D01*
X178250000Y-85950000D02*
X170550000Y-85950000D01*
X170000000Y-56000000D02*
X169544500Y-55544500D01*
X154960321Y-57500000D02*
X56681000Y-57500000D01*
X56681000Y-57500000D02*
X56500000Y-57319000D01*
X169544500Y-55544500D02*
X156915821Y-55544500D01*
X156915821Y-55544500D02*
X154960321Y-57500000D01*
X170550000Y-85950000D02*
X170500000Y-86000000D01*
X42726300Y-59773700D02*
X42500000Y-60000000D01*
X192050000Y-85950000D02*
X192000000Y-86000000D01*
X185000000Y-60000000D02*
X184773700Y-59773700D01*
X199750000Y-85950000D02*
X192050000Y-85950000D01*
X184773700Y-59773700D02*
X42726300Y-59773700D01*
X213550000Y-85950000D02*
X213500000Y-86000000D01*
X208000000Y-51500000D02*
X133500000Y-51500000D01*
X221250000Y-85950000D02*
X213550000Y-85950000D01*
X133500000Y-51500000D02*
X128500000Y-56500000D01*
X56319000Y-56500000D02*
X55500000Y-57319000D01*
X128500000Y-56500000D02*
X56319000Y-56500000D01*
X56183552Y-56173000D02*
X128364552Y-56173000D01*
X208500000Y-94500000D02*
X208827000Y-94827000D01*
X48000000Y-57500000D02*
X49000000Y-56500000D01*
X55856552Y-56500000D02*
X56183552Y-56173000D01*
X133564552Y-50973000D02*
X207000000Y-50973000D01*
X242750000Y-85950000D02*
X235050000Y-85950000D01*
X235050000Y-85950000D02*
X235000000Y-86000000D01*
X208827000Y-94827000D02*
X230573000Y-94827000D01*
X128364552Y-56173000D02*
X133564552Y-50973000D01*
X49000000Y-56500000D02*
X55856552Y-56500000D01*
X230573000Y-94827000D02*
X232000000Y-93400000D01*
X202000000Y-94500000D02*
X205000000Y-94500000D01*
X264250000Y-85950000D02*
X256550000Y-85950000D01*
X205654000Y-95154000D02*
X251746000Y-95154000D01*
X53127000Y-55846000D02*
X53000000Y-55973000D01*
X256550000Y-85950000D02*
X256500000Y-86000000D01*
X205000000Y-94500000D02*
X205654000Y-95154000D01*
X203500000Y-50446000D02*
X133629104Y-50446000D01*
X128229104Y-55846000D02*
X53127000Y-55846000D01*
X133629104Y-50446000D02*
X128229104Y-55846000D01*
X251746000Y-95154000D02*
X253500000Y-93400000D01*
X101117452Y-102687000D02*
X103000000Y-104569548D01*
X79000000Y-102500000D02*
X79187000Y-102687000D01*
X79187000Y-102687000D02*
X101117452Y-102687000D01*
X110930452Y-104569548D02*
X111000000Y-104500000D01*
X103000000Y-104569548D02*
X110930452Y-104569548D01*
X123623000Y-103692548D02*
X102585448Y-103692548D01*
X124500000Y-104569548D02*
X123623000Y-103692548D01*
X102585448Y-103692548D02*
X101252900Y-102360000D01*
X91052397Y-102360000D02*
X89192397Y-100500000D01*
X101252900Y-102360000D02*
X91052397Y-102360000D01*
X131930452Y-104569548D02*
X132000000Y-104500000D01*
X124500000Y-104569548D02*
X131930452Y-104569548D01*
X89192397Y-100500000D02*
X78473000Y-100500000D01*
X153930452Y-104569548D02*
X154000000Y-104500000D01*
X84200000Y-100173000D02*
X84000000Y-99973000D01*
X102355348Y-103000000D02*
X101388348Y-102033000D01*
X89327845Y-100173000D02*
X84200000Y-100173000D01*
X84000000Y-89000000D02*
X83960000Y-88960000D01*
X101388348Y-102033000D02*
X91187845Y-102033000D01*
X146000000Y-104569548D02*
X144430452Y-103000000D01*
X144430452Y-103000000D02*
X102355348Y-103000000D01*
X83960000Y-88960000D02*
X80880000Y-88960000D01*
X146000000Y-104569548D02*
X153930452Y-104569548D01*
X91187845Y-102033000D02*
X89327845Y-100173000D01*
X167500000Y-104569548D02*
X175430452Y-104569548D01*
X102317796Y-102500000D02*
X101523796Y-101706000D01*
X165430452Y-102500000D02*
X102317796Y-102500000D01*
X82393000Y-98093000D02*
X80880000Y-96580000D01*
X92938397Y-101706000D02*
X89325397Y-98093000D01*
X175430452Y-104569548D02*
X175500000Y-104500000D01*
X89325397Y-98093000D02*
X82393000Y-98093000D01*
X167500000Y-104569548D02*
X165430452Y-102500000D01*
X101523796Y-101706000D02*
X92938397Y-101706000D01*
X93500000Y-86500000D02*
X93420000Y-86420000D01*
X189000000Y-104569548D02*
X186603452Y-102173000D01*
X102453244Y-102173000D02*
X101459244Y-101179000D01*
X101459244Y-101179000D02*
X93500000Y-101179000D01*
X196930452Y-104569548D02*
X197000000Y-104500000D01*
X186603452Y-102173000D02*
X102453244Y-102173000D01*
X93420000Y-86420000D02*
X88500000Y-86420000D01*
X189000000Y-104569548D02*
X196930452Y-104569548D01*
X218500000Y-104500000D02*
X218430452Y-104569548D01*
X92973000Y-96500000D02*
X92893000Y-96580000D01*
X218430452Y-104569548D02*
X210500000Y-104569548D01*
X101242692Y-100500000D02*
X92973000Y-100500000D01*
X207776452Y-101846000D02*
X102588692Y-101846000D01*
X92893000Y-96580000D02*
X88500000Y-96580000D01*
X102588692Y-101846000D02*
X101242692Y-100500000D01*
X210500000Y-104569548D02*
X207776452Y-101846000D01*
X232000000Y-104569548D02*
X228930452Y-101500000D01*
X101177010Y-99971870D02*
X92446000Y-99971870D01*
X92460000Y-88960000D02*
X88500000Y-88960000D01*
X228930452Y-101500000D02*
X102705140Y-101500000D01*
X92500000Y-89000000D02*
X92460000Y-88960000D01*
X232000000Y-104569548D02*
X239930452Y-104569548D01*
X239930452Y-104569548D02*
X240000000Y-104500000D01*
X102705140Y-101500000D02*
X101177010Y-99971870D01*
X91555130Y-99444870D02*
X91500000Y-99500000D01*
X260930452Y-104569548D02*
X261000000Y-104500000D01*
X250103452Y-101173000D02*
X102840588Y-101173000D01*
X253500000Y-104569548D02*
X250103452Y-101173000D01*
X102840588Y-101173000D02*
X101112458Y-99444870D01*
X91500000Y-94000000D02*
X91460000Y-94040000D01*
X91460000Y-94040000D02*
X88500000Y-94040000D01*
X253500000Y-104569548D02*
X260930452Y-104569548D01*
X101112458Y-99444870D02*
X91555130Y-99444870D01*
X113750000Y-123189096D02*
X106189096Y-123189096D01*
X79473000Y-130000000D02*
X80112096Y-130639096D01*
X80112096Y-130639096D02*
X103000000Y-130639096D01*
X106189096Y-123189096D02*
X106000000Y-123000000D01*
X78500000Y-131000000D02*
X100500000Y-131000000D01*
X102000000Y-132500000D02*
X122639096Y-132500000D01*
X100500000Y-131000000D02*
X102000000Y-132500000D01*
X122639096Y-132500000D02*
X124500000Y-130639096D01*
X127689096Y-123189096D02*
X127500000Y-123000000D01*
X135250000Y-123189096D02*
X127689096Y-123189096D01*
X101864552Y-132827000D02*
X100364552Y-131327000D01*
X143812096Y-132827000D02*
X101864552Y-132827000D01*
X100364552Y-131327000D02*
X78918291Y-131327000D01*
X156750000Y-123189096D02*
X149189096Y-123189096D01*
X146000000Y-130639096D02*
X143812096Y-132827000D01*
X77998862Y-131527000D02*
X77985931Y-131514069D01*
X149189096Y-123189096D02*
X149000000Y-123000000D01*
X78918291Y-131327000D02*
X78718291Y-131527000D01*
X78718291Y-131527000D02*
X77998862Y-131527000D01*
X170689096Y-123189096D02*
X170500000Y-123000000D01*
X164985096Y-133154000D02*
X167500000Y-130639096D01*
X100229104Y-131654000D02*
X101729104Y-133154000D01*
X178250000Y-123189096D02*
X170689096Y-123189096D01*
X101729104Y-133154000D02*
X164985096Y-133154000D01*
X80000000Y-131854000D02*
X80200000Y-131654000D01*
X80200000Y-131654000D02*
X100229104Y-131654000D01*
X94200000Y-131981000D02*
X94000000Y-132181000D01*
X189000000Y-130639096D02*
X188360904Y-130000000D01*
X94000000Y-110000000D02*
X93760000Y-109760000D01*
X199750000Y-123189096D02*
X192189096Y-123189096D01*
X93760000Y-109760000D02*
X88500000Y-109760000D01*
X192189096Y-123189096D02*
X192000000Y-123000000D01*
X188360904Y-130000000D02*
X184879904Y-133481000D01*
X100093656Y-131981000D02*
X94200000Y-131981000D01*
X101593656Y-133481000D02*
X100093656Y-131981000D01*
X184879904Y-133481000D02*
X101593656Y-133481000D01*
X93000000Y-120000000D02*
X92920000Y-119920000D01*
X93000000Y-132181000D02*
X94627000Y-133808000D01*
X221250000Y-123189096D02*
X213689096Y-123189096D01*
X92920000Y-119920000D02*
X88500000Y-119920000D01*
X213689096Y-123189096D02*
X213500000Y-123000000D01*
X94627000Y-133808000D02*
X207331096Y-133808000D01*
X207331096Y-133808000D02*
X210500000Y-130639096D01*
X92000000Y-112500000D02*
X91800000Y-112300000D01*
X228504096Y-134135000D02*
X93954000Y-134135000D01*
X242750000Y-123189096D02*
X235189096Y-123189096D01*
X93954000Y-134135000D02*
X92000000Y-132181000D01*
X91800000Y-112300000D02*
X88500000Y-112300000D01*
X232000000Y-130639096D02*
X228504096Y-134135000D01*
X235189096Y-123189096D02*
X235000000Y-123000000D01*
X264250000Y-123189096D02*
X256689096Y-123189096D01*
X253500000Y-130639096D02*
X249677096Y-134462000D01*
X249677096Y-134462000D02*
X93281000Y-134462000D01*
X256689096Y-123189096D02*
X256500000Y-123000000D01*
X91000000Y-117500000D02*
X90880000Y-117380000D01*
X93281000Y-134462000D02*
X91000000Y-132181000D01*
X90880000Y-117380000D02*
X88500000Y-117380000D01*
X110808644Y-141808644D02*
X111000000Y-142000000D01*
X113750000Y-149258644D02*
X110241644Y-152767000D01*
X79267000Y-152767000D02*
X79000000Y-152500000D01*
X103000000Y-141808644D02*
X110808644Y-141808644D01*
X110241644Y-152767000D02*
X79267000Y-152767000D01*
X78499250Y-153027050D02*
X78566200Y-153094000D01*
X111471092Y-152000000D02*
X132508644Y-152000000D01*
X124500000Y-141808644D02*
X132308644Y-141808644D01*
X132508644Y-152000000D02*
X135250000Y-149258644D01*
X110377092Y-153094000D02*
X111471092Y-152000000D01*
X132308644Y-141808644D02*
X132500000Y-142000000D01*
X78566200Y-153094000D02*
X110377092Y-153094000D01*
X153808644Y-141808644D02*
X154000000Y-142000000D01*
X77500000Y-153513006D02*
X77541044Y-153554050D01*
X146000000Y-141808644D02*
X153808644Y-141808644D01*
X78717541Y-153554050D02*
X78850591Y-153421000D01*
X78850591Y-153421000D02*
X110512540Y-153421000D01*
X110512540Y-153421000D02*
X111606540Y-152327000D01*
X77541044Y-153554050D02*
X78717541Y-153554050D01*
X153681644Y-152327000D02*
X156750000Y-149258644D01*
X111606540Y-152327000D02*
X153681644Y-152327000D01*
X175308644Y-141808644D02*
X175500000Y-142000000D01*
X174854644Y-152654000D02*
X178250000Y-149258644D01*
X83500000Y-144500000D02*
X83120000Y-144120000D01*
X83752000Y-153748000D02*
X110647988Y-153748000D01*
X83000000Y-154500000D02*
X83752000Y-153748000D01*
X83120000Y-144120000D02*
X80880000Y-144120000D01*
X111741988Y-152654000D02*
X174854644Y-152654000D01*
X110647988Y-153748000D02*
X111741988Y-152654000D01*
X82500000Y-154500000D02*
X83000000Y-154500000D01*
X167500000Y-141808644D02*
X175308644Y-141808644D01*
X196008644Y-153000000D02*
X111858436Y-153000000D01*
X111858436Y-153000000D02*
X110783436Y-154075000D01*
X110783436Y-154075000D02*
X90925000Y-154075000D01*
X196808644Y-141808644D02*
X197000000Y-142000000D01*
X90925000Y-154075000D02*
X90500000Y-154500000D01*
X199750000Y-149258644D02*
X196008644Y-153000000D01*
X189000000Y-141808644D02*
X196808644Y-141808644D01*
X111993884Y-153327000D02*
X217181644Y-153327000D01*
X217181644Y-153327000D02*
X221250000Y-149258644D01*
X84607003Y-144120000D02*
X88500000Y-144120000D01*
X84554000Y-155027000D02*
X90718291Y-155027000D01*
X91343291Y-154402000D02*
X110918884Y-154402000D01*
X210500000Y-141808644D02*
X218308644Y-141808644D01*
X84027000Y-154500000D02*
X84554000Y-155027000D01*
X110918884Y-154402000D02*
X111993884Y-153327000D01*
X90718291Y-155027000D02*
X91343291Y-154402000D01*
X84227003Y-144500000D02*
X84607003Y-144120000D01*
X218308644Y-141808644D02*
X218500000Y-142000000D01*
X220026727Y-152500000D02*
X239508644Y-152500000D01*
X239808644Y-141808644D02*
X240000000Y-142000000D01*
X90653739Y-155554000D02*
X91478739Y-154729000D01*
X218872727Y-153654000D02*
X220026727Y-152500000D01*
X232000000Y-141808644D02*
X239808644Y-141808644D01*
X239508644Y-152500000D02*
X242750000Y-149258644D01*
X85000000Y-136500000D02*
X88500000Y-136500000D01*
X85000000Y-155554000D02*
X90653739Y-155554000D01*
X111054332Y-154729000D02*
X112129332Y-153654000D01*
X112129332Y-153654000D02*
X218872727Y-153654000D01*
X91478739Y-154729000D02*
X111054332Y-154729000D01*
X259508644Y-154000000D02*
X112245780Y-154000000D01*
X264250000Y-149258644D02*
X259508644Y-154000000D01*
X111189780Y-155056000D02*
X91944000Y-155056000D01*
X112245780Y-154000000D02*
X111189780Y-155056000D01*
X261308644Y-141808644D02*
X253500000Y-141808644D01*
X91420000Y-141580000D02*
X88500000Y-141580000D01*
X91944000Y-155056000D02*
X91500000Y-155500000D01*
X91500000Y-141500000D02*
X91420000Y-141580000D01*
X261500000Y-142000000D02*
X261308644Y-141808644D01*
D42*
X79902000Y-77992000D02*
X77530000Y-75620000D01*
X162008000Y-77992000D02*
X79902000Y-77992000D01*
X162500000Y-77500000D02*
X162008000Y-77992000D01*
X188754000Y-78246000D02*
X77616000Y-78246000D01*
X189000000Y-78000000D02*
X188754000Y-78246000D01*
X77616000Y-78246000D02*
X74990000Y-75620000D01*
X216000000Y-79000000D02*
X215500000Y-78500000D01*
X215500000Y-78500000D02*
X75330000Y-78500000D01*
X75330000Y-78500000D02*
X72450000Y-75620000D01*
X81096836Y-72903164D02*
X81685672Y-73492000D01*
X88710420Y-73492000D02*
X92448420Y-77230000D01*
X92448420Y-77230000D02*
X160763500Y-77230000D01*
X160763500Y-77230000D02*
X161000000Y-76993500D01*
X81685672Y-73492000D02*
X88710420Y-73492000D01*
X162191618Y-76755500D02*
X162808382Y-76755500D01*
X70000000Y-73500000D02*
X79306328Y-73500000D01*
X80509500Y-73009500D02*
X81246000Y-73746000D01*
X161755500Y-77484000D02*
X161755500Y-77191618D01*
X161755500Y-77191618D02*
X162191618Y-76755500D01*
X79306328Y-73500000D02*
X79796828Y-73009500D01*
X92343210Y-77484000D02*
X161755500Y-77484000D01*
X88605210Y-73746000D02*
X92343210Y-77484000D01*
X79796828Y-73009500D02*
X80509500Y-73009500D01*
X162808382Y-76755500D02*
X163552882Y-77500000D01*
X81246000Y-73746000D02*
X88605210Y-73746000D01*
X163552882Y-77500000D02*
X188000000Y-77500000D01*
X80000000Y-73500000D02*
X80500000Y-74000000D01*
X163685672Y-77992000D02*
X188314328Y-77992000D01*
X162296828Y-77009500D02*
X162703172Y-77009500D01*
X162009500Y-77296828D02*
X162296828Y-77009500D01*
X161902790Y-77738000D02*
X162009500Y-77631290D01*
X92238000Y-77738000D02*
X161902790Y-77738000D01*
X80500000Y-74000000D02*
X88500000Y-74000000D01*
X162009500Y-77631290D02*
X162009500Y-77296828D01*
X162703172Y-77009500D02*
X163685672Y-77992000D01*
X88500000Y-74000000D02*
X92238000Y-77738000D01*
X214009500Y-77509500D02*
X214500000Y-78000000D01*
X188314328Y-77992000D02*
X188796828Y-77509500D01*
X188796828Y-77509500D02*
X214009500Y-77509500D01*
X124000000Y-22590001D02*
X147900001Y-22590001D01*
X82500000Y-22000000D02*
X82500000Y-23000000D01*
X147900001Y-22590001D02*
X149000000Y-23690000D01*
X83000000Y-23500000D02*
X123090001Y-23500000D01*
X123090001Y-23500000D02*
X124000000Y-22590001D01*
X82500000Y-23000000D02*
X83000000Y-23500000D01*
X134032071Y-27500000D02*
X135000000Y-28467929D01*
X81000000Y-27000000D02*
X81500000Y-27500000D01*
X135000000Y-28467929D02*
X135000000Y-30500000D01*
X81500000Y-27500000D02*
X134032071Y-27500000D01*
X135000000Y-30500000D02*
X137500000Y-33000000D01*
M02*
