G04 #@! TF.GenerationSoftware,KiCad,Pcbnew,7.0.11*
G04 #@! TF.CreationDate,2024-11-21T01:14:31-06:00*
G04 #@! TF.ProjectId,Sardinia_v0.2,53617264-696e-4696-915f-76302e322e6b,rev?*
G04 #@! TF.SameCoordinates,Original*
G04 #@! TF.FileFunction,Legend,Bot*
G04 #@! TF.FilePolarity,Positive*
%FSLAX46Y46*%
G04 Gerber Fmt 4.6, Leading zero omitted, Abs format (unit mm)*
G04 Created by KiCad (PCBNEW 7.0.11) date 2024-11-21 01:14:31*
%MOMM*%
%LPD*%
G01*
G04 APERTURE LIST*
G04 Aperture macros list*
%AMRoundRect*
0 Rectangle with rounded corners*
0 $1 Rounding radius*
0 $2 $3 $4 $5 $6 $7 $8 $9 X,Y pos of 4 corners*
0 Add a 4 corners polygon primitive as box body*
4,1,4,$2,$3,$4,$5,$6,$7,$8,$9,$2,$3,0*
0 Add four circle primitives for the rounded corners*
1,1,$1+$1,$2,$3*
1,1,$1+$1,$4,$5*
1,1,$1+$1,$6,$7*
1,1,$1+$1,$8,$9*
0 Add four rect primitives between the rounded corners*
20,1,$1+$1,$2,$3,$4,$5,0*
20,1,$1+$1,$4,$5,$6,$7,0*
20,1,$1+$1,$6,$7,$8,$9,0*
20,1,$1+$1,$8,$9,$2,$3,0*%
G04 Aperture macros list end*
%ADD10C,0.150000*%
%ADD11C,0.120000*%
%ADD12O,2.720000X3.240000*%
%ADD13R,1.800000X1.800000*%
%ADD14C,1.800000*%
%ADD15C,1.700000*%
%ADD16C,4.000000*%
%ADD17C,2.200000*%
%ADD18C,1.900000*%
%ADD19C,3.500000*%
%ADD20C,2.400000*%
%ADD21R,1.560000X1.560000*%
%ADD22C,1.560000*%
%ADD23R,2.200000X2.200000*%
%ADD24O,2.200000X2.200000*%
%ADD25R,2.000000X2.000000*%
%ADD26C,2.000000*%
%ADD27R,2.000000X3.200000*%
%ADD28R,1.800000X2.600000*%
%ADD29O,1.800000X2.600000*%
%ADD30R,3.500000X3.500000*%
%ADD31RoundRect,0.750000X-1.000000X0.750000X-1.000000X-0.750000X1.000000X-0.750000X1.000000X0.750000X0*%
%ADD32RoundRect,0.875000X-0.875000X0.875000X-0.875000X-0.875000X0.875000X-0.875000X0.875000X0.875000X0*%
%ADD33C,3.000000*%
%ADD34R,1.600000X1.600000*%
%ADD35C,1.600000*%
%ADD36RoundRect,0.250000X0.350000X0.625000X-0.350000X0.625000X-0.350000X-0.625000X0.350000X-0.625000X0*%
%ADD37O,1.200000X1.750000*%
%ADD38R,1.600000X2.400000*%
%ADD39O,1.600000X2.400000*%
%ADD40R,1.700000X1.700000*%
%ADD41R,2.400000X1.600000*%
%ADD42O,2.400000X1.600000*%
G04 APERTURE END LIST*
D10*
X142704819Y-24216666D02*
X143419104Y-24216666D01*
X143419104Y-24216666D02*
X143561961Y-24169047D01*
X143561961Y-24169047D02*
X143657200Y-24073809D01*
X143657200Y-24073809D02*
X143704819Y-23930952D01*
X143704819Y-23930952D02*
X143704819Y-23835714D01*
X142704819Y-24597619D02*
X142704819Y-25216666D01*
X142704819Y-25216666D02*
X143085771Y-24883333D01*
X143085771Y-24883333D02*
X143085771Y-25026190D01*
X143085771Y-25026190D02*
X143133390Y-25121428D01*
X143133390Y-25121428D02*
X143181009Y-25169047D01*
X143181009Y-25169047D02*
X143276247Y-25216666D01*
X143276247Y-25216666D02*
X143514342Y-25216666D01*
X143514342Y-25216666D02*
X143609580Y-25169047D01*
X143609580Y-25169047D02*
X143657200Y-25121428D01*
X143657200Y-25121428D02*
X143704819Y-25026190D01*
X143704819Y-25026190D02*
X143704819Y-24740476D01*
X143704819Y-24740476D02*
X143657200Y-24645238D01*
X143657200Y-24645238D02*
X143609580Y-24597619D01*
X263719485Y-46954819D02*
X263719485Y-47669104D01*
X263719485Y-47669104D02*
X263767104Y-47811961D01*
X263767104Y-47811961D02*
X263862342Y-47907200D01*
X263862342Y-47907200D02*
X264005199Y-47954819D01*
X264005199Y-47954819D02*
X264100437Y-47954819D01*
X263290913Y-47050057D02*
X263243294Y-47002438D01*
X263243294Y-47002438D02*
X263148056Y-46954819D01*
X263148056Y-46954819D02*
X262909961Y-46954819D01*
X262909961Y-46954819D02*
X262814723Y-47002438D01*
X262814723Y-47002438D02*
X262767104Y-47050057D01*
X262767104Y-47050057D02*
X262719485Y-47145295D01*
X262719485Y-47145295D02*
X262719485Y-47240533D01*
X262719485Y-47240533D02*
X262767104Y-47383390D01*
X262767104Y-47383390D02*
X263338532Y-47954819D01*
X263338532Y-47954819D02*
X262719485Y-47954819D01*
X237285053Y-46954819D02*
X237285053Y-47669104D01*
X237285053Y-47669104D02*
X237332672Y-47811961D01*
X237332672Y-47811961D02*
X237427910Y-47907200D01*
X237427910Y-47907200D02*
X237570767Y-47954819D01*
X237570767Y-47954819D02*
X237666005Y-47954819D01*
X236285053Y-47954819D02*
X236856481Y-47954819D01*
X236570767Y-47954819D02*
X236570767Y-46954819D01*
X236570767Y-46954819D02*
X236666005Y-47097676D01*
X236666005Y-47097676D02*
X236761243Y-47192914D01*
X236761243Y-47192914D02*
X236856481Y-47240533D01*
X126916666Y-20609580D02*
X126964285Y-20657200D01*
X126964285Y-20657200D02*
X127107142Y-20704819D01*
X127107142Y-20704819D02*
X127202380Y-20704819D01*
X127202380Y-20704819D02*
X127345237Y-20657200D01*
X127345237Y-20657200D02*
X127440475Y-20561961D01*
X127440475Y-20561961D02*
X127488094Y-20466723D01*
X127488094Y-20466723D02*
X127535713Y-20276247D01*
X127535713Y-20276247D02*
X127535713Y-20133390D01*
X127535713Y-20133390D02*
X127488094Y-19942914D01*
X127488094Y-19942914D02*
X127440475Y-19847676D01*
X127440475Y-19847676D02*
X127345237Y-19752438D01*
X127345237Y-19752438D02*
X127202380Y-19704819D01*
X127202380Y-19704819D02*
X127107142Y-19704819D01*
X127107142Y-19704819D02*
X126964285Y-19752438D01*
X126964285Y-19752438D02*
X126916666Y-19800057D01*
X125964285Y-20704819D02*
X126535713Y-20704819D01*
X126249999Y-20704819D02*
X126249999Y-19704819D01*
X126249999Y-19704819D02*
X126345237Y-19847676D01*
X126345237Y-19847676D02*
X126440475Y-19942914D01*
X126440475Y-19942914D02*
X126535713Y-19990533D01*
X82309523Y-20407200D02*
X82166666Y-20454819D01*
X82166666Y-20454819D02*
X81928571Y-20454819D01*
X81928571Y-20454819D02*
X81833333Y-20407200D01*
X81833333Y-20407200D02*
X81785714Y-20359580D01*
X81785714Y-20359580D02*
X81738095Y-20264342D01*
X81738095Y-20264342D02*
X81738095Y-20169104D01*
X81738095Y-20169104D02*
X81785714Y-20073866D01*
X81785714Y-20073866D02*
X81833333Y-20026247D01*
X81833333Y-20026247D02*
X81928571Y-19978628D01*
X81928571Y-19978628D02*
X82119047Y-19931009D01*
X82119047Y-19931009D02*
X82214285Y-19883390D01*
X82214285Y-19883390D02*
X82261904Y-19835771D01*
X82261904Y-19835771D02*
X82309523Y-19740533D01*
X82309523Y-19740533D02*
X82309523Y-19645295D01*
X82309523Y-19645295D02*
X82261904Y-19550057D01*
X82261904Y-19550057D02*
X82214285Y-19502438D01*
X82214285Y-19502438D02*
X82119047Y-19454819D01*
X82119047Y-19454819D02*
X81880952Y-19454819D01*
X81880952Y-19454819D02*
X81738095Y-19502438D01*
X81404761Y-19454819D02*
X81166666Y-20454819D01*
X81166666Y-20454819D02*
X80976190Y-19740533D01*
X80976190Y-19740533D02*
X80785714Y-20454819D01*
X80785714Y-20454819D02*
X80547619Y-19454819D01*
X79738095Y-19788152D02*
X79738095Y-20454819D01*
X79976190Y-19407200D02*
X80214285Y-20121485D01*
X80214285Y-20121485D02*
X79595238Y-20121485D01*
X78690476Y-20454819D02*
X79261904Y-20454819D01*
X78976190Y-20454819D02*
X78976190Y-19454819D01*
X78976190Y-19454819D02*
X79071428Y-19597676D01*
X79071428Y-19597676D02*
X79166666Y-19692914D01*
X79166666Y-19692914D02*
X79261904Y-19740533D01*
X67034819Y-71048095D02*
X67844342Y-71048095D01*
X67844342Y-71048095D02*
X67939580Y-71095714D01*
X67939580Y-71095714D02*
X67987200Y-71143333D01*
X67987200Y-71143333D02*
X68034819Y-71238571D01*
X68034819Y-71238571D02*
X68034819Y-71429047D01*
X68034819Y-71429047D02*
X67987200Y-71524285D01*
X67987200Y-71524285D02*
X67939580Y-71571904D01*
X67939580Y-71571904D02*
X67844342Y-71619523D01*
X67844342Y-71619523D02*
X67034819Y-71619523D01*
X67034819Y-72571904D02*
X67034819Y-72095714D01*
X67034819Y-72095714D02*
X67511009Y-72048095D01*
X67511009Y-72048095D02*
X67463390Y-72095714D01*
X67463390Y-72095714D02*
X67415771Y-72190952D01*
X67415771Y-72190952D02*
X67415771Y-72429047D01*
X67415771Y-72429047D02*
X67463390Y-72524285D01*
X67463390Y-72524285D02*
X67511009Y-72571904D01*
X67511009Y-72571904D02*
X67606247Y-72619523D01*
X67606247Y-72619523D02*
X67844342Y-72619523D01*
X67844342Y-72619523D02*
X67939580Y-72571904D01*
X67939580Y-72571904D02*
X67987200Y-72524285D01*
X67987200Y-72524285D02*
X68034819Y-72429047D01*
X68034819Y-72429047D02*
X68034819Y-72190952D01*
X68034819Y-72190952D02*
X67987200Y-72095714D01*
X67987200Y-72095714D02*
X67939580Y-72048095D01*
X224989104Y-59905714D02*
X224989104Y-60381904D01*
X225274819Y-59810476D02*
X224274819Y-60143809D01*
X224274819Y-60143809D02*
X225274819Y-60477142D01*
X225274819Y-61334285D02*
X225274819Y-60762857D01*
X225274819Y-61048571D02*
X224274819Y-61048571D01*
X224274819Y-61048571D02*
X224417676Y-60953333D01*
X224417676Y-60953333D02*
X224512914Y-60858095D01*
X224512914Y-60858095D02*
X224560533Y-60762857D01*
X85451904Y-131084819D02*
X85451904Y-131894342D01*
X85451904Y-131894342D02*
X85404285Y-131989580D01*
X85404285Y-131989580D02*
X85356666Y-132037200D01*
X85356666Y-132037200D02*
X85261428Y-132084819D01*
X85261428Y-132084819D02*
X85070952Y-132084819D01*
X85070952Y-132084819D02*
X84975714Y-132037200D01*
X84975714Y-132037200D02*
X84928095Y-131989580D01*
X84928095Y-131989580D02*
X84880476Y-131894342D01*
X84880476Y-131894342D02*
X84880476Y-131084819D01*
X83975714Y-131418152D02*
X83975714Y-132084819D01*
X84213809Y-131037200D02*
X84451904Y-131751485D01*
X84451904Y-131751485D02*
X83832857Y-131751485D01*
X85451904Y-106884819D02*
X85451904Y-107694342D01*
X85451904Y-107694342D02*
X85404285Y-107789580D01*
X85404285Y-107789580D02*
X85356666Y-107837200D01*
X85356666Y-107837200D02*
X85261428Y-107884819D01*
X85261428Y-107884819D02*
X85070952Y-107884819D01*
X85070952Y-107884819D02*
X84975714Y-107837200D01*
X84975714Y-107837200D02*
X84928095Y-107789580D01*
X84928095Y-107789580D02*
X84880476Y-107694342D01*
X84880476Y-107694342D02*
X84880476Y-106884819D01*
X84499523Y-106884819D02*
X83880476Y-106884819D01*
X83880476Y-106884819D02*
X84213809Y-107265771D01*
X84213809Y-107265771D02*
X84070952Y-107265771D01*
X84070952Y-107265771D02*
X83975714Y-107313390D01*
X83975714Y-107313390D02*
X83928095Y-107361009D01*
X83928095Y-107361009D02*
X83880476Y-107456247D01*
X83880476Y-107456247D02*
X83880476Y-107694342D01*
X83880476Y-107694342D02*
X83928095Y-107789580D01*
X83928095Y-107789580D02*
X83975714Y-107837200D01*
X83975714Y-107837200D02*
X84070952Y-107884819D01*
X84070952Y-107884819D02*
X84356666Y-107884819D01*
X84356666Y-107884819D02*
X84451904Y-107837200D01*
X84451904Y-107837200D02*
X84499523Y-107789580D01*
X85451904Y-83544819D02*
X85451904Y-84354342D01*
X85451904Y-84354342D02*
X85404285Y-84449580D01*
X85404285Y-84449580D02*
X85356666Y-84497200D01*
X85356666Y-84497200D02*
X85261428Y-84544819D01*
X85261428Y-84544819D02*
X85070952Y-84544819D01*
X85070952Y-84544819D02*
X84975714Y-84497200D01*
X84975714Y-84497200D02*
X84928095Y-84449580D01*
X84928095Y-84449580D02*
X84880476Y-84354342D01*
X84880476Y-84354342D02*
X84880476Y-83544819D01*
X84451904Y-83640057D02*
X84404285Y-83592438D01*
X84404285Y-83592438D02*
X84309047Y-83544819D01*
X84309047Y-83544819D02*
X84070952Y-83544819D01*
X84070952Y-83544819D02*
X83975714Y-83592438D01*
X83975714Y-83592438D02*
X83928095Y-83640057D01*
X83928095Y-83640057D02*
X83880476Y-83735295D01*
X83880476Y-83735295D02*
X83880476Y-83830533D01*
X83880476Y-83830533D02*
X83928095Y-83973390D01*
X83928095Y-83973390D02*
X84499523Y-84544819D01*
X84499523Y-84544819D02*
X83880476Y-84544819D01*
X42249819Y-71048095D02*
X43059342Y-71048095D01*
X43059342Y-71048095D02*
X43154580Y-71095714D01*
X43154580Y-71095714D02*
X43202200Y-71143333D01*
X43202200Y-71143333D02*
X43249819Y-71238571D01*
X43249819Y-71238571D02*
X43249819Y-71429047D01*
X43249819Y-71429047D02*
X43202200Y-71524285D01*
X43202200Y-71524285D02*
X43154580Y-71571904D01*
X43154580Y-71571904D02*
X43059342Y-71619523D01*
X43059342Y-71619523D02*
X42249819Y-71619523D01*
X43249819Y-72619523D02*
X43249819Y-72048095D01*
X43249819Y-72333809D02*
X42249819Y-72333809D01*
X42249819Y-72333809D02*
X42392676Y-72238571D01*
X42392676Y-72238571D02*
X42487914Y-72143333D01*
X42487914Y-72143333D02*
X42535533Y-72048095D01*
D11*
X142100000Y-19200000D02*
X132900000Y-19200000D01*
X132900000Y-19200000D02*
X132900000Y-33900000D01*
X142100000Y-28000000D02*
X142100000Y-19200000D01*
X132700000Y-33050000D02*
X132700000Y-34100000D01*
X142100000Y-33900000D02*
X142100000Y-32000000D01*
X139400000Y-33900000D02*
X142100000Y-33900000D01*
X132900000Y-33900000D02*
X135500000Y-33900000D01*
X133750000Y-34100000D02*
X132700000Y-34100000D01*
X259301152Y-45950000D02*
X259301152Y-43030000D01*
X259341152Y-45950000D02*
X268241152Y-45950000D01*
X268241152Y-45950000D02*
X268241152Y-43030000D01*
X254551152Y-43030000D02*
X259301152Y-43030000D01*
X268241152Y-43030000D02*
X272991152Y-43030000D01*
X272991152Y-43030000D02*
X272991152Y-40400000D01*
X254551152Y-40400000D02*
X254551152Y-43030000D01*
X272991152Y-37600000D02*
X272991152Y-34000000D01*
X254551152Y-34000000D02*
X254551152Y-37600000D01*
X272991152Y-31300000D02*
X272991152Y-27700000D01*
X254551152Y-27700000D02*
X254551152Y-31300000D01*
X254551152Y-22180000D02*
X254551152Y-24900000D01*
X254551152Y-22180000D02*
X257951152Y-22180000D01*
X257951152Y-22180000D02*
X257951152Y-19180000D01*
X269591152Y-22180000D02*
X272991152Y-22180000D01*
X269591152Y-22180000D02*
X269591152Y-19180000D01*
X272991152Y-22180000D02*
X272991152Y-24900000D01*
X257951152Y-19180000D02*
X269591152Y-19180000D01*
X232366720Y-45950000D02*
X232366720Y-43030000D01*
X232406720Y-45950000D02*
X241306720Y-45950000D01*
X241306720Y-45950000D02*
X241306720Y-43030000D01*
X227616720Y-43030000D02*
X232366720Y-43030000D01*
X241306720Y-43030000D02*
X246056720Y-43030000D01*
X246056720Y-43030000D02*
X246056720Y-40400000D01*
X227616720Y-40400000D02*
X227616720Y-43030000D01*
X246056720Y-37600000D02*
X246056720Y-34000000D01*
X227616720Y-34000000D02*
X227616720Y-37600000D01*
X246056720Y-31300000D02*
X246056720Y-27700000D01*
X227616720Y-27700000D02*
X227616720Y-31300000D01*
X227616720Y-22180000D02*
X227616720Y-24900000D01*
X227616720Y-22180000D02*
X231016720Y-22180000D01*
X231016720Y-22180000D02*
X231016720Y-19180000D01*
X242656720Y-22180000D02*
X246056720Y-22180000D01*
X242656720Y-22180000D02*
X242656720Y-19180000D01*
X246056720Y-22180000D02*
X246056720Y-24900000D01*
X231016720Y-19180000D02*
X242656720Y-19180000D01*
X129554775Y-22525000D02*
X129054775Y-22525000D01*
X129304775Y-22275000D02*
X129304775Y-22775000D01*
X126750000Y-21420000D02*
X126750000Y-26580000D01*
X126710000Y-21420000D02*
X126710000Y-26580000D01*
X126670000Y-21421000D02*
X126670000Y-26579000D01*
X126630000Y-21422000D02*
X126630000Y-26578000D01*
X126590000Y-21424000D02*
X126590000Y-26576000D01*
X126550000Y-21427000D02*
X126550000Y-26573000D01*
X126510000Y-25040000D02*
X126510000Y-26569000D01*
X126510000Y-21431000D02*
X126510000Y-22960000D01*
X126470000Y-25040000D02*
X126470000Y-26565000D01*
X126470000Y-21435000D02*
X126470000Y-22960000D01*
X126430000Y-25040000D02*
X126430000Y-26561000D01*
X126430000Y-21439000D02*
X126430000Y-22960000D01*
X126390000Y-25040000D02*
X126390000Y-26556000D01*
X126390000Y-21444000D02*
X126390000Y-22960000D01*
X126350000Y-25040000D02*
X126350000Y-26550000D01*
X126350000Y-21450000D02*
X126350000Y-22960000D01*
X126310000Y-25040000D02*
X126310000Y-26543000D01*
X126310000Y-21457000D02*
X126310000Y-22960000D01*
X126270000Y-25040000D02*
X126270000Y-26536000D01*
X126270000Y-21464000D02*
X126270000Y-22960000D01*
X126230000Y-25040000D02*
X126230000Y-26528000D01*
X126230000Y-21472000D02*
X126230000Y-22960000D01*
X126190000Y-25040000D02*
X126190000Y-26520000D01*
X126190000Y-21480000D02*
X126190000Y-22960000D01*
X126150000Y-25040000D02*
X126150000Y-26511000D01*
X126150000Y-21489000D02*
X126150000Y-22960000D01*
X126110000Y-25040000D02*
X126110000Y-26501000D01*
X126110000Y-21499000D02*
X126110000Y-22960000D01*
X126070000Y-25040000D02*
X126070000Y-26491000D01*
X126070000Y-21509000D02*
X126070000Y-22960000D01*
X126029000Y-25040000D02*
X126029000Y-26480000D01*
X126029000Y-21520000D02*
X126029000Y-22960000D01*
X125989000Y-25040000D02*
X125989000Y-26468000D01*
X125989000Y-21532000D02*
X125989000Y-22960000D01*
X125949000Y-25040000D02*
X125949000Y-26455000D01*
X125949000Y-21545000D02*
X125949000Y-22960000D01*
X125909000Y-25040000D02*
X125909000Y-26442000D01*
X125909000Y-21558000D02*
X125909000Y-22960000D01*
X125869000Y-25040000D02*
X125869000Y-26428000D01*
X125869000Y-21572000D02*
X125869000Y-22960000D01*
X125829000Y-25040000D02*
X125829000Y-26414000D01*
X125829000Y-21586000D02*
X125829000Y-22960000D01*
X125789000Y-25040000D02*
X125789000Y-26398000D01*
X125789000Y-21602000D02*
X125789000Y-22960000D01*
X125749000Y-25040000D02*
X125749000Y-26382000D01*
X125749000Y-21618000D02*
X125749000Y-22960000D01*
X125709000Y-25040000D02*
X125709000Y-26365000D01*
X125709000Y-21635000D02*
X125709000Y-22960000D01*
X125669000Y-25040000D02*
X125669000Y-26348000D01*
X125669000Y-21652000D02*
X125669000Y-22960000D01*
X125629000Y-25040000D02*
X125629000Y-26329000D01*
X125629000Y-21671000D02*
X125629000Y-22960000D01*
X125589000Y-25040000D02*
X125589000Y-26310000D01*
X125589000Y-21690000D02*
X125589000Y-22960000D01*
X125549000Y-25040000D02*
X125549000Y-26290000D01*
X125549000Y-21710000D02*
X125549000Y-22960000D01*
X125509000Y-25040000D02*
X125509000Y-26268000D01*
X125509000Y-21732000D02*
X125509000Y-22960000D01*
X125469000Y-25040000D02*
X125469000Y-26247000D01*
X125469000Y-21753000D02*
X125469000Y-22960000D01*
X125429000Y-25040000D02*
X125429000Y-26224000D01*
X125429000Y-21776000D02*
X125429000Y-22960000D01*
X125389000Y-25040000D02*
X125389000Y-26200000D01*
X125389000Y-21800000D02*
X125389000Y-22960000D01*
X125349000Y-25040000D02*
X125349000Y-26175000D01*
X125349000Y-21825000D02*
X125349000Y-22960000D01*
X125309000Y-25040000D02*
X125309000Y-26149000D01*
X125309000Y-21851000D02*
X125309000Y-22960000D01*
X125269000Y-25040000D02*
X125269000Y-26122000D01*
X125269000Y-21878000D02*
X125269000Y-22960000D01*
X125229000Y-25040000D02*
X125229000Y-26095000D01*
X125229000Y-21905000D02*
X125229000Y-22960000D01*
X125189000Y-25040000D02*
X125189000Y-26065000D01*
X125189000Y-21935000D02*
X125189000Y-22960000D01*
X125149000Y-25040000D02*
X125149000Y-26035000D01*
X125149000Y-21965000D02*
X125149000Y-22960000D01*
X125109000Y-25040000D02*
X125109000Y-26004000D01*
X125109000Y-21996000D02*
X125109000Y-22960000D01*
X125069000Y-25040000D02*
X125069000Y-25971000D01*
X125069000Y-22029000D02*
X125069000Y-22960000D01*
X125029000Y-25040000D02*
X125029000Y-25937000D01*
X125029000Y-22063000D02*
X125029000Y-22960000D01*
X124989000Y-25040000D02*
X124989000Y-25901000D01*
X124989000Y-22099000D02*
X124989000Y-22960000D01*
X124949000Y-25040000D02*
X124949000Y-25864000D01*
X124949000Y-22136000D02*
X124949000Y-22960000D01*
X124909000Y-25040000D02*
X124909000Y-25826000D01*
X124909000Y-22174000D02*
X124909000Y-22960000D01*
X124869000Y-25040000D02*
X124869000Y-25785000D01*
X124869000Y-22215000D02*
X124869000Y-22960000D01*
X124829000Y-25040000D02*
X124829000Y-25743000D01*
X124829000Y-22257000D02*
X124829000Y-22960000D01*
X124789000Y-25040000D02*
X124789000Y-25699000D01*
X124789000Y-22301000D02*
X124789000Y-22960000D01*
X124749000Y-25040000D02*
X124749000Y-25653000D01*
X124749000Y-22347000D02*
X124749000Y-22960000D01*
X124709000Y-25040000D02*
X124709000Y-25605000D01*
X124709000Y-22395000D02*
X124709000Y-22960000D01*
X124669000Y-25040000D02*
X124669000Y-25554000D01*
X124669000Y-22446000D02*
X124669000Y-22960000D01*
X124629000Y-25040000D02*
X124629000Y-25500000D01*
X124629000Y-22500000D02*
X124629000Y-22960000D01*
X124589000Y-25040000D02*
X124589000Y-25443000D01*
X124589000Y-22557000D02*
X124589000Y-22960000D01*
X124549000Y-25040000D02*
X124549000Y-25383000D01*
X124549000Y-22617000D02*
X124549000Y-22960000D01*
X124509000Y-25040000D02*
X124509000Y-25319000D01*
X124509000Y-22681000D02*
X124509000Y-22960000D01*
X124469000Y-25040000D02*
X124469000Y-25251000D01*
X124469000Y-22749000D02*
X124469000Y-22960000D01*
X124429000Y-22822000D02*
X124429000Y-25178000D01*
X124389000Y-22902000D02*
X124389000Y-25098000D01*
X124349000Y-22989000D02*
X124349000Y-25011000D01*
X124309000Y-23085000D02*
X124309000Y-24915000D01*
X124269000Y-23195000D02*
X124269000Y-24805000D01*
X124229000Y-23323000D02*
X124229000Y-24677000D01*
X124189000Y-23482000D02*
X124189000Y-24518000D01*
X124149000Y-23716000D02*
X124149000Y-24284000D01*
X129370000Y-24000000D02*
G75*
G03*
X124130000Y-24000000I-2620000J0D01*
G01*
X124130000Y-24000000D02*
G75*
G03*
X129370000Y-24000000I2620000J0D01*
G01*
X84860000Y-20390000D02*
X84860000Y-21640000D01*
X84560000Y-25410000D02*
X76440000Y-25410000D01*
X84560000Y-23300000D02*
X83950000Y-23300000D01*
X84560000Y-22000000D02*
X83950000Y-22000000D01*
X84560000Y-20690000D02*
X84560000Y-25410000D01*
X83950000Y-24800000D02*
X77050000Y-24800000D01*
X83950000Y-21300000D02*
X83950000Y-24800000D01*
X83610000Y-20390000D02*
X84860000Y-20390000D01*
X83100000Y-20490000D02*
X83100000Y-20690000D01*
X82800000Y-20690000D02*
X82800000Y-20490000D01*
X82800000Y-20590000D02*
X83100000Y-20590000D01*
X82800000Y-20490000D02*
X83100000Y-20490000D01*
X82000000Y-21300000D02*
X83950000Y-21300000D01*
X82000000Y-20690000D02*
X82000000Y-21300000D01*
X81600000Y-24800000D02*
X81600000Y-24300000D01*
X81600000Y-24300000D02*
X81400000Y-24300000D01*
X81500000Y-24800000D02*
X81500000Y-24300000D01*
X81400000Y-24300000D02*
X81400000Y-24800000D01*
X79600000Y-24800000D02*
X79600000Y-24300000D01*
X79600000Y-24300000D02*
X79400000Y-24300000D01*
X79500000Y-24800000D02*
X79500000Y-24300000D01*
X79400000Y-24300000D02*
X79400000Y-24800000D01*
X79000000Y-21300000D02*
X79000000Y-20690000D01*
X77050000Y-24800000D02*
X77050000Y-21300000D01*
X77050000Y-21300000D02*
X79000000Y-21300000D01*
X76440000Y-25410000D02*
X76440000Y-20690000D01*
X76440000Y-23300000D02*
X77050000Y-23300000D01*
X76440000Y-22000000D02*
X77050000Y-22000000D01*
X76440000Y-20690000D02*
X84560000Y-20690000D01*
X89020000Y-69560000D02*
X89020000Y-74060000D01*
X68580000Y-69560000D02*
X89020000Y-69560000D01*
X68580000Y-70810000D02*
X68580000Y-69560000D01*
X89020000Y-74060000D02*
X68580000Y-74060000D01*
X68580000Y-74060000D02*
X68580000Y-72810000D01*
X68580000Y-72810000D02*
G75*
G03*
X68580000Y-70810000I0J1000000D01*
G01*
X226720000Y-51420000D02*
X229120000Y-51420000D01*
X278020000Y-51720000D02*
X227020000Y-51720000D01*
X227020000Y-51720000D02*
X227020000Y-69520000D01*
X226720000Y-53720000D02*
X226720000Y-51420000D01*
X227020000Y-54200000D02*
X278020000Y-54200000D01*
X227020000Y-56620000D02*
X225820000Y-56620000D01*
X225820000Y-56620000D02*
X225820000Y-64620000D01*
X225820000Y-64620000D02*
X227020000Y-64620000D01*
X227020000Y-67000000D02*
X278020000Y-67000000D01*
X278020000Y-69520000D02*
X278020000Y-51720000D01*
X227020000Y-69520000D02*
X278020000Y-69520000D01*
X86940000Y-153070000D02*
X82440000Y-153070000D01*
X86940000Y-132630000D02*
X86940000Y-153070000D01*
X85690000Y-132630000D02*
X86940000Y-132630000D01*
X82440000Y-153070000D02*
X82440000Y-132630000D01*
X82440000Y-132630000D02*
X83690000Y-132630000D01*
X83690000Y-132630000D02*
G75*
G03*
X85690000Y-132630000I1000000J0D01*
G01*
X86940000Y-128870000D02*
X82440000Y-128870000D01*
X86940000Y-108430000D02*
X86940000Y-128870000D01*
X85690000Y-108430000D02*
X86940000Y-108430000D01*
X82440000Y-128870000D02*
X82440000Y-108430000D01*
X82440000Y-108430000D02*
X83690000Y-108430000D01*
X83690000Y-108430000D02*
G75*
G03*
X85690000Y-108430000I1000000J0D01*
G01*
X86940000Y-105530000D02*
X82440000Y-105530000D01*
X86940000Y-85090000D02*
X86940000Y-105530000D01*
X85690000Y-85090000D02*
X86940000Y-85090000D01*
X82440000Y-105530000D02*
X82440000Y-85090000D01*
X82440000Y-85090000D02*
X83690000Y-85090000D01*
X83690000Y-85090000D02*
G75*
G03*
X85690000Y-85090000I1000000J0D01*
G01*
X64235000Y-69560000D02*
X64235000Y-74060000D01*
X43795000Y-69560000D02*
X64235000Y-69560000D01*
X43795000Y-70810000D02*
X43795000Y-69560000D01*
X64235000Y-74060000D02*
X43795000Y-74060000D01*
X43795000Y-74060000D02*
X43795000Y-72810000D01*
X43795000Y-72810000D02*
G75*
G03*
X43795000Y-70810000I0J1000000D01*
G01*
%LPC*%
D12*
X211200000Y-57725000D03*
X220800000Y-57725000D03*
D13*
X213500000Y-65225000D03*
D14*
X216000000Y-65225000D03*
X218500000Y-65225000D03*
D15*
X66590000Y-141749868D03*
D16*
X71670000Y-141749868D03*
D15*
X76750000Y-141749868D03*
D17*
X74210000Y-136669868D03*
X67860000Y-139209868D03*
D18*
X215750000Y-106119548D03*
D19*
X221250000Y-106119548D03*
D18*
X226750000Y-106119548D03*
D20*
X216250000Y-109919548D03*
X221250000Y-112019548D03*
D18*
X129750000Y-106119548D03*
D19*
X135250000Y-106119548D03*
D18*
X140750000Y-106119548D03*
D20*
X130250000Y-109919548D03*
X135250000Y-112019548D03*
D18*
X140500000Y-87500000D03*
D19*
X146000000Y-87500000D03*
D18*
X151500000Y-87500000D03*
D20*
X141000000Y-91300000D03*
X146000000Y-93400000D03*
D18*
X215750000Y-143358644D03*
D19*
X221250000Y-143358644D03*
D18*
X226750000Y-143358644D03*
D20*
X216250000Y-147158644D03*
X221250000Y-149258644D03*
D18*
X248000000Y-124739096D03*
D19*
X253500000Y-124739096D03*
D18*
X259000000Y-124739096D03*
D20*
X248500000Y-128539096D03*
X253500000Y-130639096D03*
D18*
X258750000Y-106119548D03*
D19*
X264250000Y-106119548D03*
D18*
X269750000Y-106119548D03*
D20*
X259250000Y-109919548D03*
X264250000Y-112019548D03*
D18*
X183500000Y-87500000D03*
D19*
X189000000Y-87500000D03*
D18*
X194500000Y-87500000D03*
D20*
X184000000Y-91300000D03*
X189000000Y-93400000D03*
D18*
X97500000Y-87500000D03*
D19*
X103000000Y-87500000D03*
D18*
X108500000Y-87500000D03*
D20*
X98000000Y-91300000D03*
X103000000Y-93400000D03*
D18*
X108250000Y-106119548D03*
D19*
X113750000Y-106119548D03*
D18*
X119250000Y-106119548D03*
D20*
X108750000Y-109919548D03*
X113750000Y-112019548D03*
D21*
X116500000Y-21260000D03*
D22*
X119000000Y-26260000D03*
X121500000Y-21260000D03*
D15*
X47630000Y-123130320D03*
D16*
X52710000Y-123130320D03*
D15*
X57790000Y-123130320D03*
D17*
X55250000Y-118050320D03*
X48900000Y-120590320D03*
D23*
X149000000Y-31310000D03*
D24*
X149000000Y-23690000D03*
D18*
X226500000Y-124739096D03*
D19*
X232000000Y-124739096D03*
D18*
X237500000Y-124739096D03*
D20*
X227000000Y-128539096D03*
X232000000Y-130639096D03*
D15*
X47630000Y-85891224D03*
D16*
X52710000Y-85891224D03*
D15*
X57790000Y-85891224D03*
D17*
X55250000Y-80811224D03*
X48900000Y-83351224D03*
D18*
X237250000Y-143358644D03*
D19*
X242750000Y-143358644D03*
D18*
X248250000Y-143358644D03*
D20*
X237750000Y-147158644D03*
X242750000Y-149258644D03*
D25*
X135000000Y-53000000D03*
D26*
X140000000Y-53000000D03*
X137500000Y-53000000D03*
D27*
X131900000Y-45500000D03*
X143100000Y-45500000D03*
D26*
X140000000Y-38500000D03*
X135000000Y-38500000D03*
D18*
X258750000Y-143358644D03*
D19*
X264250000Y-143358644D03*
D18*
X269750000Y-143358644D03*
D20*
X259250000Y-147158644D03*
X264250000Y-149258644D03*
D15*
X66590000Y-85891224D03*
D16*
X71670000Y-85891224D03*
D15*
X76750000Y-85891224D03*
D17*
X74210000Y-80811224D03*
X67860000Y-83351224D03*
D18*
X129750000Y-143358644D03*
D19*
X135250000Y-143358644D03*
D18*
X140750000Y-143358644D03*
D20*
X130250000Y-147158644D03*
X135250000Y-149258644D03*
D18*
X237250000Y-106119548D03*
D19*
X242750000Y-106119548D03*
D18*
X248250000Y-106119548D03*
D20*
X237750000Y-109919548D03*
X242750000Y-112019548D03*
D18*
X97500000Y-124739096D03*
D19*
X103000000Y-124739096D03*
D18*
X108500000Y-124739096D03*
D20*
X98000000Y-128539096D03*
X103000000Y-130639096D03*
D18*
X194250000Y-106119548D03*
D19*
X199750000Y-106119548D03*
D18*
X205250000Y-106119548D03*
D20*
X194750000Y-109919548D03*
X199750000Y-112019548D03*
D12*
X157700000Y-57725000D03*
X167300000Y-57725000D03*
D13*
X160000000Y-65225000D03*
D14*
X162500000Y-65225000D03*
X165000000Y-65225000D03*
D18*
X226500000Y-87500000D03*
D19*
X232000000Y-87500000D03*
D18*
X237500000Y-87500000D03*
D20*
X227000000Y-91300000D03*
X232000000Y-93400000D03*
D18*
X140500000Y-124739096D03*
D19*
X146000000Y-124739096D03*
D18*
X151500000Y-124739096D03*
D20*
X141000000Y-128539096D03*
X146000000Y-130639096D03*
D18*
X205000000Y-124739096D03*
D19*
X210500000Y-124739096D03*
D18*
X216000000Y-124739096D03*
D20*
X205500000Y-128539096D03*
X210500000Y-130639096D03*
D18*
X162000000Y-124739096D03*
D19*
X167500000Y-124739096D03*
D18*
X173000000Y-124739096D03*
D20*
X162500000Y-128539096D03*
X167500000Y-130639096D03*
D18*
X172750000Y-143358644D03*
D19*
X178250000Y-143358644D03*
D18*
X183750000Y-143358644D03*
D20*
X173250000Y-147158644D03*
X178250000Y-149258644D03*
D12*
X211200000Y-33000000D03*
X220800000Y-33000000D03*
D13*
X213500000Y-40500000D03*
D14*
X216000000Y-40500000D03*
X218500000Y-40500000D03*
D12*
X184450000Y-33000000D03*
X194050000Y-33000000D03*
D13*
X186750000Y-40500000D03*
D14*
X189250000Y-40500000D03*
X191750000Y-40500000D03*
D18*
X108250000Y-143358644D03*
D19*
X113750000Y-143358644D03*
D18*
X119250000Y-143358644D03*
D20*
X108750000Y-147158644D03*
X113750000Y-149258644D03*
D18*
X119000000Y-124739096D03*
D19*
X124500000Y-124739096D03*
D18*
X130000000Y-124739096D03*
D20*
X119500000Y-128539096D03*
X124500000Y-130639096D03*
D12*
X157700000Y-32725000D03*
X167300000Y-32725000D03*
D13*
X160000000Y-40225000D03*
D14*
X162500000Y-40225000D03*
X165000000Y-40225000D03*
D16*
X45250900Y-31000000D03*
X45250900Y-62000700D03*
X120249480Y-62000700D03*
X120250000Y-31000000D03*
D28*
X50750000Y-31000000D03*
D29*
X53290000Y-31000000D03*
X55830000Y-31000000D03*
X58370000Y-31000000D03*
X60910000Y-31000000D03*
X63450000Y-31000000D03*
X65990000Y-31000000D03*
X68530000Y-31000000D03*
X71070000Y-31000000D03*
X73610000Y-31000000D03*
X76150000Y-31000000D03*
X78690000Y-31000000D03*
X81230000Y-31000000D03*
X83770000Y-31000000D03*
X86310000Y-31000000D03*
X88850000Y-31000000D03*
D18*
X162000000Y-87500000D03*
D19*
X167500000Y-87500000D03*
D18*
X173000000Y-87500000D03*
D20*
X162500000Y-91300000D03*
X167500000Y-93400000D03*
D18*
X194250000Y-143358644D03*
D19*
X199750000Y-143358644D03*
D18*
X205250000Y-143358644D03*
D20*
X194750000Y-147158644D03*
X199750000Y-149258644D03*
D18*
X151250000Y-143358644D03*
D19*
X156750000Y-143358644D03*
D18*
X162250000Y-143358644D03*
D20*
X151750000Y-147158644D03*
X156750000Y-149258644D03*
D18*
X248000000Y-87500000D03*
D19*
X253500000Y-87500000D03*
D18*
X259000000Y-87500000D03*
D20*
X248500000Y-91300000D03*
X253500000Y-93400000D03*
D18*
X172750000Y-106119548D03*
D19*
X178250000Y-106119548D03*
D18*
X183750000Y-106119548D03*
D20*
X173250000Y-109919548D03*
X178250000Y-112019548D03*
D15*
X47630000Y-141749868D03*
D16*
X52710000Y-141749868D03*
D15*
X57790000Y-141749868D03*
D17*
X55250000Y-136669868D03*
X48900000Y-139209868D03*
D18*
X119000000Y-87500000D03*
D19*
X124500000Y-87500000D03*
D18*
X130000000Y-87500000D03*
D20*
X119500000Y-91300000D03*
X124500000Y-93400000D03*
D15*
X47630000Y-104510772D03*
D16*
X52710000Y-104510772D03*
D15*
X57790000Y-104510772D03*
D17*
X55250000Y-99430772D03*
X48900000Y-101970772D03*
D15*
X66590000Y-104510772D03*
D16*
X71670000Y-104510772D03*
D15*
X76750000Y-104510772D03*
D17*
X74210000Y-99430772D03*
X67860000Y-101970772D03*
D18*
X183500000Y-124739096D03*
D19*
X189000000Y-124739096D03*
D18*
X194500000Y-124739096D03*
D20*
X184000000Y-128539096D03*
X189000000Y-130639096D03*
D12*
X184450000Y-57725000D03*
X194050000Y-57725000D03*
D13*
X186750000Y-65225000D03*
D14*
X189250000Y-65225000D03*
X191750000Y-65225000D03*
D18*
X205000000Y-87500000D03*
D19*
X210500000Y-87500000D03*
D18*
X216000000Y-87500000D03*
D20*
X205500000Y-91300000D03*
X210500000Y-93400000D03*
D15*
X66590000Y-123130320D03*
D16*
X71670000Y-123130320D03*
D15*
X76750000Y-123130320D03*
D17*
X74210000Y-118050320D03*
X67860000Y-120590320D03*
D18*
X151250000Y-106119548D03*
D19*
X156750000Y-106119548D03*
D18*
X162250000Y-106119548D03*
D20*
X151750000Y-109919548D03*
X156750000Y-112019548D03*
D30*
X137500000Y-33000000D03*
D31*
X137500000Y-27000000D03*
D32*
X142200000Y-30000000D03*
D33*
X271886152Y-32650000D03*
X255656152Y-32650000D03*
X271886152Y-26300000D03*
X255656152Y-26300000D03*
X271886152Y-39000000D03*
X255656152Y-39000000D03*
X244951720Y-32650000D03*
X228721720Y-32650000D03*
X244951720Y-26300000D03*
X228721720Y-26300000D03*
X244951720Y-39000000D03*
X228721720Y-39000000D03*
D34*
X128000000Y-24000000D03*
D35*
X125500000Y-24000000D03*
D36*
X82500000Y-22500000D03*
D37*
X80500000Y-22500000D03*
X78500000Y-22500000D03*
D38*
X69910000Y-68000000D03*
D39*
X72450000Y-68000000D03*
X74990000Y-68000000D03*
X77530000Y-68000000D03*
X80070000Y-68000000D03*
X82610000Y-68000000D03*
X85150000Y-68000000D03*
X87690000Y-68000000D03*
X87690000Y-75620000D03*
X85150000Y-75620000D03*
X82610000Y-75620000D03*
X80070000Y-75620000D03*
X77530000Y-75620000D03*
X74990000Y-75620000D03*
X72450000Y-75620000D03*
X69910000Y-75620000D03*
D40*
X228420000Y-53000000D03*
D15*
X230960000Y-53000000D03*
X233500000Y-53000000D03*
X236040000Y-53000000D03*
X238580000Y-53000000D03*
X241120000Y-53000000D03*
X243660000Y-53000000D03*
X246200000Y-53000000D03*
X248740000Y-53000000D03*
X251280000Y-53000000D03*
X253820000Y-53000000D03*
X256360000Y-53000000D03*
X258900000Y-53000000D03*
X261440000Y-53000000D03*
X263980000Y-53000000D03*
X266520000Y-53000000D03*
X269060000Y-53000000D03*
X271600000Y-53000000D03*
X274140000Y-53000000D03*
X276680000Y-53000000D03*
X276680000Y-68240000D03*
X274140000Y-68240000D03*
X271600000Y-68240000D03*
X269060000Y-68240000D03*
X266520000Y-68240000D03*
X263980000Y-68240000D03*
X261440000Y-68240000D03*
X258900000Y-68240000D03*
X256360000Y-68240000D03*
X253820000Y-68240000D03*
X251280000Y-68240000D03*
X248740000Y-68240000D03*
X246200000Y-68240000D03*
X243660000Y-68240000D03*
X241120000Y-68240000D03*
X238580000Y-68240000D03*
X236040000Y-68240000D03*
X233500000Y-68240000D03*
X230960000Y-68240000D03*
X228420000Y-68240000D03*
D41*
X88500000Y-133960000D03*
D42*
X88500000Y-136500000D03*
X88500000Y-139040000D03*
X88500000Y-141580000D03*
X88500000Y-144120000D03*
X88500000Y-146660000D03*
X88500000Y-149200000D03*
X88500000Y-151740000D03*
X80880000Y-151740000D03*
X80880000Y-149200000D03*
X80880000Y-146660000D03*
X80880000Y-144120000D03*
X80880000Y-141580000D03*
X80880000Y-139040000D03*
X80880000Y-136500000D03*
X80880000Y-133960000D03*
D41*
X88500000Y-109760000D03*
D42*
X88500000Y-112300000D03*
X88500000Y-114840000D03*
X88500000Y-117380000D03*
X88500000Y-119920000D03*
X88500000Y-122460000D03*
X88500000Y-125000000D03*
X88500000Y-127540000D03*
X80880000Y-127540000D03*
X80880000Y-125000000D03*
X80880000Y-122460000D03*
X80880000Y-119920000D03*
X80880000Y-117380000D03*
X80880000Y-114840000D03*
X80880000Y-112300000D03*
X80880000Y-109760000D03*
D41*
X88500000Y-86420000D03*
D42*
X88500000Y-88960000D03*
X88500000Y-91500000D03*
X88500000Y-94040000D03*
X88500000Y-96580000D03*
X88500000Y-99120000D03*
X88500000Y-101660000D03*
X88500000Y-104200000D03*
X80880000Y-104200000D03*
X80880000Y-101660000D03*
X80880000Y-99120000D03*
X80880000Y-96580000D03*
X80880000Y-94040000D03*
X80880000Y-91500000D03*
X80880000Y-88960000D03*
X80880000Y-86420000D03*
D38*
X45125000Y-68000000D03*
D39*
X47665000Y-68000000D03*
X50205000Y-68000000D03*
X52745000Y-68000000D03*
X55285000Y-68000000D03*
X57825000Y-68000000D03*
X60365000Y-68000000D03*
X62905000Y-68000000D03*
X62905000Y-75620000D03*
X60365000Y-75620000D03*
X57825000Y-75620000D03*
X55285000Y-75620000D03*
X52745000Y-75620000D03*
X50205000Y-75620000D03*
X47665000Y-75620000D03*
X45125000Y-75620000D03*
%LPD*%
M02*
