M48
; DRILL file {KiCad 7.0.11} date Thursday, November 21, 2024 at 01:14:28 AM
; FORMAT={-:-/ absolute / metric / decimal}
; #@! TF.CreationDate,2024-11-21T01:14:28-06:00
; #@! TF.GenerationSoftware,Kicad,Pcbnew,7.0.11
; #@! TF.FileFunction,NonPlated,1,4,NPTH
FMAT,2
METRIC
; #@! TA.AperFunction,NonPlated,NPTH,ComponentDrill
T1C1.700
; #@! TA.AperFunction,NonPlated,NPTH,ComponentDrill
T2C1.900
; #@! TA.AperFunction,NonPlated,NPTH,ComponentDrill
T3C3.500
; #@! TA.AperFunction,NonPlated,NPTH,ComponentDrill
T4C4.000
%
G90
G05
T1
X47.63Y-85.891
X47.63Y-104.511
X47.63Y-123.13
X47.63Y-141.75
X57.79Y-85.891
X57.79Y-104.511
X57.79Y-123.13
X57.79Y-141.75
X66.59Y-85.891
X66.59Y-104.511
X66.59Y-123.13
X66.59Y-141.75
X76.75Y-85.891
X76.75Y-104.511
X76.75Y-123.13
X76.75Y-141.75
T2
X97.5Y-87.5
X97.5Y-124.739
X108.25Y-106.12
X108.25Y-143.359
X108.5Y-87.5
X108.5Y-124.739
X119.0Y-87.5
X119.0Y-124.739
X119.25Y-106.12
X119.25Y-143.359
X129.75Y-106.12
X129.75Y-143.359
X130.0Y-87.5
X130.0Y-124.739
X140.5Y-87.5
X140.5Y-124.739
X140.75Y-106.12
X140.75Y-143.359
X151.25Y-106.12
X151.25Y-143.359
X151.5Y-87.5
X151.5Y-124.739
X162.0Y-87.5
X162.0Y-124.739
X162.25Y-106.12
X162.25Y-143.359
X172.75Y-106.12
X172.75Y-143.359
X173.0Y-87.5
X173.0Y-124.739
X183.5Y-87.5
X183.5Y-124.739
X183.75Y-106.12
X183.75Y-143.359
X194.25Y-106.12
X194.25Y-143.359
X194.5Y-87.5
X194.5Y-124.739
X205.0Y-87.5
X205.0Y-124.739
X205.25Y-106.12
X205.25Y-143.359
X215.75Y-106.12
X215.75Y-143.359
X216.0Y-87.5
X216.0Y-124.739
X226.5Y-87.5
X226.5Y-124.739
X226.75Y-106.12
X226.75Y-143.359
X237.25Y-106.12
X237.25Y-143.359
X237.5Y-87.5
X237.5Y-124.739
X248.0Y-87.5
X248.0Y-124.739
X248.25Y-106.12
X248.25Y-143.359
X258.75Y-106.12
X258.75Y-143.359
X259.0Y-87.5
X259.0Y-124.739
X269.75Y-106.12
X269.75Y-143.359
T3
X103.0Y-87.5
X103.0Y-124.739
X113.75Y-106.12
X113.75Y-143.359
X124.5Y-87.5
X124.5Y-124.739
X135.25Y-106.12
X135.25Y-143.359
X146.0Y-87.5
X146.0Y-124.739
X156.75Y-106.12
X156.75Y-143.359
X167.5Y-87.5
X167.5Y-124.739
X178.25Y-106.12
X178.25Y-143.359
X189.0Y-87.5
X189.0Y-124.739
X199.75Y-106.12
X199.75Y-143.359
X210.5Y-87.5
X210.5Y-124.739
X221.25Y-106.12
X221.25Y-143.359
X232.0Y-87.5
X232.0Y-124.739
X242.75Y-106.12
X242.75Y-143.359
X253.5Y-87.5
X253.5Y-124.739
X264.25Y-106.12
X264.25Y-143.359
T4
X52.71Y-85.891
X52.71Y-104.511
X52.71Y-123.13
X52.71Y-141.75
X71.67Y-85.891
X71.67Y-104.511
X71.67Y-123.13
X71.67Y-141.75
M30
