%TF.GenerationSoftware,KiCad,Pcbnew,7.0.11*%
%TF.CreationDate,2024-11-21T01:14:29-06:00*%
%TF.ProjectId,Sardinia_v0.2,53617264-696e-4696-915f-76302e322e6b,rev?*%
%TF.SameCoordinates,Original*%
%TF.FileFunction,Drillmap*%
%TF.FilePolarity,Positive*%
%FSLAX45Y45*%
G04 Gerber Fmt 4.5, Leading zero omitted, Abs format (unit mm)*
G04 Created by KiCad (PCBNEW 7.0.11) date 2024-11-21 01:14:29*
%MOMM*%
%LPD*%
G01*
G04 APERTURE LIST*
%ADD10C,0.038100*%
%ADD11C,0.200000*%
%ADD12C,0.170000*%
%ADD13C,0.190000*%
%ADD14C,0.350000*%
%ADD15C,0.400000*%
G04 APERTURE END LIST*
D10*
X27940000Y-15875000D02*
X3810000Y-15875000D01*
X27940000Y-1905000D02*
X27940000Y-15875000D01*
X3810000Y-15875000D02*
X3810000Y-1905000D01*
X3810000Y-1905000D02*
X27940000Y-1905000D01*
D11*
D12*
X4678000Y-8504122D02*
X4848000Y-8674122D01*
X4848000Y-8504122D02*
X4678000Y-8674122D01*
X4678000Y-10366077D02*
X4848000Y-10536077D01*
X4848000Y-10366077D02*
X4678000Y-10536077D01*
X4678000Y-12228032D02*
X4848000Y-12398032D01*
X4848000Y-12228032D02*
X4678000Y-12398032D01*
X4678000Y-14089987D02*
X4848000Y-14259987D01*
X4848000Y-14089987D02*
X4678000Y-14259987D01*
X5694000Y-8504122D02*
X5864000Y-8674122D01*
X5864000Y-8504122D02*
X5694000Y-8674122D01*
X5694000Y-10366077D02*
X5864000Y-10536077D01*
X5864000Y-10366077D02*
X5694000Y-10536077D01*
X5694000Y-12228032D02*
X5864000Y-12398032D01*
X5864000Y-12228032D02*
X5694000Y-12398032D01*
X5694000Y-14089987D02*
X5864000Y-14259987D01*
X5864000Y-14089987D02*
X5694000Y-14259987D01*
X6574000Y-8504122D02*
X6744000Y-8674122D01*
X6744000Y-8504122D02*
X6574000Y-8674122D01*
X6574000Y-10366077D02*
X6744000Y-10536077D01*
X6744000Y-10366077D02*
X6574000Y-10536077D01*
X6574000Y-12228032D02*
X6744000Y-12398032D01*
X6744000Y-12228032D02*
X6574000Y-12398032D01*
X6574000Y-14089987D02*
X6744000Y-14259987D01*
X6744000Y-14089987D02*
X6574000Y-14259987D01*
X7590000Y-8504122D02*
X7760000Y-8674122D01*
X7760000Y-8504122D02*
X7590000Y-8674122D01*
X7590000Y-10366077D02*
X7760000Y-10536077D01*
X7760000Y-10366077D02*
X7590000Y-10536077D01*
X7590000Y-12228032D02*
X7760000Y-12398032D01*
X7760000Y-12228032D02*
X7590000Y-12398032D01*
X7590000Y-14089987D02*
X7760000Y-14259987D01*
X7760000Y-14089987D02*
X7590000Y-14259987D01*
D13*
X9845000Y-8750000D02*
G75*
G03*
X9655000Y-8750000I-95000J0D01*
G01*
X9655000Y-8750000D02*
G75*
G03*
X9845000Y-8750000I95000J0D01*
G01*
X9845000Y-12473910D02*
G75*
G03*
X9655000Y-12473910I-95000J0D01*
G01*
X9655000Y-12473910D02*
G75*
G03*
X9845000Y-12473910I95000J0D01*
G01*
X10920000Y-10611955D02*
G75*
G03*
X10730000Y-10611955I-95000J0D01*
G01*
X10730000Y-10611955D02*
G75*
G03*
X10920000Y-10611955I95000J0D01*
G01*
X10920000Y-14335864D02*
G75*
G03*
X10730000Y-14335864I-95000J0D01*
G01*
X10730000Y-14335864D02*
G75*
G03*
X10920000Y-14335864I95000J0D01*
G01*
X10945000Y-8750000D02*
G75*
G03*
X10755000Y-8750000I-95000J0D01*
G01*
X10755000Y-8750000D02*
G75*
G03*
X10945000Y-8750000I95000J0D01*
G01*
X10945000Y-12473910D02*
G75*
G03*
X10755000Y-12473910I-95000J0D01*
G01*
X10755000Y-12473910D02*
G75*
G03*
X10945000Y-12473910I95000J0D01*
G01*
X11995000Y-8750000D02*
G75*
G03*
X11805000Y-8750000I-95000J0D01*
G01*
X11805000Y-8750000D02*
G75*
G03*
X11995000Y-8750000I95000J0D01*
G01*
X11995000Y-12473910D02*
G75*
G03*
X11805000Y-12473910I-95000J0D01*
G01*
X11805000Y-12473910D02*
G75*
G03*
X11995000Y-12473910I95000J0D01*
G01*
X12020000Y-10611955D02*
G75*
G03*
X11830000Y-10611955I-95000J0D01*
G01*
X11830000Y-10611955D02*
G75*
G03*
X12020000Y-10611955I95000J0D01*
G01*
X12020000Y-14335864D02*
G75*
G03*
X11830000Y-14335864I-95000J0D01*
G01*
X11830000Y-14335864D02*
G75*
G03*
X12020000Y-14335864I95000J0D01*
G01*
X13070000Y-10611955D02*
G75*
G03*
X12880000Y-10611955I-95000J0D01*
G01*
X12880000Y-10611955D02*
G75*
G03*
X13070000Y-10611955I95000J0D01*
G01*
X13070000Y-14335864D02*
G75*
G03*
X12880000Y-14335864I-95000J0D01*
G01*
X12880000Y-14335864D02*
G75*
G03*
X13070000Y-14335864I95000J0D01*
G01*
X13095000Y-8750000D02*
G75*
G03*
X12905000Y-8750000I-95000J0D01*
G01*
X12905000Y-8750000D02*
G75*
G03*
X13095000Y-8750000I95000J0D01*
G01*
X13095000Y-12473910D02*
G75*
G03*
X12905000Y-12473910I-95000J0D01*
G01*
X12905000Y-12473910D02*
G75*
G03*
X13095000Y-12473910I95000J0D01*
G01*
X14145000Y-8750000D02*
G75*
G03*
X13955000Y-8750000I-95000J0D01*
G01*
X13955000Y-8750000D02*
G75*
G03*
X14145000Y-8750000I95000J0D01*
G01*
X14145000Y-12473910D02*
G75*
G03*
X13955000Y-12473910I-95000J0D01*
G01*
X13955000Y-12473910D02*
G75*
G03*
X14145000Y-12473910I95000J0D01*
G01*
X14170000Y-10611955D02*
G75*
G03*
X13980000Y-10611955I-95000J0D01*
G01*
X13980000Y-10611955D02*
G75*
G03*
X14170000Y-10611955I95000J0D01*
G01*
X14170000Y-14335864D02*
G75*
G03*
X13980000Y-14335864I-95000J0D01*
G01*
X13980000Y-14335864D02*
G75*
G03*
X14170000Y-14335864I95000J0D01*
G01*
X15220000Y-10611955D02*
G75*
G03*
X15030000Y-10611955I-95000J0D01*
G01*
X15030000Y-10611955D02*
G75*
G03*
X15220000Y-10611955I95000J0D01*
G01*
X15220000Y-14335864D02*
G75*
G03*
X15030000Y-14335864I-95000J0D01*
G01*
X15030000Y-14335864D02*
G75*
G03*
X15220000Y-14335864I95000J0D01*
G01*
X15245000Y-8750000D02*
G75*
G03*
X15055000Y-8750000I-95000J0D01*
G01*
X15055000Y-8750000D02*
G75*
G03*
X15245000Y-8750000I95000J0D01*
G01*
X15245000Y-12473910D02*
G75*
G03*
X15055000Y-12473910I-95000J0D01*
G01*
X15055000Y-12473910D02*
G75*
G03*
X15245000Y-12473910I95000J0D01*
G01*
X16295000Y-8750000D02*
G75*
G03*
X16105000Y-8750000I-95000J0D01*
G01*
X16105000Y-8750000D02*
G75*
G03*
X16295000Y-8750000I95000J0D01*
G01*
X16295000Y-12473910D02*
G75*
G03*
X16105000Y-12473910I-95000J0D01*
G01*
X16105000Y-12473910D02*
G75*
G03*
X16295000Y-12473910I95000J0D01*
G01*
X16320000Y-10611955D02*
G75*
G03*
X16130000Y-10611955I-95000J0D01*
G01*
X16130000Y-10611955D02*
G75*
G03*
X16320000Y-10611955I95000J0D01*
G01*
X16320000Y-14335864D02*
G75*
G03*
X16130000Y-14335864I-95000J0D01*
G01*
X16130000Y-14335864D02*
G75*
G03*
X16320000Y-14335864I95000J0D01*
G01*
X17370000Y-10611955D02*
G75*
G03*
X17180000Y-10611955I-95000J0D01*
G01*
X17180000Y-10611955D02*
G75*
G03*
X17370000Y-10611955I95000J0D01*
G01*
X17370000Y-14335864D02*
G75*
G03*
X17180000Y-14335864I-95000J0D01*
G01*
X17180000Y-14335864D02*
G75*
G03*
X17370000Y-14335864I95000J0D01*
G01*
X17395000Y-8750000D02*
G75*
G03*
X17205000Y-8750000I-95000J0D01*
G01*
X17205000Y-8750000D02*
G75*
G03*
X17395000Y-8750000I95000J0D01*
G01*
X17395000Y-12473910D02*
G75*
G03*
X17205000Y-12473910I-95000J0D01*
G01*
X17205000Y-12473910D02*
G75*
G03*
X17395000Y-12473910I95000J0D01*
G01*
X18445000Y-8750000D02*
G75*
G03*
X18255000Y-8750000I-95000J0D01*
G01*
X18255000Y-8750000D02*
G75*
G03*
X18445000Y-8750000I95000J0D01*
G01*
X18445000Y-12473910D02*
G75*
G03*
X18255000Y-12473910I-95000J0D01*
G01*
X18255000Y-12473910D02*
G75*
G03*
X18445000Y-12473910I95000J0D01*
G01*
X18470000Y-10611955D02*
G75*
G03*
X18280000Y-10611955I-95000J0D01*
G01*
X18280000Y-10611955D02*
G75*
G03*
X18470000Y-10611955I95000J0D01*
G01*
X18470000Y-14335864D02*
G75*
G03*
X18280000Y-14335864I-95000J0D01*
G01*
X18280000Y-14335864D02*
G75*
G03*
X18470000Y-14335864I95000J0D01*
G01*
X19520000Y-10611955D02*
G75*
G03*
X19330000Y-10611955I-95000J0D01*
G01*
X19330000Y-10611955D02*
G75*
G03*
X19520000Y-10611955I95000J0D01*
G01*
X19520000Y-14335864D02*
G75*
G03*
X19330000Y-14335864I-95000J0D01*
G01*
X19330000Y-14335864D02*
G75*
G03*
X19520000Y-14335864I95000J0D01*
G01*
X19545000Y-8750000D02*
G75*
G03*
X19355000Y-8750000I-95000J0D01*
G01*
X19355000Y-8750000D02*
G75*
G03*
X19545000Y-8750000I95000J0D01*
G01*
X19545000Y-12473910D02*
G75*
G03*
X19355000Y-12473910I-95000J0D01*
G01*
X19355000Y-12473910D02*
G75*
G03*
X19545000Y-12473910I95000J0D01*
G01*
X20595000Y-8750000D02*
G75*
G03*
X20405000Y-8750000I-95000J0D01*
G01*
X20405000Y-8750000D02*
G75*
G03*
X20595000Y-8750000I95000J0D01*
G01*
X20595000Y-12473910D02*
G75*
G03*
X20405000Y-12473910I-95000J0D01*
G01*
X20405000Y-12473910D02*
G75*
G03*
X20595000Y-12473910I95000J0D01*
G01*
X20620000Y-10611955D02*
G75*
G03*
X20430000Y-10611955I-95000J0D01*
G01*
X20430000Y-10611955D02*
G75*
G03*
X20620000Y-10611955I95000J0D01*
G01*
X20620000Y-14335864D02*
G75*
G03*
X20430000Y-14335864I-95000J0D01*
G01*
X20430000Y-14335864D02*
G75*
G03*
X20620000Y-14335864I95000J0D01*
G01*
X21670000Y-10611955D02*
G75*
G03*
X21480000Y-10611955I-95000J0D01*
G01*
X21480000Y-10611955D02*
G75*
G03*
X21670000Y-10611955I95000J0D01*
G01*
X21670000Y-14335864D02*
G75*
G03*
X21480000Y-14335864I-95000J0D01*
G01*
X21480000Y-14335864D02*
G75*
G03*
X21670000Y-14335864I95000J0D01*
G01*
X21695000Y-8750000D02*
G75*
G03*
X21505000Y-8750000I-95000J0D01*
G01*
X21505000Y-8750000D02*
G75*
G03*
X21695000Y-8750000I95000J0D01*
G01*
X21695000Y-12473910D02*
G75*
G03*
X21505000Y-12473910I-95000J0D01*
G01*
X21505000Y-12473910D02*
G75*
G03*
X21695000Y-12473910I95000J0D01*
G01*
X22745000Y-8750000D02*
G75*
G03*
X22555000Y-8750000I-95000J0D01*
G01*
X22555000Y-8750000D02*
G75*
G03*
X22745000Y-8750000I95000J0D01*
G01*
X22745000Y-12473910D02*
G75*
G03*
X22555000Y-12473910I-95000J0D01*
G01*
X22555000Y-12473910D02*
G75*
G03*
X22745000Y-12473910I95000J0D01*
G01*
X22770000Y-10611955D02*
G75*
G03*
X22580000Y-10611955I-95000J0D01*
G01*
X22580000Y-10611955D02*
G75*
G03*
X22770000Y-10611955I95000J0D01*
G01*
X22770000Y-14335864D02*
G75*
G03*
X22580000Y-14335864I-95000J0D01*
G01*
X22580000Y-14335864D02*
G75*
G03*
X22770000Y-14335864I95000J0D01*
G01*
X23820000Y-10611955D02*
G75*
G03*
X23630000Y-10611955I-95000J0D01*
G01*
X23630000Y-10611955D02*
G75*
G03*
X23820000Y-10611955I95000J0D01*
G01*
X23820000Y-14335864D02*
G75*
G03*
X23630000Y-14335864I-95000J0D01*
G01*
X23630000Y-14335864D02*
G75*
G03*
X23820000Y-14335864I95000J0D01*
G01*
X23845000Y-8750000D02*
G75*
G03*
X23655000Y-8750000I-95000J0D01*
G01*
X23655000Y-8750000D02*
G75*
G03*
X23845000Y-8750000I95000J0D01*
G01*
X23845000Y-12473910D02*
G75*
G03*
X23655000Y-12473910I-95000J0D01*
G01*
X23655000Y-12473910D02*
G75*
G03*
X23845000Y-12473910I95000J0D01*
G01*
X24895000Y-8750000D02*
G75*
G03*
X24705000Y-8750000I-95000J0D01*
G01*
X24705000Y-8750000D02*
G75*
G03*
X24895000Y-8750000I95000J0D01*
G01*
X24895000Y-12473910D02*
G75*
G03*
X24705000Y-12473910I-95000J0D01*
G01*
X24705000Y-12473910D02*
G75*
G03*
X24895000Y-12473910I95000J0D01*
G01*
X24920000Y-10611955D02*
G75*
G03*
X24730000Y-10611955I-95000J0D01*
G01*
X24730000Y-10611955D02*
G75*
G03*
X24920000Y-10611955I95000J0D01*
G01*
X24920000Y-14335864D02*
G75*
G03*
X24730000Y-14335864I-95000J0D01*
G01*
X24730000Y-14335864D02*
G75*
G03*
X24920000Y-14335864I95000J0D01*
G01*
X25970000Y-10611955D02*
G75*
G03*
X25780000Y-10611955I-95000J0D01*
G01*
X25780000Y-10611955D02*
G75*
G03*
X25970000Y-10611955I95000J0D01*
G01*
X25970000Y-14335864D02*
G75*
G03*
X25780000Y-14335864I-95000J0D01*
G01*
X25780000Y-14335864D02*
G75*
G03*
X25970000Y-14335864I95000J0D01*
G01*
X25995000Y-8750000D02*
G75*
G03*
X25805000Y-8750000I-95000J0D01*
G01*
X25805000Y-8750000D02*
G75*
G03*
X25995000Y-8750000I95000J0D01*
G01*
X25995000Y-12473910D02*
G75*
G03*
X25805000Y-12473910I-95000J0D01*
G01*
X25805000Y-12473910D02*
G75*
G03*
X25995000Y-12473910I95000J0D01*
G01*
X27070000Y-10611955D02*
G75*
G03*
X26880000Y-10611955I-95000J0D01*
G01*
X26880000Y-10611955D02*
G75*
G03*
X27070000Y-10611955I95000J0D01*
G01*
X27070000Y-14335864D02*
G75*
G03*
X26880000Y-14335864I-95000J0D01*
G01*
X26880000Y-14335864D02*
G75*
G03*
X27070000Y-14335864I95000J0D01*
G01*
D14*
X10300000Y-8575000D02*
X10300000Y-8925000D01*
X10125000Y-8750000D02*
X10475000Y-8750000D01*
X10300000Y-12298910D02*
X10300000Y-12648910D01*
X10125000Y-12473910D02*
X10475000Y-12473910D01*
X11375000Y-10436955D02*
X11375000Y-10786955D01*
X11200000Y-10611955D02*
X11550000Y-10611955D01*
X11375000Y-14160864D02*
X11375000Y-14510864D01*
X11200000Y-14335864D02*
X11550000Y-14335864D01*
X12450000Y-8575000D02*
X12450000Y-8925000D01*
X12275000Y-8750000D02*
X12625000Y-8750000D01*
X12450000Y-12298910D02*
X12450000Y-12648910D01*
X12275000Y-12473910D02*
X12625000Y-12473910D01*
X13525000Y-10436955D02*
X13525000Y-10786955D01*
X13350000Y-10611955D02*
X13700000Y-10611955D01*
X13525000Y-14160864D02*
X13525000Y-14510864D01*
X13350000Y-14335864D02*
X13700000Y-14335864D01*
X14600000Y-8575000D02*
X14600000Y-8925000D01*
X14425000Y-8750000D02*
X14775000Y-8750000D01*
X14600000Y-12298910D02*
X14600000Y-12648910D01*
X14425000Y-12473910D02*
X14775000Y-12473910D01*
X15675000Y-10436955D02*
X15675000Y-10786955D01*
X15500000Y-10611955D02*
X15850000Y-10611955D01*
X15675000Y-14160864D02*
X15675000Y-14510864D01*
X15500000Y-14335864D02*
X15850000Y-14335864D01*
X16750000Y-8575000D02*
X16750000Y-8925000D01*
X16575000Y-8750000D02*
X16925000Y-8750000D01*
X16750000Y-12298910D02*
X16750000Y-12648910D01*
X16575000Y-12473910D02*
X16925000Y-12473910D01*
X17825000Y-10436955D02*
X17825000Y-10786955D01*
X17650000Y-10611955D02*
X18000000Y-10611955D01*
X17825000Y-14160864D02*
X17825000Y-14510864D01*
X17650000Y-14335864D02*
X18000000Y-14335864D01*
X18900000Y-8575000D02*
X18900000Y-8925000D01*
X18725000Y-8750000D02*
X19075000Y-8750000D01*
X18900000Y-12298910D02*
X18900000Y-12648910D01*
X18725000Y-12473910D02*
X19075000Y-12473910D01*
X19975000Y-10436955D02*
X19975000Y-10786955D01*
X19800000Y-10611955D02*
X20150000Y-10611955D01*
X19975000Y-14160864D02*
X19975000Y-14510864D01*
X19800000Y-14335864D02*
X20150000Y-14335864D01*
X21050000Y-8575000D02*
X21050000Y-8925000D01*
X20875000Y-8750000D02*
X21225000Y-8750000D01*
X21050000Y-12298910D02*
X21050000Y-12648910D01*
X20875000Y-12473910D02*
X21225000Y-12473910D01*
X22125000Y-10436955D02*
X22125000Y-10786955D01*
X21950000Y-10611955D02*
X22300000Y-10611955D01*
X22125000Y-14160864D02*
X22125000Y-14510864D01*
X21950000Y-14335864D02*
X22300000Y-14335864D01*
X23200000Y-8575000D02*
X23200000Y-8925000D01*
X23025000Y-8750000D02*
X23375000Y-8750000D01*
X23200000Y-12298910D02*
X23200000Y-12648910D01*
X23025000Y-12473910D02*
X23375000Y-12473910D01*
X24275000Y-10436955D02*
X24275000Y-10786955D01*
X24100000Y-10611955D02*
X24450000Y-10611955D01*
X24275000Y-14160864D02*
X24275000Y-14510864D01*
X24100000Y-14335864D02*
X24450000Y-14335864D01*
X25350000Y-8575000D02*
X25350000Y-8925000D01*
X25175000Y-8750000D02*
X25525000Y-8750000D01*
X25350000Y-12298910D02*
X25350000Y-12648910D01*
X25175000Y-12473910D02*
X25525000Y-12473910D01*
X26425000Y-10436955D02*
X26425000Y-10786955D01*
X26250000Y-10611955D02*
X26600000Y-10611955D01*
X26425000Y-14160864D02*
X26425000Y-14510864D01*
X26250000Y-14335864D02*
X26600000Y-14335864D01*
D15*
X5412423Y-8730545D02*
X5412423Y-8447700D01*
X5129577Y-8447700D01*
X5129577Y-8730545D01*
X5412423Y-8730545D01*
X5412423Y-10592500D02*
X5412423Y-10309655D01*
X5129577Y-10309655D01*
X5129577Y-10592500D01*
X5412423Y-10592500D01*
X5412423Y-12454455D02*
X5412423Y-12171609D01*
X5129577Y-12171609D01*
X5129577Y-12454455D01*
X5412423Y-12454455D01*
X5412423Y-14316409D02*
X5412423Y-14033564D01*
X5129577Y-14033564D01*
X5129577Y-14316409D01*
X5412423Y-14316409D01*
X7308423Y-8730545D02*
X7308423Y-8447700D01*
X7025577Y-8447700D01*
X7025577Y-8730545D01*
X7308423Y-8730545D01*
X7308423Y-10592500D02*
X7308423Y-10309655D01*
X7025577Y-10309655D01*
X7025577Y-10592500D01*
X7308423Y-10592500D01*
X7308423Y-12454455D02*
X7308423Y-12171609D01*
X7025577Y-12171609D01*
X7025577Y-12454455D01*
X7308423Y-12454455D01*
X7308423Y-14316409D02*
X7308423Y-14033564D01*
X7025577Y-14033564D01*
X7025577Y-14316409D01*
X7308423Y-14316409D01*
D11*
X4068872Y-16188389D02*
X4068872Y-15988389D01*
X4068872Y-15988389D02*
X4116491Y-15988389D01*
X4116491Y-15988389D02*
X4145062Y-15997913D01*
X4145062Y-15997913D02*
X4164110Y-16016960D01*
X4164110Y-16016960D02*
X4173634Y-16036008D01*
X4173634Y-16036008D02*
X4183157Y-16074103D01*
X4183157Y-16074103D02*
X4183157Y-16102674D01*
X4183157Y-16102674D02*
X4173634Y-16140770D01*
X4173634Y-16140770D02*
X4164110Y-16159817D01*
X4164110Y-16159817D02*
X4145062Y-16178865D01*
X4145062Y-16178865D02*
X4116491Y-16188389D01*
X4116491Y-16188389D02*
X4068872Y-16188389D01*
X4268872Y-16188389D02*
X4268872Y-16055055D01*
X4268872Y-16093151D02*
X4278396Y-16074103D01*
X4278396Y-16074103D02*
X4287919Y-16064579D01*
X4287919Y-16064579D02*
X4306967Y-16055055D01*
X4306967Y-16055055D02*
X4326015Y-16055055D01*
X4392681Y-16188389D02*
X4392681Y-16055055D01*
X4392681Y-15988389D02*
X4383158Y-15997913D01*
X4383158Y-15997913D02*
X4392681Y-16007436D01*
X4392681Y-16007436D02*
X4402205Y-15997913D01*
X4402205Y-15997913D02*
X4392681Y-15988389D01*
X4392681Y-15988389D02*
X4392681Y-16007436D01*
X4516491Y-16188389D02*
X4497443Y-16178865D01*
X4497443Y-16178865D02*
X4487919Y-16159817D01*
X4487919Y-16159817D02*
X4487919Y-15988389D01*
X4621253Y-16188389D02*
X4602205Y-16178865D01*
X4602205Y-16178865D02*
X4592681Y-16159817D01*
X4592681Y-16159817D02*
X4592681Y-15988389D01*
X4849824Y-16188389D02*
X4849824Y-15988389D01*
X4849824Y-15988389D02*
X4916491Y-16131246D01*
X4916491Y-16131246D02*
X4983158Y-15988389D01*
X4983158Y-15988389D02*
X4983158Y-16188389D01*
X5164110Y-16188389D02*
X5164110Y-16083627D01*
X5164110Y-16083627D02*
X5154586Y-16064579D01*
X5154586Y-16064579D02*
X5135539Y-16055055D01*
X5135539Y-16055055D02*
X5097443Y-16055055D01*
X5097443Y-16055055D02*
X5078396Y-16064579D01*
X5164110Y-16178865D02*
X5145062Y-16188389D01*
X5145062Y-16188389D02*
X5097443Y-16188389D01*
X5097443Y-16188389D02*
X5078396Y-16178865D01*
X5078396Y-16178865D02*
X5068872Y-16159817D01*
X5068872Y-16159817D02*
X5068872Y-16140770D01*
X5068872Y-16140770D02*
X5078396Y-16121722D01*
X5078396Y-16121722D02*
X5097443Y-16112198D01*
X5097443Y-16112198D02*
X5145062Y-16112198D01*
X5145062Y-16112198D02*
X5164110Y-16102674D01*
X5259348Y-16055055D02*
X5259348Y-16255055D01*
X5259348Y-16064579D02*
X5278396Y-16055055D01*
X5278396Y-16055055D02*
X5316491Y-16055055D01*
X5316491Y-16055055D02*
X5335539Y-16064579D01*
X5335539Y-16064579D02*
X5345062Y-16074103D01*
X5345062Y-16074103D02*
X5354586Y-16093151D01*
X5354586Y-16093151D02*
X5354586Y-16150293D01*
X5354586Y-16150293D02*
X5345062Y-16169341D01*
X5345062Y-16169341D02*
X5335539Y-16178865D01*
X5335539Y-16178865D02*
X5316491Y-16188389D01*
X5316491Y-16188389D02*
X5278396Y-16188389D01*
X5278396Y-16188389D02*
X5259348Y-16178865D01*
X5440300Y-16169341D02*
X5449824Y-16178865D01*
X5449824Y-16178865D02*
X5440300Y-16188389D01*
X5440300Y-16188389D02*
X5430777Y-16178865D01*
X5430777Y-16178865D02*
X5440300Y-16169341D01*
X5440300Y-16169341D02*
X5440300Y-16188389D01*
X5440300Y-16064579D02*
X5449824Y-16074103D01*
X5449824Y-16074103D02*
X5440300Y-16083627D01*
X5440300Y-16083627D02*
X5430777Y-16074103D01*
X5430777Y-16074103D02*
X5440300Y-16064579D01*
X5440300Y-16064579D02*
X5440300Y-16083627D01*
D12*
X3638095Y-16431905D02*
X3808095Y-16601905D01*
X3808095Y-16431905D02*
X3638095Y-16601905D01*
D11*
X4173634Y-16608389D02*
X4059348Y-16608389D01*
X4116491Y-16608389D02*
X4116491Y-16408389D01*
X4116491Y-16408389D02*
X4097443Y-16436960D01*
X4097443Y-16436960D02*
X4078396Y-16456008D01*
X4078396Y-16456008D02*
X4059348Y-16465532D01*
X4259348Y-16589341D02*
X4268872Y-16598865D01*
X4268872Y-16598865D02*
X4259348Y-16608389D01*
X4259348Y-16608389D02*
X4249824Y-16598865D01*
X4249824Y-16598865D02*
X4259348Y-16589341D01*
X4259348Y-16589341D02*
X4259348Y-16608389D01*
X4335539Y-16408389D02*
X4468872Y-16408389D01*
X4468872Y-16408389D02*
X4383158Y-16608389D01*
X4583158Y-16408389D02*
X4602205Y-16408389D01*
X4602205Y-16408389D02*
X4621253Y-16417913D01*
X4621253Y-16417913D02*
X4630777Y-16427436D01*
X4630777Y-16427436D02*
X4640300Y-16446484D01*
X4640300Y-16446484D02*
X4649824Y-16484579D01*
X4649824Y-16484579D02*
X4649824Y-16532198D01*
X4649824Y-16532198D02*
X4640300Y-16570293D01*
X4640300Y-16570293D02*
X4630777Y-16589341D01*
X4630777Y-16589341D02*
X4621253Y-16598865D01*
X4621253Y-16598865D02*
X4602205Y-16608389D01*
X4602205Y-16608389D02*
X4583158Y-16608389D01*
X4583158Y-16608389D02*
X4564110Y-16598865D01*
X4564110Y-16598865D02*
X4554586Y-16589341D01*
X4554586Y-16589341D02*
X4545062Y-16570293D01*
X4545062Y-16570293D02*
X4535539Y-16532198D01*
X4535539Y-16532198D02*
X4535539Y-16484579D01*
X4535539Y-16484579D02*
X4545062Y-16446484D01*
X4545062Y-16446484D02*
X4554586Y-16427436D01*
X4554586Y-16427436D02*
X4564110Y-16417913D01*
X4564110Y-16417913D02*
X4583158Y-16408389D01*
X4773634Y-16408389D02*
X4792681Y-16408389D01*
X4792681Y-16408389D02*
X4811729Y-16417913D01*
X4811729Y-16417913D02*
X4821253Y-16427436D01*
X4821253Y-16427436D02*
X4830777Y-16446484D01*
X4830777Y-16446484D02*
X4840300Y-16484579D01*
X4840300Y-16484579D02*
X4840300Y-16532198D01*
X4840300Y-16532198D02*
X4830777Y-16570293D01*
X4830777Y-16570293D02*
X4821253Y-16589341D01*
X4821253Y-16589341D02*
X4811729Y-16598865D01*
X4811729Y-16598865D02*
X4792681Y-16608389D01*
X4792681Y-16608389D02*
X4773634Y-16608389D01*
X4773634Y-16608389D02*
X4754586Y-16598865D01*
X4754586Y-16598865D02*
X4745062Y-16589341D01*
X4745062Y-16589341D02*
X4735539Y-16570293D01*
X4735539Y-16570293D02*
X4726015Y-16532198D01*
X4726015Y-16532198D02*
X4726015Y-16484579D01*
X4726015Y-16484579D02*
X4735539Y-16446484D01*
X4735539Y-16446484D02*
X4745062Y-16427436D01*
X4745062Y-16427436D02*
X4754586Y-16417913D01*
X4754586Y-16417913D02*
X4773634Y-16408389D01*
X4926015Y-16608389D02*
X4926015Y-16475055D01*
X4926015Y-16494103D02*
X4935539Y-16484579D01*
X4935539Y-16484579D02*
X4954586Y-16475055D01*
X4954586Y-16475055D02*
X4983158Y-16475055D01*
X4983158Y-16475055D02*
X5002205Y-16484579D01*
X5002205Y-16484579D02*
X5011729Y-16503627D01*
X5011729Y-16503627D02*
X5011729Y-16608389D01*
X5011729Y-16503627D02*
X5021253Y-16484579D01*
X5021253Y-16484579D02*
X5040300Y-16475055D01*
X5040300Y-16475055D02*
X5068872Y-16475055D01*
X5068872Y-16475055D02*
X5087920Y-16484579D01*
X5087920Y-16484579D02*
X5097443Y-16503627D01*
X5097443Y-16503627D02*
X5097443Y-16608389D01*
X5192681Y-16608389D02*
X5192681Y-16475055D01*
X5192681Y-16494103D02*
X5202205Y-16484579D01*
X5202205Y-16484579D02*
X5221253Y-16475055D01*
X5221253Y-16475055D02*
X5249824Y-16475055D01*
X5249824Y-16475055D02*
X5268872Y-16484579D01*
X5268872Y-16484579D02*
X5278396Y-16503627D01*
X5278396Y-16503627D02*
X5278396Y-16608389D01*
X5278396Y-16503627D02*
X5287920Y-16484579D01*
X5287920Y-16484579D02*
X5306967Y-16475055D01*
X5306967Y-16475055D02*
X5335539Y-16475055D01*
X5335539Y-16475055D02*
X5354586Y-16484579D01*
X5354586Y-16484579D02*
X5364110Y-16503627D01*
X5364110Y-16503627D02*
X5364110Y-16608389D01*
X5754586Y-16398865D02*
X5583158Y-16656008D01*
X6011729Y-16408389D02*
X6030777Y-16408389D01*
X6030777Y-16408389D02*
X6049824Y-16417913D01*
X6049824Y-16417913D02*
X6059348Y-16427436D01*
X6059348Y-16427436D02*
X6068872Y-16446484D01*
X6068872Y-16446484D02*
X6078396Y-16484579D01*
X6078396Y-16484579D02*
X6078396Y-16532198D01*
X6078396Y-16532198D02*
X6068872Y-16570293D01*
X6068872Y-16570293D02*
X6059348Y-16589341D01*
X6059348Y-16589341D02*
X6049824Y-16598865D01*
X6049824Y-16598865D02*
X6030777Y-16608389D01*
X6030777Y-16608389D02*
X6011729Y-16608389D01*
X6011729Y-16608389D02*
X5992681Y-16598865D01*
X5992681Y-16598865D02*
X5983158Y-16589341D01*
X5983158Y-16589341D02*
X5973634Y-16570293D01*
X5973634Y-16570293D02*
X5964110Y-16532198D01*
X5964110Y-16532198D02*
X5964110Y-16484579D01*
X5964110Y-16484579D02*
X5973634Y-16446484D01*
X5973634Y-16446484D02*
X5983158Y-16427436D01*
X5983158Y-16427436D02*
X5992681Y-16417913D01*
X5992681Y-16417913D02*
X6011729Y-16408389D01*
X6164110Y-16589341D02*
X6173634Y-16598865D01*
X6173634Y-16598865D02*
X6164110Y-16608389D01*
X6164110Y-16608389D02*
X6154586Y-16598865D01*
X6154586Y-16598865D02*
X6164110Y-16589341D01*
X6164110Y-16589341D02*
X6164110Y-16608389D01*
X6297443Y-16408389D02*
X6316491Y-16408389D01*
X6316491Y-16408389D02*
X6335539Y-16417913D01*
X6335539Y-16417913D02*
X6345062Y-16427436D01*
X6345062Y-16427436D02*
X6354586Y-16446484D01*
X6354586Y-16446484D02*
X6364110Y-16484579D01*
X6364110Y-16484579D02*
X6364110Y-16532198D01*
X6364110Y-16532198D02*
X6354586Y-16570293D01*
X6354586Y-16570293D02*
X6345062Y-16589341D01*
X6345062Y-16589341D02*
X6335539Y-16598865D01*
X6335539Y-16598865D02*
X6316491Y-16608389D01*
X6316491Y-16608389D02*
X6297443Y-16608389D01*
X6297443Y-16608389D02*
X6278396Y-16598865D01*
X6278396Y-16598865D02*
X6268872Y-16589341D01*
X6268872Y-16589341D02*
X6259348Y-16570293D01*
X6259348Y-16570293D02*
X6249824Y-16532198D01*
X6249824Y-16532198D02*
X6249824Y-16484579D01*
X6249824Y-16484579D02*
X6259348Y-16446484D01*
X6259348Y-16446484D02*
X6268872Y-16427436D01*
X6268872Y-16427436D02*
X6278396Y-16417913D01*
X6278396Y-16417913D02*
X6297443Y-16408389D01*
X6535539Y-16408389D02*
X6497443Y-16408389D01*
X6497443Y-16408389D02*
X6478396Y-16417913D01*
X6478396Y-16417913D02*
X6468872Y-16427436D01*
X6468872Y-16427436D02*
X6449824Y-16456008D01*
X6449824Y-16456008D02*
X6440301Y-16494103D01*
X6440301Y-16494103D02*
X6440301Y-16570293D01*
X6440301Y-16570293D02*
X6449824Y-16589341D01*
X6449824Y-16589341D02*
X6459348Y-16598865D01*
X6459348Y-16598865D02*
X6478396Y-16608389D01*
X6478396Y-16608389D02*
X6516491Y-16608389D01*
X6516491Y-16608389D02*
X6535539Y-16598865D01*
X6535539Y-16598865D02*
X6545062Y-16589341D01*
X6545062Y-16589341D02*
X6554586Y-16570293D01*
X6554586Y-16570293D02*
X6554586Y-16522674D01*
X6554586Y-16522674D02*
X6545062Y-16503627D01*
X6545062Y-16503627D02*
X6535539Y-16494103D01*
X6535539Y-16494103D02*
X6516491Y-16484579D01*
X6516491Y-16484579D02*
X6478396Y-16484579D01*
X6478396Y-16484579D02*
X6459348Y-16494103D01*
X6459348Y-16494103D02*
X6449824Y-16503627D01*
X6449824Y-16503627D02*
X6440301Y-16522674D01*
X6726015Y-16408389D02*
X6687920Y-16408389D01*
X6687920Y-16408389D02*
X6668872Y-16417913D01*
X6668872Y-16417913D02*
X6659348Y-16427436D01*
X6659348Y-16427436D02*
X6640301Y-16456008D01*
X6640301Y-16456008D02*
X6630777Y-16494103D01*
X6630777Y-16494103D02*
X6630777Y-16570293D01*
X6630777Y-16570293D02*
X6640301Y-16589341D01*
X6640301Y-16589341D02*
X6649824Y-16598865D01*
X6649824Y-16598865D02*
X6668872Y-16608389D01*
X6668872Y-16608389D02*
X6706967Y-16608389D01*
X6706967Y-16608389D02*
X6726015Y-16598865D01*
X6726015Y-16598865D02*
X6735539Y-16589341D01*
X6735539Y-16589341D02*
X6745062Y-16570293D01*
X6745062Y-16570293D02*
X6745062Y-16522674D01*
X6745062Y-16522674D02*
X6735539Y-16503627D01*
X6735539Y-16503627D02*
X6726015Y-16494103D01*
X6726015Y-16494103D02*
X6706967Y-16484579D01*
X6706967Y-16484579D02*
X6668872Y-16484579D01*
X6668872Y-16484579D02*
X6649824Y-16494103D01*
X6649824Y-16494103D02*
X6640301Y-16503627D01*
X6640301Y-16503627D02*
X6630777Y-16522674D01*
X6840301Y-16608389D02*
X6878396Y-16608389D01*
X6878396Y-16608389D02*
X6897443Y-16598865D01*
X6897443Y-16598865D02*
X6906967Y-16589341D01*
X6906967Y-16589341D02*
X6926015Y-16560770D01*
X6926015Y-16560770D02*
X6935539Y-16522674D01*
X6935539Y-16522674D02*
X6935539Y-16446484D01*
X6935539Y-16446484D02*
X6926015Y-16427436D01*
X6926015Y-16427436D02*
X6916491Y-16417913D01*
X6916491Y-16417913D02*
X6897443Y-16408389D01*
X6897443Y-16408389D02*
X6859348Y-16408389D01*
X6859348Y-16408389D02*
X6840301Y-16417913D01*
X6840301Y-16417913D02*
X6830777Y-16427436D01*
X6830777Y-16427436D02*
X6821253Y-16446484D01*
X6821253Y-16446484D02*
X6821253Y-16494103D01*
X6821253Y-16494103D02*
X6830777Y-16513151D01*
X6830777Y-16513151D02*
X6840301Y-16522674D01*
X6840301Y-16522674D02*
X6859348Y-16532198D01*
X6859348Y-16532198D02*
X6897443Y-16532198D01*
X6897443Y-16532198D02*
X6916491Y-16522674D01*
X6916491Y-16522674D02*
X6926015Y-16513151D01*
X6926015Y-16513151D02*
X6935539Y-16494103D01*
X7011729Y-16408389D02*
X7011729Y-16446484D01*
X7087920Y-16408389D02*
X7087920Y-16446484D01*
X7383158Y-16684579D02*
X7373634Y-16675055D01*
X7373634Y-16675055D02*
X7354586Y-16646484D01*
X7354586Y-16646484D02*
X7345063Y-16627436D01*
X7345063Y-16627436D02*
X7335539Y-16598865D01*
X7335539Y-16598865D02*
X7326015Y-16551246D01*
X7326015Y-16551246D02*
X7326015Y-16513151D01*
X7326015Y-16513151D02*
X7335539Y-16465532D01*
X7335539Y-16465532D02*
X7345063Y-16436960D01*
X7345063Y-16436960D02*
X7354586Y-16417913D01*
X7354586Y-16417913D02*
X7373634Y-16389341D01*
X7373634Y-16389341D02*
X7383158Y-16379817D01*
X7564110Y-16608389D02*
X7449824Y-16608389D01*
X7506967Y-16608389D02*
X7506967Y-16408389D01*
X7506967Y-16408389D02*
X7487920Y-16436960D01*
X7487920Y-16436960D02*
X7468872Y-16456008D01*
X7468872Y-16456008D02*
X7449824Y-16465532D01*
X7735539Y-16408389D02*
X7697443Y-16408389D01*
X7697443Y-16408389D02*
X7678396Y-16417913D01*
X7678396Y-16417913D02*
X7668872Y-16427436D01*
X7668872Y-16427436D02*
X7649824Y-16456008D01*
X7649824Y-16456008D02*
X7640301Y-16494103D01*
X7640301Y-16494103D02*
X7640301Y-16570293D01*
X7640301Y-16570293D02*
X7649824Y-16589341D01*
X7649824Y-16589341D02*
X7659348Y-16598865D01*
X7659348Y-16598865D02*
X7678396Y-16608389D01*
X7678396Y-16608389D02*
X7716491Y-16608389D01*
X7716491Y-16608389D02*
X7735539Y-16598865D01*
X7735539Y-16598865D02*
X7745063Y-16589341D01*
X7745063Y-16589341D02*
X7754586Y-16570293D01*
X7754586Y-16570293D02*
X7754586Y-16522674D01*
X7754586Y-16522674D02*
X7745063Y-16503627D01*
X7745063Y-16503627D02*
X7735539Y-16494103D01*
X7735539Y-16494103D02*
X7716491Y-16484579D01*
X7716491Y-16484579D02*
X7678396Y-16484579D01*
X7678396Y-16484579D02*
X7659348Y-16494103D01*
X7659348Y-16494103D02*
X7649824Y-16503627D01*
X7649824Y-16503627D02*
X7640301Y-16522674D01*
X7992682Y-16608389D02*
X7992682Y-16408389D01*
X8078396Y-16608389D02*
X8078396Y-16503627D01*
X8078396Y-16503627D02*
X8068872Y-16484579D01*
X8068872Y-16484579D02*
X8049825Y-16475055D01*
X8049825Y-16475055D02*
X8021253Y-16475055D01*
X8021253Y-16475055D02*
X8002205Y-16484579D01*
X8002205Y-16484579D02*
X7992682Y-16494103D01*
X8202205Y-16608389D02*
X8183158Y-16598865D01*
X8183158Y-16598865D02*
X8173634Y-16589341D01*
X8173634Y-16589341D02*
X8164110Y-16570293D01*
X8164110Y-16570293D02*
X8164110Y-16513151D01*
X8164110Y-16513151D02*
X8173634Y-16494103D01*
X8173634Y-16494103D02*
X8183158Y-16484579D01*
X8183158Y-16484579D02*
X8202205Y-16475055D01*
X8202205Y-16475055D02*
X8230777Y-16475055D01*
X8230777Y-16475055D02*
X8249825Y-16484579D01*
X8249825Y-16484579D02*
X8259348Y-16494103D01*
X8259348Y-16494103D02*
X8268872Y-16513151D01*
X8268872Y-16513151D02*
X8268872Y-16570293D01*
X8268872Y-16570293D02*
X8259348Y-16589341D01*
X8259348Y-16589341D02*
X8249825Y-16598865D01*
X8249825Y-16598865D02*
X8230777Y-16608389D01*
X8230777Y-16608389D02*
X8202205Y-16608389D01*
X8383158Y-16608389D02*
X8364110Y-16598865D01*
X8364110Y-16598865D02*
X8354586Y-16579817D01*
X8354586Y-16579817D02*
X8354586Y-16408389D01*
X8535539Y-16598865D02*
X8516491Y-16608389D01*
X8516491Y-16608389D02*
X8478396Y-16608389D01*
X8478396Y-16608389D02*
X8459348Y-16598865D01*
X8459348Y-16598865D02*
X8449825Y-16579817D01*
X8449825Y-16579817D02*
X8449825Y-16503627D01*
X8449825Y-16503627D02*
X8459348Y-16484579D01*
X8459348Y-16484579D02*
X8478396Y-16475055D01*
X8478396Y-16475055D02*
X8516491Y-16475055D01*
X8516491Y-16475055D02*
X8535539Y-16484579D01*
X8535539Y-16484579D02*
X8545063Y-16503627D01*
X8545063Y-16503627D02*
X8545063Y-16522674D01*
X8545063Y-16522674D02*
X8449825Y-16541722D01*
X8621253Y-16598865D02*
X8640301Y-16608389D01*
X8640301Y-16608389D02*
X8678396Y-16608389D01*
X8678396Y-16608389D02*
X8697444Y-16598865D01*
X8697444Y-16598865D02*
X8706968Y-16579817D01*
X8706968Y-16579817D02*
X8706968Y-16570293D01*
X8706968Y-16570293D02*
X8697444Y-16551246D01*
X8697444Y-16551246D02*
X8678396Y-16541722D01*
X8678396Y-16541722D02*
X8649825Y-16541722D01*
X8649825Y-16541722D02*
X8630777Y-16532198D01*
X8630777Y-16532198D02*
X8621253Y-16513151D01*
X8621253Y-16513151D02*
X8621253Y-16503627D01*
X8621253Y-16503627D02*
X8630777Y-16484579D01*
X8630777Y-16484579D02*
X8649825Y-16475055D01*
X8649825Y-16475055D02*
X8678396Y-16475055D01*
X8678396Y-16475055D02*
X8697444Y-16484579D01*
X8773634Y-16684579D02*
X8783158Y-16675055D01*
X8783158Y-16675055D02*
X8802206Y-16646484D01*
X8802206Y-16646484D02*
X8811729Y-16627436D01*
X8811729Y-16627436D02*
X8821253Y-16598865D01*
X8821253Y-16598865D02*
X8830777Y-16551246D01*
X8830777Y-16551246D02*
X8830777Y-16513151D01*
X8830777Y-16513151D02*
X8821253Y-16465532D01*
X8821253Y-16465532D02*
X8811729Y-16436960D01*
X8811729Y-16436960D02*
X8802206Y-16417913D01*
X8802206Y-16417913D02*
X8783158Y-16389341D01*
X8783158Y-16389341D02*
X8773634Y-16379817D01*
X9135539Y-16684579D02*
X9126015Y-16675055D01*
X9126015Y-16675055D02*
X9106968Y-16646484D01*
X9106968Y-16646484D02*
X9097444Y-16627436D01*
X9097444Y-16627436D02*
X9087920Y-16598865D01*
X9087920Y-16598865D02*
X9078396Y-16551246D01*
X9078396Y-16551246D02*
X9078396Y-16513151D01*
X9078396Y-16513151D02*
X9087920Y-16465532D01*
X9087920Y-16465532D02*
X9097444Y-16436960D01*
X9097444Y-16436960D02*
X9106968Y-16417913D01*
X9106968Y-16417913D02*
X9126015Y-16389341D01*
X9126015Y-16389341D02*
X9135539Y-16379817D01*
X9211729Y-16475055D02*
X9211729Y-16608389D01*
X9211729Y-16494103D02*
X9221253Y-16484579D01*
X9221253Y-16484579D02*
X9240301Y-16475055D01*
X9240301Y-16475055D02*
X9268872Y-16475055D01*
X9268872Y-16475055D02*
X9287920Y-16484579D01*
X9287920Y-16484579D02*
X9297444Y-16503627D01*
X9297444Y-16503627D02*
X9297444Y-16608389D01*
X9421253Y-16608389D02*
X9402206Y-16598865D01*
X9402206Y-16598865D02*
X9392682Y-16589341D01*
X9392682Y-16589341D02*
X9383158Y-16570293D01*
X9383158Y-16570293D02*
X9383158Y-16513151D01*
X9383158Y-16513151D02*
X9392682Y-16494103D01*
X9392682Y-16494103D02*
X9402206Y-16484579D01*
X9402206Y-16484579D02*
X9421253Y-16475055D01*
X9421253Y-16475055D02*
X9449825Y-16475055D01*
X9449825Y-16475055D02*
X9468872Y-16484579D01*
X9468872Y-16484579D02*
X9478396Y-16494103D01*
X9478396Y-16494103D02*
X9487920Y-16513151D01*
X9487920Y-16513151D02*
X9487920Y-16570293D01*
X9487920Y-16570293D02*
X9478396Y-16589341D01*
X9478396Y-16589341D02*
X9468872Y-16598865D01*
X9468872Y-16598865D02*
X9449825Y-16608389D01*
X9449825Y-16608389D02*
X9421253Y-16608389D01*
X9545063Y-16475055D02*
X9621253Y-16475055D01*
X9573634Y-16408389D02*
X9573634Y-16579817D01*
X9573634Y-16579817D02*
X9583158Y-16598865D01*
X9583158Y-16598865D02*
X9602206Y-16608389D01*
X9602206Y-16608389D02*
X9621253Y-16608389D01*
X9840301Y-16475055D02*
X9840301Y-16675055D01*
X9840301Y-16484579D02*
X9859349Y-16475055D01*
X9859349Y-16475055D02*
X9897444Y-16475055D01*
X9897444Y-16475055D02*
X9916491Y-16484579D01*
X9916491Y-16484579D02*
X9926015Y-16494103D01*
X9926015Y-16494103D02*
X9935539Y-16513151D01*
X9935539Y-16513151D02*
X9935539Y-16570293D01*
X9935539Y-16570293D02*
X9926015Y-16589341D01*
X9926015Y-16589341D02*
X9916491Y-16598865D01*
X9916491Y-16598865D02*
X9897444Y-16608389D01*
X9897444Y-16608389D02*
X9859349Y-16608389D01*
X9859349Y-16608389D02*
X9840301Y-16598865D01*
X10049825Y-16608389D02*
X10030777Y-16598865D01*
X10030777Y-16598865D02*
X10021253Y-16579817D01*
X10021253Y-16579817D02*
X10021253Y-16408389D01*
X10211730Y-16608389D02*
X10211730Y-16503627D01*
X10211730Y-16503627D02*
X10202206Y-16484579D01*
X10202206Y-16484579D02*
X10183158Y-16475055D01*
X10183158Y-16475055D02*
X10145063Y-16475055D01*
X10145063Y-16475055D02*
X10126015Y-16484579D01*
X10211730Y-16598865D02*
X10192682Y-16608389D01*
X10192682Y-16608389D02*
X10145063Y-16608389D01*
X10145063Y-16608389D02*
X10126015Y-16598865D01*
X10126015Y-16598865D02*
X10116491Y-16579817D01*
X10116491Y-16579817D02*
X10116491Y-16560770D01*
X10116491Y-16560770D02*
X10126015Y-16541722D01*
X10126015Y-16541722D02*
X10145063Y-16532198D01*
X10145063Y-16532198D02*
X10192682Y-16532198D01*
X10192682Y-16532198D02*
X10211730Y-16522674D01*
X10278396Y-16475055D02*
X10354587Y-16475055D01*
X10306968Y-16408389D02*
X10306968Y-16579817D01*
X10306968Y-16579817D02*
X10316491Y-16598865D01*
X10316491Y-16598865D02*
X10335539Y-16608389D01*
X10335539Y-16608389D02*
X10354587Y-16608389D01*
X10497444Y-16598865D02*
X10478396Y-16608389D01*
X10478396Y-16608389D02*
X10440301Y-16608389D01*
X10440301Y-16608389D02*
X10421253Y-16598865D01*
X10421253Y-16598865D02*
X10411730Y-16579817D01*
X10411730Y-16579817D02*
X10411730Y-16503627D01*
X10411730Y-16503627D02*
X10421253Y-16484579D01*
X10421253Y-16484579D02*
X10440301Y-16475055D01*
X10440301Y-16475055D02*
X10478396Y-16475055D01*
X10478396Y-16475055D02*
X10497444Y-16484579D01*
X10497444Y-16484579D02*
X10506968Y-16503627D01*
X10506968Y-16503627D02*
X10506968Y-16522674D01*
X10506968Y-16522674D02*
X10411730Y-16541722D01*
X10678396Y-16608389D02*
X10678396Y-16408389D01*
X10678396Y-16598865D02*
X10659349Y-16608389D01*
X10659349Y-16608389D02*
X10621253Y-16608389D01*
X10621253Y-16608389D02*
X10602206Y-16598865D01*
X10602206Y-16598865D02*
X10592682Y-16589341D01*
X10592682Y-16589341D02*
X10583158Y-16570293D01*
X10583158Y-16570293D02*
X10583158Y-16513151D01*
X10583158Y-16513151D02*
X10592682Y-16494103D01*
X10592682Y-16494103D02*
X10602206Y-16484579D01*
X10602206Y-16484579D02*
X10621253Y-16475055D01*
X10621253Y-16475055D02*
X10659349Y-16475055D01*
X10659349Y-16475055D02*
X10678396Y-16484579D01*
X10754587Y-16684579D02*
X10764111Y-16675055D01*
X10764111Y-16675055D02*
X10783158Y-16646484D01*
X10783158Y-16646484D02*
X10792682Y-16627436D01*
X10792682Y-16627436D02*
X10802206Y-16598865D01*
X10802206Y-16598865D02*
X10811730Y-16551246D01*
X10811730Y-16551246D02*
X10811730Y-16513151D01*
X10811730Y-16513151D02*
X10802206Y-16465532D01*
X10802206Y-16465532D02*
X10792682Y-16436960D01*
X10792682Y-16436960D02*
X10783158Y-16417913D01*
X10783158Y-16417913D02*
X10764111Y-16389341D01*
X10764111Y-16389341D02*
X10754587Y-16379817D01*
D13*
X3808095Y-16806905D02*
G75*
G03*
X3618095Y-16806905I-95000J0D01*
G01*
X3618095Y-16806905D02*
G75*
G03*
X3808095Y-16806905I95000J0D01*
G01*
D11*
X4173634Y-16898389D02*
X4059348Y-16898389D01*
X4116491Y-16898389D02*
X4116491Y-16698389D01*
X4116491Y-16698389D02*
X4097443Y-16726960D01*
X4097443Y-16726960D02*
X4078396Y-16746008D01*
X4078396Y-16746008D02*
X4059348Y-16755532D01*
X4259348Y-16879341D02*
X4268872Y-16888865D01*
X4268872Y-16888865D02*
X4259348Y-16898389D01*
X4259348Y-16898389D02*
X4249824Y-16888865D01*
X4249824Y-16888865D02*
X4259348Y-16879341D01*
X4259348Y-16879341D02*
X4259348Y-16898389D01*
X4364110Y-16898389D02*
X4402205Y-16898389D01*
X4402205Y-16898389D02*
X4421253Y-16888865D01*
X4421253Y-16888865D02*
X4430777Y-16879341D01*
X4430777Y-16879341D02*
X4449824Y-16850770D01*
X4449824Y-16850770D02*
X4459348Y-16812675D01*
X4459348Y-16812675D02*
X4459348Y-16736484D01*
X4459348Y-16736484D02*
X4449824Y-16717436D01*
X4449824Y-16717436D02*
X4440300Y-16707913D01*
X4440300Y-16707913D02*
X4421253Y-16698389D01*
X4421253Y-16698389D02*
X4383158Y-16698389D01*
X4383158Y-16698389D02*
X4364110Y-16707913D01*
X4364110Y-16707913D02*
X4354586Y-16717436D01*
X4354586Y-16717436D02*
X4345062Y-16736484D01*
X4345062Y-16736484D02*
X4345062Y-16784103D01*
X4345062Y-16784103D02*
X4354586Y-16803151D01*
X4354586Y-16803151D02*
X4364110Y-16812675D01*
X4364110Y-16812675D02*
X4383158Y-16822198D01*
X4383158Y-16822198D02*
X4421253Y-16822198D01*
X4421253Y-16822198D02*
X4440300Y-16812675D01*
X4440300Y-16812675D02*
X4449824Y-16803151D01*
X4449824Y-16803151D02*
X4459348Y-16784103D01*
X4583158Y-16698389D02*
X4602205Y-16698389D01*
X4602205Y-16698389D02*
X4621253Y-16707913D01*
X4621253Y-16707913D02*
X4630777Y-16717436D01*
X4630777Y-16717436D02*
X4640300Y-16736484D01*
X4640300Y-16736484D02*
X4649824Y-16774579D01*
X4649824Y-16774579D02*
X4649824Y-16822198D01*
X4649824Y-16822198D02*
X4640300Y-16860294D01*
X4640300Y-16860294D02*
X4630777Y-16879341D01*
X4630777Y-16879341D02*
X4621253Y-16888865D01*
X4621253Y-16888865D02*
X4602205Y-16898389D01*
X4602205Y-16898389D02*
X4583158Y-16898389D01*
X4583158Y-16898389D02*
X4564110Y-16888865D01*
X4564110Y-16888865D02*
X4554586Y-16879341D01*
X4554586Y-16879341D02*
X4545062Y-16860294D01*
X4545062Y-16860294D02*
X4535539Y-16822198D01*
X4535539Y-16822198D02*
X4535539Y-16774579D01*
X4535539Y-16774579D02*
X4545062Y-16736484D01*
X4545062Y-16736484D02*
X4554586Y-16717436D01*
X4554586Y-16717436D02*
X4564110Y-16707913D01*
X4564110Y-16707913D02*
X4583158Y-16698389D01*
X4773634Y-16698389D02*
X4792681Y-16698389D01*
X4792681Y-16698389D02*
X4811729Y-16707913D01*
X4811729Y-16707913D02*
X4821253Y-16717436D01*
X4821253Y-16717436D02*
X4830777Y-16736484D01*
X4830777Y-16736484D02*
X4840300Y-16774579D01*
X4840300Y-16774579D02*
X4840300Y-16822198D01*
X4840300Y-16822198D02*
X4830777Y-16860294D01*
X4830777Y-16860294D02*
X4821253Y-16879341D01*
X4821253Y-16879341D02*
X4811729Y-16888865D01*
X4811729Y-16888865D02*
X4792681Y-16898389D01*
X4792681Y-16898389D02*
X4773634Y-16898389D01*
X4773634Y-16898389D02*
X4754586Y-16888865D01*
X4754586Y-16888865D02*
X4745062Y-16879341D01*
X4745062Y-16879341D02*
X4735539Y-16860294D01*
X4735539Y-16860294D02*
X4726015Y-16822198D01*
X4726015Y-16822198D02*
X4726015Y-16774579D01*
X4726015Y-16774579D02*
X4735539Y-16736484D01*
X4735539Y-16736484D02*
X4745062Y-16717436D01*
X4745062Y-16717436D02*
X4754586Y-16707913D01*
X4754586Y-16707913D02*
X4773634Y-16698389D01*
X4926015Y-16898389D02*
X4926015Y-16765055D01*
X4926015Y-16784103D02*
X4935539Y-16774579D01*
X4935539Y-16774579D02*
X4954586Y-16765055D01*
X4954586Y-16765055D02*
X4983158Y-16765055D01*
X4983158Y-16765055D02*
X5002205Y-16774579D01*
X5002205Y-16774579D02*
X5011729Y-16793627D01*
X5011729Y-16793627D02*
X5011729Y-16898389D01*
X5011729Y-16793627D02*
X5021253Y-16774579D01*
X5021253Y-16774579D02*
X5040300Y-16765055D01*
X5040300Y-16765055D02*
X5068872Y-16765055D01*
X5068872Y-16765055D02*
X5087920Y-16774579D01*
X5087920Y-16774579D02*
X5097443Y-16793627D01*
X5097443Y-16793627D02*
X5097443Y-16898389D01*
X5192681Y-16898389D02*
X5192681Y-16765055D01*
X5192681Y-16784103D02*
X5202205Y-16774579D01*
X5202205Y-16774579D02*
X5221253Y-16765055D01*
X5221253Y-16765055D02*
X5249824Y-16765055D01*
X5249824Y-16765055D02*
X5268872Y-16774579D01*
X5268872Y-16774579D02*
X5278396Y-16793627D01*
X5278396Y-16793627D02*
X5278396Y-16898389D01*
X5278396Y-16793627D02*
X5287920Y-16774579D01*
X5287920Y-16774579D02*
X5306967Y-16765055D01*
X5306967Y-16765055D02*
X5335539Y-16765055D01*
X5335539Y-16765055D02*
X5354586Y-16774579D01*
X5354586Y-16774579D02*
X5364110Y-16793627D01*
X5364110Y-16793627D02*
X5364110Y-16898389D01*
X5754586Y-16688865D02*
X5583158Y-16946008D01*
X6011729Y-16698389D02*
X6030777Y-16698389D01*
X6030777Y-16698389D02*
X6049824Y-16707913D01*
X6049824Y-16707913D02*
X6059348Y-16717436D01*
X6059348Y-16717436D02*
X6068872Y-16736484D01*
X6068872Y-16736484D02*
X6078396Y-16774579D01*
X6078396Y-16774579D02*
X6078396Y-16822198D01*
X6078396Y-16822198D02*
X6068872Y-16860294D01*
X6068872Y-16860294D02*
X6059348Y-16879341D01*
X6059348Y-16879341D02*
X6049824Y-16888865D01*
X6049824Y-16888865D02*
X6030777Y-16898389D01*
X6030777Y-16898389D02*
X6011729Y-16898389D01*
X6011729Y-16898389D02*
X5992681Y-16888865D01*
X5992681Y-16888865D02*
X5983158Y-16879341D01*
X5983158Y-16879341D02*
X5973634Y-16860294D01*
X5973634Y-16860294D02*
X5964110Y-16822198D01*
X5964110Y-16822198D02*
X5964110Y-16774579D01*
X5964110Y-16774579D02*
X5973634Y-16736484D01*
X5973634Y-16736484D02*
X5983158Y-16717436D01*
X5983158Y-16717436D02*
X5992681Y-16707913D01*
X5992681Y-16707913D02*
X6011729Y-16698389D01*
X6164110Y-16879341D02*
X6173634Y-16888865D01*
X6173634Y-16888865D02*
X6164110Y-16898389D01*
X6164110Y-16898389D02*
X6154586Y-16888865D01*
X6154586Y-16888865D02*
X6164110Y-16879341D01*
X6164110Y-16879341D02*
X6164110Y-16898389D01*
X6297443Y-16698389D02*
X6316491Y-16698389D01*
X6316491Y-16698389D02*
X6335539Y-16707913D01*
X6335539Y-16707913D02*
X6345062Y-16717436D01*
X6345062Y-16717436D02*
X6354586Y-16736484D01*
X6354586Y-16736484D02*
X6364110Y-16774579D01*
X6364110Y-16774579D02*
X6364110Y-16822198D01*
X6364110Y-16822198D02*
X6354586Y-16860294D01*
X6354586Y-16860294D02*
X6345062Y-16879341D01*
X6345062Y-16879341D02*
X6335539Y-16888865D01*
X6335539Y-16888865D02*
X6316491Y-16898389D01*
X6316491Y-16898389D02*
X6297443Y-16898389D01*
X6297443Y-16898389D02*
X6278396Y-16888865D01*
X6278396Y-16888865D02*
X6268872Y-16879341D01*
X6268872Y-16879341D02*
X6259348Y-16860294D01*
X6259348Y-16860294D02*
X6249824Y-16822198D01*
X6249824Y-16822198D02*
X6249824Y-16774579D01*
X6249824Y-16774579D02*
X6259348Y-16736484D01*
X6259348Y-16736484D02*
X6268872Y-16717436D01*
X6268872Y-16717436D02*
X6278396Y-16707913D01*
X6278396Y-16707913D02*
X6297443Y-16698389D01*
X6430777Y-16698389D02*
X6564110Y-16698389D01*
X6564110Y-16698389D02*
X6478396Y-16898389D01*
X6726015Y-16765055D02*
X6726015Y-16898389D01*
X6678396Y-16688865D02*
X6630777Y-16831722D01*
X6630777Y-16831722D02*
X6754586Y-16831722D01*
X6859348Y-16784103D02*
X6840301Y-16774579D01*
X6840301Y-16774579D02*
X6830777Y-16765055D01*
X6830777Y-16765055D02*
X6821253Y-16746008D01*
X6821253Y-16746008D02*
X6821253Y-16736484D01*
X6821253Y-16736484D02*
X6830777Y-16717436D01*
X6830777Y-16717436D02*
X6840301Y-16707913D01*
X6840301Y-16707913D02*
X6859348Y-16698389D01*
X6859348Y-16698389D02*
X6897443Y-16698389D01*
X6897443Y-16698389D02*
X6916491Y-16707913D01*
X6916491Y-16707913D02*
X6926015Y-16717436D01*
X6926015Y-16717436D02*
X6935539Y-16736484D01*
X6935539Y-16736484D02*
X6935539Y-16746008D01*
X6935539Y-16746008D02*
X6926015Y-16765055D01*
X6926015Y-16765055D02*
X6916491Y-16774579D01*
X6916491Y-16774579D02*
X6897443Y-16784103D01*
X6897443Y-16784103D02*
X6859348Y-16784103D01*
X6859348Y-16784103D02*
X6840301Y-16793627D01*
X6840301Y-16793627D02*
X6830777Y-16803151D01*
X6830777Y-16803151D02*
X6821253Y-16822198D01*
X6821253Y-16822198D02*
X6821253Y-16860294D01*
X6821253Y-16860294D02*
X6830777Y-16879341D01*
X6830777Y-16879341D02*
X6840301Y-16888865D01*
X6840301Y-16888865D02*
X6859348Y-16898389D01*
X6859348Y-16898389D02*
X6897443Y-16898389D01*
X6897443Y-16898389D02*
X6916491Y-16888865D01*
X6916491Y-16888865D02*
X6926015Y-16879341D01*
X6926015Y-16879341D02*
X6935539Y-16860294D01*
X6935539Y-16860294D02*
X6935539Y-16822198D01*
X6935539Y-16822198D02*
X6926015Y-16803151D01*
X6926015Y-16803151D02*
X6916491Y-16793627D01*
X6916491Y-16793627D02*
X6897443Y-16784103D01*
X7011729Y-16698389D02*
X7011729Y-16736484D01*
X7087920Y-16698389D02*
X7087920Y-16736484D01*
X7383158Y-16974579D02*
X7373634Y-16965055D01*
X7373634Y-16965055D02*
X7354586Y-16936484D01*
X7354586Y-16936484D02*
X7345063Y-16917436D01*
X7345063Y-16917436D02*
X7335539Y-16888865D01*
X7335539Y-16888865D02*
X7326015Y-16841246D01*
X7326015Y-16841246D02*
X7326015Y-16803151D01*
X7326015Y-16803151D02*
X7335539Y-16755532D01*
X7335539Y-16755532D02*
X7345063Y-16726960D01*
X7345063Y-16726960D02*
X7354586Y-16707913D01*
X7354586Y-16707913D02*
X7373634Y-16679341D01*
X7373634Y-16679341D02*
X7383158Y-16669817D01*
X7545063Y-16698389D02*
X7506967Y-16698389D01*
X7506967Y-16698389D02*
X7487920Y-16707913D01*
X7487920Y-16707913D02*
X7478396Y-16717436D01*
X7478396Y-16717436D02*
X7459348Y-16746008D01*
X7459348Y-16746008D02*
X7449824Y-16784103D01*
X7449824Y-16784103D02*
X7449824Y-16860294D01*
X7449824Y-16860294D02*
X7459348Y-16879341D01*
X7459348Y-16879341D02*
X7468872Y-16888865D01*
X7468872Y-16888865D02*
X7487920Y-16898389D01*
X7487920Y-16898389D02*
X7526015Y-16898389D01*
X7526015Y-16898389D02*
X7545063Y-16888865D01*
X7545063Y-16888865D02*
X7554586Y-16879341D01*
X7554586Y-16879341D02*
X7564110Y-16860294D01*
X7564110Y-16860294D02*
X7564110Y-16812675D01*
X7564110Y-16812675D02*
X7554586Y-16793627D01*
X7554586Y-16793627D02*
X7545063Y-16784103D01*
X7545063Y-16784103D02*
X7526015Y-16774579D01*
X7526015Y-16774579D02*
X7487920Y-16774579D01*
X7487920Y-16774579D02*
X7468872Y-16784103D01*
X7468872Y-16784103D02*
X7459348Y-16793627D01*
X7459348Y-16793627D02*
X7449824Y-16812675D01*
X7735539Y-16765055D02*
X7735539Y-16898389D01*
X7687920Y-16688865D02*
X7640301Y-16831722D01*
X7640301Y-16831722D02*
X7764110Y-16831722D01*
X7992682Y-16898389D02*
X7992682Y-16698389D01*
X8078396Y-16898389D02*
X8078396Y-16793627D01*
X8078396Y-16793627D02*
X8068872Y-16774579D01*
X8068872Y-16774579D02*
X8049825Y-16765055D01*
X8049825Y-16765055D02*
X8021253Y-16765055D01*
X8021253Y-16765055D02*
X8002205Y-16774579D01*
X8002205Y-16774579D02*
X7992682Y-16784103D01*
X8202205Y-16898389D02*
X8183158Y-16888865D01*
X8183158Y-16888865D02*
X8173634Y-16879341D01*
X8173634Y-16879341D02*
X8164110Y-16860294D01*
X8164110Y-16860294D02*
X8164110Y-16803151D01*
X8164110Y-16803151D02*
X8173634Y-16784103D01*
X8173634Y-16784103D02*
X8183158Y-16774579D01*
X8183158Y-16774579D02*
X8202205Y-16765055D01*
X8202205Y-16765055D02*
X8230777Y-16765055D01*
X8230777Y-16765055D02*
X8249825Y-16774579D01*
X8249825Y-16774579D02*
X8259348Y-16784103D01*
X8259348Y-16784103D02*
X8268872Y-16803151D01*
X8268872Y-16803151D02*
X8268872Y-16860294D01*
X8268872Y-16860294D02*
X8259348Y-16879341D01*
X8259348Y-16879341D02*
X8249825Y-16888865D01*
X8249825Y-16888865D02*
X8230777Y-16898389D01*
X8230777Y-16898389D02*
X8202205Y-16898389D01*
X8383158Y-16898389D02*
X8364110Y-16888865D01*
X8364110Y-16888865D02*
X8354586Y-16869817D01*
X8354586Y-16869817D02*
X8354586Y-16698389D01*
X8535539Y-16888865D02*
X8516491Y-16898389D01*
X8516491Y-16898389D02*
X8478396Y-16898389D01*
X8478396Y-16898389D02*
X8459348Y-16888865D01*
X8459348Y-16888865D02*
X8449825Y-16869817D01*
X8449825Y-16869817D02*
X8449825Y-16793627D01*
X8449825Y-16793627D02*
X8459348Y-16774579D01*
X8459348Y-16774579D02*
X8478396Y-16765055D01*
X8478396Y-16765055D02*
X8516491Y-16765055D01*
X8516491Y-16765055D02*
X8535539Y-16774579D01*
X8535539Y-16774579D02*
X8545063Y-16793627D01*
X8545063Y-16793627D02*
X8545063Y-16812675D01*
X8545063Y-16812675D02*
X8449825Y-16831722D01*
X8621253Y-16888865D02*
X8640301Y-16898389D01*
X8640301Y-16898389D02*
X8678396Y-16898389D01*
X8678396Y-16898389D02*
X8697444Y-16888865D01*
X8697444Y-16888865D02*
X8706968Y-16869817D01*
X8706968Y-16869817D02*
X8706968Y-16860294D01*
X8706968Y-16860294D02*
X8697444Y-16841246D01*
X8697444Y-16841246D02*
X8678396Y-16831722D01*
X8678396Y-16831722D02*
X8649825Y-16831722D01*
X8649825Y-16831722D02*
X8630777Y-16822198D01*
X8630777Y-16822198D02*
X8621253Y-16803151D01*
X8621253Y-16803151D02*
X8621253Y-16793627D01*
X8621253Y-16793627D02*
X8630777Y-16774579D01*
X8630777Y-16774579D02*
X8649825Y-16765055D01*
X8649825Y-16765055D02*
X8678396Y-16765055D01*
X8678396Y-16765055D02*
X8697444Y-16774579D01*
X8773634Y-16974579D02*
X8783158Y-16965055D01*
X8783158Y-16965055D02*
X8802206Y-16936484D01*
X8802206Y-16936484D02*
X8811729Y-16917436D01*
X8811729Y-16917436D02*
X8821253Y-16888865D01*
X8821253Y-16888865D02*
X8830777Y-16841246D01*
X8830777Y-16841246D02*
X8830777Y-16803151D01*
X8830777Y-16803151D02*
X8821253Y-16755532D01*
X8821253Y-16755532D02*
X8811729Y-16726960D01*
X8811729Y-16726960D02*
X8802206Y-16707913D01*
X8802206Y-16707913D02*
X8783158Y-16679341D01*
X8783158Y-16679341D02*
X8773634Y-16669817D01*
X9135539Y-16974579D02*
X9126015Y-16965055D01*
X9126015Y-16965055D02*
X9106968Y-16936484D01*
X9106968Y-16936484D02*
X9097444Y-16917436D01*
X9097444Y-16917436D02*
X9087920Y-16888865D01*
X9087920Y-16888865D02*
X9078396Y-16841246D01*
X9078396Y-16841246D02*
X9078396Y-16803151D01*
X9078396Y-16803151D02*
X9087920Y-16755532D01*
X9087920Y-16755532D02*
X9097444Y-16726960D01*
X9097444Y-16726960D02*
X9106968Y-16707913D01*
X9106968Y-16707913D02*
X9126015Y-16679341D01*
X9126015Y-16679341D02*
X9135539Y-16669817D01*
X9211729Y-16765055D02*
X9211729Y-16898389D01*
X9211729Y-16784103D02*
X9221253Y-16774579D01*
X9221253Y-16774579D02*
X9240301Y-16765055D01*
X9240301Y-16765055D02*
X9268872Y-16765055D01*
X9268872Y-16765055D02*
X9287920Y-16774579D01*
X9287920Y-16774579D02*
X9297444Y-16793627D01*
X9297444Y-16793627D02*
X9297444Y-16898389D01*
X9421253Y-16898389D02*
X9402206Y-16888865D01*
X9402206Y-16888865D02*
X9392682Y-16879341D01*
X9392682Y-16879341D02*
X9383158Y-16860294D01*
X9383158Y-16860294D02*
X9383158Y-16803151D01*
X9383158Y-16803151D02*
X9392682Y-16784103D01*
X9392682Y-16784103D02*
X9402206Y-16774579D01*
X9402206Y-16774579D02*
X9421253Y-16765055D01*
X9421253Y-16765055D02*
X9449825Y-16765055D01*
X9449825Y-16765055D02*
X9468872Y-16774579D01*
X9468872Y-16774579D02*
X9478396Y-16784103D01*
X9478396Y-16784103D02*
X9487920Y-16803151D01*
X9487920Y-16803151D02*
X9487920Y-16860294D01*
X9487920Y-16860294D02*
X9478396Y-16879341D01*
X9478396Y-16879341D02*
X9468872Y-16888865D01*
X9468872Y-16888865D02*
X9449825Y-16898389D01*
X9449825Y-16898389D02*
X9421253Y-16898389D01*
X9545063Y-16765055D02*
X9621253Y-16765055D01*
X9573634Y-16698389D02*
X9573634Y-16869817D01*
X9573634Y-16869817D02*
X9583158Y-16888865D01*
X9583158Y-16888865D02*
X9602206Y-16898389D01*
X9602206Y-16898389D02*
X9621253Y-16898389D01*
X9840301Y-16765055D02*
X9840301Y-16965055D01*
X9840301Y-16774579D02*
X9859349Y-16765055D01*
X9859349Y-16765055D02*
X9897444Y-16765055D01*
X9897444Y-16765055D02*
X9916491Y-16774579D01*
X9916491Y-16774579D02*
X9926015Y-16784103D01*
X9926015Y-16784103D02*
X9935539Y-16803151D01*
X9935539Y-16803151D02*
X9935539Y-16860294D01*
X9935539Y-16860294D02*
X9926015Y-16879341D01*
X9926015Y-16879341D02*
X9916491Y-16888865D01*
X9916491Y-16888865D02*
X9897444Y-16898389D01*
X9897444Y-16898389D02*
X9859349Y-16898389D01*
X9859349Y-16898389D02*
X9840301Y-16888865D01*
X10049825Y-16898389D02*
X10030777Y-16888865D01*
X10030777Y-16888865D02*
X10021253Y-16869817D01*
X10021253Y-16869817D02*
X10021253Y-16698389D01*
X10211730Y-16898389D02*
X10211730Y-16793627D01*
X10211730Y-16793627D02*
X10202206Y-16774579D01*
X10202206Y-16774579D02*
X10183158Y-16765055D01*
X10183158Y-16765055D02*
X10145063Y-16765055D01*
X10145063Y-16765055D02*
X10126015Y-16774579D01*
X10211730Y-16888865D02*
X10192682Y-16898389D01*
X10192682Y-16898389D02*
X10145063Y-16898389D01*
X10145063Y-16898389D02*
X10126015Y-16888865D01*
X10126015Y-16888865D02*
X10116491Y-16869817D01*
X10116491Y-16869817D02*
X10116491Y-16850770D01*
X10116491Y-16850770D02*
X10126015Y-16831722D01*
X10126015Y-16831722D02*
X10145063Y-16822198D01*
X10145063Y-16822198D02*
X10192682Y-16822198D01*
X10192682Y-16822198D02*
X10211730Y-16812675D01*
X10278396Y-16765055D02*
X10354587Y-16765055D01*
X10306968Y-16698389D02*
X10306968Y-16869817D01*
X10306968Y-16869817D02*
X10316491Y-16888865D01*
X10316491Y-16888865D02*
X10335539Y-16898389D01*
X10335539Y-16898389D02*
X10354587Y-16898389D01*
X10497444Y-16888865D02*
X10478396Y-16898389D01*
X10478396Y-16898389D02*
X10440301Y-16898389D01*
X10440301Y-16898389D02*
X10421253Y-16888865D01*
X10421253Y-16888865D02*
X10411730Y-16869817D01*
X10411730Y-16869817D02*
X10411730Y-16793627D01*
X10411730Y-16793627D02*
X10421253Y-16774579D01*
X10421253Y-16774579D02*
X10440301Y-16765055D01*
X10440301Y-16765055D02*
X10478396Y-16765055D01*
X10478396Y-16765055D02*
X10497444Y-16774579D01*
X10497444Y-16774579D02*
X10506968Y-16793627D01*
X10506968Y-16793627D02*
X10506968Y-16812675D01*
X10506968Y-16812675D02*
X10411730Y-16831722D01*
X10678396Y-16898389D02*
X10678396Y-16698389D01*
X10678396Y-16888865D02*
X10659349Y-16898389D01*
X10659349Y-16898389D02*
X10621253Y-16898389D01*
X10621253Y-16898389D02*
X10602206Y-16888865D01*
X10602206Y-16888865D02*
X10592682Y-16879341D01*
X10592682Y-16879341D02*
X10583158Y-16860294D01*
X10583158Y-16860294D02*
X10583158Y-16803151D01*
X10583158Y-16803151D02*
X10592682Y-16784103D01*
X10592682Y-16784103D02*
X10602206Y-16774579D01*
X10602206Y-16774579D02*
X10621253Y-16765055D01*
X10621253Y-16765055D02*
X10659349Y-16765055D01*
X10659349Y-16765055D02*
X10678396Y-16774579D01*
X10754587Y-16974579D02*
X10764111Y-16965055D01*
X10764111Y-16965055D02*
X10783158Y-16936484D01*
X10783158Y-16936484D02*
X10792682Y-16917436D01*
X10792682Y-16917436D02*
X10802206Y-16888865D01*
X10802206Y-16888865D02*
X10811730Y-16841246D01*
X10811730Y-16841246D02*
X10811730Y-16803151D01*
X10811730Y-16803151D02*
X10802206Y-16755532D01*
X10802206Y-16755532D02*
X10792682Y-16726960D01*
X10792682Y-16726960D02*
X10783158Y-16707913D01*
X10783158Y-16707913D02*
X10764111Y-16679341D01*
X10764111Y-16679341D02*
X10754587Y-16669817D01*
X3708095Y-17016905D02*
X3708095Y-17216905D01*
X3608095Y-17116905D02*
X3808095Y-17116905D01*
X4049824Y-17008389D02*
X4173634Y-17008389D01*
X4173634Y-17008389D02*
X4106967Y-17084579D01*
X4106967Y-17084579D02*
X4135538Y-17084579D01*
X4135538Y-17084579D02*
X4154586Y-17094103D01*
X4154586Y-17094103D02*
X4164110Y-17103627D01*
X4164110Y-17103627D02*
X4173634Y-17122675D01*
X4173634Y-17122675D02*
X4173634Y-17170294D01*
X4173634Y-17170294D02*
X4164110Y-17189341D01*
X4164110Y-17189341D02*
X4154586Y-17198865D01*
X4154586Y-17198865D02*
X4135538Y-17208389D01*
X4135538Y-17208389D02*
X4078396Y-17208389D01*
X4078396Y-17208389D02*
X4059348Y-17198865D01*
X4059348Y-17198865D02*
X4049824Y-17189341D01*
X4259348Y-17189341D02*
X4268872Y-17198865D01*
X4268872Y-17198865D02*
X4259348Y-17208389D01*
X4259348Y-17208389D02*
X4249824Y-17198865D01*
X4249824Y-17198865D02*
X4259348Y-17189341D01*
X4259348Y-17189341D02*
X4259348Y-17208389D01*
X4449824Y-17008389D02*
X4354586Y-17008389D01*
X4354586Y-17008389D02*
X4345062Y-17103627D01*
X4345062Y-17103627D02*
X4354586Y-17094103D01*
X4354586Y-17094103D02*
X4373634Y-17084579D01*
X4373634Y-17084579D02*
X4421253Y-17084579D01*
X4421253Y-17084579D02*
X4440300Y-17094103D01*
X4440300Y-17094103D02*
X4449824Y-17103627D01*
X4449824Y-17103627D02*
X4459348Y-17122675D01*
X4459348Y-17122675D02*
X4459348Y-17170294D01*
X4459348Y-17170294D02*
X4449824Y-17189341D01*
X4449824Y-17189341D02*
X4440300Y-17198865D01*
X4440300Y-17198865D02*
X4421253Y-17208389D01*
X4421253Y-17208389D02*
X4373634Y-17208389D01*
X4373634Y-17208389D02*
X4354586Y-17198865D01*
X4354586Y-17198865D02*
X4345062Y-17189341D01*
X4583158Y-17008389D02*
X4602205Y-17008389D01*
X4602205Y-17008389D02*
X4621253Y-17017913D01*
X4621253Y-17017913D02*
X4630777Y-17027436D01*
X4630777Y-17027436D02*
X4640300Y-17046484D01*
X4640300Y-17046484D02*
X4649824Y-17084579D01*
X4649824Y-17084579D02*
X4649824Y-17132198D01*
X4649824Y-17132198D02*
X4640300Y-17170294D01*
X4640300Y-17170294D02*
X4630777Y-17189341D01*
X4630777Y-17189341D02*
X4621253Y-17198865D01*
X4621253Y-17198865D02*
X4602205Y-17208389D01*
X4602205Y-17208389D02*
X4583158Y-17208389D01*
X4583158Y-17208389D02*
X4564110Y-17198865D01*
X4564110Y-17198865D02*
X4554586Y-17189341D01*
X4554586Y-17189341D02*
X4545062Y-17170294D01*
X4545062Y-17170294D02*
X4535539Y-17132198D01*
X4535539Y-17132198D02*
X4535539Y-17084579D01*
X4535539Y-17084579D02*
X4545062Y-17046484D01*
X4545062Y-17046484D02*
X4554586Y-17027436D01*
X4554586Y-17027436D02*
X4564110Y-17017913D01*
X4564110Y-17017913D02*
X4583158Y-17008389D01*
X4773634Y-17008389D02*
X4792681Y-17008389D01*
X4792681Y-17008389D02*
X4811729Y-17017913D01*
X4811729Y-17017913D02*
X4821253Y-17027436D01*
X4821253Y-17027436D02*
X4830777Y-17046484D01*
X4830777Y-17046484D02*
X4840300Y-17084579D01*
X4840300Y-17084579D02*
X4840300Y-17132198D01*
X4840300Y-17132198D02*
X4830777Y-17170294D01*
X4830777Y-17170294D02*
X4821253Y-17189341D01*
X4821253Y-17189341D02*
X4811729Y-17198865D01*
X4811729Y-17198865D02*
X4792681Y-17208389D01*
X4792681Y-17208389D02*
X4773634Y-17208389D01*
X4773634Y-17208389D02*
X4754586Y-17198865D01*
X4754586Y-17198865D02*
X4745062Y-17189341D01*
X4745062Y-17189341D02*
X4735539Y-17170294D01*
X4735539Y-17170294D02*
X4726015Y-17132198D01*
X4726015Y-17132198D02*
X4726015Y-17084579D01*
X4726015Y-17084579D02*
X4735539Y-17046484D01*
X4735539Y-17046484D02*
X4745062Y-17027436D01*
X4745062Y-17027436D02*
X4754586Y-17017913D01*
X4754586Y-17017913D02*
X4773634Y-17008389D01*
X4926015Y-17208389D02*
X4926015Y-17075055D01*
X4926015Y-17094103D02*
X4935539Y-17084579D01*
X4935539Y-17084579D02*
X4954586Y-17075055D01*
X4954586Y-17075055D02*
X4983158Y-17075055D01*
X4983158Y-17075055D02*
X5002205Y-17084579D01*
X5002205Y-17084579D02*
X5011729Y-17103627D01*
X5011729Y-17103627D02*
X5011729Y-17208389D01*
X5011729Y-17103627D02*
X5021253Y-17084579D01*
X5021253Y-17084579D02*
X5040300Y-17075055D01*
X5040300Y-17075055D02*
X5068872Y-17075055D01*
X5068872Y-17075055D02*
X5087920Y-17084579D01*
X5087920Y-17084579D02*
X5097443Y-17103627D01*
X5097443Y-17103627D02*
X5097443Y-17208389D01*
X5192681Y-17208389D02*
X5192681Y-17075055D01*
X5192681Y-17094103D02*
X5202205Y-17084579D01*
X5202205Y-17084579D02*
X5221253Y-17075055D01*
X5221253Y-17075055D02*
X5249824Y-17075055D01*
X5249824Y-17075055D02*
X5268872Y-17084579D01*
X5268872Y-17084579D02*
X5278396Y-17103627D01*
X5278396Y-17103627D02*
X5278396Y-17208389D01*
X5278396Y-17103627D02*
X5287920Y-17084579D01*
X5287920Y-17084579D02*
X5306967Y-17075055D01*
X5306967Y-17075055D02*
X5335539Y-17075055D01*
X5335539Y-17075055D02*
X5354586Y-17084579D01*
X5354586Y-17084579D02*
X5364110Y-17103627D01*
X5364110Y-17103627D02*
X5364110Y-17208389D01*
X5754586Y-16998865D02*
X5583158Y-17256008D01*
X6011729Y-17008389D02*
X6030777Y-17008389D01*
X6030777Y-17008389D02*
X6049824Y-17017913D01*
X6049824Y-17017913D02*
X6059348Y-17027436D01*
X6059348Y-17027436D02*
X6068872Y-17046484D01*
X6068872Y-17046484D02*
X6078396Y-17084579D01*
X6078396Y-17084579D02*
X6078396Y-17132198D01*
X6078396Y-17132198D02*
X6068872Y-17170294D01*
X6068872Y-17170294D02*
X6059348Y-17189341D01*
X6059348Y-17189341D02*
X6049824Y-17198865D01*
X6049824Y-17198865D02*
X6030777Y-17208389D01*
X6030777Y-17208389D02*
X6011729Y-17208389D01*
X6011729Y-17208389D02*
X5992681Y-17198865D01*
X5992681Y-17198865D02*
X5983158Y-17189341D01*
X5983158Y-17189341D02*
X5973634Y-17170294D01*
X5973634Y-17170294D02*
X5964110Y-17132198D01*
X5964110Y-17132198D02*
X5964110Y-17084579D01*
X5964110Y-17084579D02*
X5973634Y-17046484D01*
X5973634Y-17046484D02*
X5983158Y-17027436D01*
X5983158Y-17027436D02*
X5992681Y-17017913D01*
X5992681Y-17017913D02*
X6011729Y-17008389D01*
X6164110Y-17189341D02*
X6173634Y-17198865D01*
X6173634Y-17198865D02*
X6164110Y-17208389D01*
X6164110Y-17208389D02*
X6154586Y-17198865D01*
X6154586Y-17198865D02*
X6164110Y-17189341D01*
X6164110Y-17189341D02*
X6164110Y-17208389D01*
X6364110Y-17208389D02*
X6249824Y-17208389D01*
X6306967Y-17208389D02*
X6306967Y-17008389D01*
X6306967Y-17008389D02*
X6287920Y-17036960D01*
X6287920Y-17036960D02*
X6268872Y-17056008D01*
X6268872Y-17056008D02*
X6249824Y-17065532D01*
X6430777Y-17008389D02*
X6554586Y-17008389D01*
X6554586Y-17008389D02*
X6487920Y-17084579D01*
X6487920Y-17084579D02*
X6516491Y-17084579D01*
X6516491Y-17084579D02*
X6535539Y-17094103D01*
X6535539Y-17094103D02*
X6545062Y-17103627D01*
X6545062Y-17103627D02*
X6554586Y-17122675D01*
X6554586Y-17122675D02*
X6554586Y-17170294D01*
X6554586Y-17170294D02*
X6545062Y-17189341D01*
X6545062Y-17189341D02*
X6535539Y-17198865D01*
X6535539Y-17198865D02*
X6516491Y-17208389D01*
X6516491Y-17208389D02*
X6459348Y-17208389D01*
X6459348Y-17208389D02*
X6440301Y-17198865D01*
X6440301Y-17198865D02*
X6430777Y-17189341D01*
X6621253Y-17008389D02*
X6754586Y-17008389D01*
X6754586Y-17008389D02*
X6668872Y-17208389D01*
X6859348Y-17094103D02*
X6840301Y-17084579D01*
X6840301Y-17084579D02*
X6830777Y-17075055D01*
X6830777Y-17075055D02*
X6821253Y-17056008D01*
X6821253Y-17056008D02*
X6821253Y-17046484D01*
X6821253Y-17046484D02*
X6830777Y-17027436D01*
X6830777Y-17027436D02*
X6840301Y-17017913D01*
X6840301Y-17017913D02*
X6859348Y-17008389D01*
X6859348Y-17008389D02*
X6897443Y-17008389D01*
X6897443Y-17008389D02*
X6916491Y-17017913D01*
X6916491Y-17017913D02*
X6926015Y-17027436D01*
X6926015Y-17027436D02*
X6935539Y-17046484D01*
X6935539Y-17046484D02*
X6935539Y-17056008D01*
X6935539Y-17056008D02*
X6926015Y-17075055D01*
X6926015Y-17075055D02*
X6916491Y-17084579D01*
X6916491Y-17084579D02*
X6897443Y-17094103D01*
X6897443Y-17094103D02*
X6859348Y-17094103D01*
X6859348Y-17094103D02*
X6840301Y-17103627D01*
X6840301Y-17103627D02*
X6830777Y-17113151D01*
X6830777Y-17113151D02*
X6821253Y-17132198D01*
X6821253Y-17132198D02*
X6821253Y-17170294D01*
X6821253Y-17170294D02*
X6830777Y-17189341D01*
X6830777Y-17189341D02*
X6840301Y-17198865D01*
X6840301Y-17198865D02*
X6859348Y-17208389D01*
X6859348Y-17208389D02*
X6897443Y-17208389D01*
X6897443Y-17208389D02*
X6916491Y-17198865D01*
X6916491Y-17198865D02*
X6926015Y-17189341D01*
X6926015Y-17189341D02*
X6935539Y-17170294D01*
X6935539Y-17170294D02*
X6935539Y-17132198D01*
X6935539Y-17132198D02*
X6926015Y-17113151D01*
X6926015Y-17113151D02*
X6916491Y-17103627D01*
X6916491Y-17103627D02*
X6897443Y-17094103D01*
X7011729Y-17008389D02*
X7011729Y-17046484D01*
X7087920Y-17008389D02*
X7087920Y-17046484D01*
X7383158Y-17284579D02*
X7373634Y-17275055D01*
X7373634Y-17275055D02*
X7354586Y-17246484D01*
X7354586Y-17246484D02*
X7345063Y-17227436D01*
X7345063Y-17227436D02*
X7335539Y-17198865D01*
X7335539Y-17198865D02*
X7326015Y-17151246D01*
X7326015Y-17151246D02*
X7326015Y-17113151D01*
X7326015Y-17113151D02*
X7335539Y-17065532D01*
X7335539Y-17065532D02*
X7345063Y-17036960D01*
X7345063Y-17036960D02*
X7354586Y-17017913D01*
X7354586Y-17017913D02*
X7373634Y-16989341D01*
X7373634Y-16989341D02*
X7383158Y-16979817D01*
X7440301Y-17008389D02*
X7564110Y-17008389D01*
X7564110Y-17008389D02*
X7497443Y-17084579D01*
X7497443Y-17084579D02*
X7526015Y-17084579D01*
X7526015Y-17084579D02*
X7545063Y-17094103D01*
X7545063Y-17094103D02*
X7554586Y-17103627D01*
X7554586Y-17103627D02*
X7564110Y-17122675D01*
X7564110Y-17122675D02*
X7564110Y-17170294D01*
X7564110Y-17170294D02*
X7554586Y-17189341D01*
X7554586Y-17189341D02*
X7545063Y-17198865D01*
X7545063Y-17198865D02*
X7526015Y-17208389D01*
X7526015Y-17208389D02*
X7468872Y-17208389D01*
X7468872Y-17208389D02*
X7449824Y-17198865D01*
X7449824Y-17198865D02*
X7440301Y-17189341D01*
X7640301Y-17027436D02*
X7649824Y-17017913D01*
X7649824Y-17017913D02*
X7668872Y-17008389D01*
X7668872Y-17008389D02*
X7716491Y-17008389D01*
X7716491Y-17008389D02*
X7735539Y-17017913D01*
X7735539Y-17017913D02*
X7745063Y-17027436D01*
X7745063Y-17027436D02*
X7754586Y-17046484D01*
X7754586Y-17046484D02*
X7754586Y-17065532D01*
X7754586Y-17065532D02*
X7745063Y-17094103D01*
X7745063Y-17094103D02*
X7630777Y-17208389D01*
X7630777Y-17208389D02*
X7754586Y-17208389D01*
X7992682Y-17208389D02*
X7992682Y-17008389D01*
X8078396Y-17208389D02*
X8078396Y-17103627D01*
X8078396Y-17103627D02*
X8068872Y-17084579D01*
X8068872Y-17084579D02*
X8049825Y-17075055D01*
X8049825Y-17075055D02*
X8021253Y-17075055D01*
X8021253Y-17075055D02*
X8002205Y-17084579D01*
X8002205Y-17084579D02*
X7992682Y-17094103D01*
X8202205Y-17208389D02*
X8183158Y-17198865D01*
X8183158Y-17198865D02*
X8173634Y-17189341D01*
X8173634Y-17189341D02*
X8164110Y-17170294D01*
X8164110Y-17170294D02*
X8164110Y-17113151D01*
X8164110Y-17113151D02*
X8173634Y-17094103D01*
X8173634Y-17094103D02*
X8183158Y-17084579D01*
X8183158Y-17084579D02*
X8202205Y-17075055D01*
X8202205Y-17075055D02*
X8230777Y-17075055D01*
X8230777Y-17075055D02*
X8249825Y-17084579D01*
X8249825Y-17084579D02*
X8259348Y-17094103D01*
X8259348Y-17094103D02*
X8268872Y-17113151D01*
X8268872Y-17113151D02*
X8268872Y-17170294D01*
X8268872Y-17170294D02*
X8259348Y-17189341D01*
X8259348Y-17189341D02*
X8249825Y-17198865D01*
X8249825Y-17198865D02*
X8230777Y-17208389D01*
X8230777Y-17208389D02*
X8202205Y-17208389D01*
X8383158Y-17208389D02*
X8364110Y-17198865D01*
X8364110Y-17198865D02*
X8354586Y-17179817D01*
X8354586Y-17179817D02*
X8354586Y-17008389D01*
X8535539Y-17198865D02*
X8516491Y-17208389D01*
X8516491Y-17208389D02*
X8478396Y-17208389D01*
X8478396Y-17208389D02*
X8459348Y-17198865D01*
X8459348Y-17198865D02*
X8449825Y-17179817D01*
X8449825Y-17179817D02*
X8449825Y-17103627D01*
X8449825Y-17103627D02*
X8459348Y-17084579D01*
X8459348Y-17084579D02*
X8478396Y-17075055D01*
X8478396Y-17075055D02*
X8516491Y-17075055D01*
X8516491Y-17075055D02*
X8535539Y-17084579D01*
X8535539Y-17084579D02*
X8545063Y-17103627D01*
X8545063Y-17103627D02*
X8545063Y-17122675D01*
X8545063Y-17122675D02*
X8449825Y-17141722D01*
X8621253Y-17198865D02*
X8640301Y-17208389D01*
X8640301Y-17208389D02*
X8678396Y-17208389D01*
X8678396Y-17208389D02*
X8697444Y-17198865D01*
X8697444Y-17198865D02*
X8706968Y-17179817D01*
X8706968Y-17179817D02*
X8706968Y-17170294D01*
X8706968Y-17170294D02*
X8697444Y-17151246D01*
X8697444Y-17151246D02*
X8678396Y-17141722D01*
X8678396Y-17141722D02*
X8649825Y-17141722D01*
X8649825Y-17141722D02*
X8630777Y-17132198D01*
X8630777Y-17132198D02*
X8621253Y-17113151D01*
X8621253Y-17113151D02*
X8621253Y-17103627D01*
X8621253Y-17103627D02*
X8630777Y-17084579D01*
X8630777Y-17084579D02*
X8649825Y-17075055D01*
X8649825Y-17075055D02*
X8678396Y-17075055D01*
X8678396Y-17075055D02*
X8697444Y-17084579D01*
X8773634Y-17284579D02*
X8783158Y-17275055D01*
X8783158Y-17275055D02*
X8802206Y-17246484D01*
X8802206Y-17246484D02*
X8811729Y-17227436D01*
X8811729Y-17227436D02*
X8821253Y-17198865D01*
X8821253Y-17198865D02*
X8830777Y-17151246D01*
X8830777Y-17151246D02*
X8830777Y-17113151D01*
X8830777Y-17113151D02*
X8821253Y-17065532D01*
X8821253Y-17065532D02*
X8811729Y-17036960D01*
X8811729Y-17036960D02*
X8802206Y-17017913D01*
X8802206Y-17017913D02*
X8783158Y-16989341D01*
X8783158Y-16989341D02*
X8773634Y-16979817D01*
X9135539Y-17284579D02*
X9126015Y-17275055D01*
X9126015Y-17275055D02*
X9106968Y-17246484D01*
X9106968Y-17246484D02*
X9097444Y-17227436D01*
X9097444Y-17227436D02*
X9087920Y-17198865D01*
X9087920Y-17198865D02*
X9078396Y-17151246D01*
X9078396Y-17151246D02*
X9078396Y-17113151D01*
X9078396Y-17113151D02*
X9087920Y-17065532D01*
X9087920Y-17065532D02*
X9097444Y-17036960D01*
X9097444Y-17036960D02*
X9106968Y-17017913D01*
X9106968Y-17017913D02*
X9126015Y-16989341D01*
X9126015Y-16989341D02*
X9135539Y-16979817D01*
X9211729Y-17075055D02*
X9211729Y-17208389D01*
X9211729Y-17094103D02*
X9221253Y-17084579D01*
X9221253Y-17084579D02*
X9240301Y-17075055D01*
X9240301Y-17075055D02*
X9268872Y-17075055D01*
X9268872Y-17075055D02*
X9287920Y-17084579D01*
X9287920Y-17084579D02*
X9297444Y-17103627D01*
X9297444Y-17103627D02*
X9297444Y-17208389D01*
X9421253Y-17208389D02*
X9402206Y-17198865D01*
X9402206Y-17198865D02*
X9392682Y-17189341D01*
X9392682Y-17189341D02*
X9383158Y-17170294D01*
X9383158Y-17170294D02*
X9383158Y-17113151D01*
X9383158Y-17113151D02*
X9392682Y-17094103D01*
X9392682Y-17094103D02*
X9402206Y-17084579D01*
X9402206Y-17084579D02*
X9421253Y-17075055D01*
X9421253Y-17075055D02*
X9449825Y-17075055D01*
X9449825Y-17075055D02*
X9468872Y-17084579D01*
X9468872Y-17084579D02*
X9478396Y-17094103D01*
X9478396Y-17094103D02*
X9487920Y-17113151D01*
X9487920Y-17113151D02*
X9487920Y-17170294D01*
X9487920Y-17170294D02*
X9478396Y-17189341D01*
X9478396Y-17189341D02*
X9468872Y-17198865D01*
X9468872Y-17198865D02*
X9449825Y-17208389D01*
X9449825Y-17208389D02*
X9421253Y-17208389D01*
X9545063Y-17075055D02*
X9621253Y-17075055D01*
X9573634Y-17008389D02*
X9573634Y-17179817D01*
X9573634Y-17179817D02*
X9583158Y-17198865D01*
X9583158Y-17198865D02*
X9602206Y-17208389D01*
X9602206Y-17208389D02*
X9621253Y-17208389D01*
X9840301Y-17075055D02*
X9840301Y-17275055D01*
X9840301Y-17084579D02*
X9859349Y-17075055D01*
X9859349Y-17075055D02*
X9897444Y-17075055D01*
X9897444Y-17075055D02*
X9916491Y-17084579D01*
X9916491Y-17084579D02*
X9926015Y-17094103D01*
X9926015Y-17094103D02*
X9935539Y-17113151D01*
X9935539Y-17113151D02*
X9935539Y-17170294D01*
X9935539Y-17170294D02*
X9926015Y-17189341D01*
X9926015Y-17189341D02*
X9916491Y-17198865D01*
X9916491Y-17198865D02*
X9897444Y-17208389D01*
X9897444Y-17208389D02*
X9859349Y-17208389D01*
X9859349Y-17208389D02*
X9840301Y-17198865D01*
X10049825Y-17208389D02*
X10030777Y-17198865D01*
X10030777Y-17198865D02*
X10021253Y-17179817D01*
X10021253Y-17179817D02*
X10021253Y-17008389D01*
X10211730Y-17208389D02*
X10211730Y-17103627D01*
X10211730Y-17103627D02*
X10202206Y-17084579D01*
X10202206Y-17084579D02*
X10183158Y-17075055D01*
X10183158Y-17075055D02*
X10145063Y-17075055D01*
X10145063Y-17075055D02*
X10126015Y-17084579D01*
X10211730Y-17198865D02*
X10192682Y-17208389D01*
X10192682Y-17208389D02*
X10145063Y-17208389D01*
X10145063Y-17208389D02*
X10126015Y-17198865D01*
X10126015Y-17198865D02*
X10116491Y-17179817D01*
X10116491Y-17179817D02*
X10116491Y-17160770D01*
X10116491Y-17160770D02*
X10126015Y-17141722D01*
X10126015Y-17141722D02*
X10145063Y-17132198D01*
X10145063Y-17132198D02*
X10192682Y-17132198D01*
X10192682Y-17132198D02*
X10211730Y-17122675D01*
X10278396Y-17075055D02*
X10354587Y-17075055D01*
X10306968Y-17008389D02*
X10306968Y-17179817D01*
X10306968Y-17179817D02*
X10316491Y-17198865D01*
X10316491Y-17198865D02*
X10335539Y-17208389D01*
X10335539Y-17208389D02*
X10354587Y-17208389D01*
X10497444Y-17198865D02*
X10478396Y-17208389D01*
X10478396Y-17208389D02*
X10440301Y-17208389D01*
X10440301Y-17208389D02*
X10421253Y-17198865D01*
X10421253Y-17198865D02*
X10411730Y-17179817D01*
X10411730Y-17179817D02*
X10411730Y-17103627D01*
X10411730Y-17103627D02*
X10421253Y-17084579D01*
X10421253Y-17084579D02*
X10440301Y-17075055D01*
X10440301Y-17075055D02*
X10478396Y-17075055D01*
X10478396Y-17075055D02*
X10497444Y-17084579D01*
X10497444Y-17084579D02*
X10506968Y-17103627D01*
X10506968Y-17103627D02*
X10506968Y-17122675D01*
X10506968Y-17122675D02*
X10411730Y-17141722D01*
X10678396Y-17208389D02*
X10678396Y-17008389D01*
X10678396Y-17198865D02*
X10659349Y-17208389D01*
X10659349Y-17208389D02*
X10621253Y-17208389D01*
X10621253Y-17208389D02*
X10602206Y-17198865D01*
X10602206Y-17198865D02*
X10592682Y-17189341D01*
X10592682Y-17189341D02*
X10583158Y-17170294D01*
X10583158Y-17170294D02*
X10583158Y-17113151D01*
X10583158Y-17113151D02*
X10592682Y-17094103D01*
X10592682Y-17094103D02*
X10602206Y-17084579D01*
X10602206Y-17084579D02*
X10621253Y-17075055D01*
X10621253Y-17075055D02*
X10659349Y-17075055D01*
X10659349Y-17075055D02*
X10678396Y-17084579D01*
X10754587Y-17284579D02*
X10764111Y-17275055D01*
X10764111Y-17275055D02*
X10783158Y-17246484D01*
X10783158Y-17246484D02*
X10792682Y-17227436D01*
X10792682Y-17227436D02*
X10802206Y-17198865D01*
X10802206Y-17198865D02*
X10811730Y-17151246D01*
X10811730Y-17151246D02*
X10811730Y-17113151D01*
X10811730Y-17113151D02*
X10802206Y-17065532D01*
X10802206Y-17065532D02*
X10792682Y-17036960D01*
X10792682Y-17036960D02*
X10783158Y-17017913D01*
X10783158Y-17017913D02*
X10764111Y-16989341D01*
X10764111Y-16989341D02*
X10754587Y-16979817D01*
X3778806Y-17507616D02*
X3778806Y-17366194D01*
X3637384Y-17366194D01*
X3637384Y-17507616D01*
X3778806Y-17507616D01*
X4154586Y-17395055D02*
X4154586Y-17528389D01*
X4106967Y-17318865D02*
X4059348Y-17461722D01*
X4059348Y-17461722D02*
X4183157Y-17461722D01*
X4259348Y-17509341D02*
X4268872Y-17518865D01*
X4268872Y-17518865D02*
X4259348Y-17528389D01*
X4259348Y-17528389D02*
X4249824Y-17518865D01*
X4249824Y-17518865D02*
X4259348Y-17509341D01*
X4259348Y-17509341D02*
X4259348Y-17528389D01*
X4392681Y-17328389D02*
X4411729Y-17328389D01*
X4411729Y-17328389D02*
X4430777Y-17337913D01*
X4430777Y-17337913D02*
X4440300Y-17347436D01*
X4440300Y-17347436D02*
X4449824Y-17366484D01*
X4449824Y-17366484D02*
X4459348Y-17404579D01*
X4459348Y-17404579D02*
X4459348Y-17452198D01*
X4459348Y-17452198D02*
X4449824Y-17490294D01*
X4449824Y-17490294D02*
X4440300Y-17509341D01*
X4440300Y-17509341D02*
X4430777Y-17518865D01*
X4430777Y-17518865D02*
X4411729Y-17528389D01*
X4411729Y-17528389D02*
X4392681Y-17528389D01*
X4392681Y-17528389D02*
X4373634Y-17518865D01*
X4373634Y-17518865D02*
X4364110Y-17509341D01*
X4364110Y-17509341D02*
X4354586Y-17490294D01*
X4354586Y-17490294D02*
X4345062Y-17452198D01*
X4345062Y-17452198D02*
X4345062Y-17404579D01*
X4345062Y-17404579D02*
X4354586Y-17366484D01*
X4354586Y-17366484D02*
X4364110Y-17347436D01*
X4364110Y-17347436D02*
X4373634Y-17337913D01*
X4373634Y-17337913D02*
X4392681Y-17328389D01*
X4583158Y-17328389D02*
X4602205Y-17328389D01*
X4602205Y-17328389D02*
X4621253Y-17337913D01*
X4621253Y-17337913D02*
X4630777Y-17347436D01*
X4630777Y-17347436D02*
X4640300Y-17366484D01*
X4640300Y-17366484D02*
X4649824Y-17404579D01*
X4649824Y-17404579D02*
X4649824Y-17452198D01*
X4649824Y-17452198D02*
X4640300Y-17490294D01*
X4640300Y-17490294D02*
X4630777Y-17509341D01*
X4630777Y-17509341D02*
X4621253Y-17518865D01*
X4621253Y-17518865D02*
X4602205Y-17528389D01*
X4602205Y-17528389D02*
X4583158Y-17528389D01*
X4583158Y-17528389D02*
X4564110Y-17518865D01*
X4564110Y-17518865D02*
X4554586Y-17509341D01*
X4554586Y-17509341D02*
X4545062Y-17490294D01*
X4545062Y-17490294D02*
X4535539Y-17452198D01*
X4535539Y-17452198D02*
X4535539Y-17404579D01*
X4535539Y-17404579D02*
X4545062Y-17366484D01*
X4545062Y-17366484D02*
X4554586Y-17347436D01*
X4554586Y-17347436D02*
X4564110Y-17337913D01*
X4564110Y-17337913D02*
X4583158Y-17328389D01*
X4773634Y-17328389D02*
X4792681Y-17328389D01*
X4792681Y-17328389D02*
X4811729Y-17337913D01*
X4811729Y-17337913D02*
X4821253Y-17347436D01*
X4821253Y-17347436D02*
X4830777Y-17366484D01*
X4830777Y-17366484D02*
X4840300Y-17404579D01*
X4840300Y-17404579D02*
X4840300Y-17452198D01*
X4840300Y-17452198D02*
X4830777Y-17490294D01*
X4830777Y-17490294D02*
X4821253Y-17509341D01*
X4821253Y-17509341D02*
X4811729Y-17518865D01*
X4811729Y-17518865D02*
X4792681Y-17528389D01*
X4792681Y-17528389D02*
X4773634Y-17528389D01*
X4773634Y-17528389D02*
X4754586Y-17518865D01*
X4754586Y-17518865D02*
X4745062Y-17509341D01*
X4745062Y-17509341D02*
X4735539Y-17490294D01*
X4735539Y-17490294D02*
X4726015Y-17452198D01*
X4726015Y-17452198D02*
X4726015Y-17404579D01*
X4726015Y-17404579D02*
X4735539Y-17366484D01*
X4735539Y-17366484D02*
X4745062Y-17347436D01*
X4745062Y-17347436D02*
X4754586Y-17337913D01*
X4754586Y-17337913D02*
X4773634Y-17328389D01*
X4926015Y-17528389D02*
X4926015Y-17395055D01*
X4926015Y-17414103D02*
X4935539Y-17404579D01*
X4935539Y-17404579D02*
X4954586Y-17395055D01*
X4954586Y-17395055D02*
X4983158Y-17395055D01*
X4983158Y-17395055D02*
X5002205Y-17404579D01*
X5002205Y-17404579D02*
X5011729Y-17423627D01*
X5011729Y-17423627D02*
X5011729Y-17528389D01*
X5011729Y-17423627D02*
X5021253Y-17404579D01*
X5021253Y-17404579D02*
X5040300Y-17395055D01*
X5040300Y-17395055D02*
X5068872Y-17395055D01*
X5068872Y-17395055D02*
X5087920Y-17404579D01*
X5087920Y-17404579D02*
X5097443Y-17423627D01*
X5097443Y-17423627D02*
X5097443Y-17528389D01*
X5192681Y-17528389D02*
X5192681Y-17395055D01*
X5192681Y-17414103D02*
X5202205Y-17404579D01*
X5202205Y-17404579D02*
X5221253Y-17395055D01*
X5221253Y-17395055D02*
X5249824Y-17395055D01*
X5249824Y-17395055D02*
X5268872Y-17404579D01*
X5268872Y-17404579D02*
X5278396Y-17423627D01*
X5278396Y-17423627D02*
X5278396Y-17528389D01*
X5278396Y-17423627D02*
X5287920Y-17404579D01*
X5287920Y-17404579D02*
X5306967Y-17395055D01*
X5306967Y-17395055D02*
X5335539Y-17395055D01*
X5335539Y-17395055D02*
X5354586Y-17404579D01*
X5354586Y-17404579D02*
X5364110Y-17423627D01*
X5364110Y-17423627D02*
X5364110Y-17528389D01*
X5754586Y-17318865D02*
X5583158Y-17576008D01*
X6011729Y-17328389D02*
X6030777Y-17328389D01*
X6030777Y-17328389D02*
X6049824Y-17337913D01*
X6049824Y-17337913D02*
X6059348Y-17347436D01*
X6059348Y-17347436D02*
X6068872Y-17366484D01*
X6068872Y-17366484D02*
X6078396Y-17404579D01*
X6078396Y-17404579D02*
X6078396Y-17452198D01*
X6078396Y-17452198D02*
X6068872Y-17490294D01*
X6068872Y-17490294D02*
X6059348Y-17509341D01*
X6059348Y-17509341D02*
X6049824Y-17518865D01*
X6049824Y-17518865D02*
X6030777Y-17528389D01*
X6030777Y-17528389D02*
X6011729Y-17528389D01*
X6011729Y-17528389D02*
X5992681Y-17518865D01*
X5992681Y-17518865D02*
X5983158Y-17509341D01*
X5983158Y-17509341D02*
X5973634Y-17490294D01*
X5973634Y-17490294D02*
X5964110Y-17452198D01*
X5964110Y-17452198D02*
X5964110Y-17404579D01*
X5964110Y-17404579D02*
X5973634Y-17366484D01*
X5973634Y-17366484D02*
X5983158Y-17347436D01*
X5983158Y-17347436D02*
X5992681Y-17337913D01*
X5992681Y-17337913D02*
X6011729Y-17328389D01*
X6164110Y-17509341D02*
X6173634Y-17518865D01*
X6173634Y-17518865D02*
X6164110Y-17528389D01*
X6164110Y-17528389D02*
X6154586Y-17518865D01*
X6154586Y-17518865D02*
X6164110Y-17509341D01*
X6164110Y-17509341D02*
X6164110Y-17528389D01*
X6364110Y-17528389D02*
X6249824Y-17528389D01*
X6306967Y-17528389D02*
X6306967Y-17328389D01*
X6306967Y-17328389D02*
X6287920Y-17356960D01*
X6287920Y-17356960D02*
X6268872Y-17376008D01*
X6268872Y-17376008D02*
X6249824Y-17385532D01*
X6545062Y-17328389D02*
X6449824Y-17328389D01*
X6449824Y-17328389D02*
X6440301Y-17423627D01*
X6440301Y-17423627D02*
X6449824Y-17414103D01*
X6449824Y-17414103D02*
X6468872Y-17404579D01*
X6468872Y-17404579D02*
X6516491Y-17404579D01*
X6516491Y-17404579D02*
X6535539Y-17414103D01*
X6535539Y-17414103D02*
X6545062Y-17423627D01*
X6545062Y-17423627D02*
X6554586Y-17442675D01*
X6554586Y-17442675D02*
X6554586Y-17490294D01*
X6554586Y-17490294D02*
X6545062Y-17509341D01*
X6545062Y-17509341D02*
X6535539Y-17518865D01*
X6535539Y-17518865D02*
X6516491Y-17528389D01*
X6516491Y-17528389D02*
X6468872Y-17528389D01*
X6468872Y-17528389D02*
X6449824Y-17518865D01*
X6449824Y-17518865D02*
X6440301Y-17509341D01*
X6621253Y-17328389D02*
X6754586Y-17328389D01*
X6754586Y-17328389D02*
X6668872Y-17528389D01*
X6926015Y-17328389D02*
X6830777Y-17328389D01*
X6830777Y-17328389D02*
X6821253Y-17423627D01*
X6821253Y-17423627D02*
X6830777Y-17414103D01*
X6830777Y-17414103D02*
X6849824Y-17404579D01*
X6849824Y-17404579D02*
X6897443Y-17404579D01*
X6897443Y-17404579D02*
X6916491Y-17414103D01*
X6916491Y-17414103D02*
X6926015Y-17423627D01*
X6926015Y-17423627D02*
X6935539Y-17442675D01*
X6935539Y-17442675D02*
X6935539Y-17490294D01*
X6935539Y-17490294D02*
X6926015Y-17509341D01*
X6926015Y-17509341D02*
X6916491Y-17518865D01*
X6916491Y-17518865D02*
X6897443Y-17528389D01*
X6897443Y-17528389D02*
X6849824Y-17528389D01*
X6849824Y-17528389D02*
X6830777Y-17518865D01*
X6830777Y-17518865D02*
X6821253Y-17509341D01*
X7011729Y-17328389D02*
X7011729Y-17366484D01*
X7087920Y-17328389D02*
X7087920Y-17366484D01*
X7383158Y-17604579D02*
X7373634Y-17595055D01*
X7373634Y-17595055D02*
X7354586Y-17566484D01*
X7354586Y-17566484D02*
X7345063Y-17547436D01*
X7345063Y-17547436D02*
X7335539Y-17518865D01*
X7335539Y-17518865D02*
X7326015Y-17471246D01*
X7326015Y-17471246D02*
X7326015Y-17433151D01*
X7326015Y-17433151D02*
X7335539Y-17385532D01*
X7335539Y-17385532D02*
X7345063Y-17356960D01*
X7345063Y-17356960D02*
X7354586Y-17337913D01*
X7354586Y-17337913D02*
X7373634Y-17309341D01*
X7373634Y-17309341D02*
X7383158Y-17299817D01*
X7487920Y-17414103D02*
X7468872Y-17404579D01*
X7468872Y-17404579D02*
X7459348Y-17395055D01*
X7459348Y-17395055D02*
X7449824Y-17376008D01*
X7449824Y-17376008D02*
X7449824Y-17366484D01*
X7449824Y-17366484D02*
X7459348Y-17347436D01*
X7459348Y-17347436D02*
X7468872Y-17337913D01*
X7468872Y-17337913D02*
X7487920Y-17328389D01*
X7487920Y-17328389D02*
X7526015Y-17328389D01*
X7526015Y-17328389D02*
X7545063Y-17337913D01*
X7545063Y-17337913D02*
X7554586Y-17347436D01*
X7554586Y-17347436D02*
X7564110Y-17366484D01*
X7564110Y-17366484D02*
X7564110Y-17376008D01*
X7564110Y-17376008D02*
X7554586Y-17395055D01*
X7554586Y-17395055D02*
X7545063Y-17404579D01*
X7545063Y-17404579D02*
X7526015Y-17414103D01*
X7526015Y-17414103D02*
X7487920Y-17414103D01*
X7487920Y-17414103D02*
X7468872Y-17423627D01*
X7468872Y-17423627D02*
X7459348Y-17433151D01*
X7459348Y-17433151D02*
X7449824Y-17452198D01*
X7449824Y-17452198D02*
X7449824Y-17490294D01*
X7449824Y-17490294D02*
X7459348Y-17509341D01*
X7459348Y-17509341D02*
X7468872Y-17518865D01*
X7468872Y-17518865D02*
X7487920Y-17528389D01*
X7487920Y-17528389D02*
X7526015Y-17528389D01*
X7526015Y-17528389D02*
X7545063Y-17518865D01*
X7545063Y-17518865D02*
X7554586Y-17509341D01*
X7554586Y-17509341D02*
X7564110Y-17490294D01*
X7564110Y-17490294D02*
X7564110Y-17452198D01*
X7564110Y-17452198D02*
X7554586Y-17433151D01*
X7554586Y-17433151D02*
X7545063Y-17423627D01*
X7545063Y-17423627D02*
X7526015Y-17414103D01*
X7802205Y-17528389D02*
X7802205Y-17328389D01*
X7887920Y-17528389D02*
X7887920Y-17423627D01*
X7887920Y-17423627D02*
X7878396Y-17404579D01*
X7878396Y-17404579D02*
X7859348Y-17395055D01*
X7859348Y-17395055D02*
X7830777Y-17395055D01*
X7830777Y-17395055D02*
X7811729Y-17404579D01*
X7811729Y-17404579D02*
X7802205Y-17414103D01*
X8011729Y-17528389D02*
X7992682Y-17518865D01*
X7992682Y-17518865D02*
X7983158Y-17509341D01*
X7983158Y-17509341D02*
X7973634Y-17490294D01*
X7973634Y-17490294D02*
X7973634Y-17433151D01*
X7973634Y-17433151D02*
X7983158Y-17414103D01*
X7983158Y-17414103D02*
X7992682Y-17404579D01*
X7992682Y-17404579D02*
X8011729Y-17395055D01*
X8011729Y-17395055D02*
X8040301Y-17395055D01*
X8040301Y-17395055D02*
X8059348Y-17404579D01*
X8059348Y-17404579D02*
X8068872Y-17414103D01*
X8068872Y-17414103D02*
X8078396Y-17433151D01*
X8078396Y-17433151D02*
X8078396Y-17490294D01*
X8078396Y-17490294D02*
X8068872Y-17509341D01*
X8068872Y-17509341D02*
X8059348Y-17518865D01*
X8059348Y-17518865D02*
X8040301Y-17528389D01*
X8040301Y-17528389D02*
X8011729Y-17528389D01*
X8192682Y-17528389D02*
X8173634Y-17518865D01*
X8173634Y-17518865D02*
X8164110Y-17499817D01*
X8164110Y-17499817D02*
X8164110Y-17328389D01*
X8345063Y-17518865D02*
X8326015Y-17528389D01*
X8326015Y-17528389D02*
X8287920Y-17528389D01*
X8287920Y-17528389D02*
X8268872Y-17518865D01*
X8268872Y-17518865D02*
X8259348Y-17499817D01*
X8259348Y-17499817D02*
X8259348Y-17423627D01*
X8259348Y-17423627D02*
X8268872Y-17404579D01*
X8268872Y-17404579D02*
X8287920Y-17395055D01*
X8287920Y-17395055D02*
X8326015Y-17395055D01*
X8326015Y-17395055D02*
X8345063Y-17404579D01*
X8345063Y-17404579D02*
X8354586Y-17423627D01*
X8354586Y-17423627D02*
X8354586Y-17442675D01*
X8354586Y-17442675D02*
X8259348Y-17461722D01*
X8430777Y-17518865D02*
X8449825Y-17528389D01*
X8449825Y-17528389D02*
X8487920Y-17528389D01*
X8487920Y-17528389D02*
X8506968Y-17518865D01*
X8506968Y-17518865D02*
X8516491Y-17499817D01*
X8516491Y-17499817D02*
X8516491Y-17490294D01*
X8516491Y-17490294D02*
X8506968Y-17471246D01*
X8506968Y-17471246D02*
X8487920Y-17461722D01*
X8487920Y-17461722D02*
X8459348Y-17461722D01*
X8459348Y-17461722D02*
X8440301Y-17452198D01*
X8440301Y-17452198D02*
X8430777Y-17433151D01*
X8430777Y-17433151D02*
X8430777Y-17423627D01*
X8430777Y-17423627D02*
X8440301Y-17404579D01*
X8440301Y-17404579D02*
X8459348Y-17395055D01*
X8459348Y-17395055D02*
X8487920Y-17395055D01*
X8487920Y-17395055D02*
X8506968Y-17404579D01*
X8583158Y-17604579D02*
X8592682Y-17595055D01*
X8592682Y-17595055D02*
X8611729Y-17566484D01*
X8611729Y-17566484D02*
X8621253Y-17547436D01*
X8621253Y-17547436D02*
X8630777Y-17518865D01*
X8630777Y-17518865D02*
X8640301Y-17471246D01*
X8640301Y-17471246D02*
X8640301Y-17433151D01*
X8640301Y-17433151D02*
X8630777Y-17385532D01*
X8630777Y-17385532D02*
X8621253Y-17356960D01*
X8621253Y-17356960D02*
X8611729Y-17337913D01*
X8611729Y-17337913D02*
X8592682Y-17309341D01*
X8592682Y-17309341D02*
X8583158Y-17299817D01*
X8945063Y-17604579D02*
X8935539Y-17595055D01*
X8935539Y-17595055D02*
X8916491Y-17566484D01*
X8916491Y-17566484D02*
X8906968Y-17547436D01*
X8906968Y-17547436D02*
X8897444Y-17518865D01*
X8897444Y-17518865D02*
X8887920Y-17471246D01*
X8887920Y-17471246D02*
X8887920Y-17433151D01*
X8887920Y-17433151D02*
X8897444Y-17385532D01*
X8897444Y-17385532D02*
X8906968Y-17356960D01*
X8906968Y-17356960D02*
X8916491Y-17337913D01*
X8916491Y-17337913D02*
X8935539Y-17309341D01*
X8935539Y-17309341D02*
X8945063Y-17299817D01*
X9021253Y-17395055D02*
X9021253Y-17528389D01*
X9021253Y-17414103D02*
X9030777Y-17404579D01*
X9030777Y-17404579D02*
X9049825Y-17395055D01*
X9049825Y-17395055D02*
X9078396Y-17395055D01*
X9078396Y-17395055D02*
X9097444Y-17404579D01*
X9097444Y-17404579D02*
X9106968Y-17423627D01*
X9106968Y-17423627D02*
X9106968Y-17528389D01*
X9230777Y-17528389D02*
X9211729Y-17518865D01*
X9211729Y-17518865D02*
X9202206Y-17509341D01*
X9202206Y-17509341D02*
X9192682Y-17490294D01*
X9192682Y-17490294D02*
X9192682Y-17433151D01*
X9192682Y-17433151D02*
X9202206Y-17414103D01*
X9202206Y-17414103D02*
X9211729Y-17404579D01*
X9211729Y-17404579D02*
X9230777Y-17395055D01*
X9230777Y-17395055D02*
X9259349Y-17395055D01*
X9259349Y-17395055D02*
X9278396Y-17404579D01*
X9278396Y-17404579D02*
X9287920Y-17414103D01*
X9287920Y-17414103D02*
X9297444Y-17433151D01*
X9297444Y-17433151D02*
X9297444Y-17490294D01*
X9297444Y-17490294D02*
X9287920Y-17509341D01*
X9287920Y-17509341D02*
X9278396Y-17518865D01*
X9278396Y-17518865D02*
X9259349Y-17528389D01*
X9259349Y-17528389D02*
X9230777Y-17528389D01*
X9354587Y-17395055D02*
X9430777Y-17395055D01*
X9383158Y-17328389D02*
X9383158Y-17499817D01*
X9383158Y-17499817D02*
X9392682Y-17518865D01*
X9392682Y-17518865D02*
X9411729Y-17528389D01*
X9411729Y-17528389D02*
X9430777Y-17528389D01*
X9649825Y-17395055D02*
X9649825Y-17595055D01*
X9649825Y-17404579D02*
X9668872Y-17395055D01*
X9668872Y-17395055D02*
X9706968Y-17395055D01*
X9706968Y-17395055D02*
X9726015Y-17404579D01*
X9726015Y-17404579D02*
X9735539Y-17414103D01*
X9735539Y-17414103D02*
X9745063Y-17433151D01*
X9745063Y-17433151D02*
X9745063Y-17490294D01*
X9745063Y-17490294D02*
X9735539Y-17509341D01*
X9735539Y-17509341D02*
X9726015Y-17518865D01*
X9726015Y-17518865D02*
X9706968Y-17528389D01*
X9706968Y-17528389D02*
X9668872Y-17528389D01*
X9668872Y-17528389D02*
X9649825Y-17518865D01*
X9859349Y-17528389D02*
X9840301Y-17518865D01*
X9840301Y-17518865D02*
X9830777Y-17499817D01*
X9830777Y-17499817D02*
X9830777Y-17328389D01*
X10021253Y-17528389D02*
X10021253Y-17423627D01*
X10021253Y-17423627D02*
X10011730Y-17404579D01*
X10011730Y-17404579D02*
X9992682Y-17395055D01*
X9992682Y-17395055D02*
X9954587Y-17395055D01*
X9954587Y-17395055D02*
X9935539Y-17404579D01*
X10021253Y-17518865D02*
X10002206Y-17528389D01*
X10002206Y-17528389D02*
X9954587Y-17528389D01*
X9954587Y-17528389D02*
X9935539Y-17518865D01*
X9935539Y-17518865D02*
X9926015Y-17499817D01*
X9926015Y-17499817D02*
X9926015Y-17480770D01*
X9926015Y-17480770D02*
X9935539Y-17461722D01*
X9935539Y-17461722D02*
X9954587Y-17452198D01*
X9954587Y-17452198D02*
X10002206Y-17452198D01*
X10002206Y-17452198D02*
X10021253Y-17442675D01*
X10087920Y-17395055D02*
X10164110Y-17395055D01*
X10116491Y-17328389D02*
X10116491Y-17499817D01*
X10116491Y-17499817D02*
X10126015Y-17518865D01*
X10126015Y-17518865D02*
X10145063Y-17528389D01*
X10145063Y-17528389D02*
X10164110Y-17528389D01*
X10306968Y-17518865D02*
X10287920Y-17528389D01*
X10287920Y-17528389D02*
X10249825Y-17528389D01*
X10249825Y-17528389D02*
X10230777Y-17518865D01*
X10230777Y-17518865D02*
X10221253Y-17499817D01*
X10221253Y-17499817D02*
X10221253Y-17423627D01*
X10221253Y-17423627D02*
X10230777Y-17404579D01*
X10230777Y-17404579D02*
X10249825Y-17395055D01*
X10249825Y-17395055D02*
X10287920Y-17395055D01*
X10287920Y-17395055D02*
X10306968Y-17404579D01*
X10306968Y-17404579D02*
X10316491Y-17423627D01*
X10316491Y-17423627D02*
X10316491Y-17442675D01*
X10316491Y-17442675D02*
X10221253Y-17461722D01*
X10487920Y-17528389D02*
X10487920Y-17328389D01*
X10487920Y-17518865D02*
X10468872Y-17528389D01*
X10468872Y-17528389D02*
X10430777Y-17528389D01*
X10430777Y-17528389D02*
X10411730Y-17518865D01*
X10411730Y-17518865D02*
X10402206Y-17509341D01*
X10402206Y-17509341D02*
X10392682Y-17490294D01*
X10392682Y-17490294D02*
X10392682Y-17433151D01*
X10392682Y-17433151D02*
X10402206Y-17414103D01*
X10402206Y-17414103D02*
X10411730Y-17404579D01*
X10411730Y-17404579D02*
X10430777Y-17395055D01*
X10430777Y-17395055D02*
X10468872Y-17395055D01*
X10468872Y-17395055D02*
X10487920Y-17404579D01*
X10564111Y-17604579D02*
X10573634Y-17595055D01*
X10573634Y-17595055D02*
X10592682Y-17566484D01*
X10592682Y-17566484D02*
X10602206Y-17547436D01*
X10602206Y-17547436D02*
X10611730Y-17518865D01*
X10611730Y-17518865D02*
X10621253Y-17471246D01*
X10621253Y-17471246D02*
X10621253Y-17433151D01*
X10621253Y-17433151D02*
X10611730Y-17385532D01*
X10611730Y-17385532D02*
X10602206Y-17356960D01*
X10602206Y-17356960D02*
X10592682Y-17337913D01*
X10592682Y-17337913D02*
X10573634Y-17309341D01*
X10573634Y-17309341D02*
X10564111Y-17299817D01*
M02*
