M48
; DRILL file {KiCad 7.0.11} date Thursday, November 21, 2024 at 01:14:28 AM
; FORMAT={-:-/ absolute / metric / decimal}
; #@! TF.CreationDate,2024-11-21T01:14:28-06:00
; #@! TF.GenerationSoftware,Kicad,Pcbnew,7.0.11
; #@! TF.FileFunction,Plated,1,4,PTH
FMAT,2
METRIC
; #@! TA.AperFunction,Plated,PTH,ViaDrill
T1C0.300
; #@! TA.AperFunction,Plated,PTH,ComponentDrill
T2C0.750
; #@! TA.AperFunction,Plated,PTH,ComponentDrill
T3C0.800
; #@! TA.AperFunction,Plated,PTH,ComponentDrill
T4C1.000
; #@! TA.AperFunction,Plated,PTH,ComponentDrill
T5C1.100
; #@! TA.AperFunction,Plated,PTH,ComponentDrill
T6C1.200
; #@! TA.AperFunction,Plated,PTH,ComponentDrill
T7C1.400
; #@! TA.AperFunction,Plated,PTH,ComponentDrill
T8C1.500
; #@! TA.AperFunction,Plated,PTH,ComponentDrill
T9C3.000
%
G90
G05
T1
X40.0Y-59.5
X40.377Y-58.377
X42.5Y-60.0
X48.0Y-57.5
X49.0Y-57.5
X49.0Y-156.5
X51.5Y-57.973
X53.0Y-55.973
X54.0Y-58.5
X55.5Y-57.319
X56.0Y-26.5
X56.5Y-57.319
X66.0Y-62.0
X68.0Y-62.5
X68.0Y-156.0
X70.0Y-73.5
X77.5Y-153.513
X77.986Y-131.514
X78.473Y-100.5
X78.499Y-153.027
X78.5Y-131.0
X79.0Y-102.5
X79.0Y-152.5
X79.473Y-130.0
X80.0Y-73.5
X80.0Y-131.854
X80.5Y-79.0
X81.0Y-27.0
X81.097Y-72.903
X82.5Y-72.0
X82.5Y-154.5
X83.0Y-102.0
X83.0Y-125.0
X83.0Y-151.5
X83.5Y-104.5
X83.5Y-127.5
X83.5Y-144.5
X84.0Y-89.0
X84.0Y-99.973
X84.027Y-154.5
X84.227Y-144.5
X85.0Y-72.674
X85.0Y-136.5
X85.0Y-155.554
X86.5Y-22.5
X87.5Y-73.0
X90.5Y-154.5
X91.0Y-117.5
X91.0Y-132.181
X91.5Y-94.0
X91.5Y-99.5
X91.5Y-141.5
X91.5Y-155.5
X92.0Y-112.5
X92.0Y-132.181
X92.446Y-99.972
X92.5Y-89.0
X92.973Y-96.5
X92.973Y-100.5
X93.0Y-120.0
X93.0Y-132.181
X93.5Y-86.5
X93.5Y-101.179
X94.0Y-110.0
X94.0Y-132.181
X100.5Y-137.0
X100.5Y-145.0
X101.0Y-59.0
X106.0Y-86.0
X106.0Y-123.0
X111.0Y-104.5
X111.0Y-142.0
X116.5Y-53.0
X116.5Y-61.5
X117.5Y-54.0
X117.5Y-62.5
X124.0Y-39.5
X124.0Y-59.0
X127.5Y-86.0
X127.5Y-123.0
X132.0Y-104.5
X132.5Y-142.0
X144.0Y-59.0
X146.5Y-24.0
X149.0Y-86.0
X149.0Y-123.0
X154.0Y-104.5
X154.0Y-142.0
X161.0Y-76.993
X162.5Y-77.5
X170.0Y-56.0
X170.5Y-86.0
X170.5Y-123.0
X175.5Y-104.5
X175.5Y-142.0
X185.0Y-60.0
X188.0Y-77.5
X189.0Y-78.0
X192.0Y-86.0
X192.0Y-123.0
X197.0Y-104.5
X197.0Y-142.0
X202.0Y-94.5
X203.5Y-50.446
X207.0Y-50.973
X208.0Y-51.5
X208.5Y-94.5
X213.5Y-86.0
X213.5Y-123.0
X214.5Y-78.0
X216.0Y-79.0
X218.5Y-104.5
X218.5Y-142.0
X225.5Y-31.5
X232.0Y-72.0
X234.5Y-72.5
X235.0Y-86.0
X235.0Y-123.0
X237.5Y-42.527
X237.5Y-49.5
X237.5Y-73.0
X238.5Y-42.0
X238.5Y-49.0
X239.5Y-36.581
X239.5Y-48.5
X240.0Y-49.554
X240.0Y-104.5
X240.0Y-142.0
X240.472Y-36.054
X240.5Y-48.0
X241.0Y-35.527
X241.0Y-46.5
X241.5Y-49.054
X242.0Y-38.0
X242.5Y-35.0
X242.5Y-47.5
X245.0Y-48.554
X247.5Y-48.027
X250.0Y-46.5
X252.5Y-47.5
X252.5Y-75.0
X254.0Y-56.5
X256.5Y-86.0
X256.5Y-123.0
X259.0Y-44.5
X261.0Y-46.5
X261.0Y-104.5
X261.5Y-142.0
X263.5Y-45.5
X266.5Y-42.0
X266.5Y-115.0
X268.0Y-70.5
X268.0Y-139.0
X269.0Y-42.0
X269.0Y-95.5
X270.0Y-56.5
X271.0Y-75.0
X271.0Y-119.5
X271.5Y-63.5
X272.0Y-121.0
X273.0Y-55.527
X274.0Y-156.608
X275.0Y-156.0
X275.5Y-55.0
X276.0Y-126.0
X276.0Y-145.0
X276.5Y-89.0
X276.5Y-107.5
T2
X78.5Y-22.5
X80.5Y-22.5
X82.5Y-22.5
T3
X45.125Y-68.0
X45.125Y-75.62
X47.665Y-68.0
X47.665Y-75.62
X50.205Y-68.0
X50.205Y-75.62
X52.745Y-68.0
X52.745Y-75.62
X55.285Y-68.0
X55.285Y-75.62
X57.825Y-68.0
X57.825Y-75.62
X60.365Y-68.0
X60.365Y-75.62
X62.905Y-68.0
X62.905Y-75.62
X69.91Y-68.0
X69.91Y-75.62
X72.45Y-68.0
X72.45Y-75.62
X74.99Y-68.0
X74.99Y-75.62
X77.53Y-68.0
X77.53Y-75.62
X80.07Y-68.0
X80.07Y-75.62
X80.88Y-86.42
X80.88Y-88.96
X80.88Y-91.5
X80.88Y-94.04
X80.88Y-96.58
X80.88Y-99.12
X80.88Y-101.66
X80.88Y-104.2
X80.88Y-109.76
X80.88Y-112.3
X80.88Y-114.84
X80.88Y-117.38
X80.88Y-119.92
X80.88Y-122.46
X80.88Y-125.0
X80.88Y-127.54
X80.88Y-133.96
X80.88Y-136.5
X80.88Y-139.04
X80.88Y-141.58
X80.88Y-144.12
X80.88Y-146.66
X80.88Y-149.2
X80.88Y-151.74
X82.61Y-68.0
X82.61Y-75.62
X85.15Y-68.0
X85.15Y-75.62
X87.69Y-68.0
X87.69Y-75.62
X88.5Y-86.42
X88.5Y-88.96
X88.5Y-91.5
X88.5Y-94.04
X88.5Y-96.58
X88.5Y-99.12
X88.5Y-101.66
X88.5Y-104.2
X88.5Y-109.76
X88.5Y-112.3
X88.5Y-114.84
X88.5Y-117.38
X88.5Y-119.92
X88.5Y-122.46
X88.5Y-125.0
X88.5Y-127.54
X88.5Y-133.96
X88.5Y-136.5
X88.5Y-139.04
X88.5Y-141.58
X88.5Y-144.12
X88.5Y-146.66
X88.5Y-149.2
X88.5Y-151.74
X125.5Y-24.0
X128.0Y-24.0
T4
X116.5Y-21.26
X119.0Y-26.26
X121.5Y-21.26
X135.0Y-38.5
X135.0Y-53.0
X137.5Y-53.0
X140.0Y-38.5
X140.0Y-53.0
X160.0Y-40.225
X160.0Y-65.225
X162.5Y-40.225
X162.5Y-65.225
X165.0Y-40.225
X165.0Y-65.225
X186.75Y-40.5
X186.75Y-65.225
X189.25Y-40.5
X189.25Y-65.225
X191.75Y-40.5
X191.75Y-65.225
X213.5Y-40.5
X213.5Y-65.225
X216.0Y-40.5
X216.0Y-65.225
X218.5Y-40.5
X218.5Y-65.225
T5
X149.0Y-23.69
X149.0Y-31.31
X228.42Y-53.0
X228.42Y-68.24
X230.96Y-53.0
X230.96Y-68.24
X233.5Y-53.0
X233.5Y-68.24
X236.04Y-53.0
X236.04Y-68.24
X238.58Y-53.0
X238.58Y-68.24
X241.12Y-53.0
X241.12Y-68.24
X243.66Y-53.0
X243.66Y-68.24
X246.2Y-53.0
X246.2Y-68.24
X248.74Y-53.0
X248.74Y-68.24
X251.28Y-53.0
X251.28Y-68.24
X253.82Y-53.0
X253.82Y-68.24
X256.36Y-53.0
X256.36Y-68.24
X258.9Y-53.0
X258.9Y-68.24
X261.44Y-53.0
X261.44Y-68.24
X263.98Y-53.0
X263.98Y-68.24
X266.52Y-53.0
X266.52Y-68.24
X269.06Y-53.0
X269.06Y-68.24
X271.6Y-53.0
X271.6Y-68.24
X274.14Y-53.0
X274.14Y-68.24
X276.68Y-53.0
X276.68Y-68.24
T6
X50.75Y-31.0
X53.29Y-31.0
X55.83Y-31.0
X58.37Y-31.0
X60.91Y-31.0
X63.45Y-31.0
X65.99Y-31.0
X68.53Y-31.0
X71.07Y-31.0
X73.61Y-31.0
X76.15Y-31.0
X78.69Y-31.0
X81.23Y-31.0
X83.77Y-31.0
X86.31Y-31.0
X88.85Y-31.0
X98.0Y-91.3
X98.0Y-128.539
X103.0Y-93.4
X103.0Y-130.639
X108.75Y-109.92
X108.75Y-147.159
X113.75Y-112.02
X113.75Y-149.259
X119.5Y-91.3
X119.5Y-128.539
X124.5Y-93.4
X124.5Y-130.639
X130.25Y-109.92
X130.25Y-147.159
X135.25Y-112.02
X135.25Y-149.259
X141.0Y-91.3
X141.0Y-128.539
X146.0Y-93.4
X146.0Y-130.639
X151.75Y-109.92
X151.75Y-147.159
X156.75Y-112.02
X156.75Y-149.259
X162.5Y-91.3
X162.5Y-128.539
X167.5Y-93.4
X167.5Y-130.639
X173.25Y-109.92
X173.25Y-147.159
X178.25Y-112.02
X178.25Y-149.259
X184.0Y-91.3
X184.0Y-128.539
X189.0Y-93.4
X189.0Y-130.639
X194.75Y-109.92
X194.75Y-147.159
X199.75Y-112.02
X199.75Y-149.259
X205.5Y-91.3
X205.5Y-128.539
X210.5Y-93.4
X210.5Y-130.639
X216.25Y-109.92
X216.25Y-147.159
X221.25Y-112.02
X221.25Y-149.259
X227.0Y-91.3
X227.0Y-128.539
X232.0Y-93.4
X232.0Y-130.639
X237.75Y-109.92
X237.75Y-147.159
X242.75Y-112.02
X242.75Y-149.259
X248.5Y-91.3
X248.5Y-128.539
X253.5Y-93.4
X253.5Y-130.639
X259.25Y-109.92
X259.25Y-147.159
X264.25Y-112.02
X264.25Y-149.259
T7
X228.722Y-26.3
X228.722Y-32.65
X228.722Y-39.0
X244.952Y-26.3
X244.952Y-32.65
X244.952Y-39.0
X255.656Y-26.3
X255.656Y-32.65
X255.656Y-39.0
X271.886Y-26.3
X271.886Y-32.65
X271.886Y-39.0
T8
X48.9Y-83.351
X48.9Y-101.971
X48.9Y-120.59
X48.9Y-139.21
X55.25Y-80.811
X55.25Y-99.431
X55.25Y-118.05
X55.25Y-136.67
X67.86Y-83.351
X67.86Y-101.971
X67.86Y-120.59
X67.86Y-139.21
X74.21Y-80.811
X74.21Y-99.431
X74.21Y-118.05
X74.21Y-136.67
T9
X45.251Y-31.0
X45.251Y-62.001
X120.249Y-62.001
X120.25Y-31.0
T4
X138.5Y-27.0G85X136.5Y-27.0
G05
X138.5Y-33.0G85X136.5Y-33.0
G05
X142.2Y-29.0G85X142.2Y-31.0
G05
T5
X157.7Y-33.075G85X157.7Y-32.375
G05
X157.7Y-58.075G85X157.7Y-57.375
G05
X167.3Y-33.075G85X167.3Y-32.375
G05
X167.3Y-58.075G85X167.3Y-57.375
G05
X184.45Y-33.35G85X184.45Y-32.65
G05
X184.45Y-58.075G85X184.45Y-57.375
G05
X194.05Y-33.35G85X194.05Y-32.65
G05
X194.05Y-58.075G85X194.05Y-57.375
G05
X211.2Y-33.35G85X211.2Y-32.65
G05
X211.2Y-58.075G85X211.2Y-57.375
G05
X220.8Y-33.35G85X220.8Y-32.65
G05
X220.8Y-58.075G85X220.8Y-57.375
G05
T8
X131.9Y-46.15G85X131.9Y-44.85
G05
X143.1Y-46.15G85X143.1Y-44.85
G05
M30
